<?xml version="1.0" encoding="UTF-8" standalone="no"?>
<!DOCTYPE svg PUBLIC "-//W3C//DTD SVG 1.1//EN"
 "http://www.w3.org/Graphics/SVG/1.1/DTD/svg11.dtd">
<!-- Generated by graphviz version 2.36.0 (20140111.2315)
 -->
<!-- Title: Lang.Diff._Block Pages: 1 -->
<svg width="275pt" height="404pt"
 viewBox="0.00 0.00 275.00 404.00" xmlns="http://www.w3.org/2000/svg" xmlns:xlink="http://www.w3.org/1999/xlink">
<g id="graph0" class="graph" transform="scale(1 1) rotate(0) translate(4 400)">
<title>Lang.Diff._Block</title>
<!-- Node1 -->
<g id="node1" class="node"><title>Node1</title>
<polygon fill="#bfbfbf" stroke="black" points="84.5,-116.5 84.5,-173.5 173.5,-173.5 173.5,-116.5 84.5,-116.5"/>
<text text-anchor="middle" x="129" y="-161.5" font-family="Helvetica,sans-Serif" font-size="10.00">Lang.Diff._Block</text>
<polyline fill="none" stroke="black" points="84.5,-154.5 173.5,-154.5 "/>
<text text-anchor="middle" x="129" y="-142.5" font-family="Helvetica,sans-Serif" font-size="10.00"> </text>
<polyline fill="none" stroke="black" points="84.5,-135.5 173.5,-135.5 "/>
<text text-anchor="middle" x="129" y="-123.5" font-family="Helvetica,sans-Serif" font-size="10.00"> </text>
</g>
<!-- Node4 -->
<g id="node4" class="node"><title>Node4</title>
<g id="a_node4"><a xlink:href="class_lang_1_1_diff_1_1___block_match.html" target="_top" xlink:title="{Lang.Diff._BlockMatch\n||+ __init__()\l+ __getattr__()\l+ __getitem__()\l}">
<polygon fill="none" stroke="black" points="-0.5,-0.5 -0.5,-79.5 116.5,-79.5 116.5,-0.5 -0.5,-0.5"/>
<text text-anchor="middle" x="58" y="-67.5" font-family="Helvetica,sans-Serif" font-size="10.00">Lang.Diff._BlockMatch</text>
<polyline fill="none" stroke="black" points="-0.5,-60.5 116.5,-60.5 "/>
<text text-anchor="middle" x="58" y="-48.5" font-family="Helvetica,sans-Serif" font-size="10.00"> </text>
<polyline fill="none" stroke="black" points="-0.5,-41.5 116.5,-41.5 "/>
<text text-anchor="start" x="7.5" y="-29.5" font-family="Helvetica,sans-Serif" font-size="10.00">+ __init__()</text>
<text text-anchor="start" x="7.5" y="-18.5" font-family="Helvetica,sans-Serif" font-size="10.00">+ __getattr__()</text>
<text text-anchor="start" x="7.5" y="-7.5" font-family="Helvetica,sans-Serif" font-size="10.00">+ __getitem__()</text>
</a>
</g>
</g>
<!-- Node1&#45;&gt;Node4 -->
<g id="edge3" class="edge"><title>Node1&#45;&gt;Node4</title>
<path fill="none" stroke="midnightblue" d="M104.288,-108.15C97.9104,-98.8982 91.0198,-88.902 84.5529,-79.5205"/>
<polygon fill="none" stroke="midnightblue" points="101.416,-110.151 109.973,-116.398 107.18,-106.178 101.416,-110.151"/>
</g>
<!-- Node5 -->
<g id="node5" class="node"><title>Node5</title>
<g id="a_node5"><a xlink:href="class_lang_1_1_diff_1_1___block_mismatch.html" target="_top" xlink:title="{Lang.Diff._BlockMismatch\n||+ __init__()\l}">
<polygon fill="none" stroke="black" points="135,-11.5 135,-68.5 267,-68.5 267,-11.5 135,-11.5"/>
<text text-anchor="middle" x="201" y="-56.5" font-family="Helvetica,sans-Serif" font-size="10.00">Lang.Diff._BlockMismatch</text>
<polyline fill="none" stroke="black" points="135,-49.5 267,-49.5 "/>
<text text-anchor="middle" x="201" y="-37.5" font-family="Helvetica,sans-Serif" font-size="10.00"> </text>
<polyline fill="none" stroke="black" points="135,-30.5 267,-30.5 "/>
<text text-anchor="start" x="143" y="-18.5" font-family="Helvetica,sans-Serif" font-size="10.00">+ __init__()</text>
</a>
</g>
</g>
<!-- Node1&#45;&gt;Node5 -->
<g id="edge4" class="edge"><title>Node1&#45;&gt;Node5</title>
<path fill="none" stroke="midnightblue" d="M154.065,-108.144C163.109,-95.205 173.171,-80.8105 181.652,-68.6783"/>
<polygon fill="none" stroke="midnightblue" points="151.155,-106.197 148.295,-116.398 156.893,-110.207 151.155,-106.197"/>
</g>
<!-- Node2 -->
<g id="node2" class="node"><title>Node2</title>
<g id="a_node2"><a xlink:href="class_lang_1_1_diff_1_1___two_side.html" target="_top" xlink:title="{Lang.Diff._TwoSide\n|+ a\l+ b\l|+ __init__()\l+ __str__()\l+ __repr__()\l}">
<polygon fill="none" stroke="black" points="77,-211 77,-301 181,-301 181,-211 77,-211"/>
<text text-anchor="middle" x="129" y="-289" font-family="Helvetica,sans-Serif" font-size="10.00">Lang.Diff._TwoSide</text>
<polyline fill="none" stroke="black" points="77,-282 181,-282 "/>
<text text-anchor="start" x="85" y="-270" font-family="Helvetica,sans-Serif" font-size="10.00">+ a</text>
<text text-anchor="start" x="85" y="-259" font-family="Helvetica,sans-Serif" font-size="10.00">+ b</text>
<polyline fill="none" stroke="black" points="77,-252 181,-252 "/>
<text text-anchor="start" x="85" y="-240" font-family="Helvetica,sans-Serif" font-size="10.00">+ __init__()</text>
<text text-anchor="start" x="85" y="-229" font-family="Helvetica,sans-Serif" font-size="10.00">+ __str__()</text>
<text text-anchor="start" x="85" y="-218" font-family="Helvetica,sans-Serif" font-size="10.00">+ __repr__()</text>
</a>
</g>
</g>
<!-- Node2&#45;&gt;Node1 -->
<g id="edge1" class="edge"><title>Node2&#45;&gt;Node1</title>
<path fill="none" stroke="midnightblue" d="M129,-200.792C129,-191.35 129,-181.896 129,-173.564"/>
<polygon fill="none" stroke="midnightblue" points="125.5,-200.98 129,-210.98 132.5,-200.98 125.5,-200.98"/>
</g>
<!-- Node3 -->
<g id="node3" class="node"><title>Node3</title>
<g id="a_node3"><a xlink:href="classobject.html" target="_top" xlink:title="{object\n||}">
<polygon fill="none" stroke="black" points="107.5,-338.5 107.5,-395.5 150.5,-395.5 150.5,-338.5 107.5,-338.5"/>
<text text-anchor="middle" x="129" y="-383.5" font-family="Helvetica,sans-Serif" font-size="10.00">object</text>
<polyline fill="none" stroke="black" points="107.5,-376.5 150.5,-376.5 "/>
<text text-anchor="middle" x="129" y="-364.5" font-family="Helvetica,sans-Serif" font-size="10.00"> </text>
<polyline fill="none" stroke="black" points="107.5,-357.5 150.5,-357.5 "/>
<text text-anchor="middle" x="129" y="-345.5" font-family="Helvetica,sans-Serif" font-size="10.00"> </text>
</a>
</g>
</g>
<!-- Node3&#45;&gt;Node2 -->
<g id="edge2" class="edge"><title>Node3&#45;&gt;Node2</title>
<path fill="none" stroke="midnightblue" d="M129,-328.484C129,-319.643 129,-310.139 129,-301.04"/>
<polygon fill="none" stroke="midnightblue" points="125.5,-328.495 129,-338.495 132.5,-328.495 125.5,-328.495"/>
</g>
</g>
</svg>
