<?xml version="1.0" encoding="UTF-8" standalone="no"?>
<!DOCTYPE svg PUBLIC "-//W3C//DTD SVG 1.1//EN"
 "http://www.w3.org/Graphics/SVG/1.1/DTD/svg11.dtd">
<!-- Generated by graphviz version 2.36.0 (20140111.2315)
 -->
<!-- Title: Lang.ClassTools.Patterns._multiton._Multiton_OneEquivalentInstance Pages: 1 -->
<svg width="370pt" height="320pt"
 viewBox="0.00 0.00 370.00 320.00" xmlns="http://www.w3.org/2000/svg" xmlns:xlink="http://www.w3.org/1999/xlink">
<g id="graph0" class="graph" transform="scale(1 1) rotate(0) translate(4 316)">
<title>Lang.ClassTools.Patterns._multiton._Multiton_OneEquivalentInstance</title>
<!-- Node1 -->
<g id="node1" class="node"><title>Node1</title>
<polygon fill="#bfbfbf" stroke="black" points="95,-116.5 95,-217.5 267,-217.5 267,-116.5 95,-116.5"/>
<text text-anchor="start" x="103" y="-205.5" font-family="Helvetica,sans-Serif" font-size="10.00">Lang.ClassTools.Patterns.</text>
<text text-anchor="start" x="103" y="-194.5" font-family="Helvetica,sans-Serif" font-size="10.00">_multiton._Multiton_OneEquivalent</text>
<text text-anchor="middle" x="181" y="-183.5" font-family="Helvetica,sans-Serif" font-size="10.00">Instance</text>
<polyline fill="none" stroke="black" points="95,-176.5 267,-176.5 "/>
<text text-anchor="middle" x="181" y="-164.5" font-family="Helvetica,sans-Serif" font-size="10.00"> </text>
<polyline fill="none" stroke="black" points="95,-157.5 267,-157.5 "/>
<text text-anchor="start" x="103" y="-145.5" font-family="Helvetica,sans-Serif" font-size="10.00">+ getAllClasses()</text>
<text text-anchor="start" x="103" y="-134.5" font-family="Helvetica,sans-Serif" font-size="10.00">+ getAllInstances()</text>
<text text-anchor="start" x="103" y="-123.5" font-family="Helvetica,sans-Serif" font-size="10.00">+ __call__()</text>
</g>
<!-- Node4 -->
<g id="node4" class="node"><title>Node4</title>
<g id="a_node4"><a xlink:href="class_lang_1_1_class_tools_1_1_patterns_1_1__multiton_1_1___multiton___one_equivalent_instance___on_dup_raise_exception.html" target="_top" xlink:title="{Lang.ClassTools.Patterns.\l_multiton._Multiton_OneEquivalent\lInstance_OnDupRaiseException\n||}">
<polygon fill="none" stroke="black" points="0,-0.5 0,-79.5 172,-79.5 172,-0.5 0,-0.5"/>
<text text-anchor="start" x="8" y="-67.5" font-family="Helvetica,sans-Serif" font-size="10.00">Lang.ClassTools.Patterns.</text>
<text text-anchor="start" x="8" y="-56.5" font-family="Helvetica,sans-Serif" font-size="10.00">_multiton._Multiton_OneEquivalent</text>
<text text-anchor="middle" x="86" y="-45.5" font-family="Helvetica,sans-Serif" font-size="10.00">Instance_OnDupRaiseException</text>
<polyline fill="none" stroke="black" points="0,-38.5 172,-38.5 "/>
<text text-anchor="middle" x="86" y="-26.5" font-family="Helvetica,sans-Serif" font-size="10.00"> </text>
<polyline fill="none" stroke="black" points="0,-19.5 172,-19.5 "/>
<text text-anchor="middle" x="86" y="-7.5" font-family="Helvetica,sans-Serif" font-size="10.00"> </text>
</a>
</g>
</g>
<!-- Node1&#45;&gt;Node4 -->
<g id="edge3" class="edge"><title>Node1&#45;&gt;Node4</title>
<path fill="none" stroke="midnightblue" d="M137.079,-108.209C129.765,-98.5852 122.337,-88.8117 115.494,-79.8082"/>
<polygon fill="none" stroke="midnightblue" points="134.343,-110.394 143.181,-116.238 139.916,-106.158 134.343,-110.394"/>
</g>
<!-- Node5 -->
<g id="node5" class="node"><title>Node5</title>
<g id="a_node5"><a xlink:href="class_lang_1_1_class_tools_1_1_patterns_1_1__multiton_1_1___multiton___one_equivalent_instance___on_dup_return_existing.html" target="_top" xlink:title="{Lang.ClassTools.Patterns.\l_multiton._Multiton_OneEquivalent\lInstance_OnDupReturnExisting\n||}">
<polygon fill="none" stroke="black" points="190,-0.5 190,-79.5 362,-79.5 362,-0.5 190,-0.5"/>
<text text-anchor="start" x="198" y="-67.5" font-family="Helvetica,sans-Serif" font-size="10.00">Lang.ClassTools.Patterns.</text>
<text text-anchor="start" x="198" y="-56.5" font-family="Helvetica,sans-Serif" font-size="10.00">_multiton._Multiton_OneEquivalent</text>
<text text-anchor="middle" x="276" y="-45.5" font-family="Helvetica,sans-Serif" font-size="10.00">Instance_OnDupReturnExisting</text>
<polyline fill="none" stroke="black" points="190,-38.5 362,-38.5 "/>
<text text-anchor="middle" x="276" y="-26.5" font-family="Helvetica,sans-Serif" font-size="10.00"> </text>
<polyline fill="none" stroke="black" points="190,-19.5 362,-19.5 "/>
<text text-anchor="middle" x="276" y="-7.5" font-family="Helvetica,sans-Serif" font-size="10.00"> </text>
</a>
</g>
</g>
<!-- Node1&#45;&gt;Node5 -->
<g id="edge4" class="edge"><title>Node1&#45;&gt;Node5</title>
<path fill="none" stroke="midnightblue" d="M224.921,-108.209C232.235,-98.5852 239.663,-88.8117 246.506,-79.8082"/>
<polygon fill="none" stroke="midnightblue" points="222.084,-106.158 218.819,-116.238 227.657,-110.394 222.084,-106.158"/>
</g>
<!-- Node2 -->
<g id="node2" class="node"><title>Node2</title>
<polygon fill="none" stroke="#bfbfbf" points="56.5,-254.5 56.5,-311.5 191.5,-311.5 191.5,-254.5 56.5,-254.5"/>
<text text-anchor="middle" x="124" y="-299.5" font-family="Helvetica,sans-Serif" font-size="10.00">_SingletonMultitonAbstract</text>
<polyline fill="none" stroke="#bfbfbf" points="56.5,-292.5 191.5,-292.5 "/>
<text text-anchor="middle" x="124" y="-280.5" font-family="Helvetica,sans-Serif" font-size="10.00"> </text>
<polyline fill="none" stroke="#bfbfbf" points="56.5,-273.5 191.5,-273.5 "/>
<text text-anchor="middle" x="124" y="-261.5" font-family="Helvetica,sans-Serif" font-size="10.00"> </text>
</g>
<!-- Node2&#45;&gt;Node1 -->
<g id="edge1" class="edge"><title>Node2&#45;&gt;Node1</title>
<path fill="none" stroke="midnightblue" d="M142.401,-245.198C146.798,-236.404 151.563,-226.874 156.196,-217.608"/>
<polygon fill="none" stroke="midnightblue" points="139.14,-243.894 137.798,-254.404 145.401,-247.025 139.14,-243.894"/>
</g>
<!-- Node3 -->
<g id="node3" class="node"><title>Node3</title>
<polygon fill="none" stroke="#bfbfbf" points="209.5,-254.5 209.5,-311.5 268.5,-311.5 268.5,-254.5 209.5,-254.5"/>
<text text-anchor="middle" x="239" y="-299.5" font-family="Helvetica,sans-Serif" font-size="10.00">ABCMeta</text>
<polyline fill="none" stroke="#bfbfbf" points="209.5,-292.5 268.5,-292.5 "/>
<text text-anchor="middle" x="239" y="-280.5" font-family="Helvetica,sans-Serif" font-size="10.00"> </text>
<polyline fill="none" stroke="#bfbfbf" points="209.5,-273.5 268.5,-273.5 "/>
<text text-anchor="middle" x="239" y="-261.5" font-family="Helvetica,sans-Serif" font-size="10.00"> </text>
</g>
<!-- Node3&#45;&gt;Node1 -->
<g id="edge2" class="edge"><title>Node3&#45;&gt;Node1</title>
<path fill="none" stroke="midnightblue" d="M220.419,-245.478C215.905,-236.607 211.003,-226.972 206.239,-217.608"/>
<polygon fill="none" stroke="midnightblue" points="217.306,-247.078 224.96,-254.404 223.545,-243.904 217.306,-247.078"/>
</g>
</g>
</svg>
