<?xml version="1.0" encoding="UTF-8" standalone="no"?>
<!DOCTYPE svg PUBLIC "-//W3C//DTD SVG 1.1//EN"
 "http://www.w3.org/Graphics/SVG/1.1/DTD/svg11.dtd">
<!-- Generated by graphviz version 2.28.0 (20121214.2254)
 -->
<!-- Title: Lang.Logging.LoggerAbstract Pages: 1 -->
<svg width="148pt" height="300pt"
 viewBox="0.00 0.00 148.00 300.00" xmlns="http://www.w3.org/2000/svg" xmlns:xlink="http://www.w3.org/1999/xlink">
<g id="graph1" class="graph" transform="scale(1 1) rotate(0) translate(4 296)">
<title>Lang.Logging.LoggerAbstract</title>
<!-- Node1 -->
<g id="node1" class="node"><title>Node1</title>
<polygon fill="#bfbfbf" stroke="black" points="0,-107 0,-197 140,-197 140,-107 0,-107"/>
<text text-anchor="middle" x="70" y="-185" font-family="Helvetica,sans-Serif" font-size="10.00">Lang.Logging.LoggerAbstract</text>
<polyline fill="none" stroke="black" points="0,-178 140,-178 "/>
<text text-anchor="start" x="8" y="-166" font-family="Helvetica,sans-Serif" font-size="10.00">+ minSeverity</text>
<text text-anchor="start" x="8" y="-155" font-family="Helvetica,sans-Serif" font-size="10.00">+ execLevel</text>
<polyline fill="none" stroke="black" points="0,-148 140,-148 "/>
<text text-anchor="start" x="8" y="-136" font-family="Helvetica,sans-Serif" font-size="10.00">+ __init__()</text>
<text text-anchor="start" x="8" y="-125" font-family="Helvetica,sans-Serif" font-size="10.00">+ notifyException()</text>
<text text-anchor="start" x="8" y="-114" font-family="Helvetica,sans-Serif" font-size="10.00">+ write()</text>
</g>
<!-- Node3 -->
<g id="node5" class="node"><title>Node3</title>
<a xlink:href="class_lang_1_1_logging_1_1_stdout_logger.html" target="_top" xlink:title="Logs messages to sys.stdout.">
<polygon fill="none" stroke="black" points="4.5,-1 4.5,-69 135.5,-69 135.5,-1 4.5,-1"/>
<text text-anchor="middle" x="70" y="-57" font-family="Helvetica,sans-Serif" font-size="10.00">Lang.Logging.StdoutLogger</text>
<polyline fill="none" stroke="black" points="4.5,-50 135.5,-50 "/>
<text text-anchor="middle" x="70" y="-38" font-family="Helvetica,sans-Serif" font-size="10.00"> </text>
<polyline fill="none" stroke="black" points="4.5,-31 135.5,-31 "/>
<text text-anchor="start" x="12.5" y="-19" font-family="Helvetica,sans-Serif" font-size="10.00">+ __init__()</text>
<text text-anchor="start" x="12.5" y="-8" font-family="Helvetica,sans-Serif" font-size="10.00">+ write()</text>
</a>
</g>
<!-- Node1&#45;&gt;Node3 -->
<g id="edge4" class="edge"><title>Node1&#45;&gt;Node3</title>
<path fill="none" stroke="midnightblue" d="M70,-96.7309C70,-87.3035 70,-77.7599 70,-69.1181"/>
<polygon fill="none" stroke="midnightblue" points="66.5001,-96.8669 70,-106.867 73.5001,-96.8669 66.5001,-96.8669"/>
</g>
<!-- Node2 -->
<g id="node2" class="node"><title>Node2</title>
<a xlink:href="classobject.html" target="_top" xlink:title="{object\n||}">
<polygon fill="none" stroke="black" points="49,-234.5 49,-291.5 91,-291.5 91,-234.5 49,-234.5"/>
<text text-anchor="middle" x="70" y="-279.5" font-family="Helvetica,sans-Serif" font-size="10.00">object</text>
<polyline fill="none" stroke="black" points="49,-272.5 91,-272.5 "/>
<text text-anchor="middle" x="70" y="-260.5" font-family="Helvetica,sans-Serif" font-size="10.00"> </text>
<polyline fill="none" stroke="black" points="49,-253.5 91,-253.5 "/>
<text text-anchor="middle" x="70" y="-241.5" font-family="Helvetica,sans-Serif" font-size="10.00"> </text>
</a>
</g>
<!-- Node2&#45;&gt;Node1 -->
<g id="edge2" class="edge"><title>Node2&#45;&gt;Node1</title>
<path fill="none" stroke="midnightblue" d="M70,-224.484C70,-215.643 70,-206.139 70,-197.04"/>
<polygon fill="none" stroke="midnightblue" points="66.5001,-224.495 70,-234.495 73.5001,-224.495 66.5001,-224.495"/>
</g>
</g>
</svg>
