<?xml version="1.0" encoding="UTF-8" standalone="no"?>
<!DOCTYPE svg PUBLIC "-//W3C//DTD SVG 1.1//EN"
 "http://www.w3.org/Graphics/SVG/1.1/DTD/svg11.dtd">
<!-- Generated by graphviz version 2.30.1 (20130219.2202)
 -->
<!-- Title: object Pages: 1 -->
<!--zoomable 504 -->
<svg id="main" version="1.1" xmlns="http://www.w3.org/2000/svg" xmlns:xlink="http://www.w3.org/1999/xlink" xml:space="preserve" onload="init(evt)">
        <defs>
                <circle id="rim" cx="0" cy="0" r="7"/>
                <circle id="rim2" cx="0" cy="0" r="3.5"/>
                <g id="zoomPlus">
                        <use xlink:href="#rim" fill="#404040">
                                <set attributeName="fill" to="#808080" begin="zoomplus.mouseover" end="zoomplus.mouseout"/>
                        </use>
                        <path d="M-4,0h8M0,-4v8" fill="none" stroke="white" stroke-width="1.5" pointer-events="none"/>
                </g>
                <g id="zoomMin">
                        <use xlink:href="#rim" fill="#404040">
                                <set attributeName="fill" to="#808080" begin="zoomminus.mouseover" end="zoomminus.mouseout"/>
                        </use>
                        <path d="M-4,0h8" fill="none" stroke="white" stroke-width="1.5" pointer-events="none"/>
                </g>
                <g id="dirArrow">
                        <path fill="none" stroke="white" stroke-width="1.5" d="M0,-3.0v7 M-2.5,-0.5L0,-3.0L2.5,-0.5"/>
                </g>
               <g id="resetDef">
                       <use xlink:href="#rim2" fill="#404040">
                               <set attributeName="fill" to="#808080" begin="reset.mouseover" end="reset.mouseout"/>
                       </use>
               </g>
        </defs>

<script type="text/javascript">
var viewWidth = 1074;
var viewHeight = 504;
var sectionId = 'dynsection-0';
</script>
<script xlink:href="svgpan.js"/>
<svg id="graph" class="graph">
<g id="viewport">
<title>object</title>
<!-- Node1 -->
<g id="node1" class="node"><title>Node1</title>
<polygon fill="#bfbfbf" stroke="black" points="520,-438.5 520,-495.5 562,-495.5 562,-438.5 520,-438.5"/>
<text text-anchor="middle" x="541" y="-483.5" font-family="Helvetica,sans-Serif" font-size="10.00">object</text>
<polyline fill="none" stroke="black" points="520,-476.5 562,-476.5 "/>
<text text-anchor="middle" x="541" y="-464.5" font-family="Helvetica,sans-Serif" font-size="10.00"> </text>
<polyline fill="none" stroke="black" points="520,-457.5 562,-457.5 "/>
<text text-anchor="middle" x="541" y="-445.5" font-family="Helvetica,sans-Serif" font-size="10.00"> </text>
</g>
<!-- Node2 -->
<g id="node2" class="node"><title>Node2</title>
<g id="a_node2"><a xlink:href="class_lang_1_1_diff_1_1___block_side.html" target="_top" xlink:title="{Lang.Diff._BlockSide\n|+ index\l+ size\l|+ __init__()\l+ __str__()\l+ __repr__()\l}">
<polygon fill="none" stroke="black" points="88.5,-267 88.5,-357 191.5,-357 191.5,-267 88.5,-267"/>
<text text-anchor="middle" x="140" y="-345" font-family="Helvetica,sans-Serif" font-size="10.00">Lang.Diff._BlockSide</text>
<polyline fill="none" stroke="black" points="88.5,-338 191.5,-338 "/>
<text text-anchor="start" x="96.5" y="-326" font-family="Helvetica,sans-Serif" font-size="10.00">+ index</text>
<text text-anchor="start" x="96.5" y="-315" font-family="Helvetica,sans-Serif" font-size="10.00">+ size</text>
<polyline fill="none" stroke="black" points="88.5,-308 191.5,-308 "/>
<text text-anchor="start" x="96.5" y="-296" font-family="Helvetica,sans-Serif" font-size="10.00">+ __init__()</text>
<text text-anchor="start" x="96.5" y="-285" font-family="Helvetica,sans-Serif" font-size="10.00">+ __str__()</text>
<text text-anchor="start" x="96.5" y="-274" font-family="Helvetica,sans-Serif" font-size="10.00">+ __repr__()</text>
</a>
</g>
</g>
<!-- Node1&#45;&gt;Node2 -->
<g id="edge1" class="edge"><title>Node1&#45;&gt;Node2</title>
<path fill="none" stroke="midnightblue" d="M509.79,-463.227C435.602,-456.153 251.091,-435.589 200,-402 183.339,-391.047 170.124,-373.701 160.384,-357.221"/>
<polygon fill="none" stroke="midnightblue" points="509.624,-466.726 519.907,-464.172 510.276,-459.757 509.624,-466.726"/>
</g>
<!-- Node3 -->
<g id="node3" class="node"><title>Node3</title>
<g id="a_node3"><a xlink:href="class_lang_1_1_diff_1_1___elems_block_side.html" target="_top" xlink:title="elems attribute is guaranteed to be an iterable, not indexable">
<polygon fill="none" stroke="black" points="209.5,-261.5 209.5,-362.5 338.5,-362.5 338.5,-261.5 209.5,-261.5"/>
<text text-anchor="middle" x="274" y="-350.5" font-family="Helvetica,sans-Serif" font-size="10.00">Lang.Diff._ElemsBlockSide</text>
<polyline fill="none" stroke="black" points="209.5,-343.5 338.5,-343.5 "/>
<text text-anchor="start" x="217.5" y="-331.5" font-family="Helvetica,sans-Serif" font-size="10.00">+ block</text>
<text text-anchor="start" x="217.5" y="-320.5" font-family="Helvetica,sans-Serif" font-size="10.00">+ elems</text>
<polyline fill="none" stroke="black" points="209.5,-313.5 338.5,-313.5 "/>
<text text-anchor="start" x="217.5" y="-301.5" font-family="Helvetica,sans-Serif" font-size="10.00">+ __init__()</text>
<text text-anchor="start" x="217.5" y="-290.5" font-family="Helvetica,sans-Serif" font-size="10.00">+ __getattr__()</text>
<text text-anchor="start" x="217.5" y="-279.5" font-family="Helvetica,sans-Serif" font-size="10.00">+ __str__()</text>
<text text-anchor="start" x="217.5" y="-268.5" font-family="Helvetica,sans-Serif" font-size="10.00">+ __repr__()</text>
</a>
</g>
</g>
<!-- Node1&#45;&gt;Node3 -->
<g id="edge2" class="edge"><title>Node1&#45;&gt;Node3</title>
<path fill="none" stroke="midnightblue" d="M509.67,-461.246C469.187,-453.921 397.875,-436.899 347,-402 331.674,-391.487 317.849,-376.867 306.458,-362.511"/>
<polygon fill="none" stroke="midnightblue" points="509.299,-464.734 519.748,-462.984 510.488,-457.836 509.299,-464.734"/>
</g>
<!-- Node4 -->
<g id="node4" class="node"><title>Node4</title>
<g id="a_node4"><a xlink:href="class_lang_1_1_diff_1_1___two_side.html" target="_top" xlink:title="{Lang.Diff._TwoSide\n|+ a\l+ b\l|+ __init__()\l+ __str__()\l+ __repr__()\l}">
<polygon fill="none" stroke="black" points="356.5,-267 356.5,-357 455.5,-357 455.5,-267 356.5,-267"/>
<text text-anchor="middle" x="406" y="-345" font-family="Helvetica,sans-Serif" font-size="10.00">Lang.Diff._TwoSide</text>
<polyline fill="none" stroke="black" points="356.5,-338 455.5,-338 "/>
<text text-anchor="start" x="364.5" y="-326" font-family="Helvetica,sans-Serif" font-size="10.00">+ a</text>
<text text-anchor="start" x="364.5" y="-315" font-family="Helvetica,sans-Serif" font-size="10.00">+ b</text>
<polyline fill="none" stroke="black" points="356.5,-308 455.5,-308 "/>
<text text-anchor="start" x="364.5" y="-296" font-family="Helvetica,sans-Serif" font-size="10.00">+ __init__()</text>
<text text-anchor="start" x="364.5" y="-285" font-family="Helvetica,sans-Serif" font-size="10.00">+ __str__()</text>
<text text-anchor="start" x="364.5" y="-274" font-family="Helvetica,sans-Serif" font-size="10.00">+ __repr__()</text>
</a>
</g>
</g>
<!-- Node1&#45;&gt;Node4 -->
<g id="edge3" class="edge"><title>Node1&#45;&gt;Node4</title>
<path fill="none" stroke="midnightblue" d="M511.968,-444.761C497.023,-433.065 479.044,-417.752 465,-402 452.91,-388.44 441.43,-372.219 431.865,-357.362"/>
<polygon fill="none" stroke="midnightblue" points="509.852,-447.55 519.914,-450.867 514.117,-441.999 509.852,-447.55"/>
</g>
<!-- Node12 -->
<g id="node12" class="node"><title>Node12</title>
<g id="a_node12"><a xlink:href="class_lang_1_1_diff_1_1_sequence_matcher.html" target="_top" xlink:title="Improved difflib.SequenceMatcher.">
<polygon fill="none" stroke="black" points="474,-223 474,-401 608,-401 608,-223 474,-223"/>
<text text-anchor="middle" x="541" y="-389" font-family="Helvetica,sans-Serif" font-size="10.00">Lang.Diff.SequenceMatcher</text>
<polyline fill="none" stroke="black" points="474,-382 608,-382 "/>
<text text-anchor="middle" x="541" y="-370" font-family="Helvetica,sans-Serif" font-size="10.00"> </text>
<polyline fill="none" stroke="black" points="474,-363 608,-363 "/>
<text text-anchor="start" x="482" y="-351" font-family="Helvetica,sans-Serif" font-size="10.00">+ __init__()</text>
<text text-anchor="start" x="482" y="-340" font-family="Helvetica,sans-Serif" font-size="10.00">+ ratio()</text>
<text text-anchor="start" x="482" y="-329" font-family="Helvetica,sans-Serif" font-size="10.00">+ get_matching_blocks()</text>
<text text-anchor="start" x="482" y="-318" font-family="Helvetica,sans-Serif" font-size="10.00">+ get_mismatching_blocks()</text>
<text text-anchor="start" x="482" y="-307" font-family="Helvetica,sans-Serif" font-size="10.00">+ get_matching_elems()</text>
<text text-anchor="start" x="482" y="-296" font-family="Helvetica,sans-Serif" font-size="10.00">+ get_matching_elems</text>
<text text-anchor="start" x="482" y="-285" font-family="Helvetica,sans-Serif" font-size="10.00">_useOnce()</text>
<text text-anchor="start" x="482" y="-274" font-family="Helvetica,sans-Serif" font-size="10.00">+ get_mismatching_elems()</text>
<text text-anchor="start" x="482" y="-263" font-family="Helvetica,sans-Serif" font-size="10.00">+ get_mismatching_elems</text>
<text text-anchor="start" x="482" y="-252" font-family="Helvetica,sans-Serif" font-size="10.00">_useOnce()</text>
<text text-anchor="start" x="482" y="-241" font-family="Helvetica,sans-Serif" font-size="10.00">+ get_matching()</text>
<text text-anchor="start" x="482" y="-230" font-family="Helvetica,sans-Serif" font-size="10.00">+ get_mismatching()</text>
</a>
</g>
</g>
<!-- Node1&#45;&gt;Node12 -->
<g id="edge11" class="edge"><title>Node1&#45;&gt;Node12</title>
<path fill="none" stroke="midnightblue" d="M541,-428.166C541,-419.781 541,-410.554 541,-401.086"/>
<polygon fill="none" stroke="midnightblue" points="537.5,-428.293 541,-438.293 544.5,-428.293 537.5,-428.293"/>
</g>
<!-- Node13 -->
<g id="node13" class="node"><title>Node13</title>
<g id="a_node13"><a xlink:href="class_lang_1_1_iter_1_1_peekable_iterable.html" target="_top" xlink:title="{Lang.Iter.PeekableIterable\n||+ __init__()\l+ __iter__()\l+ __getattr__()\l}">
<polygon fill="none" stroke="black" points="626,-272.5 626,-351.5 752,-351.5 752,-272.5 626,-272.5"/>
<text text-anchor="middle" x="689" y="-339.5" font-family="Helvetica,sans-Serif" font-size="10.00">Lang.Iter.PeekableIterable</text>
<polyline fill="none" stroke="black" points="626,-332.5 752,-332.5 "/>
<text text-anchor="middle" x="689" y="-320.5" font-family="Helvetica,sans-Serif" font-size="10.00"> </text>
<polyline fill="none" stroke="black" points="626,-313.5 752,-313.5 "/>
<text text-anchor="start" x="634" y="-301.5" font-family="Helvetica,sans-Serif" font-size="10.00">+ __init__()</text>
<text text-anchor="start" x="634" y="-290.5" font-family="Helvetica,sans-Serif" font-size="10.00">+ __iter__()</text>
<text text-anchor="start" x="634" y="-279.5" font-family="Helvetica,sans-Serif" font-size="10.00">+ __getattr__()</text>
</a>
</g>
</g>
<!-- Node1&#45;&gt;Node13 -->
<g id="edge12" class="edge"><title>Node1&#45;&gt;Node13</title>
<path fill="none" stroke="midnightblue" d="M570.456,-443.382C585.038,-431.651 602.564,-416.723 617,-402 632.306,-386.39 647.752,-367.762 660.391,-351.593"/>
<polygon fill="none" stroke="midnightblue" points="567.911,-440.935 562.256,-449.894 572.264,-446.416 567.911,-440.935"/>
</g>
<!-- Node14 -->
<g id="node14" class="node"><title>Node14</title>
<g id="a_node14"><a xlink:href="class_lang_1_1_logging_1_1_logger_abstract.html" target="_top" xlink:title="{Lang.Logging.LoggerAbstract\n|+ minSeverity\l+ execLevel\l|+ __init__()\l+ notifyException()\l+ write()\l}">
<polygon fill="none" stroke="black" points="770,-267 770,-357 910,-357 910,-267 770,-267"/>
<text text-anchor="middle" x="840" y="-345" font-family="Helvetica,sans-Serif" font-size="10.00">Lang.Logging.LoggerAbstract</text>
<polyline fill="none" stroke="black" points="770,-338 910,-338 "/>
<text text-anchor="start" x="778" y="-326" font-family="Helvetica,sans-Serif" font-size="10.00">+ minSeverity</text>
<text text-anchor="start" x="778" y="-315" font-family="Helvetica,sans-Serif" font-size="10.00">+ execLevel</text>
<polyline fill="none" stroke="black" points="770,-308 910,-308 "/>
<text text-anchor="start" x="778" y="-296" font-family="Helvetica,sans-Serif" font-size="10.00">+ __init__()</text>
<text text-anchor="start" x="778" y="-285" font-family="Helvetica,sans-Serif" font-size="10.00">+ notifyException()</text>
<text text-anchor="start" x="778" y="-274" font-family="Helvetica,sans-Serif" font-size="10.00">+ write()</text>
</a>
</g>
</g>
<!-- Node1&#45;&gt;Node14 -->
<g id="edge13" class="edge"><title>Node1&#45;&gt;Node14</title>
<path fill="none" stroke="midnightblue" d="M572.3,-462.458C617.112,-456.211 700.778,-440.091 761,-402 779.334,-390.404 795.918,-373.348 809.104,-357.262"/>
<polygon fill="none" stroke="midnightblue" points="571.761,-458.998 562.304,-463.776 572.676,-465.938 571.761,-458.998"/>
</g>
<!-- Node16 -->
<g id="node16" class="node"><title>Node16</title>
<g id="a_node16"><a xlink:href="class_lang_1_1_struct_1_1___ordered_set_1_1_link.html" target="_top" xlink:title="{Lang.Struct._OrderedSet.Link\n|+ key\l|+ __init__()\l}">
<polygon fill="none" stroke="black" points="928,-283.5 928,-340.5 1066,-340.5 1066,-283.5 928,-283.5"/>
<text text-anchor="middle" x="997" y="-328.5" font-family="Helvetica,sans-Serif" font-size="10.00">Lang.Struct._OrderedSet.Link</text>
<polyline fill="none" stroke="black" points="928,-321.5 1066,-321.5 "/>
<text text-anchor="start" x="936" y="-309.5" font-family="Helvetica,sans-Serif" font-size="10.00">+ key</text>
<polyline fill="none" stroke="black" points="928,-302.5 1066,-302.5 "/>
<text text-anchor="start" x="936" y="-290.5" font-family="Helvetica,sans-Serif" font-size="10.00">+ __init__()</text>
</a>
</g>
</g>
<!-- Node1&#45;&gt;Node16 -->
<g id="edge15" class="edge"><title>Node1&#45;&gt;Node16</title>
<path fill="none" stroke="midnightblue" d="M572.539,-463.389C652.187,-456.367 859.341,-435.327 919,-402 944.829,-387.571 966.28,-361.215 980.106,-340.914"/>
<polygon fill="none" stroke="midnightblue" points="571.835,-459.936 562.175,-464.286 572.44,-466.91 571.835,-459.936"/>
</g>
<!-- Node5 -->
<g id="node5" class="node"><title>Node5</title>
<g id="a_node5"><a xlink:href="class_lang_1_1_diff_1_1___block.html" target="_top" xlink:title="{Lang.Diff._Block\n||}">
<polygon fill="none" stroke="black" points="81,-122.5 81,-179.5 165,-179.5 165,-122.5 81,-122.5"/>
<text text-anchor="middle" x="123" y="-167.5" font-family="Helvetica,sans-Serif" font-size="10.00">Lang.Diff._Block</text>
<polyline fill="none" stroke="black" points="81,-160.5 165,-160.5 "/>
<text text-anchor="middle" x="123" y="-148.5" font-family="Helvetica,sans-Serif" font-size="10.00"> </text>
<polyline fill="none" stroke="black" points="81,-141.5 165,-141.5 "/>
<text text-anchor="middle" x="123" y="-129.5" font-family="Helvetica,sans-Serif" font-size="10.00"> </text>
</a>
</g>
</g>
<!-- Node4&#45;&gt;Node5 -->
<g id="edge4" class="edge"><title>Node4&#45;&gt;Node5</title>
<path fill="none" stroke="midnightblue" d="M380.758,-258.421C371.855,-244.708 360.601,-231.211 347,-222 281.973,-177.962 246.44,-216.336 174,-186 169.681,-184.191 165.34,-182 161.113,-179.611"/>
<polygon fill="none" stroke="midnightblue" points="377.781,-260.262 385.997,-266.951 383.745,-256.598 377.781,-260.262"/>
</g>
<!-- Node8 -->
<g id="node8" class="node"><title>Node8</title>
<g id="a_node8"><a xlink:href="class_lang_1_1_diff_1_1___elem_block_match.html" target="_top" xlink:title="{Lang.Diff._ElemBlockMatch\n||}">
<polygon fill="none" stroke="black" points="183.5,-122.5 183.5,-179.5 314.5,-179.5 314.5,-122.5 183.5,-122.5"/>
<text text-anchor="middle" x="249" y="-167.5" font-family="Helvetica,sans-Serif" font-size="10.00">Lang.Diff._ElemBlockMatch</text>
<polyline fill="none" stroke="black" points="183.5,-160.5 314.5,-160.5 "/>
<text text-anchor="middle" x="249" y="-148.5" font-family="Helvetica,sans-Serif" font-size="10.00"> </text>
<polyline fill="none" stroke="black" points="183.5,-141.5 314.5,-141.5 "/>
<text text-anchor="middle" x="249" y="-129.5" font-family="Helvetica,sans-Serif" font-size="10.00"> </text>
</a>
</g>
</g>
<!-- Node4&#45;&gt;Node8 -->
<g id="edge7" class="edge"><title>Node4&#45;&gt;Node8</title>
<path fill="none" stroke="midnightblue" d="M375.684,-258.35C367.228,-245.757 357.463,-232.835 347,-222 331.604,-206.058 312.156,-191.316 294.651,-179.515"/>
<polygon fill="none" stroke="midnightblue" points="372.924,-260.526 381.321,-266.987 378.786,-256.7 372.924,-260.526"/>
</g>
<!-- Node9 -->
<g id="node9" class="node"><title>Node9</title>
<g id="a_node9"><a xlink:href="class_lang_1_1_diff_1_1___elem_block_mismatch.html" target="_top" xlink:title="{Lang.Diff._ElemBlockMismatch\n||}">
<polygon fill="none" stroke="black" points="333,-122.5 333,-179.5 479,-179.5 479,-122.5 333,-122.5"/>
<text text-anchor="middle" x="406" y="-167.5" font-family="Helvetica,sans-Serif" font-size="10.00">Lang.Diff._ElemBlockMismatch</text>
<polyline fill="none" stroke="black" points="333,-160.5 479,-160.5 "/>
<text text-anchor="middle" x="406" y="-148.5" font-family="Helvetica,sans-Serif" font-size="10.00"> </text>
<polyline fill="none" stroke="black" points="333,-141.5 479,-141.5 "/>
<text text-anchor="middle" x="406" y="-129.5" font-family="Helvetica,sans-Serif" font-size="10.00"> </text>
</a>
</g>
</g>
<!-- Node4&#45;&gt;Node9 -->
<g id="edge8" class="edge"><title>Node4&#45;&gt;Node9</title>
<path fill="none" stroke="midnightblue" d="M406,-256.619C406,-230.679 406,-200.762 406,-179.582"/>
<polygon fill="none" stroke="midnightblue" points="402.5,-256.71 406,-266.71 409.5,-256.71 402.5,-256.71"/>
</g>
<!-- Node10 -->
<g id="node10" class="node"><title>Node10</title>
<g id="a_node10"><a xlink:href="class_lang_1_1_diff_1_1___elem_match.html" target="_top" xlink:title="{Lang.Diff._ElemMatch\n||}">
<polygon fill="none" stroke="black" points="497.5,-122.5 497.5,-179.5 606.5,-179.5 606.5,-122.5 497.5,-122.5"/>
<text text-anchor="middle" x="552" y="-167.5" font-family="Helvetica,sans-Serif" font-size="10.00">Lang.Diff._ElemMatch</text>
<polyline fill="none" stroke="black" points="497.5,-160.5 606.5,-160.5 "/>
<text text-anchor="middle" x="552" y="-148.5" font-family="Helvetica,sans-Serif" font-size="10.00"> </text>
<polyline fill="none" stroke="black" points="497.5,-141.5 606.5,-141.5 "/>
<text text-anchor="middle" x="552" y="-129.5" font-family="Helvetica,sans-Serif" font-size="10.00"> </text>
</a>
</g>
</g>
<!-- Node4&#45;&gt;Node10 -->
<g id="edge9" class="edge"><title>Node4&#45;&gt;Node10</title>
<path fill="none" stroke="midnightblue" d="M437.01,-258.385C445.394,-245.9 454.953,-233.019 465,-222 479.107,-206.529 496.796,-191.653 512.533,-179.624"/>
<polygon fill="none" stroke="midnightblue" points="433.958,-256.656 431.401,-266.937 439.812,-260.495 433.958,-256.656"/>
</g>
<!-- Node11 -->
<g id="node11" class="node"><title>Node11</title>
<g id="a_node11"><a xlink:href="class_lang_1_1_diff_1_1___elem_mismatch.html" target="_top" xlink:title="{Lang.Diff._ElemMismatch\n||}">
<polygon fill="none" stroke="black" points="624.5,-122.5 624.5,-179.5 747.5,-179.5 747.5,-122.5 624.5,-122.5"/>
<text text-anchor="middle" x="686" y="-167.5" font-family="Helvetica,sans-Serif" font-size="10.00">Lang.Diff._ElemMismatch</text>
<polyline fill="none" stroke="black" points="624.5,-160.5 747.5,-160.5 "/>
<text text-anchor="middle" x="686" y="-148.5" font-family="Helvetica,sans-Serif" font-size="10.00"> </text>
<polyline fill="none" stroke="black" points="624.5,-141.5 747.5,-141.5 "/>
<text text-anchor="middle" x="686" y="-129.5" font-family="Helvetica,sans-Serif" font-size="10.00"> </text>
</a>
</g>
</g>
<!-- Node4&#45;&gt;Node11 -->
<g id="edge10" class="edge"><title>Node4&#45;&gt;Node11</title>
<path fill="none" stroke="midnightblue" d="M431.926,-257.916C440.75,-244.472 451.792,-231.241 465,-222 521.177,-182.698 550.39,-208.933 615,-186 620.409,-184.08 625.955,-181.875 631.446,-179.53"/>
<polygon fill="none" stroke="midnightblue" points="428.747,-256.4 426.447,-266.743 434.694,-260.092 428.747,-256.4"/>
</g>
<!-- Node6 -->
<g id="node6" class="node"><title>Node6</title>
<g id="a_node6"><a xlink:href="class_lang_1_1_diff_1_1___block_match.html" target="_top" xlink:title="{Lang.Diff._BlockMatch\n||+ __init__()\l+ __getattr__()\l+ __getitem__()\l}">
<polygon fill="none" stroke="black" points="0,-0.5 0,-79.5 110,-79.5 110,-0.5 0,-0.5"/>
<text text-anchor="middle" x="55" y="-67.5" font-family="Helvetica,sans-Serif" font-size="10.00">Lang.Diff._BlockMatch</text>
<polyline fill="none" stroke="black" points="0,-60.5 110,-60.5 "/>
<text text-anchor="middle" x="55" y="-48.5" font-family="Helvetica,sans-Serif" font-size="10.00"> </text>
<polyline fill="none" stroke="black" points="0,-41.5 110,-41.5 "/>
<text text-anchor="start" x="8" y="-29.5" font-family="Helvetica,sans-Serif" font-size="10.00">+ __init__()</text>
<text text-anchor="start" x="8" y="-18.5" font-family="Helvetica,sans-Serif" font-size="10.00">+ __getattr__()</text>
<text text-anchor="start" x="8" y="-7.5" font-family="Helvetica,sans-Serif" font-size="10.00">+ __getitem__()</text>
</a>
</g>
</g>
<!-- Node5&#45;&gt;Node6 -->
<g id="edge5" class="edge"><title>Node5&#45;&gt;Node6</title>
<path fill="none" stroke="midnightblue" d="M100.509,-113.948C93.6394,-102.937 86.059,-90.7858 79.0879,-79.6115"/>
<polygon fill="none" stroke="midnightblue" points="97.5782,-115.863 105.841,-122.495 103.517,-112.158 97.5782,-115.863"/>
</g>
<!-- Node7 -->
<g id="node7" class="node"><title>Node7</title>
<g id="a_node7"><a xlink:href="class_lang_1_1_diff_1_1___block_mismatch.html" target="_top" xlink:title="{Lang.Diff._BlockMismatch\n||+ __init__()\l}">
<polygon fill="none" stroke="black" points="128.5,-11.5 128.5,-68.5 253.5,-68.5 253.5,-11.5 128.5,-11.5"/>
<text text-anchor="middle" x="191" y="-56.5" font-family="Helvetica,sans-Serif" font-size="10.00">Lang.Diff._BlockMismatch</text>
<polyline fill="none" stroke="black" points="128.5,-49.5 253.5,-49.5 "/>
<text text-anchor="middle" x="191" y="-37.5" font-family="Helvetica,sans-Serif" font-size="10.00"> </text>
<polyline fill="none" stroke="black" points="128.5,-30.5 253.5,-30.5 "/>
<text text-anchor="start" x="136.5" y="-18.5" font-family="Helvetica,sans-Serif" font-size="10.00">+ __init__()</text>
</a>
</g>
</g>
<!-- Node5&#45;&gt;Node7 -->
<g id="edge6" class="edge"><title>Node5&#45;&gt;Node7</title>
<path fill="none" stroke="midnightblue" d="M145.648,-113.697C154.761,-99.0882 165.105,-82.5086 173.61,-68.8756"/>
<polygon fill="none" stroke="midnightblue" points="142.483,-112.158 140.159,-122.495 148.422,-115.863 142.483,-112.158"/>
</g>
<!-- Node15 -->
<g id="node15" class="node"><title>Node15</title>
<g id="a_node15"><a xlink:href="class_lang_1_1_logging_1_1_stdout_logger.html" target="_top" xlink:title="Logs messages to sys.stdout.">
<polygon fill="none" stroke="black" points="774.5,-117 774.5,-185 905.5,-185 905.5,-117 774.5,-117"/>
<text text-anchor="middle" x="840" y="-173" font-family="Helvetica,sans-Serif" font-size="10.00">Lang.Logging.StdoutLogger</text>
<polyline fill="none" stroke="black" points="774.5,-166 905.5,-166 "/>
<text text-anchor="middle" x="840" y="-154" font-family="Helvetica,sans-Serif" font-size="10.00"> </text>
<polyline fill="none" stroke="black" points="774.5,-147 905.5,-147 "/>
<text text-anchor="start" x="782.5" y="-135" font-family="Helvetica,sans-Serif" font-size="10.00">+ __init__()</text>
<text text-anchor="start" x="782.5" y="-124" font-family="Helvetica,sans-Serif" font-size="10.00">+ write()</text>
</a>
</g>
</g>
<!-- Node14&#45;&gt;Node15 -->
<g id="edge14" class="edge"><title>Node14&#45;&gt;Node15</title>
<path fill="none" stroke="midnightblue" d="M840,-256.446C840,-232.77 840,-205.81 840,-185.212"/>
<polygon fill="none" stroke="midnightblue" points="836.5,-256.71 840,-266.71 843.5,-256.71 836.5,-256.71"/>
</g>
</g>
</svg>
        <g id="navigator" transform="translate(0 0)" fill="#404254">
                <rect fill="#f2f5e9" fill-opacity="0.5" stroke="#606060" stroke-width=".5" x="0" y="0" width="60" height="60"/>
                <use id="zoomplus" xlink:href="#zoomPlus" x="17" y="9" onmousedown="handleZoom(evt,'in')"/>
                <use id="zoomminus" xlink:href="#zoomMin" x="42" y="9" onmousedown="handleZoom(evt,'out')"/>
                <use id="reset" xlink:href="#resetDef" x="30" y="36" onmousedown="handleReset()"/>
                <g id="arrowUp" xlink:href="#dirArrow" transform="translate(30 24)" onmousedown="handlePan(0,-1)">
                  <use xlink:href="#rim" fill="#404040">
                        <set attributeName="fill" to="#808080" begin="arrowUp.mouseover" end="arrowUp.mouseout"/>
                  </use>
                  <path fill="none" stroke="white" stroke-width="1.5" d="M0,-3.0v7 M-2.5,-0.5L0,-3.0L2.5,-0.5"/>
                </g>
                <g id="arrowRight" xlink:href="#dirArrow" transform="rotate(90) translate(36 -43)" onmousedown="handlePan(1,0)">
                  <use xlink:href="#rim" fill="#404040">
                        <set attributeName="fill" to="#808080" begin="arrowRight.mouseover" end="arrowRight.mouseout"/>
                  </use>
                  <path fill="none" stroke="white" stroke-width="1.5" d="M0,-3.0v7 M-2.5,-0.5L0,-3.0L2.5,-0.5"/>
                </g>
                <g id="arrowDown" xlink:href="#dirArrow" transform="rotate(180) translate(-30 -48)" onmousedown="handlePan(0,1)">
                  <use xlink:href="#rim" fill="#404040">
                        <set attributeName="fill" to="#808080" begin="arrowDown.mouseover" end="arrowDown.mouseout"/>
                  </use>
                  <path fill="none" stroke="white" stroke-width="1.5" d="M0,-3.0v7 M-2.5,-0.5L0,-3.0L2.5,-0.5"/>
                </g>
                <g id="arrowLeft" xlink:href="#dirArrow" transform="rotate(270) translate(-36 17)" onmousedown="handlePan(-1,0)">
                  <use xlink:href="#rim" fill="#404040">
                        <set attributeName="fill" to="#808080" begin="arrowLeft.mouseover" end="arrowLeft.mouseout"/>
                  </use>
                  <path fill="none" stroke="white" stroke-width="1.5" d="M0,-3.0v7 M-2.5,-0.5L0,-3.0L2.5,-0.5"/>
                </g>
        </g>
        <svg viewBox="0 0 15 15" width="100%" height="30px" preserveAspectRatio="xMaxYMin meet">
         <g id="arrow_out" transform="scale(0.3 0.3)">
          <a xlink:href="classobject__inherit__graph_org.svg" target="_base">
           <rect id="button" ry="5" rx="5" y="6" x="6" height="38" width="38"
                fill="#f2f5e9" fill-opacity="0.5" stroke="#606060" stroke-width="1.0"/>
           <path id="arrow"
             d="M 11.500037,31.436501 C 11.940474,20.09759 22.043105,11.32322 32.158766,21.979434 L 37.068811,17.246167 C 37.068811,17.246167 37.088388,32 37.088388,32 L 22.160133,31.978069 C 22.160133,31.978069 26.997745,27.140456 26.997745,27.140456 C 18.528582,18.264221 13.291696,25.230495 11.500037,31.436501 z"
             style="fill:#404040;"/>
          </a>
         </g>
        </svg>
</svg>
