<?xml version="1.0" encoding="UTF-8" standalone="no"?>
<!DOCTYPE svg PUBLIC "-//W3C//DTD SVG 1.1//EN"
 "http://www.w3.org/Graphics/SVG/1.1/DTD/svg11.dtd">
<!-- Generated by graphviz version 2.36.0 (20140111.2315)
 -->
<!-- Title: Lang.Terminal.ArgParser.ArgParser Pages: 1 -->
<svg width="297pt" height="288pt"
 viewBox="0.00 0.00 297.00 288.00" xmlns="http://www.w3.org/2000/svg" xmlns:xlink="http://www.w3.org/1999/xlink">
<g id="graph0" class="graph" transform="scale(1 1) rotate(0) translate(4 284)">
<title>Lang.Terminal.ArgParser.ArgParser</title>
<!-- Node1 -->
<g id="node1" class="node"><title>Node1</title>
<polygon fill="#bfbfbf" stroke="black" points="80.5,-0.5 80.5,-79.5 211.5,-79.5 211.5,-0.5 80.5,-0.5"/>
<text text-anchor="start" x="88.5" y="-67.5" font-family="Helvetica,sans-Serif" font-size="10.00">Lang.Terminal.ArgParser.</text>
<text text-anchor="middle" x="146" y="-56.5" font-family="Helvetica,sans-Serif" font-size="10.00">ArgParser</text>
<polyline fill="none" stroke="black" points="80.5,-49.5 211.5,-49.5 "/>
<text text-anchor="middle" x="146" y="-37.5" font-family="Helvetica,sans-Serif" font-size="10.00"> </text>
<polyline fill="none" stroke="black" points="80.5,-30.5 211.5,-30.5 "/>
<text text-anchor="start" x="88.5" y="-18.5" font-family="Helvetica,sans-Serif" font-size="10.00">+ __init__()</text>
<text text-anchor="start" x="88.5" y="-7.5" font-family="Helvetica,sans-Serif" font-size="10.00">+ error()</text>
</g>
<!-- Node2 -->
<g id="node2" class="node"><title>Node2</title>
<g id="a_node2"><a xlink:href="class_lang_1_1_terminal_1_1_arg_parser_1_1_actions_container.html" target="_top" xlink:title="{Lang.Terminal.ArgParser.\lActionsContainer\n||+ add_argument()\l}">
<polygon fill="none" stroke="black" points="5.5,-117 5.5,-185 136.5,-185 136.5,-117 5.5,-117"/>
<text text-anchor="start" x="13.5" y="-173" font-family="Helvetica,sans-Serif" font-size="10.00">Lang.Terminal.ArgParser.</text>
<text text-anchor="middle" x="71" y="-162" font-family="Helvetica,sans-Serif" font-size="10.00">ActionsContainer</text>
<polyline fill="none" stroke="black" points="5.5,-155 136.5,-155 "/>
<text text-anchor="middle" x="71" y="-143" font-family="Helvetica,sans-Serif" font-size="10.00"> </text>
<polyline fill="none" stroke="black" points="5.5,-136 136.5,-136 "/>
<text text-anchor="start" x="13.5" y="-124" font-family="Helvetica,sans-Serif" font-size="10.00">+ add_argument()</text>
</a>
</g>
</g>
<!-- Node2&#45;&gt;Node1 -->
<g id="edge1" class="edge"><title>Node2&#45;&gt;Node1</title>
<path fill="none" stroke="midnightblue" d="M99.6939,-108.298C106.13,-98.9448 112.932,-89.0583 119.284,-79.8274"/>
<polygon fill="none" stroke="midnightblue" points="96.6952,-106.482 93.91,-116.704 102.462,-110.45 96.6952,-106.482"/>
</g>
<!-- Node3 -->
<g id="node3" class="node"><title>Node3</title>
<polygon fill="none" stroke="#bfbfbf" points="-0.5,-222.5 -0.5,-279.5 142.5,-279.5 142.5,-222.5 -0.5,-222.5"/>
<text text-anchor="middle" x="71" y="-267.5" font-family="Helvetica,sans-Serif" font-size="10.00">argparse::_ActionsContainer</text>
<polyline fill="none" stroke="#bfbfbf" points="-0.5,-260.5 142.5,-260.5 "/>
<text text-anchor="middle" x="71" y="-248.5" font-family="Helvetica,sans-Serif" font-size="10.00"> </text>
<polyline fill="none" stroke="#bfbfbf" points="-0.5,-241.5 142.5,-241.5 "/>
<text text-anchor="middle" x="71" y="-229.5" font-family="Helvetica,sans-Serif" font-size="10.00"> </text>
</g>
<!-- Node3&#45;&gt;Node2 -->
<g id="edge2" class="edge"><title>Node3&#45;&gt;Node2</title>
<path fill="none" stroke="midnightblue" d="M71,-212.302C71,-203.395 71,-193.961 71,-185.266"/>
<polygon fill="none" stroke="midnightblue" points="67.5001,-212.441 71,-222.441 74.5001,-212.441 67.5001,-212.441"/>
</g>
<!-- Node4 -->
<g id="node4" class="node"><title>Node4</title>
<polygon fill="none" stroke="#bfbfbf" points="155,-122.5 155,-179.5 289,-179.5 289,-122.5 155,-122.5"/>
<text text-anchor="middle" x="222" y="-167.5" font-family="Helvetica,sans-Serif" font-size="10.00">argparse::ArgumentParser</text>
<polyline fill="none" stroke="#bfbfbf" points="155,-160.5 289,-160.5 "/>
<text text-anchor="middle" x="222" y="-148.5" font-family="Helvetica,sans-Serif" font-size="10.00"> </text>
<polyline fill="none" stroke="#bfbfbf" points="155,-141.5 289,-141.5 "/>
<text text-anchor="middle" x="222" y="-129.5" font-family="Helvetica,sans-Serif" font-size="10.00"> </text>
</g>
<!-- Node4&#45;&gt;Node1 -->
<g id="edge3" class="edge"><title>Node4&#45;&gt;Node1</title>
<path fill="none" stroke="midnightblue" d="M197.091,-114.275C189.353,-103.177 180.79,-90.8965 172.922,-79.6115"/>
<polygon fill="none" stroke="midnightblue" points="194.231,-116.294 202.822,-122.495 199.974,-112.29 194.231,-116.294"/>
</g>
</g>
</svg>
