<?xml version="1.0" encoding="UTF-8" standalone="no"?>
<!DOCTYPE svg PUBLIC "-//W3C//DTD SVG 1.1//EN"
 "http://www.w3.org/Graphics/SVG/1.1/DTD/svg11.dtd">
<!-- Generated by graphviz version 2.30.1 (20130219.2202)
 -->
<!-- Title: ArgumentParser Pages: 1 -->
<svg width="134pt" height="172pt"
 viewBox="0.00 0.00 134.00 172.00" xmlns="http://www.w3.org/2000/svg" xmlns:xlink="http://www.w3.org/1999/xlink">
<g id="graph0" class="graph" transform="scale(1 1) rotate(0) translate(4 168)">
<title>ArgumentParser</title>
<!-- Node1 -->
<g id="node1" class="node"><title>Node1</title>
<polygon fill="#bfbfbf" stroke="black" points="21,-106.5 21,-163.5 105,-163.5 105,-106.5 21,-106.5"/>
<text text-anchor="middle" x="63" y="-151.5" font-family="Helvetica,sans-Serif" font-size="10.00">ArgumentParser</text>
<polyline fill="none" stroke="black" points="21,-144.5 105,-144.5 "/>
<text text-anchor="middle" x="63" y="-132.5" font-family="Helvetica,sans-Serif" font-size="10.00"> </text>
<polyline fill="none" stroke="black" points="21,-125.5 105,-125.5 "/>
<text text-anchor="middle" x="63" y="-113.5" font-family="Helvetica,sans-Serif" font-size="10.00"> </text>
</g>
<!-- Node2 -->
<g id="node2" class="node"><title>Node2</title>
<g id="a_node2"><a xlink:href="class_lang_1_1_arg_parser_1_1_arg_parser.html" target="_top" xlink:title="Supports positional arguments, named required arguments, and named optional arguments, with help in man&#45;page&#45;like format.">
<polygon fill="none" stroke="black" points="-0.5,-1 -0.5,-69 126.5,-69 126.5,-1 -0.5,-1"/>
<text text-anchor="middle" x="63" y="-57" font-family="Helvetica,sans-Serif" font-size="10.00">Lang.ArgParser.ArgParser</text>
<polyline fill="none" stroke="black" points="-0.5,-50 126.5,-50 "/>
<text text-anchor="middle" x="63" y="-38" font-family="Helvetica,sans-Serif" font-size="10.00"> </text>
<polyline fill="none" stroke="black" points="-0.5,-31 126.5,-31 "/>
<text text-anchor="start" x="7.5" y="-19" font-family="Helvetica,sans-Serif" font-size="10.00">+ __init__()</text>
<text text-anchor="start" x="7.5" y="-8" font-family="Helvetica,sans-Serif" font-size="10.00">+ error()</text>
</a>
</g>
</g>
<!-- Node1&#45;&gt;Node2 -->
<g id="edge1" class="edge"><title>Node1&#45;&gt;Node2</title>
<path fill="none" stroke="midnightblue" d="M63,-96.3023C63,-87.3951 63,-77.9608 63,-69.2659"/>
<polygon fill="none" stroke="midnightblue" points="59.5001,-96.4407 63,-106.441 66.5001,-96.4408 59.5001,-96.4407"/>
</g>
</g>
</svg>
