<?xml version="1.0" encoding="UTF-8" standalone="no"?>
<!DOCTYPE svg PUBLIC "-//W3C//DTD SVG 1.1//EN"
 "http://www.w3.org/Graphics/SVG/1.1/DTD/svg11.dtd">
<!-- Generated by graphviz version 2.30.1 (20130219.2202)
 -->
<!-- Title: Lang.Diff.SequenceMatcher.get_mismatching_elems Pages: 1 -->
<svg width="708pt" height="136pt"
 viewBox="0.00 0.00 708.00 136.00" xmlns="http://www.w3.org/2000/svg" xmlns:xlink="http://www.w3.org/1999/xlink">
<g id="graph0" class="graph" transform="scale(1 1) rotate(0) translate(4 132)">
<title>Lang.Diff.SequenceMatcher.get_mismatching_elems</title>
<!-- Node1 -->
<g id="node1" class="node"><title>Node1</title>
<polygon fill="#bfbfbf" stroke="black" points="0,-73 0,-103 148,-103 148,-73 0,-73"/>
<text text-anchor="start" x="8" y="-91" font-family="Helvetica,sans-Serif" font-size="10.00">Lang.Diff.SequenceMatcher.get</text>
<text text-anchor="middle" x="74" y="-80" font-family="Helvetica,sans-Serif" font-size="10.00">_mismatching_elems</text>
</g>
<!-- Node2 -->
<g id="node2" class="node"><title>Node2</title>
<g id="a_node2"><a xlink:href="class_lang_1_1_diff_1_1_sequence_matcher.html#ad39d03c930490265c4cd1c85ae3e706c" target="_top" xlink:title="Generators will be returned which can only be iterated over once.">
<polygon fill="none" stroke="black" points="184,-73 184,-103 332,-103 332,-73 184,-73"/>
<text text-anchor="start" x="192" y="-91" font-family="Helvetica,sans-Serif" font-size="10.00">Lang.Diff.SequenceMatcher.get</text>
<text text-anchor="middle" x="258" y="-80" font-family="Helvetica,sans-Serif" font-size="10.00">_mismatching_elems_useOnce</text>
</a>
</g>
</g>
<!-- Node1&#45;&gt;Node2 -->
<g id="edge1" class="edge"><title>Node1&#45;&gt;Node2</title>
<path fill="none" stroke="midnightblue" d="M148.24,-88C156.596,-88 165.161,-88 173.636,-88"/>
<polygon fill="midnightblue" stroke="midnightblue" points="173.91,-91.5001 183.91,-88 173.91,-84.5001 173.91,-91.5001"/>
</g>
<!-- Node3 -->
<g id="node3" class="node"><title>Node3</title>
<g id="a_node3"><a xlink:href="class_lang_1_1_diff_1_1_sequence_matcher.html#a2346b09e64458b8797a8285136376ff5" target="_top" xlink:title="Lang.Diff.SequenceMatcher.\l_getElems">
<polygon fill="none" stroke="black" points="374.5,-98 374.5,-128 509.5,-128 509.5,-98 374.5,-98"/>
<text text-anchor="start" x="382.5" y="-116" font-family="Helvetica,sans-Serif" font-size="10.00">Lang.Diff.SequenceMatcher.</text>
<text text-anchor="middle" x="442" y="-105" font-family="Helvetica,sans-Serif" font-size="10.00">_getElems</text>
</a>
</g>
</g>
<!-- Node2&#45;&gt;Node3 -->
<g id="edge2" class="edge"><title>Node2&#45;&gt;Node3</title>
<path fill="none" stroke="midnightblue" d="M332.24,-98.0604C342.794,-99.5102 353.68,-101.005 364.299,-102.464"/>
<polygon fill="midnightblue" stroke="midnightblue" points="363.996,-105.955 374.38,-103.849 364.949,-99.0205 363.996,-105.955"/>
</g>
<!-- Node4 -->
<g id="node4" class="node"><title>Node4</title>
<g id="a_node4"><a xlink:href="class_lang_1_1_diff_1_1_sequence_matcher.html#a2f91f89e168c2994d50ee29af7d1c988" target="_top" xlink:title="Lang.Diff.SequenceMatcher.get\l_mismatching_blocks">
<polygon fill="none" stroke="black" points="368,-49 368,-79 516,-79 516,-49 368,-49"/>
<text text-anchor="start" x="376" y="-67" font-family="Helvetica,sans-Serif" font-size="10.00">Lang.Diff.SequenceMatcher.get</text>
<text text-anchor="middle" x="442" y="-56" font-family="Helvetica,sans-Serif" font-size="10.00">_mismatching_blocks</text>
</a>
</g>
</g>
<!-- Node2&#45;&gt;Node4 -->
<g id="edge3" class="edge"><title>Node2&#45;&gt;Node4</title>
<path fill="none" stroke="midnightblue" d="M332.24,-78.342C340.688,-77.228 349.349,-76.0859 357.916,-74.9562"/>
<polygon fill="midnightblue" stroke="midnightblue" points="358.454,-78.4156 367.91,-73.6382 357.538,-71.4757 358.454,-78.4156"/>
</g>
<!-- Node5 -->
<g id="node5" class="node"><title>Node5</title>
<g id="a_node5"><a xlink:href="class_lang_1_1_diff_1_1_sequence_matcher.html#aae18597b82d486839e6b1b9e1d850438" target="_top" xlink:title="Lang.Diff.SequenceMatcher.get\l_matching_blocks">
<polygon fill="none" stroke="black" points="552,-98 552,-128 700,-128 700,-98 552,-98"/>
<text text-anchor="start" x="560" y="-116" font-family="Helvetica,sans-Serif" font-size="10.00">Lang.Diff.SequenceMatcher.get</text>
<text text-anchor="middle" x="626" y="-105" font-family="Helvetica,sans-Serif" font-size="10.00">_matching_blocks</text>
</a>
</g>
</g>
<!-- Node4&#45;&gt;Node5 -->
<g id="edge4" class="edge"><title>Node4&#45;&gt;Node5</title>
<path fill="none" stroke="midnightblue" d="M499.091,-79.1014C518.123,-84.2253 539.555,-89.9956 559.269,-95.3032"/>
<polygon fill="midnightblue" stroke="midnightblue" points="558.528,-98.7283 569.094,-97.9484 560.348,-91.969 558.528,-98.7283"/>
</g>
<!-- Node6 -->
<g id="node6" class="node"><title>Node6</title>
<g id="a_node6"><a xlink:href="class_lang_1_1_diff_1_1_sequence_matcher.html#a7d87778dba05d7442659d922584994ea" target="_top" xlink:title="Lang.Diff.SequenceMatcher.\l_diffSingleSide">
<polygon fill="none" stroke="black" points="558.5,-49 558.5,-79 693.5,-79 693.5,-49 558.5,-49"/>
<text text-anchor="start" x="566.5" y="-67" font-family="Helvetica,sans-Serif" font-size="10.00">Lang.Diff.SequenceMatcher.</text>
<text text-anchor="middle" x="626" y="-56" font-family="Helvetica,sans-Serif" font-size="10.00">_diffSingleSide</text>
</a>
</g>
</g>
<!-- Node4&#45;&gt;Node6 -->
<g id="edge5" class="edge"><title>Node4&#45;&gt;Node6</title>
<path fill="none" stroke="midnightblue" d="M516.24,-64C526.794,-64 537.68,-64 548.299,-64"/>
<polygon fill="midnightblue" stroke="midnightblue" points="548.38,-67.5001 558.38,-64 548.38,-60.5001 548.38,-67.5001"/>
</g>
<!-- Node7 -->
<g id="node7" class="node"><title>Node7</title>
<g id="a_node7"><a xlink:href="class_lang_1_1_diff_1_1_sequence_matcher.html#a180307710206ac883b8f7236bc8ef93a" target="_top" xlink:title="Lang.Diff.SequenceMatcher.\l_blocksToElems">
<polygon fill="none" stroke="black" points="558.5,-0 558.5,-30 693.5,-30 693.5,-0 558.5,-0"/>
<text text-anchor="start" x="566.5" y="-18" font-family="Helvetica,sans-Serif" font-size="10.00">Lang.Diff.SequenceMatcher.</text>
<text text-anchor="middle" x="626" y="-7" font-family="Helvetica,sans-Serif" font-size="10.00">_blocksToElems</text>
</a>
</g>
</g>
<!-- Node4&#45;&gt;Node7 -->
<g id="edge6" class="edge"><title>Node4&#45;&gt;Node7</title>
<path fill="none" stroke="midnightblue" d="M499.091,-48.8986C518.123,-43.7747 539.555,-38.0044 559.269,-32.6968"/>
<polygon fill="midnightblue" stroke="midnightblue" points="560.348,-36.031 569.094,-30.0516 558.528,-29.2717 560.348,-36.031"/>
</g>
</g>
</svg>
