<?xml version="1.0" encoding="UTF-8" standalone="no"?>
<!DOCTYPE svg PUBLIC "-//W3C//DTD SVG 1.1//EN"
 "http://www.w3.org/Graphics/SVG/1.1/DTD/svg11.dtd">
<!-- Generated by graphviz version 2.36.0 (20140111.2315)
 -->
<!-- Title: Lang.Diff.SequenceMatcher.get_matching_blocks Pages: 1 -->
<!--zoomable 185 -->
<svg id="main" version="1.1" xmlns="http://www.w3.org/2000/svg" xmlns:xlink="http://www.w3.org/1999/xlink" xml:space="preserve" onload="init(evt)">
<style type="text/css"><![CDATA[
.edge:hover path { stroke: red; }
.edge:hover polygon { stroke: red; fill: red; }
]]></style>
<script type="text/javascript"><![CDATA[
var edges = document.getElementsByTagName('g');
if (edges && edges.length) {
  for (var i=0;i<edges.length;i++) {
    if (edges[i].id.substr(0,4)=='edge') {
      edges[i].setAttribute('class','edge');
    }
  }
}
]]></script>
        <defs>
                <circle id="rim" cx="0" cy="0" r="7"/>
                <circle id="rim2" cx="0" cy="0" r="3.5"/>
                <g id="zoomPlus">
                        <use xlink:href="#rim" fill="#404040">
                                <set attributeName="fill" to="#808080" begin="zoomplus.mouseover" end="zoomplus.mouseout"/>
                        </use>
                        <path d="M-4,0h8M0,-4v8" fill="none" stroke="white" stroke-width="1.5" pointer-events="none"/>
                </g>
                <g id="zoomMin">
                        <use xlink:href="#rim" fill="#404040">
                                <set attributeName="fill" to="#808080" begin="zoomminus.mouseover" end="zoomminus.mouseout"/>
                        </use>
                        <path d="M-4,0h8" fill="none" stroke="white" stroke-width="1.5" pointer-events="none"/>
                </g>
                <g id="dirArrow">
                        <path fill="none" stroke="white" stroke-width="1.5" d="M0,-3.0v7 M-2.5,-0.5L0,-3.0L2.5,-0.5"/>
                </g>
               <g id="resetDef">
                       <use xlink:href="#rim2" fill="#404040">
                               <set attributeName="fill" to="#808080" begin="reset.mouseover" end="reset.mouseout"/>
                       </use>
               </g>
        </defs>

<script type="text/javascript">
var viewWidth = 748;
var viewHeight = 185;
var sectionId = 'dynsection-3';
</script>
<script xlink:href="svgpan.js"/>
<svg id="graph" class="graph">
<g id="viewport">
<title>Lang.Diff.SequenceMatcher.get_matching_blocks</title>
<!-- Node1 -->
<g id="node1" class="node"><title>Node1</title>
<polygon fill="#bfbfbf" stroke="black" points="0.5,-49 0.5,-79 157.5,-79 157.5,-49 0.5,-49"/>
<text text-anchor="start" x="8.5" y="-67" font-family="Helvetica,sans-Serif" font-size="10.00">Lang.Diff.SequenceMatcher.get</text>
<text text-anchor="middle" x="79" y="-56" font-family="Helvetica,sans-Serif" font-size="10.00">_matching_blocks</text>
</g>
<!-- Node2 -->
<g id="node2" class="node"><title>Node2</title>
<g id="a_node2"><a xlink:href="class_lang_1_1_diff_1_1_sequence_matcher.html#a2f91f89e168c2994d50ee29af7d1c988" target="_top" xlink:title="Lang.Diff.SequenceMatcher.get\l_mismatching_blocks">
<polygon fill="none" stroke="black" points="194.5,-98 194.5,-128 351.5,-128 351.5,-98 194.5,-98"/>
<text text-anchor="start" x="202.5" y="-116" font-family="Helvetica,sans-Serif" font-size="10.00">Lang.Diff.SequenceMatcher.get</text>
<text text-anchor="middle" x="273" y="-105" font-family="Helvetica,sans-Serif" font-size="10.00">_mismatching_blocks</text>
</a>
</g>
</g>
<!-- Node1&#45;&gt;Node2 -->
<g id="edge1" class="edge"><title>Node1&#45;&gt;Node2</title>
<path fill="none" stroke="midnightblue" d="M148.767,-81.5498C169.851,-86.9306 192.845,-92.799 213.2,-97.9938"/>
<polygon fill="midnightblue" stroke="midnightblue" points="149.466,-78.1162 138.911,-79.0346 147.735,-84.8988 149.466,-78.1162"/>
</g>
<!-- Node6 -->
<g id="node6" class="node"><title>Node6</title>
<g id="a_node6"><a xlink:href="class_lang_1_1_diff_1_1_sequence_matcher.html#a523e8db72ca0fa10a4519a28f3dd6202" target="_top" xlink:title="Generators will be returned which can only be iterated over once. ">
<polygon fill="none" stroke="black" points="194.5,-49 194.5,-79 351.5,-79 351.5,-49 194.5,-49"/>
<text text-anchor="start" x="202.5" y="-67" font-family="Helvetica,sans-Serif" font-size="10.00">Lang.Diff.SequenceMatcher.get</text>
<text text-anchor="middle" x="273" y="-56" font-family="Helvetica,sans-Serif" font-size="10.00">_matching_elems_useOnce</text>
</a>
</g>
</g>
<!-- Node1&#45;&gt;Node6 -->
<g id="edge5" class="edge"><title>Node1&#45;&gt;Node6</title>
<path fill="none" stroke="midnightblue" d="M167.605,-64C176.571,-64 185.635,-64 194.482,-64"/>
<polygon fill="midnightblue" stroke="midnightblue" points="167.54,-60.5001 157.54,-64 167.54,-67.5001 167.54,-60.5001"/>
</g>
<!-- Node8 -->
<g id="node8" class="node"><title>Node8</title>
<g id="a_node8"><a xlink:href="class_lang_1_1_diff_1_1_sequence_matcher.html#a3ca490a397c758740eb283359a360375" target="_top" xlink:title="Lang.Diff.SequenceMatcher.get\l_matching">
<polygon fill="none" stroke="black" points="194.5,-0 194.5,-30 351.5,-30 351.5,-0 194.5,-0"/>
<text text-anchor="start" x="202.5" y="-18" font-family="Helvetica,sans-Serif" font-size="10.00">Lang.Diff.SequenceMatcher.get</text>
<text text-anchor="middle" x="273" y="-7" font-family="Helvetica,sans-Serif" font-size="10.00">_matching</text>
</a>
</g>
</g>
<!-- Node1&#45;&gt;Node8 -->
<g id="edge7" class="edge"><title>Node1&#45;&gt;Node8</title>
<path fill="none" stroke="midnightblue" d="M148.767,-46.4502C169.851,-41.0694 192.845,-35.201 213.2,-30.0062"/>
<polygon fill="midnightblue" stroke="midnightblue" points="147.735,-43.1012 138.911,-48.9654 149.466,-49.8838 147.735,-43.1012"/>
</g>
<!-- Node3 -->
<g id="node3" class="node"><title>Node3</title>
<g id="a_node3"><a xlink:href="class_lang_1_1_diff_1_1_sequence_matcher.html#ad39d03c930490265c4cd1c85ae3e706c" target="_top" xlink:title="Generators will be returned which can only be iterated over once. ">
<polygon fill="none" stroke="black" points="388.5,-147 388.5,-177 545.5,-177 545.5,-147 388.5,-147"/>
<text text-anchor="start" x="396.5" y="-165" font-family="Helvetica,sans-Serif" font-size="10.00">Lang.Diff.SequenceMatcher.get</text>
<text text-anchor="middle" x="467" y="-154" font-family="Helvetica,sans-Serif" font-size="10.00">_mismatching_elems_useOnce</text>
</a>
</g>
</g>
<!-- Node2&#45;&gt;Node3 -->
<g id="edge2" class="edge"><title>Node2&#45;&gt;Node3</title>
<path fill="none" stroke="midnightblue" d="M342.767,-130.55C363.851,-135.931 386.845,-141.799 407.2,-146.994"/>
<polygon fill="midnightblue" stroke="midnightblue" points="343.466,-127.116 332.911,-128.035 341.735,-133.899 343.466,-127.116"/>
</g>
<!-- Node5 -->
<g id="node5" class="node"><title>Node5</title>
<g id="a_node5"><a xlink:href="class_lang_1_1_diff_1_1_sequence_matcher.html#a3c53dfe69d35f922ad4e4b61d11f7ff5" target="_top" xlink:title="Lang.Diff.SequenceMatcher.get\l_mismatching">
<polygon fill="none" stroke="black" points="388.5,-98 388.5,-128 545.5,-128 545.5,-98 388.5,-98"/>
<text text-anchor="start" x="396.5" y="-116" font-family="Helvetica,sans-Serif" font-size="10.00">Lang.Diff.SequenceMatcher.get</text>
<text text-anchor="middle" x="467" y="-105" font-family="Helvetica,sans-Serif" font-size="10.00">_mismatching</text>
</a>
</g>
</g>
<!-- Node2&#45;&gt;Node5 -->
<g id="edge4" class="edge"><title>Node2&#45;&gt;Node5</title>
<path fill="none" stroke="midnightblue" d="M361.605,-113C370.571,-113 379.635,-113 388.482,-113"/>
<polygon fill="midnightblue" stroke="midnightblue" points="361.54,-109.5 351.54,-113 361.54,-116.5 361.54,-109.5"/>
</g>
<!-- Node4 -->
<g id="node4" class="node"><title>Node4</title>
<g id="a_node4"><a xlink:href="class_lang_1_1_diff_1_1_sequence_matcher.html#ae5b602b7de355769e231792c131eac5b" target="_top" xlink:title="Tuples and lists are used here instead of generators. ">
<polygon fill="none" stroke="black" points="582.5,-147 582.5,-177 739.5,-177 739.5,-147 582.5,-147"/>
<text text-anchor="start" x="590.5" y="-165" font-family="Helvetica,sans-Serif" font-size="10.00">Lang.Diff.SequenceMatcher.get</text>
<text text-anchor="middle" x="661" y="-154" font-family="Helvetica,sans-Serif" font-size="10.00">_mismatching_elems</text>
</a>
</g>
</g>
<!-- Node3&#45;&gt;Node4 -->
<g id="edge3" class="edge"><title>Node3&#45;&gt;Node4</title>
<path fill="none" stroke="midnightblue" d="M555.605,-162C564.571,-162 573.635,-162 582.482,-162"/>
<polygon fill="midnightblue" stroke="midnightblue" points="555.54,-158.5 545.54,-162 555.54,-165.5 555.54,-158.5"/>
</g>
<!-- Node7 -->
<g id="node7" class="node"><title>Node7</title>
<g id="a_node7"><a xlink:href="class_lang_1_1_diff_1_1_sequence_matcher.html#a606798d3f359f0a5872578fbee9acba0" target="_top" xlink:title="Tuples and lists are used here instead of generators. ">
<polygon fill="none" stroke="black" points="388.5,-49 388.5,-79 545.5,-79 545.5,-49 388.5,-49"/>
<text text-anchor="start" x="396.5" y="-67" font-family="Helvetica,sans-Serif" font-size="10.00">Lang.Diff.SequenceMatcher.get</text>
<text text-anchor="middle" x="467" y="-56" font-family="Helvetica,sans-Serif" font-size="10.00">_matching_elems</text>
</a>
</g>
</g>
<!-- Node6&#45;&gt;Node7 -->
<g id="edge6" class="edge"><title>Node6&#45;&gt;Node7</title>
<path fill="none" stroke="midnightblue" d="M361.605,-64C370.571,-64 379.635,-64 388.482,-64"/>
<polygon fill="midnightblue" stroke="midnightblue" points="361.54,-60.5001 351.54,-64 361.54,-67.5001 361.54,-60.5001"/>
</g>
</g>
</svg>
        <g id="navigator" transform="translate(0 0)" fill="#404254">
                <rect fill="#f2f5e9" fill-opacity="0.5" stroke="#606060" stroke-width=".5" x="0" y="0" width="60" height="60"/>
                <use id="zoomplus" xlink:href="#zoomPlus" x="17" y="9" onmousedown="handleZoom(evt,'in')"/>
                <use id="zoomminus" xlink:href="#zoomMin" x="42" y="9" onmousedown="handleZoom(evt,'out')"/>
                <use id="reset" xlink:href="#resetDef" x="30" y="36" onmousedown="handleReset()"/>
                <g id="arrowUp" xlink:href="#dirArrow" transform="translate(30 24)" onmousedown="handlePan(0,-1)">
                  <use xlink:href="#rim" fill="#404040">
                        <set attributeName="fill" to="#808080" begin="arrowUp.mouseover" end="arrowUp.mouseout"/>
                  </use>
                  <path fill="none" stroke="white" stroke-width="1.5" d="M0,-3.0v7 M-2.5,-0.5L0,-3.0L2.5,-0.5"/>
                </g>
                <g id="arrowRight" xlink:href="#dirArrow" transform="rotate(90) translate(36 -43)" onmousedown="handlePan(1,0)">
                  <use xlink:href="#rim" fill="#404040">
                        <set attributeName="fill" to="#808080" begin="arrowRight.mouseover" end="arrowRight.mouseout"/>
                  </use>
                  <path fill="none" stroke="white" stroke-width="1.5" d="M0,-3.0v7 M-2.5,-0.5L0,-3.0L2.5,-0.5"/>
                </g>
                <g id="arrowDown" xlink:href="#dirArrow" transform="rotate(180) translate(-30 -48)" onmousedown="handlePan(0,1)">
                  <use xlink:href="#rim" fill="#404040">
                        <set attributeName="fill" to="#808080" begin="arrowDown.mouseover" end="arrowDown.mouseout"/>
                  </use>
                  <path fill="none" stroke="white" stroke-width="1.5" d="M0,-3.0v7 M-2.5,-0.5L0,-3.0L2.5,-0.5"/>
                </g>
                <g id="arrowLeft" xlink:href="#dirArrow" transform="rotate(270) translate(-36 17)" onmousedown="handlePan(-1,0)">
                  <use xlink:href="#rim" fill="#404040">
                        <set attributeName="fill" to="#808080" begin="arrowLeft.mouseover" end="arrowLeft.mouseout"/>
                  </use>
                  <path fill="none" stroke="white" stroke-width="1.5" d="M0,-3.0v7 M-2.5,-0.5L0,-3.0L2.5,-0.5"/>
                </g>
        </g>
        <svg viewBox="0 0 15 15" width="100%" height="30px" preserveAspectRatio="xMaxYMin meet">
         <g id="arrow_out" transform="scale(0.3 0.3)">
          <a xlink:href="class_lang_1_1_diff_1_1_sequence_matcher_aae18597b82d486839e6b1b9e1d850438_icgraph_org.svg" target="_base">
           <rect id="button" ry="5" rx="5" y="6" x="6" height="38" width="38"
                fill="#f2f5e9" fill-opacity="0.5" stroke="#606060" stroke-width="1.0"/>
           <path id="arrow"
             d="M 11.500037,31.436501 C 11.940474,20.09759 22.043105,11.32322 32.158766,21.979434 L 37.068811,17.246167 C 37.068811,17.246167 37.088388,32 37.088388,32 L 22.160133,31.978069 C 22.160133,31.978069 26.997745,27.140456 26.997745,27.140456 C 18.528582,18.264221 13.291696,25.230495 11.500037,31.436501 z"
             style="fill:#404040;"/>
          </a>
         </g>
        </svg>
</svg>
