<?xml version="1.0" encoding="UTF-8" standalone="no"?>
<!DOCTYPE svg PUBLIC "-//W3C//DTD SVG 1.1//EN"
 "http://www.w3.org/Graphics/SVG/1.1/DTD/svg11.dtd">
<!-- Generated by graphviz version 2.36.0 (20140111.2315)
 -->
<!-- Title: Lang.Concurrency.abstract.LockSemaphore.hasAvailableSlot Pages: 1 -->
<svg width="618pt" height="87pt"
 viewBox="0.00 0.00 618.00 87.00" xmlns="http://www.w3.org/2000/svg" xmlns:xlink="http://www.w3.org/1999/xlink">
<g id="graph0" class="graph" transform="scale(1 1) rotate(0) translate(4 83)">
<title>Lang.Concurrency.abstract.LockSemaphore.hasAvailableSlot</title>
<!-- Node1 -->
<g id="node1" class="node"><title>Node1</title>
<polygon fill="#bfbfbf" stroke="black" points="0,-24 0,-54 166,-54 166,-24 0,-24"/>
<text text-anchor="start" x="8" y="-42" font-family="Helvetica,sans-Serif" font-size="10.00">Lang.Concurrency.abstract.</text>
<text text-anchor="middle" x="83" y="-31" font-family="Helvetica,sans-Serif" font-size="10.00">LockSemaphore.hasAvailableSlot</text>
</g>
<!-- Node2 -->
<g id="node2" class="node"><title>Node2</title>
<g id="a_node2"><a xlink:href="class_lang_1_1_concurrency_1_1abstract_1_1_lock_semaphore.html#afa66446fed0a299bb0fa6764fff0491f" target="_top" xlink:title="Lang.Concurrency.abstract.\lLockSemaphore.getSlotsAvailable">
<polygon fill="none" stroke="black" points="202.5,-24 202.5,-54 371.5,-54 371.5,-24 202.5,-24"/>
<text text-anchor="start" x="210.5" y="-42" font-family="Helvetica,sans-Serif" font-size="10.00">Lang.Concurrency.abstract.</text>
<text text-anchor="middle" x="287" y="-31" font-family="Helvetica,sans-Serif" font-size="10.00">LockSemaphore.getSlotsAvailable</text>
</a>
</g>
</g>
<!-- Node1&#45;&gt;Node2 -->
<g id="edge1" class="edge"><title>Node1&#45;&gt;Node2</title>
<path fill="none" stroke="midnightblue" d="M166.161,-39C174.718,-39 183.463,-39 192.137,-39"/>
<polygon fill="midnightblue" stroke="midnightblue" points="192.271,-42.5001 202.271,-39 192.271,-35.5001 192.271,-42.5001"/>
</g>
<!-- Node3 -->
<g id="node3" class="node"><title>Node3</title>
<g id="a_node3"><a xlink:href="class_lang_1_1_concurrency_1_1abstract_1_1_lock_semaphore.html#aaa6946939da1ab97dfab3f19bde29a83" target="_top" xlink:title="Lang.Concurrency.abstract.\lLockSemaphore.getMaxSlots">
<polygon fill="none" stroke="black" points="435.5,-49 435.5,-79 582.5,-79 582.5,-49 435.5,-49"/>
<text text-anchor="start" x="443.5" y="-67" font-family="Helvetica,sans-Serif" font-size="10.00">Lang.Concurrency.abstract.</text>
<text text-anchor="middle" x="509" y="-56" font-family="Helvetica,sans-Serif" font-size="10.00">LockSemaphore.getMaxSlots</text>
</a>
</g>
</g>
<!-- Node2&#45;&gt;Node3 -->
<g id="edge2" class="edge"><title>Node2&#45;&gt;Node3</title>
<path fill="none" stroke="midnightblue" d="M371.8,-48.5227C389.259,-50.5068 407.654,-52.597 425.081,-54.5774"/>
<polygon fill="midnightblue" stroke="midnightblue" points="424.884,-58.0775 435.216,-55.7291 425.675,-51.1223 424.884,-58.0775"/>
</g>
<!-- Node4 -->
<g id="node4" class="node"><title>Node4</title>
<g id="a_node4"><a xlink:href="class_lang_1_1_concurrency_1_1abstract_1_1_lock_semaphore.html#a7d464e01bf7681e74ad8190af1c362f2" target="_top" xlink:title="Lang.Concurrency.abstract.\lLockSemaphore.getSlotsTakenByAnyone">
<polygon fill="none" stroke="black" points="408,-0 408,-30 610,-30 610,-0 408,-0"/>
<text text-anchor="start" x="416" y="-18" font-family="Helvetica,sans-Serif" font-size="10.00">Lang.Concurrency.abstract.</text>
<text text-anchor="middle" x="509" y="-7" font-family="Helvetica,sans-Serif" font-size="10.00">LockSemaphore.getSlotsTakenByAnyone</text>
</a>
</g>
</g>
<!-- Node2&#45;&gt;Node4 -->
<g id="edge3" class="edge"><title>Node2&#45;&gt;Node4</title>
<path fill="none" stroke="midnightblue" d="M371.8,-29.8582C380.266,-28.9346 388.952,-27.9871 397.641,-27.0392"/>
<polygon fill="midnightblue" stroke="midnightblue" points="398.267,-30.4917 407.829,-25.9278 397.508,-23.533 398.267,-30.4917"/>
</g>
</g>
</svg>
