<?xml version="1.0" encoding="UTF-8" standalone="no"?>
<!DOCTYPE svg PUBLIC "-//W3C//DTD SVG 1.1//EN"
 "http://www.w3.org/Graphics/SVG/1.1/DTD/svg11.dtd">
<!-- Generated by graphviz version 2.36.0 (20140111.2315)
 -->
<!-- Title: Lang.Terminal._formatted_text.FormattedText.asColored Pages: 1 -->
<svg width="346pt" height="87pt"
 viewBox="0.00 0.00 346.00 87.00" xmlns="http://www.w3.org/2000/svg" xmlns:xlink="http://www.w3.org/1999/xlink">
<g id="graph0" class="graph" transform="scale(1 1) rotate(0) translate(4 83)">
<title>Lang.Terminal._formatted_text.FormattedText.asColored</title>
<!-- Node1 -->
<g id="node1" class="node"><title>Node1</title>
<polygon fill="#bfbfbf" stroke="black" points="0,-24 0,-54 154,-54 154,-24 0,-24"/>
<text text-anchor="start" x="8" y="-42" font-family="Helvetica,sans-Serif" font-size="10.00">Lang.Terminal._formatted</text>
<text text-anchor="middle" x="77" y="-31" font-family="Helvetica,sans-Serif" font-size="10.00">_text.FormattedText.asColored</text>
</g>
<!-- Node2 -->
<g id="node2" class="node"><title>Node2</title>
<g id="a_node2"><a xlink:href="class_lang_1_1_terminal_1_1__formatted__text_1_1_formatted_text.html#ac8c8bbeec1f333d31eb249b2d77a9e9e" target="_top" xlink:title="Lang.Terminal._formatted\l_text.FormattedText.__str__">
<polygon fill="none" stroke="black" points="193,-49 193,-79 335,-79 335,-49 193,-49"/>
<text text-anchor="start" x="201" y="-67" font-family="Helvetica,sans-Serif" font-size="10.00">Lang.Terminal._formatted</text>
<text text-anchor="middle" x="264" y="-56" font-family="Helvetica,sans-Serif" font-size="10.00">_text.FormattedText.__str__</text>
</a>
</g>
</g>
<!-- Node1&#45;&gt;Node2 -->
<g id="edge1" class="edge"><title>Node1&#45;&gt;Node2</title>
<path fill="none" stroke="midnightblue" d="M164.06,-50.6298C173.718,-51.9349 183.471,-53.2528 192.893,-54.5261"/>
<polygon fill="midnightblue" stroke="midnightblue" points="164.426,-47.1475 154.047,-49.2767 163.489,-54.0844 164.426,-47.1475"/>
</g>
<!-- Node3 -->
<g id="node3" class="node"><title>Node3</title>
<g id="a_node3"><a xlink:href="class_lang_1_1_terminal_1_1__formatted__text_1_1_formatted_text.html#a547d278f7e579d685b251c37143776ca" target="_top" xlink:title="Lang.Terminal._formatted\l_text.FormattedText.__add__">
<polygon fill="none" stroke="black" points="190,-0 190,-30 338,-30 338,-0 190,-0"/>
<text text-anchor="start" x="198" y="-18" font-family="Helvetica,sans-Serif" font-size="10.00">Lang.Terminal._formatted</text>
<text text-anchor="middle" x="264" y="-7" font-family="Helvetica,sans-Serif" font-size="10.00">_text.FormattedText.__add__</text>
</a>
</g>
</g>
<!-- Node1&#45;&gt;Node3 -->
<g id="edge2" class="edge"><title>Node1&#45;&gt;Node3</title>
<path fill="none" stroke="midnightblue" d="M164.124,-27.8271C172.753,-26.7078 181.455,-25.5788 189.93,-24.4793"/>
<polygon fill="midnightblue" stroke="midnightblue" points="163.514,-24.3769 154.047,-29.1344 164.415,-31.3187 163.514,-24.3769"/>
</g>
</g>
</svg>
