<?xml version="1.0" encoding="UTF-8" standalone="no"?>
<!DOCTYPE svg PUBLIC "-//W3C//DTD SVG 1.1//EN"
 "http://www.w3.org/Graphics/SVG/1.1/DTD/svg11.dtd">
<!-- Generated by graphviz version 2.36.0 (20140111.2315)
 -->
<!-- Title: Lang.Events.Logging.Logging Pages: 1 -->
<svg width="156pt" height="172pt"
 viewBox="0.00 0.00 156.00 172.00" xmlns="http://www.w3.org/2000/svg" xmlns:xlink="http://www.w3.org/1999/xlink">
<g id="graph0" class="graph" transform="scale(1 1) rotate(0) translate(4 168)">
<title>Lang.Events.Logging.Logging</title>
<!-- Node1 -->
<g id="node1" class="node"><title>Node1</title>
<polygon fill="#bfbfbf" stroke="black" points="-0.5,-1 -0.5,-69 148.5,-69 148.5,-1 -0.5,-1"/>
<text text-anchor="middle" x="74" y="-57" font-family="Helvetica,sans-Serif" font-size="10.00">Lang.Events.Logging.Logging</text>
<polyline fill="none" stroke="black" points="-0.5,-50 148.5,-50 "/>
<text text-anchor="start" x="7.5" y="-38" font-family="Helvetica,sans-Serif" font-size="10.00">+ Severity</text>
<polyline fill="none" stroke="black" points="-0.5,-31 148.5,-31 "/>
<text text-anchor="start" x="7.5" y="-19" font-family="Helvetica,sans-Serif" font-size="10.00">+ __init__()</text>
<text text-anchor="start" x="7.5" y="-8" font-family="Helvetica,sans-Serif" font-size="10.00">+ addReceiver()</text>
</g>
<!-- Node2 -->
<g id="node2" class="node"><title>Node2</title>
<polygon fill="none" stroke="#bfbfbf" points="40,-106.5 40,-163.5 108,-163.5 108,-106.5 40,-106.5"/>
<text text-anchor="middle" x="74" y="-151.5" font-family="Helvetica,sans-Serif" font-size="10.00">EventProxy</text>
<polyline fill="none" stroke="#bfbfbf" points="40,-144.5 108,-144.5 "/>
<text text-anchor="middle" x="74" y="-132.5" font-family="Helvetica,sans-Serif" font-size="10.00"> </text>
<polyline fill="none" stroke="#bfbfbf" points="40,-125.5 108,-125.5 "/>
<text text-anchor="middle" x="74" y="-113.5" font-family="Helvetica,sans-Serif" font-size="10.00"> </text>
</g>
<!-- Node2&#45;&gt;Node1 -->
<g id="edge1" class="edge"><title>Node2&#45;&gt;Node1</title>
<path fill="none" stroke="midnightblue" d="M74,-96.3023C74,-87.3951 74,-77.9608 74,-69.2659"/>
<polygon fill="none" stroke="midnightblue" points="70.5001,-96.4407 74,-106.441 77.5001,-96.4408 70.5001,-96.4407"/>
</g>
</g>
</svg>
