<?xml version="1.0" encoding="UTF-8" standalone="no"?>
<!DOCTYPE svg PUBLIC "-//W3C//DTD SVG 1.1//EN"
 "http://www.w3.org/Graphics/SVG/1.1/DTD/svg11.dtd">
<!-- Generated by graphviz version 2.30.1 (20130219.2202)
 -->
<!-- Title: Lang.Struct._OrderedSet.OrderedSet.discard Pages: 1 -->
<svg width="300pt" height="87pt"
 viewBox="0.00 0.00 300.00 87.00" xmlns="http://www.w3.org/2000/svg" xmlns:xlink="http://www.w3.org/1999/xlink">
<g id="graph0" class="graph" transform="scale(1 1) rotate(0) translate(4 83)">
<title>Lang.Struct._OrderedSet.OrderedSet.discard</title>
<!-- Node1 -->
<g id="node1" class="node"><title>Node1</title>
<polygon fill="#bfbfbf" stroke="black" points="0,-24 0,-54 122,-54 122,-24 0,-24"/>
<text text-anchor="start" x="8" y="-42" font-family="Helvetica,sans-Serif" font-size="10.00">Lang.Struct._OrderedSet.</text>
<text text-anchor="middle" x="61" y="-31" font-family="Helvetica,sans-Serif" font-size="10.00">OrderedSet.discard</text>
</g>
<!-- Node2 -->
<g id="node2" class="node"><title>Node2</title>
<g id="a_node2"><a xlink:href="class_lang_1_1_struct_1_1___ordered_set_1_1_ordered_set.html#ae7575342d75192de3163730ee4a87559" target="_top" xlink:title="Lang.Struct._OrderedSet.\lOrderedSet.insertMultiBefore">
<polygon fill="none" stroke="black" points="158,-49 158,-79 292,-79 292,-49 158,-49"/>
<text text-anchor="start" x="166" y="-67" font-family="Helvetica,sans-Serif" font-size="10.00">Lang.Struct._OrderedSet.</text>
<text text-anchor="middle" x="225" y="-56" font-family="Helvetica,sans-Serif" font-size="10.00">OrderedSet.insertMultiBefore</text>
</a>
</g>
</g>
<!-- Node1&#45;&gt;Node2 -->
<g id="edge1" class="edge"><title>Node1&#45;&gt;Node2</title>
<path fill="none" stroke="midnightblue" d="M132.235,-49.8387C140.762,-51.1546 149.451,-52.4955 157.915,-53.8017"/>
<polygon fill="midnightblue" stroke="midnightblue" points="132.74,-46.3753 122.323,-48.3091 131.672,-53.2934 132.74,-46.3753"/>
</g>
<!-- Node3 -->
<g id="node3" class="node"><title>Node3</title>
<g id="a_node3"><a xlink:href="class_lang_1_1_struct_1_1___ordered_set_1_1_ordered_set.html#a2ebbeca5626629ff8e9c4da52abb9567" target="_top" xlink:title="Lang.Struct._OrderedSet.\lOrderedSet.pop">
<polygon fill="none" stroke="black" points="164,-0 164,-30 286,-30 286,-0 164,-0"/>
<text text-anchor="start" x="172" y="-18" font-family="Helvetica,sans-Serif" font-size="10.00">Lang.Struct._OrderedSet.</text>
<text text-anchor="middle" x="225" y="-7" font-family="Helvetica,sans-Serif" font-size="10.00">OrderedSet.pop</text>
</a>
</g>
</g>
<!-- Node1&#45;&gt;Node3 -->
<g id="edge2" class="edge"><title>Node1&#45;&gt;Node3</title>
<path fill="none" stroke="midnightblue" d="M132.315,-28.583C142.84,-27.0238 153.609,-25.4282 163.897,-23.9042"/>
<polygon fill="midnightblue" stroke="midnightblue" points="131.702,-25.1355 122.323,-30.0633 132.728,-32.0599 131.702,-25.1355"/>
</g>
</g>
</svg>
