<?xml version="1.0" encoding="UTF-8" standalone="no"?>
<!DOCTYPE svg PUBLIC "-//W3C//DTD SVG 1.1//EN"
 "http://www.w3.org/Graphics/SVG/1.1/DTD/svg11.dtd">
<!-- Generated by graphviz version 2.36.0 (20140111.2315)
 -->
<!-- Title: Lang.Terminal.ArgParser.ArgParser.__init__ Pages: 1 -->
<svg width="528pt" height="160pt"
 viewBox="0.00 0.00 528.00 160.00" xmlns="http://www.w3.org/2000/svg" xmlns:xlink="http://www.w3.org/1999/xlink">
<g id="graph0" class="graph" transform="scale(1 1) rotate(0) translate(4 156)">
<title>Lang.Terminal.ArgParser.ArgParser.__init__</title>
<!-- Node1 -->
<g id="node1" class="node"><title>Node1</title>
<polygon fill="#bfbfbf" stroke="black" points="0.5,-36 0.5,-66 131.5,-66 131.5,-36 0.5,-36"/>
<text text-anchor="start" x="8.5" y="-54" font-family="Helvetica,sans-Serif" font-size="10.00">Lang.Terminal.ArgParser.</text>
<text text-anchor="middle" x="66" y="-43" font-family="Helvetica,sans-Serif" font-size="10.00">ArgParser.__init__</text>
</g>
<!-- Node2 -->
<g id="node2" class="node"><title>Node2</title>
<g id="a_node2"><a xlink:href="class_lang_1_1_terminal_1_1_arg_parser_1_1___help_formatter.html#afc60d65ec840f1fb5b75f70d290528e7" target="_top" xlink:title="Lang.Terminal.ArgParser.\l_HelpFormatter.add_argument">
<polygon fill="none" stroke="black" points="171.5,-61 171.5,-91 324.5,-91 324.5,-61 171.5,-61"/>
<text text-anchor="start" x="179.5" y="-79" font-family="Helvetica,sans-Serif" font-size="10.00">Lang.Terminal.ArgParser.</text>
<text text-anchor="middle" x="248" y="-68" font-family="Helvetica,sans-Serif" font-size="10.00">_HelpFormatter.add_argument</text>
</a>
</g>
</g>
<!-- Node1&#45;&gt;Node2 -->
<g id="edge1" class="edge"><title>Node1&#45;&gt;Node2</title>
<path fill="none" stroke="midnightblue" d="M131.73,-59.9903C141.33,-61.3236 151.348,-62.715 161.295,-64.0966"/>
<polygon fill="midnightblue" stroke="midnightblue" points="160.815,-67.5634 171.201,-65.4724 161.778,-60.6299 160.815,-67.5634"/>
</g>
<!-- Node6 -->
<g id="node6" class="node"><title>Node6</title>
<g id="a_node6"><a xlink:href="class_lang_1_1_terminal_1_1_arg_parser_1_1_actions_container.html#abebd33ab7f85ca93cac08b0272b68e9d" target="_top" xlink:title="Lang.Terminal.ArgParser.\lActionsContainer.add_argument">
<polygon fill="none" stroke="black" points="168,-12 168,-42 328,-42 328,-12 168,-12"/>
<text text-anchor="start" x="176" y="-30" font-family="Helvetica,sans-Serif" font-size="10.00">Lang.Terminal.ArgParser.</text>
<text text-anchor="middle" x="248" y="-19" font-family="Helvetica,sans-Serif" font-size="10.00">ActionsContainer.add_argument</text>
</a>
</g>
</g>
<!-- Node1&#45;&gt;Node6 -->
<g id="edge5" class="edge"><title>Node1&#45;&gt;Node6</title>
<path fill="none" stroke="midnightblue" d="M131.73,-42.3694C140.224,-41.2367 149.046,-40.0605 157.857,-38.8858"/>
<polygon fill="midnightblue" stroke="midnightblue" points="158.332,-42.3535 167.781,-37.5625 157.406,-35.4149 158.332,-42.3535"/>
</g>
<!-- Node3 -->
<g id="node3" class="node"><title>Node3</title>
<g id="a_node3"><a xlink:href="class_lang_1_1_terminal_1_1_arg_parser_1_1___help_formatter.html#ab4c7db6aa1facbde7f0dc45e11dba681" target="_top" xlink:title="Lang.Terminal.ArgParser.\l_HelpFormatter._format\l_action_invocation">
<polygon fill="none" stroke="black" points="376.5,-110.5 376.5,-151.5 507.5,-151.5 507.5,-110.5 376.5,-110.5"/>
<text text-anchor="start" x="384.5" y="-139.5" font-family="Helvetica,sans-Serif" font-size="10.00">Lang.Terminal.ArgParser.</text>
<text text-anchor="start" x="384.5" y="-128.5" font-family="Helvetica,sans-Serif" font-size="10.00">_HelpFormatter._format</text>
<text text-anchor="middle" x="442" y="-117.5" font-family="Helvetica,sans-Serif" font-size="10.00">_action_invocation</text>
</a>
</g>
</g>
<!-- Node2&#45;&gt;Node3 -->
<g id="edge2" class="edge"><title>Node2&#45;&gt;Node3</title>
<path fill="none" stroke="midnightblue" d="M301.465,-91.029C321.492,-96.7659 344.726,-103.422 366.422,-109.637"/>
<polygon fill="midnightblue" stroke="midnightblue" points="365.688,-113.067 376.265,-112.456 367.616,-106.338 365.688,-113.067"/>
</g>
<!-- Node4 -->
<g id="node4" class="node"><title>Node4</title>
<g id="a_node4"><a xlink:href="class_lang_1_1_terminal_1_1_arg_parser_1_1___help_formatter.html#a594fc410802489c7f9e38f64104467c9" target="_top" xlink:title="Lang.Terminal.ArgParser.\l_HelpFormatter._format_action">
<polygon fill="none" stroke="black" points="364.5,-61 364.5,-91 519.5,-91 519.5,-61 364.5,-61"/>
<text text-anchor="start" x="372.5" y="-79" font-family="Helvetica,sans-Serif" font-size="10.00">Lang.Terminal.ArgParser.</text>
<text text-anchor="middle" x="442" y="-68" font-family="Helvetica,sans-Serif" font-size="10.00">_HelpFormatter._format_action</text>
</a>
</g>
</g>
<!-- Node2&#45;&gt;Node4 -->
<g id="edge3" class="edge"><title>Node2&#45;&gt;Node4</title>
<path fill="none" stroke="midnightblue" d="M324.608,-76C334.266,-76 344.212,-76 354.031,-76"/>
<polygon fill="midnightblue" stroke="midnightblue" points="354.2,-79.5001 364.2,-76 354.2,-72.5001 354.2,-79.5001"/>
</g>
<!-- Node5 -->
<g id="node5" class="node"><title>Node5</title>
<g id="a_node5"><a xlink:href="class_lang_1_1_terminal_1_1_arg_parser_1_1___help_formatter.html#a711123a0316f56896dea9b45159a4f28" target="_top" xlink:title="Lang.Terminal.ArgParser.\l_HelpFormatter._format\l_action_calcWidths">
<polygon fill="none" stroke="black" points="376.5,-0.5 376.5,-41.5 507.5,-41.5 507.5,-0.5 376.5,-0.5"/>
<text text-anchor="start" x="384.5" y="-29.5" font-family="Helvetica,sans-Serif" font-size="10.00">Lang.Terminal.ArgParser.</text>
<text text-anchor="start" x="384.5" y="-18.5" font-family="Helvetica,sans-Serif" font-size="10.00">_HelpFormatter._format</text>
<text text-anchor="middle" x="442" y="-7.5" font-family="Helvetica,sans-Serif" font-size="10.00">_action_calcWidths</text>
</a>
</g>
</g>
<!-- Node2&#45;&gt;Node5 -->
<g id="edge4" class="edge"><title>Node2&#45;&gt;Node5</title>
<path fill="none" stroke="midnightblue" d="M301.465,-60.971C321.492,-55.2341 344.726,-48.5784 366.422,-42.3635"/>
<polygon fill="midnightblue" stroke="midnightblue" points="367.616,-45.6624 376.265,-39.5438 365.688,-38.933 367.616,-45.6624"/>
</g>
</g>
</svg>
