<?xml version="1.0" encoding="UTF-8" standalone="no"?>
<!DOCTYPE svg PUBLIC "-//W3C//DTD SVG 1.1//EN"
 "http://www.w3.org/Graphics/SVG/1.1/DTD/svg11.dtd">
<!-- Generated by graphviz version 2.36.0 (20140111.2315)
 -->
<!-- Title: Lang.Diff.SequenceMatcher.get_mismatching_blocks Pages: 1 -->
<svg width="360pt" height="136pt"
 viewBox="0.00 0.00 360.00 136.00" xmlns="http://www.w3.org/2000/svg" xmlns:xlink="http://www.w3.org/1999/xlink">
<g id="graph0" class="graph" transform="scale(1 1) rotate(0) translate(4 132)">
<title>Lang.Diff.SequenceMatcher.get_mismatching_blocks</title>
<!-- Node1 -->
<g id="node1" class="node"><title>Node1</title>
<polygon fill="#bfbfbf" stroke="black" points="0.5,-49 0.5,-79 157.5,-79 157.5,-49 0.5,-49"/>
<text text-anchor="start" x="8.5" y="-67" font-family="Helvetica,sans-Serif" font-size="10.00">Lang.Diff.SequenceMatcher.get</text>
<text text-anchor="middle" x="79" y="-56" font-family="Helvetica,sans-Serif" font-size="10.00">_mismatching_blocks</text>
</g>
<!-- Node2 -->
<g id="node2" class="node"><title>Node2</title>
<g id="a_node2"><a xlink:href="class_lang_1_1_diff_1_1_sequence_matcher.html#aae18597b82d486839e6b1b9e1d850438" target="_top" xlink:title="Lang.Diff.SequenceMatcher.get\l_matching_blocks">
<polygon fill="none" stroke="black" points="194.5,-98 194.5,-128 351.5,-128 351.5,-98 194.5,-98"/>
<text text-anchor="start" x="202.5" y="-116" font-family="Helvetica,sans-Serif" font-size="10.00">Lang.Diff.SequenceMatcher.get</text>
<text text-anchor="middle" x="273" y="-105" font-family="Helvetica,sans-Serif" font-size="10.00">_matching_blocks</text>
</a>
</g>
</g>
<!-- Node1&#45;&gt;Node2 -->
<g id="edge1" class="edge"><title>Node1&#45;&gt;Node2</title>
<path fill="none" stroke="midnightblue" d="M138.911,-79.0346C159.276,-84.2318 182.272,-90.1006 203.349,-95.4796"/>
<polygon fill="midnightblue" stroke="midnightblue" points="202.645,-98.9122 213.2,-97.9938 204.376,-92.1296 202.645,-98.9122"/>
</g>
<!-- Node3 -->
<g id="node3" class="node"><title>Node3</title>
<g id="a_node3"><a xlink:href="class_lang_1_1_diff_1_1_sequence_matcher.html#a7d87778dba05d7442659d922584994ea" target="_top" xlink:title="Lang.Diff.SequenceMatcher.\l_diffSingleSide">
<polygon fill="none" stroke="black" points="201.5,-49 201.5,-79 344.5,-79 344.5,-49 201.5,-49"/>
<text text-anchor="start" x="209.5" y="-67" font-family="Helvetica,sans-Serif" font-size="10.00">Lang.Diff.SequenceMatcher.</text>
<text text-anchor="middle" x="273" y="-56" font-family="Helvetica,sans-Serif" font-size="10.00">_diffSingleSide</text>
</a>
</g>
</g>
<!-- Node1&#45;&gt;Node3 -->
<g id="edge2" class="edge"><title>Node1&#45;&gt;Node3</title>
<path fill="none" stroke="midnightblue" d="M157.54,-64C168.616,-64 180.033,-64 191.17,-64"/>
<polygon fill="midnightblue" stroke="midnightblue" points="191.302,-67.5001 201.302,-64 191.302,-60.5001 191.302,-67.5001"/>
</g>
<!-- Node4 -->
<g id="node4" class="node"><title>Node4</title>
<g id="a_node4"><a xlink:href="class_lang_1_1_diff_1_1_sequence_matcher.html#a180307710206ac883b8f7236bc8ef93a" target="_top" xlink:title="Lang.Diff.SequenceMatcher.\l_blocksToElems">
<polygon fill="none" stroke="black" points="201.5,-0 201.5,-30 344.5,-30 344.5,-0 201.5,-0"/>
<text text-anchor="start" x="209.5" y="-18" font-family="Helvetica,sans-Serif" font-size="10.00">Lang.Diff.SequenceMatcher.</text>
<text text-anchor="middle" x="273" y="-7" font-family="Helvetica,sans-Serif" font-size="10.00">_blocksToElems</text>
</a>
</g>
</g>
<!-- Node1&#45;&gt;Node4 -->
<g id="edge3" class="edge"><title>Node1&#45;&gt;Node4</title>
<path fill="none" stroke="midnightblue" d="M138.911,-48.9654C159.276,-43.7682 182.272,-37.8994 203.349,-32.5204"/>
<polygon fill="midnightblue" stroke="midnightblue" points="204.376,-35.8704 213.2,-30.0062 202.645,-29.0878 204.376,-35.8704"/>
</g>
</g>
</svg>
