<?xml version="1.0" encoding="UTF-8" standalone="no"?>
<!DOCTYPE svg PUBLIC "-//W3C//DTD SVG 1.1//EN"
 "http://www.w3.org/Graphics/SVG/1.1/DTD/svg11.dtd">
<!-- Generated by graphviz version 2.36.0 (20140111.2315)
 -->
<!-- Title: Lang.ClassTools.Patterns._multiton.Multiton_OneEquivalentInstance_OnDupRaiseException Pages: 1 -->
<svg width="174pt" height="182pt"
 viewBox="0.00 0.00 174.00 182.00" xmlns="http://www.w3.org/2000/svg" xmlns:xlink="http://www.w3.org/1999/xlink">
<g id="graph0" class="graph" transform="scale(1 1) rotate(0) translate(4 178)">
<title>Lang.ClassTools.Patterns._multiton.Multiton_OneEquivalentInstance_OnDupRaiseException</title>
<!-- Node1 -->
<g id="node1" class="node"><title>Node1</title>
<polygon fill="#bfbfbf" stroke="black" points="0,-0.5 0,-79.5 166,-79.5 166,-0.5 0,-0.5"/>
<text text-anchor="start" x="8" y="-67.5" font-family="Helvetica,sans-Serif" font-size="10.00">Lang.ClassTools.Patterns.</text>
<text text-anchor="start" x="8" y="-56.5" font-family="Helvetica,sans-Serif" font-size="10.00">_multiton.Multiton_OneEquivalent</text>
<text text-anchor="middle" x="83" y="-45.5" font-family="Helvetica,sans-Serif" font-size="10.00">Instance_OnDupRaiseException</text>
<polyline fill="none" stroke="black" points="0,-38.5 166,-38.5 "/>
<text text-anchor="middle" x="83" y="-26.5" font-family="Helvetica,sans-Serif" font-size="10.00"> </text>
<polyline fill="none" stroke="black" points="0,-19.5 166,-19.5 "/>
<text text-anchor="middle" x="83" y="-7.5" font-family="Helvetica,sans-Serif" font-size="10.00"> </text>
</g>
<!-- Node2 -->
<g id="node2" class="node"><title>Node2</title>
<g id="a_node2"><a xlink:href="classobject.html" target="_top" xlink:title="{object\n||}">
<polygon fill="none" stroke="black" points="61.5,-116.5 61.5,-173.5 104.5,-173.5 104.5,-116.5 61.5,-116.5"/>
<text text-anchor="middle" x="83" y="-161.5" font-family="Helvetica,sans-Serif" font-size="10.00">object</text>
<polyline fill="none" stroke="black" points="61.5,-154.5 104.5,-154.5 "/>
<text text-anchor="middle" x="83" y="-142.5" font-family="Helvetica,sans-Serif" font-size="10.00"> </text>
<polyline fill="none" stroke="black" points="61.5,-135.5 104.5,-135.5 "/>
<text text-anchor="middle" x="83" y="-123.5" font-family="Helvetica,sans-Serif" font-size="10.00"> </text>
</a>
</g>
</g>
<!-- Node2&#45;&gt;Node1 -->
<g id="edge1" class="edge"><title>Node2&#45;&gt;Node1</title>
<path fill="none" stroke="midnightblue" d="M83,-106.156C83,-97.4733 83,-88.2318 83,-79.5205"/>
<polygon fill="none" stroke="midnightblue" points="79.5001,-106.398 83,-116.398 86.5001,-106.398 79.5001,-106.398"/>
</g>
</g>
</svg>
