<?xml version="1.0" encoding="UTF-8" standalone="no"?>
<!DOCTYPE svg PUBLIC "-//W3C//DTD SVG 1.1//EN"
 "http://www.w3.org/Graphics/SVG/1.1/DTD/svg11.dtd">
<!-- Generated by graphviz version 2.28.0 (20121214.2254)
 -->
<!-- Title: _ActionsContainer Pages: 1 -->
<svg width="164pt" height="266pt"
 viewBox="0.00 0.00 164.00 266.00" xmlns="http://www.w3.org/2000/svg" xmlns:xlink="http://www.w3.org/1999/xlink">
<g id="graph1" class="graph" transform="scale(1 1) rotate(0) translate(4 262)">
<title>_ActionsContainer</title>
<!-- Node1 -->
<g id="node1" class="node"><title>Node1</title>
<polygon fill="#bfbfbf" stroke="black" points="31.5,-200.5 31.5,-257.5 124.5,-257.5 124.5,-200.5 31.5,-200.5"/>
<text text-anchor="middle" x="78" y="-245.5" font-family="Helvetica,sans-Serif" font-size="10.00">_ActionsContainer</text>
<polyline fill="none" stroke="black" points="31.5,-238.5 124.5,-238.5 "/>
<text text-anchor="middle" x="78" y="-226.5" font-family="Helvetica,sans-Serif" font-size="10.00"> </text>
<polyline fill="none" stroke="black" points="31.5,-219.5 124.5,-219.5 "/>
<text text-anchor="middle" x="78" y="-207.5" font-family="Helvetica,sans-Serif" font-size="10.00"> </text>
</g>
<!-- Node2 -->
<g id="node3" class="node"><title>Node2</title>
<a xlink:href="class_lang_1_1_arg_parser_1_1_actions_container.html" target="_top" xlink:title="{Lang.ArgParser.ActionsContainer\n||+ add_argument()\l}">
<polygon fill="none" stroke="black" points="0,-106.5 0,-163.5 156,-163.5 156,-106.5 0,-106.5"/>
<text text-anchor="middle" x="78" y="-151.5" font-family="Helvetica,sans-Serif" font-size="10.00">Lang.ArgParser.ActionsContainer</text>
<polyline fill="none" stroke="black" points="0,-144.5 156,-144.5 "/>
<text text-anchor="middle" x="78" y="-132.5" font-family="Helvetica,sans-Serif" font-size="10.00"> </text>
<polyline fill="none" stroke="black" points="0,-125.5 156,-125.5 "/>
<text text-anchor="start" x="8" y="-113.5" font-family="Helvetica,sans-Serif" font-size="10.00">+ add_argument()</text>
</a>
</g>
<!-- Node1&#45;&gt;Node2 -->
<g id="edge2" class="edge"><title>Node1&#45;&gt;Node2</title>
<path fill="none" stroke="midnightblue" d="M78,-190.209C78,-181.293 78,-171.951 78,-163.584"/>
<polygon fill="none" stroke="midnightblue" points="74.5001,-190.397 78,-200.397 81.5001,-190.397 74.5001,-190.397"/>
</g>
<!-- Node3 -->
<g id="node5" class="node"><title>Node3</title>
<a xlink:href="class_lang_1_1_arg_parser_1_1_arg_parser.html" target="_top" xlink:title="Supports positional arguments, named required arguments, and named optional arguments, with help in man&#45;page&#45;like format.">
<polygon fill="none" stroke="black" points="14.5,-1 14.5,-69 141.5,-69 141.5,-1 14.5,-1"/>
<text text-anchor="middle" x="78" y="-57" font-family="Helvetica,sans-Serif" font-size="10.00">Lang.ArgParser.ArgParser</text>
<polyline fill="none" stroke="black" points="14.5,-50 141.5,-50 "/>
<text text-anchor="middle" x="78" y="-38" font-family="Helvetica,sans-Serif" font-size="10.00"> </text>
<polyline fill="none" stroke="black" points="14.5,-31 141.5,-31 "/>
<text text-anchor="start" x="22.5" y="-19" font-family="Helvetica,sans-Serif" font-size="10.00">+ __init__()</text>
<text text-anchor="start" x="22.5" y="-8" font-family="Helvetica,sans-Serif" font-size="10.00">+ error()</text>
</a>
</g>
<!-- Node2&#45;&gt;Node3 -->
<g id="edge4" class="edge"><title>Node2&#45;&gt;Node3</title>
<path fill="none" stroke="midnightblue" d="M78,-96.3023C78,-87.3951 78,-77.9608 78,-69.2659"/>
<polygon fill="none" stroke="midnightblue" points="74.5001,-96.4407 78,-106.441 81.5001,-96.4408 74.5001,-96.4407"/>
</g>
</g>
</svg>
