<?xml version="1.0" encoding="UTF-8" standalone="no"?>
<!DOCTYPE svg PUBLIC "-//W3C//DTD SVG 1.1//EN"
 "http://www.w3.org/Graphics/SVG/1.1/DTD/svg11.dtd">
<!-- Generated by graphviz version 2.36.0 (20140111.2315)
 -->
<!-- Title: Lang.Struct._OrderedSet.OrderedSet.__delitem__ Pages: 1 -->
<svg width="326pt" height="87pt"
 viewBox="0.00 0.00 326.00 87.00" xmlns="http://www.w3.org/2000/svg" xmlns:xlink="http://www.w3.org/1999/xlink">
<g id="graph0" class="graph" transform="scale(1 1) rotate(0) translate(4 83)">
<title>Lang.Struct._OrderedSet.OrderedSet.__delitem__</title>
<!-- Node1 -->
<g id="node1" class="node"><title>Node1</title>
<polygon fill="#bfbfbf" stroke="black" points="0,-24 0,-54 130,-54 130,-24 0,-24"/>
<text text-anchor="start" x="8" y="-42" font-family="Helvetica,sans-Serif" font-size="10.00">Lang.Struct._OrderedSet.</text>
<text text-anchor="middle" x="65" y="-31" font-family="Helvetica,sans-Serif" font-size="10.00">OrderedSet.__delitem__</text>
</g>
<!-- Node2 -->
<g id="node2" class="node"><title>Node2</title>
<g id="a_node2"><a xlink:href="class_lang_1_1_struct_1_1___ordered_set_1_1_ordered_set.html#a0d96b91eb6a06a5725485bf0942646b5" target="_top" xlink:title="Lang.Struct._OrderedSet.\lOrderedSet.discard">
<polygon fill="none" stroke="black" points="177,-49 177,-79 307,-79 307,-49 177,-49"/>
<text text-anchor="start" x="185" y="-67" font-family="Helvetica,sans-Serif" font-size="10.00">Lang.Struct._OrderedSet.</text>
<text text-anchor="middle" x="242" y="-56" font-family="Helvetica,sans-Serif" font-size="10.00">OrderedSet.discard</text>
</a>
</g>
</g>
<!-- Node1&#45;&gt;Node2 -->
<g id="edge1" class="edge"><title>Node1&#45;&gt;Node2</title>
<path fill="none" stroke="midnightblue" d="M130.17,-48.1671C142.059,-49.8655 154.567,-51.6525 166.727,-53.3896"/>
<polygon fill="midnightblue" stroke="midnightblue" points="166.443,-56.8845 176.838,-54.834 167.433,-49.9549 166.443,-56.8845"/>
</g>
<!-- Node3 -->
<g id="node3" class="node"><title>Node3</title>
<g id="a_node3"><a xlink:href="class_lang_1_1_struct_1_1___ordered_set_1_1_ordered_set.html#a3b5b0f278022d362913215cc21961b4e" target="_top" xlink:title="Inserts newElemBefore into the current position of oldLinkAfter. ">
<polygon fill="none" stroke="black" points="166.5,-0 166.5,-30 317.5,-30 317.5,-0 166.5,-0"/>
<text text-anchor="start" x="174.5" y="-18" font-family="Helvetica,sans-Serif" font-size="10.00">Lang.Struct._OrderedSet.</text>
<text text-anchor="middle" x="242" y="-7" font-family="Helvetica,sans-Serif" font-size="10.00">OrderedSet._insertBefore_link</text>
</a>
</g>
</g>
<!-- Node1&#45;&gt;Node3 -->
<g id="edge2" class="edge"><title>Node1&#45;&gt;Node3</title>
<path fill="none" stroke="midnightblue" d="M130.17,-30.1996C138.746,-29.0234 147.644,-27.8031 156.502,-26.5884"/>
<polygon fill="midnightblue" stroke="midnightblue" points="157.033,-30.0483 166.465,-25.2219 156.082,-23.1132 157.033,-30.0483"/>
</g>
</g>
</svg>
