<?xml version="1.0" encoding="UTF-8" standalone="no"?>
<!DOCTYPE svg PUBLIC "-//W3C//DTD SVG 1.1//EN"
 "http://www.w3.org/Graphics/SVG/1.1/DTD/svg11.dtd">
<!-- Generated by graphviz version 2.36.0 (20140111.2315)
 -->
<!-- Title: Lang.Diff.SequenceMatcher.get_matching_elems Pages: 1 -->
<svg width="554pt" height="87pt"
 viewBox="0.00 0.00 554.00 87.00" xmlns="http://www.w3.org/2000/svg" xmlns:xlink="http://www.w3.org/1999/xlink">
<g id="graph0" class="graph" transform="scale(1 1) rotate(0) translate(4 83)">
<title>Lang.Diff.SequenceMatcher.get_matching_elems</title>
<!-- Node1 -->
<g id="node1" class="node"><title>Node1</title>
<polygon fill="#bfbfbf" stroke="black" points="0.5,-24 0.5,-54 157.5,-54 157.5,-24 0.5,-24"/>
<text text-anchor="start" x="8.5" y="-42" font-family="Helvetica,sans-Serif" font-size="10.00">Lang.Diff.SequenceMatcher.get</text>
<text text-anchor="middle" x="79" y="-31" font-family="Helvetica,sans-Serif" font-size="10.00">_matching_elems</text>
</g>
<!-- Node2 -->
<g id="node2" class="node"><title>Node2</title>
<g id="a_node2"><a xlink:href="class_lang_1_1_diff_1_1_sequence_matcher.html#a523e8db72ca0fa10a4519a28f3dd6202" target="_top" xlink:title="Generators will be returned which can only be iterated over once. ">
<polygon fill="none" stroke="black" points="194.5,-24 194.5,-54 351.5,-54 351.5,-24 194.5,-24"/>
<text text-anchor="start" x="202.5" y="-42" font-family="Helvetica,sans-Serif" font-size="10.00">Lang.Diff.SequenceMatcher.get</text>
<text text-anchor="middle" x="273" y="-31" font-family="Helvetica,sans-Serif" font-size="10.00">_matching_elems_useOnce</text>
</a>
</g>
</g>
<!-- Node1&#45;&gt;Node2 -->
<g id="edge1" class="edge"><title>Node1&#45;&gt;Node2</title>
<path fill="none" stroke="midnightblue" d="M157.54,-39C166.388,-39 175.452,-39 184.418,-39"/>
<polygon fill="midnightblue" stroke="midnightblue" points="184.482,-42.5001 194.482,-39 184.482,-35.5001 184.482,-42.5001"/>
</g>
<!-- Node3 -->
<g id="node3" class="node"><title>Node3</title>
<g id="a_node3"><a xlink:href="class_lang_1_1_diff_1_1_sequence_matcher.html#a2346b09e64458b8797a8285136376ff5" target="_top" xlink:title="Lang.Diff.SequenceMatcher.\l_getElems">
<polygon fill="none" stroke="black" points="395.5,-49 395.5,-79 538.5,-79 538.5,-49 395.5,-49"/>
<text text-anchor="start" x="403.5" y="-67" font-family="Helvetica,sans-Serif" font-size="10.00">Lang.Diff.SequenceMatcher.</text>
<text text-anchor="middle" x="467" y="-56" font-family="Helvetica,sans-Serif" font-size="10.00">_getElems</text>
</a>
</g>
</g>
<!-- Node2&#45;&gt;Node3 -->
<g id="edge2" class="edge"><title>Node2&#45;&gt;Node3</title>
<path fill="none" stroke="midnightblue" d="M351.54,-49.0964C362.616,-50.5386 374.033,-52.0251 385.17,-53.4753"/>
<polygon fill="midnightblue" stroke="midnightblue" points="384.934,-56.974 395.302,-54.7945 385.838,-50.0325 384.934,-56.974"/>
</g>
<!-- Node4 -->
<g id="node4" class="node"><title>Node4</title>
<g id="a_node4"><a xlink:href="class_lang_1_1_diff_1_1_sequence_matcher.html#aae18597b82d486839e6b1b9e1d850438" target="_top" xlink:title="Lang.Diff.SequenceMatcher.get\l_matching_blocks">
<polygon fill="none" stroke="black" points="388.5,-0 388.5,-30 545.5,-30 545.5,-0 388.5,-0"/>
<text text-anchor="start" x="396.5" y="-18" font-family="Helvetica,sans-Serif" font-size="10.00">Lang.Diff.SequenceMatcher.get</text>
<text text-anchor="middle" x="467" y="-7" font-family="Helvetica,sans-Serif" font-size="10.00">_matching_blocks</text>
</a>
</g>
</g>
<!-- Node2&#45;&gt;Node4 -->
<g id="edge3" class="edge"><title>Node2&#45;&gt;Node4</title>
<path fill="none" stroke="midnightblue" d="M351.54,-29.3075C360.388,-28.2015 369.452,-27.0685 378.418,-25.9477"/>
<polygon fill="midnightblue" stroke="midnightblue" points="378.994,-29.4031 388.482,-24.6897 378.125,-22.4572 378.994,-29.4031"/>
</g>
</g>
</svg>
