<?xml version="1.0" encoding="UTF-8" standalone="no"?>
<!DOCTYPE svg PUBLIC "-//W3C//DTD SVG 1.1//EN"
 "http://www.w3.org/Graphics/SVG/1.1/DTD/svg11.dtd">
<!-- Generated by graphviz version 2.30.1 (20130219.2202)
 -->
<!-- Title: Lang.Struct._OrderedSet.OrderedSet.index Pages: 1 -->
<svg width="308pt" height="136pt"
 viewBox="0.00 0.00 308.00 136.00" xmlns="http://www.w3.org/2000/svg" xmlns:xlink="http://www.w3.org/1999/xlink">
<g id="graph0" class="graph" transform="scale(1 1) rotate(0) translate(4 132)">
<title>Lang.Struct._OrderedSet.OrderedSet.index</title>
<!-- Node1 -->
<g id="node1" class="node"><title>Node1</title>
<polygon fill="#bfbfbf" stroke="black" points="0,-49 0,-79 122,-79 122,-49 0,-49"/>
<text text-anchor="start" x="8" y="-67" font-family="Helvetica,sans-Serif" font-size="10.00">Lang.Struct._OrderedSet.</text>
<text text-anchor="middle" x="61" y="-56" font-family="Helvetica,sans-Serif" font-size="10.00">OrderedSet.index</text>
</g>
<!-- Node2 -->
<g id="node2" class="node"><title>Node2</title>
<g id="a_node2"><a xlink:href="class_lang_1_1_struct_1_1___ordered_set_1_1_ordered_set.html#ade6efa32feaaaaa421886dd13ac63a11" target="_top" xlink:title="Lang.Struct._OrderedSet.\lOrderedSet._getPositiveIndex">
<polygon fill="none" stroke="black" points="158.5,-98 158.5,-128 299.5,-128 299.5,-98 158.5,-98"/>
<text text-anchor="start" x="166.5" y="-116" font-family="Helvetica,sans-Serif" font-size="10.00">Lang.Struct._OrderedSet.</text>
<text text-anchor="middle" x="229" y="-105" font-family="Helvetica,sans-Serif" font-size="10.00">OrderedSet._getPositiveIndex</text>
</a>
</g>
</g>
<!-- Node1&#45;&gt;Node2 -->
<g id="edge1" class="edge"><title>Node1&#45;&gt;Node2</title>
<path fill="none" stroke="midnightblue" d="M113.16,-79.1014C130.281,-84.1551 149.532,-89.8376 167.308,-95.0848"/>
<polygon fill="midnightblue" stroke="midnightblue" points="166.427,-98.4741 177.009,-97.9484 168.409,-91.7605 166.427,-98.4741"/>
</g>
<!-- Node3 -->
<g id="node3" class="node"><title>Node3</title>
<g id="a_node3"><a xlink:href="class_lang_1_1_struct_1_1___ordered_set_1_1_ordered_set.html#ab742d8d2e00b307db1314f9d3780f08f" target="_top" xlink:title="Lang.Struct._OrderedSet.\lOrderedSet._getLink_byIndex">
<polygon fill="none" stroke="black" points="158.5,-49 158.5,-79 299.5,-79 299.5,-49 158.5,-49"/>
<text text-anchor="start" x="166.5" y="-67" font-family="Helvetica,sans-Serif" font-size="10.00">Lang.Struct._OrderedSet.</text>
<text text-anchor="middle" x="229" y="-56" font-family="Helvetica,sans-Serif" font-size="10.00">OrderedSet._getLink_byIndex</text>
</a>
</g>
</g>
<!-- Node1&#45;&gt;Node3 -->
<g id="edge2" class="edge"><title>Node1&#45;&gt;Node3</title>
<path fill="none" stroke="midnightblue" d="M122.399,-64C130.795,-64 139.524,-64 148.206,-64"/>
<polygon fill="midnightblue" stroke="midnightblue" points="148.355,-67.5001 158.355,-64 148.354,-60.5001 148.355,-67.5001"/>
</g>
<!-- Node4 -->
<g id="node4" class="node"><title>Node4</title>
<g id="a_node4"><a xlink:href="class_lang_1_1_struct_1_1___ordered_set_1_1_ordered_set.html#ab84ac707e36e2bb8d03afc65e17c53c2" target="_top" xlink:title="Does 2 things:">
<polygon fill="none" stroke="black" points="168,-0 168,-30 290,-30 290,-0 168,-0"/>
<text text-anchor="start" x="176" y="-18" font-family="Helvetica,sans-Serif" font-size="10.00">Lang.Struct._OrderedSet.</text>
<text text-anchor="middle" x="229" y="-7" font-family="Helvetica,sans-Serif" font-size="10.00">OrderedSet._convertSlice</text>
</a>
</g>
</g>
<!-- Node1&#45;&gt;Node4 -->
<g id="edge3" class="edge"><title>Node1&#45;&gt;Node4</title>
<path fill="none" stroke="midnightblue" d="M113.16,-48.8986C130.281,-43.8449 149.532,-38.1624 167.308,-32.9152"/>
<polygon fill="midnightblue" stroke="midnightblue" points="168.409,-36.2395 177.009,-30.0516 166.427,-29.5259 168.409,-36.2395"/>
</g>
</g>
</svg>
