<?xml version="1.0" encoding="UTF-8" standalone="no"?>
<!DOCTYPE svg PUBLIC "-//W3C//DTD SVG 1.1//EN"
 "http://www.w3.org/Graphics/SVG/1.1/DTD/svg11.dtd">
<!-- Generated by graphviz version 2.36.0 (20140111.2315)
 -->
<!-- Title: Lang.ClassTools.Patterns._startEndWith.StartEndWith.__exit__ Pages: 1 -->
<svg width="358pt" height="208pt"
 viewBox="0.00 0.00 358.00 208.00" xmlns="http://www.w3.org/2000/svg" xmlns:xlink="http://www.w3.org/1999/xlink">
<g id="graph0" class="graph" transform="scale(1 1) rotate(0) translate(4 204)">
<title>Lang.ClassTools.Patterns._startEndWith.StartEndWith.__exit__</title>
<!-- Node1 -->
<g id="node1" class="node"><title>Node1</title>
<polygon fill="#bfbfbf" stroke="black" points="0,-70.5 0,-111.5 144,-111.5 144,-70.5 0,-70.5"/>
<text text-anchor="start" x="8" y="-99.5" font-family="Helvetica,sans-Serif" font-size="10.00">Lang.ClassTools.Patterns.</text>
<text text-anchor="start" x="8" y="-88.5" font-family="Helvetica,sans-Serif" font-size="10.00">_startEndWith.StartEndWith.</text>
<text text-anchor="middle" x="72" y="-77.5" font-family="Helvetica,sans-Serif" font-size="10.00">__exit__</text>
</g>
<!-- Node2 -->
<g id="node2" class="node"><title>Node2</title>
<g id="a_node2"><a xlink:href="class_lang_1_1_class_tools_1_1_patterns_1_1__start_end_with_1_1_start_end_with.html#ab5666ebb545dd52055429abc6dabe74f" target="_top" xlink:title="Lang.ClassTools.Patterns.\l_startEndWith.StartEndWith.\l_common_end">
<polygon fill="none" stroke="black" points="193,-158.5 193,-199.5 337,-199.5 337,-158.5 193,-158.5"/>
<text text-anchor="start" x="201" y="-187.5" font-family="Helvetica,sans-Serif" font-size="10.00">Lang.ClassTools.Patterns.</text>
<text text-anchor="start" x="201" y="-176.5" font-family="Helvetica,sans-Serif" font-size="10.00">_startEndWith.StartEndWith.</text>
<text text-anchor="middle" x="265" y="-165.5" font-family="Helvetica,sans-Serif" font-size="10.00">_common_end</text>
</a>
</g>
</g>
<!-- Node1&#45;&gt;Node2 -->
<g id="edge1" class="edge"><title>Node1&#45;&gt;Node2</title>
<path fill="none" stroke="midnightblue" d="M107.977,-111.731C128.553,-123.475 155.303,-137.975 180,-149 184.366,-150.949 188.9,-152.864 193.5,-154.726"/>
<polygon fill="midnightblue" stroke="midnightblue" points="192.41,-158.058 202.997,-158.464 194.974,-151.544 192.41,-158.058"/>
</g>
<!-- Node3 -->
<g id="node3" class="node"><title>Node3</title>
<g id="a_node3"><a xlink:href="class_lang_1_1_class_tools_1_1_patterns_1_1__start_end_with_1_1_start_end_with.html#a68dc6c28568020b0adbad43460de0638" target="_top" xlink:title="Lang.ClassTools.Patterns.\l_startEndWith.StartEndWith.\l_common_start">
<polygon fill="none" stroke="black" points="193,-98.5 193,-139.5 337,-139.5 337,-98.5 193,-98.5"/>
<text text-anchor="start" x="201" y="-127.5" font-family="Helvetica,sans-Serif" font-size="10.00">Lang.ClassTools.Patterns.</text>
<text text-anchor="start" x="201" y="-116.5" font-family="Helvetica,sans-Serif" font-size="10.00">_startEndWith.StartEndWith.</text>
<text text-anchor="middle" x="265" y="-105.5" font-family="Helvetica,sans-Serif" font-size="10.00">_common_start</text>
</a>
</g>
</g>
<!-- Node1&#45;&gt;Node3 -->
<g id="edge2" class="edge"><title>Node1&#45;&gt;Node3</title>
<path fill="none" stroke="midnightblue" d="M144.121,-101.426C156.675,-103.266 169.831,-105.195 182.639,-107.073"/>
<polygon fill="midnightblue" stroke="midnightblue" points="182.417,-110.578 192.819,-108.565 183.433,-103.652 182.417,-110.578"/>
</g>
<!-- Node4 -->
<g id="node4" class="node"><title>Node4</title>
<g id="a_node4"><a xlink:href="class_lang_1_1_class_tools_1_1_patterns_1_1__start_end_with_1_1_start_end_with.html#a8ca79a78aaf3679bc80d77beebca56e4" target="_top" xlink:title="Lang.ClassTools.Patterns.\l_startEndWith.StartEndWith._start">
<polygon fill="none" stroke="black" points="180.5,-49 180.5,-79 349.5,-79 349.5,-49 180.5,-49"/>
<text text-anchor="start" x="188.5" y="-67" font-family="Helvetica,sans-Serif" font-size="10.00">Lang.ClassTools.Patterns.</text>
<text text-anchor="middle" x="265" y="-56" font-family="Helvetica,sans-Serif" font-size="10.00">_startEndWith.StartEndWith._start</text>
</a>
</g>
</g>
<!-- Node1&#45;&gt;Node4 -->
<g id="edge3" class="edge"><title>Node1&#45;&gt;Node4</title>
<path fill="none" stroke="midnightblue" d="M144.121,-80.9462C152.675,-79.737 161.509,-78.4883 170.321,-77.2425"/>
<polygon fill="midnightblue" stroke="midnightblue" points="170.835,-80.7049 180.246,-75.8395 169.855,-73.7738 170.835,-80.7049"/>
</g>
<!-- Node5 -->
<g id="node5" class="node"><title>Node5</title>
<g id="a_node5"><a xlink:href="class_lang_1_1_class_tools_1_1_patterns_1_1__start_end_with_1_1_start_end_with.html#a7e414baa64ba9d656b9d116ed714b912" target="_top" xlink:title="Lang.ClassTools.Patterns.\l_startEndWith.StartEndWith._end">
<polygon fill="none" stroke="black" points="182,-0 182,-30 348,-30 348,-0 182,-0"/>
<text text-anchor="start" x="190" y="-18" font-family="Helvetica,sans-Serif" font-size="10.00">Lang.ClassTools.Patterns.</text>
<text text-anchor="middle" x="265" y="-7" font-family="Helvetica,sans-Serif" font-size="10.00">_startEndWith.StartEndWith._end</text>
</a>
</g>
</g>
<!-- Node1&#45;&gt;Node5 -->
<g id="edge4" class="edge"><title>Node1&#45;&gt;Node5</title>
<path fill="none" stroke="midnightblue" d="M112.244,-70.4902C132.207,-60.5233 157.046,-48.8244 180,-40 186.202,-37.6155 192.733,-35.3171 199.3,-33.1446"/>
<polygon fill="midnightblue" stroke="midnightblue" points="200.462,-36.4475 208.912,-30.0567 198.321,-29.783 200.462,-36.4475"/>
</g>
</g>
</svg>
