<?xml version="1.0" encoding="UTF-8" standalone="no"?>
<!DOCTYPE svg PUBLIC "-//W3C//DTD SVG 1.1//EN"
 "http://www.w3.org/Graphics/SVG/1.1/DTD/svg11.dtd">
<!-- Generated by graphviz version 2.36.0 (20140111.2315)
 -->
<!-- Title: Lang.Concurrency.abstract.LockSemaphore.getMaxSlots Pages: 1 -->
<svg width="916pt" height="87pt"
 viewBox="0.00 0.00 916.00 87.00" xmlns="http://www.w3.org/2000/svg" xmlns:xlink="http://www.w3.org/1999/xlink">
<g id="graph0" class="graph" transform="scale(1 1) rotate(0) translate(4 83)">
<title>Lang.Concurrency.abstract.LockSemaphore.getMaxSlots</title>
<!-- Node1 -->
<g id="node1" class="node"><title>Node1</title>
<polygon fill="#bfbfbf" stroke="black" points="0.5,-24 0.5,-54 147.5,-54 147.5,-24 0.5,-24"/>
<text text-anchor="start" x="8.5" y="-42" font-family="Helvetica,sans-Serif" font-size="10.00">Lang.Concurrency.abstract.</text>
<text text-anchor="middle" x="74" y="-31" font-family="Helvetica,sans-Serif" font-size="10.00">LockSemaphore.getMaxSlots</text>
</g>
<!-- Node2 -->
<g id="node2" class="node"><title>Node2</title>
<g id="a_node2"><a xlink:href="class_lang_1_1_concurrency_1_1abstract_1_1_lock_semaphore.html#a31255a440b39f26cb9128e5039921cd9" target="_top" xlink:title="Lang.Concurrency.abstract.\lLockSemaphore.__str__">
<polygon fill="none" stroke="black" points="199.5,-49 199.5,-79 338.5,-79 338.5,-49 199.5,-49"/>
<text text-anchor="start" x="207.5" y="-67" font-family="Helvetica,sans-Serif" font-size="10.00">Lang.Concurrency.abstract.</text>
<text text-anchor="middle" x="269" y="-56" font-family="Helvetica,sans-Serif" font-size="10.00">LockSemaphore.__str__</text>
</a>
</g>
</g>
<!-- Node1&#45;&gt;Node2 -->
<g id="edge1" class="edge"><title>Node1&#45;&gt;Node2</title>
<path fill="none" stroke="midnightblue" d="M157.684,-49.7104C171.527,-51.5035 185.757,-53.3467 199.203,-55.0884"/>
<polygon fill="midnightblue" stroke="midnightblue" points="158.057,-46.2295 147.69,-48.4158 157.158,-53.1715 158.057,-46.2295"/>
</g>
<!-- Node3 -->
<g id="node3" class="node"><title>Node3</title>
<g id="a_node3"><a xlink:href="class_lang_1_1_concurrency_1_1abstract_1_1_lock_semaphore.html#afa66446fed0a299bb0fa6764fff0491f" target="_top" xlink:title="Lang.Concurrency.abstract.\lLockSemaphore.getSlotsAvailable">
<polygon fill="none" stroke="black" points="184.5,-0 184.5,-30 353.5,-30 353.5,-0 184.5,-0"/>
<text text-anchor="start" x="192.5" y="-18" font-family="Helvetica,sans-Serif" font-size="10.00">Lang.Concurrency.abstract.</text>
<text text-anchor="middle" x="269" y="-7" font-family="Helvetica,sans-Serif" font-size="10.00">LockSemaphore.getSlotsAvailable</text>
</a>
</g>
</g>
<!-- Node1&#45;&gt;Node3 -->
<g id="edge2" class="edge"><title>Node1&#45;&gt;Node3</title>
<path fill="none" stroke="midnightblue" d="M157.894,-28.692C166.661,-27.6018 175.58,-26.4926 184.356,-25.4013"/>
<polygon fill="midnightblue" stroke="midnightblue" points="157.182,-25.2535 147.69,-29.9608 158.046,-32.2 157.182,-25.2535"/>
</g>
<!-- Node4 -->
<g id="node4" class="node"><title>Node4</title>
<g id="a_node4"><a xlink:href="class_lang_1_1_concurrency_1_1abstract_1_1_lock_semaphore.html#a1a48c3f86e145ca6e6bba4b8b9b126ab" target="_top" xlink:title="Lang.Concurrency.abstract.\lLockSemaphore.hasAvailableSlot">
<polygon fill="none" stroke="black" points="390,-0 390,-30 556,-30 556,-0 390,-0"/>
<text text-anchor="start" x="398" y="-18" font-family="Helvetica,sans-Serif" font-size="10.00">Lang.Concurrency.abstract.</text>
<text text-anchor="middle" x="473" y="-7" font-family="Helvetica,sans-Serif" font-size="10.00">LockSemaphore.hasAvailableSlot</text>
</a>
</g>
</g>
<!-- Node3&#45;&gt;Node4 -->
<g id="edge3" class="edge"><title>Node3&#45;&gt;Node4</title>
<path fill="none" stroke="midnightblue" d="M363.757,-15C372.434,-15 381.182,-15 389.744,-15"/>
<polygon fill="midnightblue" stroke="midnightblue" points="363.619,-11.5001 353.619,-15 363.619,-18.5001 363.619,-11.5001"/>
</g>
<!-- Node5 -->
<g id="node5" class="node"><title>Node5</title>
<g id="a_node5"><a xlink:href="class_lang_1_1_concurrency_1_1abstract_1_1_lock_semaphore.html#a8ee5b3958b78376c28c0e54eb5a0b534" target="_top" xlink:title="*args and **kwargs are for optional/implementation specific parameters. ">
<polygon fill="none" stroke="black" points="592.5,-0 592.5,-30 731.5,-30 731.5,-0 592.5,-0"/>
<text text-anchor="start" x="600.5" y="-18" font-family="Helvetica,sans-Serif" font-size="10.00">Lang.Concurrency.abstract.</text>
<text text-anchor="middle" x="662" y="-7" font-family="Helvetica,sans-Serif" font-size="10.00">LockSemaphore.acquire</text>
</a>
</g>
</g>
<!-- Node4&#45;&gt;Node5 -->
<g id="edge4" class="edge"><title>Node4&#45;&gt;Node5</title>
<path fill="none" stroke="midnightblue" d="M566.045,-15C574.945,-15 583.863,-15 592.476,-15"/>
<polygon fill="midnightblue" stroke="midnightblue" points="566.021,-11.5001 556.021,-15 566.021,-18.5001 566.021,-11.5001"/>
</g>
<!-- Node6 -->
<g id="node6" class="node"><title>Node6</title>
<g id="a_node6"><a xlink:href="class_lang_1_1_concurrency_1_1abstract_1_1_lock_semaphore.html#a68d082c1e47dc01db0c26a486206fc64" target="_top" xlink:title="Lang.Concurrency.abstract.\lLockSemaphore.__enter__">
<polygon fill="none" stroke="black" points="768.5,-0 768.5,-30 907.5,-30 907.5,-0 768.5,-0"/>
<text text-anchor="start" x="776.5" y="-18" font-family="Helvetica,sans-Serif" font-size="10.00">Lang.Concurrency.abstract.</text>
<text text-anchor="middle" x="838" y="-7" font-family="Helvetica,sans-Serif" font-size="10.00">LockSemaphore.__enter__</text>
</a>
</g>
</g>
<!-- Node5&#45;&gt;Node6 -->
<g id="edge5" class="edge"><title>Node5&#45;&gt;Node6</title>
<path fill="none" stroke="midnightblue" d="M742.043,-15C750.856,-15 759.778,-15 768.445,-15"/>
<polygon fill="midnightblue" stroke="midnightblue" points="741.769,-11.5001 731.769,-15 741.769,-18.5001 741.769,-11.5001"/>
</g>
</g>
</svg>
