<?xml version="1.0" encoding="UTF-8" standalone="no"?>
<!DOCTYPE svg PUBLIC "-//W3C//DTD SVG 1.1//EN"
 "http://www.w3.org/Graphics/SVG/1.1/DTD/svg11.dtd">
<!-- Generated by graphviz version 2.36.0 (20140111.2315)
 -->
<!-- Title: Lang.Concurrency._Threading._ThreadingAdapter Pages: 1 -->
<svg width="355pt" height="288pt"
 viewBox="0.00 0.00 355.00 288.00" xmlns="http://www.w3.org/2000/svg" xmlns:xlink="http://www.w3.org/1999/xlink">
<g id="graph0" class="graph" transform="scale(1 1) rotate(0) translate(4 284)">
<title>Lang.Concurrency._Threading._ThreadingAdapter</title>
<!-- Node1 -->
<g id="node1" class="node"><title>Node1</title>
<polygon fill="#bfbfbf" stroke="black" points="101,-106.5 101,-185.5 255,-185.5 255,-106.5 101,-106.5"/>
<text text-anchor="start" x="109" y="-173.5" font-family="Helvetica,sans-Serif" font-size="10.00">Lang.Concurrency._Threading.</text>
<text text-anchor="middle" x="178" y="-162.5" font-family="Helvetica,sans-Serif" font-size="10.00">_ThreadingAdapter</text>
<polyline fill="none" stroke="black" points="101,-155.5 255,-155.5 "/>
<text text-anchor="middle" x="178" y="-143.5" font-family="Helvetica,sans-Serif" font-size="10.00"> </text>
<polyline fill="none" stroke="black" points="101,-136.5 255,-136.5 "/>
<text text-anchor="start" x="109" y="-124.5" font-family="Helvetica,sans-Serif" font-size="10.00">+ __init__()</text>
<text text-anchor="start" x="109" y="-113.5" font-family="Helvetica,sans-Serif" font-size="10.00">+ __getattr__()</text>
</g>
<!-- Node3 -->
<g id="node3" class="node"><title>Node3</title>
<g id="a_node3"><a xlink:href="class_lang_1_1_concurrency_1_1___threading_1_1_lock.html" target="_top" xlink:title="{Lang.Concurrency._Threading.Lock\n||}">
<polygon fill="none" stroke="black" points="-0.5,-6.5 -0.5,-63.5 174.5,-63.5 174.5,-6.5 -0.5,-6.5"/>
<text text-anchor="middle" x="87" y="-51.5" font-family="Helvetica,sans-Serif" font-size="10.00">Lang.Concurrency._Threading.Lock</text>
<polyline fill="none" stroke="black" points="-0.5,-44.5 174.5,-44.5 "/>
<text text-anchor="middle" x="87" y="-32.5" font-family="Helvetica,sans-Serif" font-size="10.00"> </text>
<polyline fill="none" stroke="black" points="-0.5,-25.5 174.5,-25.5 "/>
<text text-anchor="middle" x="87" y="-13.5" font-family="Helvetica,sans-Serif" font-size="10.00"> </text>
</a>
</g>
</g>
<!-- Node1&#45;&gt;Node3 -->
<g id="edge2" class="edge"><title>Node1&#45;&gt;Node3</title>
<path fill="none" stroke="midnightblue" d="M139.223,-98.5529C129.3,-86.6673 118.941,-74.2591 110.09,-63.6572"/>
<polygon fill="none" stroke="midnightblue" points="136.565,-100.83 145.661,-106.264 141.939,-96.3442 136.565,-100.83"/>
</g>
<!-- Node4 -->
<g id="node4" class="node"><title>Node4</title>
<g id="a_node4"><a xlink:href="class_lang_1_1_concurrency_1_1___threading_1_1_semaphore.html" target="_top" xlink:title="{Lang.Concurrency._Threading.\lSemaphore\n||}">
<polygon fill="none" stroke="black" points="193,-1 193,-69 347,-69 347,-1 193,-1"/>
<text text-anchor="start" x="201" y="-57" font-family="Helvetica,sans-Serif" font-size="10.00">Lang.Concurrency._Threading.</text>
<text text-anchor="middle" x="270" y="-46" font-family="Helvetica,sans-Serif" font-size="10.00">Semaphore</text>
<polyline fill="none" stroke="black" points="193,-39 347,-39 "/>
<text text-anchor="middle" x="270" y="-27" font-family="Helvetica,sans-Serif" font-size="10.00"> </text>
<polyline fill="none" stroke="black" points="193,-20 347,-20 "/>
<text text-anchor="middle" x="270" y="-8" font-family="Helvetica,sans-Serif" font-size="10.00"> </text>
</a>
</g>
</g>
<!-- Node1&#45;&gt;Node4 -->
<g id="edge3" class="edge"><title>Node1&#45;&gt;Node4</title>
<path fill="none" stroke="midnightblue" d="M217.273,-98.4702C225.582,-88.626 234.19,-78.4272 241.981,-69.1962"/>
<polygon fill="none" stroke="midnightblue" points="214.47,-96.3644 210.695,-106.264 219.819,-100.879 214.47,-96.3644"/>
</g>
<!-- Node2 -->
<g id="node2" class="node"><title>Node2</title>
<g id="a_node2"><a xlink:href="classobject.html" target="_top" xlink:title="{object\n||}">
<polygon fill="none" stroke="black" points="156.5,-222.5 156.5,-279.5 199.5,-279.5 199.5,-222.5 156.5,-222.5"/>
<text text-anchor="middle" x="178" y="-267.5" font-family="Helvetica,sans-Serif" font-size="10.00">object</text>
<polyline fill="none" stroke="black" points="156.5,-260.5 199.5,-260.5 "/>
<text text-anchor="middle" x="178" y="-248.5" font-family="Helvetica,sans-Serif" font-size="10.00"> </text>
<polyline fill="none" stroke="black" points="156.5,-241.5 199.5,-241.5 "/>
<text text-anchor="middle" x="178" y="-229.5" font-family="Helvetica,sans-Serif" font-size="10.00"> </text>
</a>
</g>
</g>
<!-- Node2&#45;&gt;Node1 -->
<g id="edge1" class="edge"><title>Node2&#45;&gt;Node1</title>
<path fill="none" stroke="midnightblue" d="M178,-212.156C178,-203.473 178,-194.232 178,-185.52"/>
<polygon fill="none" stroke="midnightblue" points="174.5,-212.398 178,-222.398 181.5,-212.398 174.5,-212.398"/>
</g>
</g>
</svg>
