<?xml version="1.0" encoding="UTF-8" standalone="no"?>
<!DOCTYPE svg PUBLIC "-//W3C//DTD SVG 1.1//EN"
 "http://www.w3.org/Graphics/SVG/1.1/DTD/svg11.dtd">
<!-- Generated by graphviz version 2.36.0 (20140111.2315)
 -->
<!-- Title: dict Pages: 1 -->
<svg width="134pt" height="216pt"
 viewBox="0.00 0.00 134.00 216.00" xmlns="http://www.w3.org/2000/svg" xmlns:xlink="http://www.w3.org/1999/xlink">
<g id="graph0" class="graph" transform="scale(1 1) rotate(0) translate(4 212)">
<title>dict</title>
<!-- Node1 -->
<g id="node1" class="node"><title>Node1</title>
<polygon fill="#bfbfbf" stroke="black" points="47,-150.5 47,-207.5 79,-207.5 79,-150.5 47,-150.5"/>
<text text-anchor="middle" x="63" y="-195.5" font-family="Helvetica,sans-Serif" font-size="10.00">dict</text>
<polyline fill="none" stroke="black" points="47,-188.5 79,-188.5 "/>
<text text-anchor="middle" x="63" y="-176.5" font-family="Helvetica,sans-Serif" font-size="10.00"> </text>
<polyline fill="none" stroke="black" points="47,-169.5 79,-169.5 "/>
<text text-anchor="middle" x="63" y="-157.5" font-family="Helvetica,sans-Serif" font-size="10.00"> </text>
</g>
<!-- Node2 -->
<g id="node2" class="node"><title>Node2</title>
<g id="a_node2"><a xlink:href="class_lang_1_1_struct_1_1___frozen_dict_1_1_frozen_dict.html" target="_top" xlink:title="An immutable, hashable dictionary. ">
<polygon fill="none" stroke="black" points="-0.5,-1 -0.5,-113 126.5,-113 126.5,-1 -0.5,-1"/>
<text text-anchor="start" x="7.5" y="-101" font-family="Helvetica,sans-Serif" font-size="10.00">Lang.Struct._FrozenDict.</text>
<text text-anchor="middle" x="63" y="-90" font-family="Helvetica,sans-Serif" font-size="10.00">FrozenDict</text>
<polyline fill="none" stroke="black" points="-0.5,-83 126.5,-83 "/>
<text text-anchor="start" x="7.5" y="-71" font-family="Helvetica,sans-Serif" font-size="10.00">+ pop</text>
<text text-anchor="start" x="7.5" y="-60" font-family="Helvetica,sans-Serif" font-size="10.00">+ _blocked_attribute</text>
<polyline fill="none" stroke="black" points="-0.5,-53 126.5,-53 "/>
<text text-anchor="start" x="7.5" y="-41" font-family="Helvetica,sans-Serif" font-size="10.00">+ __new__()</text>
<text text-anchor="start" x="7.5" y="-30" font-family="Helvetica,sans-Serif" font-size="10.00">+ __init__()</text>
<text text-anchor="start" x="7.5" y="-19" font-family="Helvetica,sans-Serif" font-size="10.00">+ __hash__()</text>
<text text-anchor="start" x="7.5" y="-8" font-family="Helvetica,sans-Serif" font-size="10.00">+ __repr__()</text>
</a>
</g>
</g>
<!-- Node1&#45;&gt;Node2 -->
<g id="edge1" class="edge"><title>Node1&#45;&gt;Node2</title>
<path fill="none" stroke="midnightblue" d="M63,-140.398C63,-131.802 63,-122.49 63,-113.324"/>
<polygon fill="none" stroke="midnightblue" points="59.5001,-140.47 63,-150.47 66.5001,-140.47 59.5001,-140.47"/>
</g>
</g>
</svg>
