<?xml version="1.0" encoding="UTF-8" standalone="no"?>
<!DOCTYPE svg PUBLIC "-//W3C//DTD SVG 1.1//EN"
 "http://www.w3.org/Graphics/SVG/1.1/DTD/svg11.dtd">
<!-- Generated by graphviz version 2.36.0 (20140111.2315)
 -->
<!-- Title: Lang.ClassTools.Patterns._singleton._Singleton_Abstract Pages: 1 -->
<svg width="379pt" height="288pt"
 viewBox="0.00 0.00 379.00 288.00" xmlns="http://www.w3.org/2000/svg" xmlns:xlink="http://www.w3.org/1999/xlink">
<g id="graph0" class="graph" transform="scale(1 1) rotate(0) translate(4 284)">
<title>Lang.ClassTools.Patterns._singleton._Singleton_Abstract</title>
<!-- Node1 -->
<g id="node1" class="node"><title>Node1</title>
<polygon fill="#bfbfbf" stroke="black" points="107,-117 107,-185 261,-185 261,-117 107,-117"/>
<text text-anchor="start" x="115" y="-173" font-family="Helvetica,sans-Serif" font-size="10.00">Lang.ClassTools.Patterns.</text>
<text text-anchor="middle" x="184" y="-162" font-family="Helvetica,sans-Serif" font-size="10.00">_singleton._Singleton_Abstract</text>
<polyline fill="none" stroke="black" points="107,-155 261,-155 "/>
<text text-anchor="middle" x="184" y="-143" font-family="Helvetica,sans-Serif" font-size="10.00"> </text>
<polyline fill="none" stroke="black" points="107,-136 261,-136 "/>
<text text-anchor="middle" x="184" y="-124" font-family="Helvetica,sans-Serif" font-size="10.00"> </text>
</g>
<!-- Node3 -->
<g id="node3" class="node"><title>Node3</title>
<g id="a_node3"><a xlink:href="class_lang_1_1_class_tools_1_1_patterns_1_1__singleton_1_1___singleton___on_dup_raise_exception.html" target="_top" xlink:title="{Lang.ClassTools.Patterns.\l_singleton._Singleton_OnDupRaise\lException\n||+ __call__()\l}">
<polygon fill="none" stroke="black" points="-0.5,-0.5 -0.5,-79.5 174.5,-79.5 174.5,-0.5 -0.5,-0.5"/>
<text text-anchor="start" x="7.5" y="-67.5" font-family="Helvetica,sans-Serif" font-size="10.00">Lang.ClassTools.Patterns.</text>
<text text-anchor="start" x="7.5" y="-56.5" font-family="Helvetica,sans-Serif" font-size="10.00">_singleton._Singleton_OnDupRaise</text>
<text text-anchor="middle" x="87" y="-45.5" font-family="Helvetica,sans-Serif" font-size="10.00">Exception</text>
<polyline fill="none" stroke="black" points="-0.5,-38.5 174.5,-38.5 "/>
<text text-anchor="middle" x="87" y="-26.5" font-family="Helvetica,sans-Serif" font-size="10.00"> </text>
<polyline fill="none" stroke="black" points="-0.5,-19.5 174.5,-19.5 "/>
<text text-anchor="start" x="7.5" y="-7.5" font-family="Helvetica,sans-Serif" font-size="10.00">+ __call__()</text>
</a>
</g>
</g>
<!-- Node1&#45;&gt;Node3 -->
<g id="edge2" class="edge"><title>Node1&#45;&gt;Node3</title>
<path fill="none" stroke="midnightblue" d="M147.652,-109.156C139.105,-99.5507 130.019,-89.3409 121.553,-79.8274"/>
<polygon fill="none" stroke="midnightblue" points="145.107,-111.561 154.37,-116.704 150.336,-106.907 145.107,-111.561"/>
</g>
<!-- Node4 -->
<g id="node4" class="node"><title>Node4</title>
<g id="a_node4"><a xlink:href="class_lang_1_1_class_tools_1_1_patterns_1_1__singleton_1_1___singleton___on_dup_return_existing.html" target="_top" xlink:title="{Lang.ClassTools.Patterns.\l_singleton._Singleton_OnDupReturn\lExisting\n||+ __call__()\l}">
<polygon fill="none" stroke="black" points="192.5,-0.5 192.5,-79.5 371.5,-79.5 371.5,-0.5 192.5,-0.5"/>
<text text-anchor="start" x="200.5" y="-67.5" font-family="Helvetica,sans-Serif" font-size="10.00">Lang.ClassTools.Patterns.</text>
<text text-anchor="start" x="200.5" y="-56.5" font-family="Helvetica,sans-Serif" font-size="10.00">_singleton._Singleton_OnDupReturn</text>
<text text-anchor="middle" x="282" y="-45.5" font-family="Helvetica,sans-Serif" font-size="10.00">Existing</text>
<polyline fill="none" stroke="black" points="192.5,-38.5 371.5,-38.5 "/>
<text text-anchor="middle" x="282" y="-26.5" font-family="Helvetica,sans-Serif" font-size="10.00"> </text>
<polyline fill="none" stroke="black" points="192.5,-19.5 371.5,-19.5 "/>
<text text-anchor="start" x="200.5" y="-7.5" font-family="Helvetica,sans-Serif" font-size="10.00">+ __call__()</text>
</a>
</g>
</g>
<!-- Node1&#45;&gt;Node4 -->
<g id="edge3" class="edge"><title>Node1&#45;&gt;Node4</title>
<path fill="none" stroke="midnightblue" d="M220.722,-109.156C229.358,-99.5507 238.538,-89.3409 247.091,-79.8274"/>
<polygon fill="none" stroke="midnightblue" points="218.019,-106.928 213.936,-116.704 223.224,-111.608 218.019,-106.928"/>
</g>
<!-- Node2 -->
<g id="node2" class="node"><title>Node2</title>
<polygon fill="none" stroke="#bfbfbf" points="116.5,-222.5 116.5,-279.5 251.5,-279.5 251.5,-222.5 116.5,-222.5"/>
<text text-anchor="middle" x="184" y="-267.5" font-family="Helvetica,sans-Serif" font-size="10.00">_SingletonMultitonAbstract</text>
<polyline fill="none" stroke="#bfbfbf" points="116.5,-260.5 251.5,-260.5 "/>
<text text-anchor="middle" x="184" y="-248.5" font-family="Helvetica,sans-Serif" font-size="10.00"> </text>
<polyline fill="none" stroke="#bfbfbf" points="116.5,-241.5 251.5,-241.5 "/>
<text text-anchor="middle" x="184" y="-229.5" font-family="Helvetica,sans-Serif" font-size="10.00"> </text>
</g>
<!-- Node2&#45;&gt;Node1 -->
<g id="edge1" class="edge"><title>Node2&#45;&gt;Node1</title>
<path fill="none" stroke="midnightblue" d="M184,-212.302C184,-203.395 184,-193.961 184,-185.266"/>
<polygon fill="none" stroke="midnightblue" points="180.5,-212.441 184,-222.441 187.5,-212.441 180.5,-212.441"/>
</g>
</g>
</svg>
