<?xml version="1.0" encoding="UTF-8" standalone="no"?>
<!DOCTYPE svg PUBLIC "-//W3C//DTD SVG 1.1//EN"
 "http://www.w3.org/Graphics/SVG/1.1/DTD/svg11.dtd">
<!-- Generated by graphviz version 2.36.0 (20140111.2315)
 -->
<!-- Title: Lang.Concurrency.abstract.LockSemaphore.acquire Pages: 1 -->
<svg width="794pt" height="162pt"
 viewBox="0.00 0.00 794.00 162.00" xmlns="http://www.w3.org/2000/svg" xmlns:xlink="http://www.w3.org/1999/xlink">
<g id="graph0" class="graph" transform="scale(1 1) rotate(0) translate(4 158)">
<title>Lang.Concurrency.abstract.LockSemaphore.acquire</title>
<!-- Node1 -->
<g id="node1" class="node"><title>Node1</title>
<polygon fill="#bfbfbf" stroke="black" points="0.5,-50 0.5,-80 139.5,-80 139.5,-50 0.5,-50"/>
<text text-anchor="start" x="8.5" y="-68" font-family="Helvetica,sans-Serif" font-size="10.00">Lang.Concurrency.abstract.</text>
<text text-anchor="middle" x="70" y="-57" font-family="Helvetica,sans-Serif" font-size="10.00">LockSemaphore.acquire</text>
</g>
<!-- Node2 -->
<g id="node2" class="node"><title>Node2</title>
<g id="a_node2"><a xlink:href="class_lang_1_1_concurrency_1_1abstract_1_1_lock_semaphore.html#a1a48c3f86e145ca6e6bba4b8b9b126ab" target="_top" xlink:title="Lang.Concurrency.abstract.\lLockSemaphore.hasAvailableSlot">
<polygon fill="none" stroke="black" points="176,-99 176,-129 342,-129 342,-99 176,-99"/>
<text text-anchor="start" x="184" y="-117" font-family="Helvetica,sans-Serif" font-size="10.00">Lang.Concurrency.abstract.</text>
<text text-anchor="middle" x="259" y="-106" font-family="Helvetica,sans-Serif" font-size="10.00">LockSemaphore.hasAvailableSlot</text>
</a>
</g>
</g>
<!-- Node1&#45;&gt;Node2 -->
<g id="edge1" class="edge"><title>Node1&#45;&gt;Node2</title>
<path fill="none" stroke="midnightblue" d="M128.377,-80.0346C148.122,-85.2083 170.406,-91.0475 190.858,-96.4066"/>
<polygon fill="midnightblue" stroke="midnightblue" points="190.171,-99.8447 200.731,-98.9938 191.945,-93.0733 190.171,-99.8447"/>
</g>
<!-- Node6 -->
<g id="node6" class="node"><title>Node6</title>
<g id="a_node6"><a xlink:href="class_lang_1_1_concurrency_1_1___threading_1_1___threading_adapter.html#ac470982a3ad9bb7834850c351f270293" target="_top" xlink:title="http://docs.python.org/2/library/threading.html#threading.Lock.acquire ">
<polygon fill="none" stroke="black" points="182,-50 182,-80 336,-80 336,-50 182,-50"/>
<text text-anchor="start" x="190" y="-68" font-family="Helvetica,sans-Serif" font-size="10.00">Lang.Concurrency._Threading.</text>
<text text-anchor="middle" x="259" y="-57" font-family="Helvetica,sans-Serif" font-size="10.00">_ThreadingAdapter._acquire</text>
</a>
</g>
</g>
<!-- Node1&#45;&gt;Node6 -->
<g id="edge5" class="edge"><title>Node1&#45;&gt;Node6</title>
<path fill="none" stroke="midnightblue" d="M139.57,-65C149.997,-65 160.87,-65 171.617,-65"/>
<polygon fill="midnightblue" stroke="midnightblue" points="171.864,-68.5001 181.864,-65 171.864,-61.5001 171.864,-68.5001"/>
</g>
<!-- Node7 -->
<g id="node7" class="node"><title>Node7</title>
<g id="a_node7"><a xlink:href="class_lang_1_1_concurrency_1_1abstract_1_1_lock_semaphore.html#a252560d171d768f5e501419e2f496572" target="_top" xlink:title="Lang.Concurrency.abstract.\lLockSemaphore._acquire">
<polygon fill="none" stroke="black" points="189.5,-1 189.5,-31 328.5,-31 328.5,-1 189.5,-1"/>
<text text-anchor="start" x="197.5" y="-19" font-family="Helvetica,sans-Serif" font-size="10.00">Lang.Concurrency.abstract.</text>
<text text-anchor="middle" x="259" y="-8" font-family="Helvetica,sans-Serif" font-size="10.00">LockSemaphore._acquire</text>
</a>
</g>
</g>
<!-- Node1&#45;&gt;Node7 -->
<g id="edge6" class="edge"><title>Node1&#45;&gt;Node7</title>
<path fill="none" stroke="midnightblue" d="M128.377,-49.9654C148.122,-44.7917 170.406,-38.9525 190.858,-33.5934"/>
<polygon fill="midnightblue" stroke="midnightblue" points="191.945,-36.9267 200.731,-31.0062 190.171,-30.1553 191.945,-36.9267"/>
</g>
<!-- Node3 -->
<g id="node3" class="node"><title>Node3</title>
<g id="a_node3"><a xlink:href="class_lang_1_1_concurrency_1_1abstract_1_1_lock_semaphore.html#afa66446fed0a299bb0fa6764fff0491f" target="_top" xlink:title="Lang.Concurrency.abstract.\lLockSemaphore.getSlotsAvailable">
<polygon fill="none" stroke="black" points="378.5,-99 378.5,-129 547.5,-129 547.5,-99 378.5,-99"/>
<text text-anchor="start" x="386.5" y="-117" font-family="Helvetica,sans-Serif" font-size="10.00">Lang.Concurrency.abstract.</text>
<text text-anchor="middle" x="463" y="-106" font-family="Helvetica,sans-Serif" font-size="10.00">LockSemaphore.getSlotsAvailable</text>
</a>
</g>
</g>
<!-- Node2&#45;&gt;Node3 -->
<g id="edge2" class="edge"><title>Node2&#45;&gt;Node3</title>
<path fill="none" stroke="midnightblue" d="M342.161,-114C350.718,-114 359.463,-114 368.137,-114"/>
<polygon fill="midnightblue" stroke="midnightblue" points="368.271,-117.5 378.271,-114 368.271,-110.5 368.271,-117.5"/>
</g>
<!-- Node4 -->
<g id="node4" class="node"><title>Node4</title>
<g id="a_node4"><a xlink:href="class_lang_1_1_concurrency_1_1abstract_1_1_lock_semaphore.html#aaa6946939da1ab97dfab3f19bde29a83" target="_top" xlink:title="Lang.Concurrency.abstract.\lLockSemaphore.getMaxSlots">
<polygon fill="none" stroke="black" points="611.5,-124 611.5,-154 758.5,-154 758.5,-124 611.5,-124"/>
<text text-anchor="start" x="619.5" y="-142" font-family="Helvetica,sans-Serif" font-size="10.00">Lang.Concurrency.abstract.</text>
<text text-anchor="middle" x="685" y="-131" font-family="Helvetica,sans-Serif" font-size="10.00">LockSemaphore.getMaxSlots</text>
</a>
</g>
</g>
<!-- Node3&#45;&gt;Node4 -->
<g id="edge3" class="edge"><title>Node3&#45;&gt;Node4</title>
<path fill="none" stroke="midnightblue" d="M547.8,-123.523C565.259,-125.507 583.654,-127.597 601.081,-129.577"/>
<polygon fill="midnightblue" stroke="midnightblue" points="600.884,-133.077 611.216,-130.729 601.675,-126.122 600.884,-133.077"/>
</g>
<!-- Node5 -->
<g id="node5" class="node"><title>Node5</title>
<g id="a_node5"><a xlink:href="class_lang_1_1_concurrency_1_1abstract_1_1_lock_semaphore.html#a7d464e01bf7681e74ad8190af1c362f2" target="_top" xlink:title="Lang.Concurrency.abstract.\lLockSemaphore.getSlotsTakenByAnyone">
<polygon fill="none" stroke="black" points="584,-75 584,-105 786,-105 786,-75 584,-75"/>
<text text-anchor="start" x="592" y="-93" font-family="Helvetica,sans-Serif" font-size="10.00">Lang.Concurrency.abstract.</text>
<text text-anchor="middle" x="685" y="-82" font-family="Helvetica,sans-Serif" font-size="10.00">LockSemaphore.getSlotsTakenByAnyone</text>
</a>
</g>
</g>
<!-- Node3&#45;&gt;Node5 -->
<g id="edge4" class="edge"><title>Node3&#45;&gt;Node5</title>
<path fill="none" stroke="midnightblue" d="M547.8,-104.858C556.266,-103.935 564.952,-102.987 573.641,-102.039"/>
<polygon fill="midnightblue" stroke="midnightblue" points="574.267,-105.492 583.829,-100.928 573.508,-98.533 574.267,-105.492"/>
</g>
</g>
</svg>
