<?xml version="1.0" encoding="UTF-8" standalone="no"?>
<!DOCTYPE svg PUBLIC "-//W3C//DTD SVG 1.1//EN"
 "http://www.w3.org/Graphics/SVG/1.1/DTD/svg11.dtd">
<!-- Generated by graphviz version 2.36.0 (20140111.2315)
 -->
<!-- Title: Lang.Concurrency.abstract.LockSemaphore.getSlotsTakenBySelf Pages: 1 -->
<svg width="606pt" height="306pt"
 viewBox="0.00 0.00 606.00 306.00" xmlns="http://www.w3.org/2000/svg" xmlns:xlink="http://www.w3.org/1999/xlink">
<g id="graph0" class="graph" transform="scale(1 1) rotate(0) translate(4 302)">
<title>Lang.Concurrency.abstract.LockSemaphore.getSlotsTakenBySelf</title>
<!-- Node1 -->
<g id="node1" class="node"><title>Node1</title>
<polygon fill="#bfbfbf" stroke="black" points="0.5,-145 0.5,-175 185.5,-175 185.5,-145 0.5,-145"/>
<text text-anchor="start" x="8.5" y="-163" font-family="Helvetica,sans-Serif" font-size="10.00">Lang.Concurrency.abstract.</text>
<text text-anchor="middle" x="93" y="-152" font-family="Helvetica,sans-Serif" font-size="10.00">LockSemaphore.getSlotsTakenBySelf</text>
</g>
<!-- Node2 -->
<g id="node2" class="node"><title>Node2</title>
<g id="a_node2"><a xlink:href="class_lang_1_1_concurrency_1_1abstract_1_1_lock_semaphore.html#a31255a440b39f26cb9128e5039921cd9" target="_top" xlink:title="Lang.Concurrency.abstract.\lLockSemaphore.__str__">
<polygon fill="none" stroke="black" points="252.5,-268 252.5,-298 391.5,-298 391.5,-268 252.5,-268"/>
<text text-anchor="start" x="260.5" y="-286" font-family="Helvetica,sans-Serif" font-size="10.00">Lang.Concurrency.abstract.</text>
<text text-anchor="middle" x="322" y="-275" font-family="Helvetica,sans-Serif" font-size="10.00">LockSemaphore.__str__</text>
</a>
</g>
</g>
<!-- Node1&#45;&gt;Node2 -->
<g id="edge1" class="edge"><title>Node1&#45;&gt;Node2</title>
<path fill="none" stroke="midnightblue" d="M117.12,-182.442C141.355,-204.756 181.479,-238.407 222,-258 231.496,-262.592 241.925,-266.399 252.342,-269.539"/>
<polygon fill="midnightblue" stroke="midnightblue" points="119.227,-179.62 109.533,-175.346 114.446,-184.733 119.227,-179.62"/>
</g>
<!-- Node3 -->
<g id="node3" class="node"><title>Node3</title>
<g id="a_node3"><a xlink:href="class_lang_1_1_concurrency_1_1abstract_1_1_lock_semaphore.html#af10cec6f3a635f9d414f253b4c226482" target="_top" xlink:title="Lang.Concurrency.abstract.\lLockSemaphore.__getstate__">
<polygon fill="none" stroke="black" points="247,-219 247,-249 397,-249 397,-219 247,-219"/>
<text text-anchor="start" x="255" y="-237" font-family="Helvetica,sans-Serif" font-size="10.00">Lang.Concurrency.abstract.</text>
<text text-anchor="middle" x="322" y="-226" font-family="Helvetica,sans-Serif" font-size="10.00">LockSemaphore.__getstate__</text>
</a>
</g>
</g>
<!-- Node1&#45;&gt;Node3 -->
<g id="edge2" class="edge"><title>Node1&#45;&gt;Node3</title>
<path fill="none" stroke="midnightblue" d="M139.325,-178.853C163.601,-188.568 194.162,-200.191 222,-209 233.155,-212.53 245.138,-215.901 256.781,-218.961"/>
<polygon fill="midnightblue" stroke="midnightblue" points="140.594,-175.591 130.01,-175.097 137.975,-182.083 140.594,-175.591"/>
</g>
<!-- Node4 -->
<g id="node4" class="node"><title>Node4</title>
<g id="a_node4"><a xlink:href="class_lang_1_1_concurrency_1_1abstract_1_1_lock_semaphore.html#a463c3352f2c02af5edad3a7d0bcc5e1b" target="_top" xlink:title="*args and **kwargs are for optional/implementation specific parameters. ">
<polygon fill="none" stroke="black" points="252.5,-170 252.5,-200 391.5,-200 391.5,-170 252.5,-170"/>
<text text-anchor="start" x="260.5" y="-188" font-family="Helvetica,sans-Serif" font-size="10.00">Lang.Concurrency.abstract.</text>
<text text-anchor="middle" x="322" y="-177" font-family="Helvetica,sans-Serif" font-size="10.00">LockSemaphore.release</text>
</a>
</g>
</g>
<!-- Node1&#45;&gt;Node4 -->
<g id="edge3" class="edge"><title>Node1&#45;&gt;Node4</title>
<path fill="none" stroke="midnightblue" d="M195.658,-171.196C214.851,-173.31 234.5,-175.474 252.379,-177.443"/>
<polygon fill="midnightblue" stroke="midnightblue" points="195.998,-167.712 185.675,-170.096 195.232,-174.67 195.998,-167.712"/>
</g>
<!-- Node6 -->
<g id="node6" class="node"><title>Node6</title>
<g id="a_node6"><a xlink:href="class_lang_1_1_concurrency_1_1abstract_1_1_lock.html#ab6f4da9edb98ea85ee4cef74b6156312" target="_top" xlink:title="Lang.Concurrency.abstract.\lLock.isAcquiredBySelf">
<polygon fill="none" stroke="black" points="252.5,-121 252.5,-151 391.5,-151 391.5,-121 252.5,-121"/>
<text text-anchor="start" x="260.5" y="-139" font-family="Helvetica,sans-Serif" font-size="10.00">Lang.Concurrency.abstract.</text>
<text text-anchor="middle" x="322" y="-128" font-family="Helvetica,sans-Serif" font-size="10.00">Lock.isAcquiredBySelf</text>
</a>
</g>
</g>
<!-- Node1&#45;&gt;Node6 -->
<g id="edge5" class="edge"><title>Node1&#45;&gt;Node6</title>
<path fill="none" stroke="midnightblue" d="M195.658,-149.252C214.851,-147.223 234.5,-145.145 252.379,-143.255"/>
<polygon fill="midnightblue" stroke="midnightblue" points="195.252,-145.775 185.675,-150.307 195.988,-152.737 195.252,-145.775"/>
</g>
<!-- Node7 -->
<g id="node7" class="node"><title>Node7</title>
<g id="a_node7"><a xlink:href="class_lang_1_1_concurrency_1_1_file_system_1_1___lock_1_1_file_lock___by_f_c_n_t_l.html#a0ef2142785de8b6889807523e0354c04" target="_top" xlink:title="Lang.Concurrency.FileSystem.\l_Lock.FileLock_ByFCNTL._\l_getattribute__">
<polygon fill="none" stroke="black" points="245.5,-60.5 245.5,-101.5 398.5,-101.5 398.5,-60.5 245.5,-60.5"/>
<text text-anchor="start" x="253.5" y="-89.5" font-family="Helvetica,sans-Serif" font-size="10.00">Lang.Concurrency.FileSystem.</text>
<text text-anchor="start" x="253.5" y="-78.5" font-family="Helvetica,sans-Serif" font-size="10.00">_Lock.FileLock_ByFCNTL._</text>
<text text-anchor="middle" x="322" y="-67.5" font-family="Helvetica,sans-Serif" font-size="10.00">_getattribute__</text>
</a>
</g>
</g>
<!-- Node1&#45;&gt;Node7 -->
<g id="edge6" class="edge"><title>Node1&#45;&gt;Node7</title>
<path fill="none" stroke="midnightblue" d="M142.002,-141.281C165.928,-132.135 195.369,-121.155 222,-112 232.219,-108.487 243.086,-104.918 253.737,-101.512"/>
<polygon fill="midnightblue" stroke="midnightblue" points="140.53,-138.097 132.448,-144.948 143.038,-144.632 140.53,-138.097"/>
</g>
<!-- Node8 -->
<g id="node8" class="node"><title>Node8</title>
<g id="a_node8"><a xlink:href="class_lang_1_1_concurrency_1_1_file_system_1_1___lock_1_1_file_lock___by_f_c_n_t_l.html#abff160265c49010985950f4a6bd6b841" target="_top" xlink:title="Lang.Concurrency.FileSystem.\l_Lock.FileLock_ByFCNTL.getSlotsTaken\lByAnyone">
<polygon fill="none" stroke="black" points="222.5,-0.5 222.5,-41.5 421.5,-41.5 421.5,-0.5 222.5,-0.5"/>
<text text-anchor="start" x="230.5" y="-29.5" font-family="Helvetica,sans-Serif" font-size="10.00">Lang.Concurrency.FileSystem.</text>
<text text-anchor="start" x="230.5" y="-18.5" font-family="Helvetica,sans-Serif" font-size="10.00">_Lock.FileLock_ByFCNTL.getSlotsTaken</text>
<text text-anchor="middle" x="322" y="-7.5" font-family="Helvetica,sans-Serif" font-size="10.00">ByAnyone</text>
</a>
</g>
</g>
<!-- Node1&#45;&gt;Node8 -->
<g id="edge7" class="edge"><title>Node1&#45;&gt;Node8</title>
<path fill="none" stroke="midnightblue" d="M114.944,-137.28C138.712,-112.751 179.698,-74.0994 222,-51 228.384,-47.5141 235.225,-44.3802 242.22,-41.5744"/>
<polygon fill="midnightblue" stroke="midnightblue" points="112.225,-135.059 107.853,-144.71 117.289,-139.892 112.225,-135.059"/>
</g>
<!-- Node5 -->
<g id="node5" class="node"><title>Node5</title>
<g id="a_node5"><a xlink:href="class_lang_1_1_concurrency_1_1abstract_1_1_lock_semaphore.html#a5c679f6bc455607a0ac44066df631426" target="_top" xlink:title="Lang.Concurrency.abstract.\lLockSemaphore.__exit__">
<polygon fill="none" stroke="black" points="458.5,-170 458.5,-200 597.5,-200 597.5,-170 458.5,-170"/>
<text text-anchor="start" x="466.5" y="-188" font-family="Helvetica,sans-Serif" font-size="10.00">Lang.Concurrency.abstract.</text>
<text text-anchor="middle" x="528" y="-177" font-family="Helvetica,sans-Serif" font-size="10.00">LockSemaphore.__exit__</text>
</a>
</g>
</g>
<!-- Node4&#45;&gt;Node5 -->
<g id="edge4" class="edge"><title>Node4&#45;&gt;Node5</title>
<path fill="none" stroke="midnightblue" d="M401.955,-185C420.498,-185 440.113,-185 458.171,-185"/>
<polygon fill="midnightblue" stroke="midnightblue" points="401.781,-181.5 391.781,-185 401.781,-188.5 401.781,-181.5"/>
</g>
</g>
</svg>
