<?xml version="1.0" encoding="UTF-8" standalone="no"?>
<!DOCTYPE svg PUBLIC "-//W3C//DTD SVG 1.1//EN"
 "http://www.w3.org/Graphics/SVG/1.1/DTD/svg11.dtd">
<!-- Generated by graphviz version 2.36.0 (20140111.2315)
 -->
<!-- Title: Lang.Concurrency.abstract.Semaphore Pages: 1 -->
<!--zoomable 526 -->
<svg id="main" version="1.1" xmlns="http://www.w3.org/2000/svg" xmlns:xlink="http://www.w3.org/1999/xlink" xml:space="preserve" onload="init(evt)">
<style type="text/css"><![CDATA[
.edge:hover path { stroke: red; }
.edge:hover polygon { stroke: red; fill: red; }
]]></style>
<script type="text/javascript"><![CDATA[
var edges = document.getElementsByTagName('g');
if (edges && edges.length) {
  for (var i=0;i<edges.length;i++) {
    if (edges[i].id.substr(0,4)=='edge') {
      edges[i].setAttribute('class','edge');
    }
  }
}
]]></script>
        <defs>
                <circle id="rim" cx="0" cy="0" r="7"/>
                <circle id="rim2" cx="0" cy="0" r="3.5"/>
                <g id="zoomPlus">
                        <use xlink:href="#rim" fill="#404040">
                                <set attributeName="fill" to="#808080" begin="zoomplus.mouseover" end="zoomplus.mouseout"/>
                        </use>
                        <path d="M-4,0h8M0,-4v8" fill="none" stroke="white" stroke-width="1.5" pointer-events="none"/>
                </g>
                <g id="zoomMin">
                        <use xlink:href="#rim" fill="#404040">
                                <set attributeName="fill" to="#808080" begin="zoomminus.mouseover" end="zoomminus.mouseout"/>
                        </use>
                        <path d="M-4,0h8" fill="none" stroke="white" stroke-width="1.5" pointer-events="none"/>
                </g>
                <g id="dirArrow">
                        <path fill="none" stroke="white" stroke-width="1.5" d="M0,-3.0v7 M-2.5,-0.5L0,-3.0L2.5,-0.5"/>
                </g>
               <g id="resetDef">
                       <use xlink:href="#rim2" fill="#404040">
                               <set attributeName="fill" to="#808080" begin="reset.mouseover" end="reset.mouseout"/>
                       </use>
               </g>
        </defs>

<script type="text/javascript">
var viewWidth = 162;
var viewHeight = 526;
var sectionId = 'dynsection-0';
</script>
<script xlink:href="svgpan.js"/>
<svg id="graph" class="graph">
<g id="viewport">
<title>Lang.Concurrency.abstract.Semaphore</title>
<!-- Node1 -->
<g id="node1" class="node"><title>Node1</title>
<polygon fill="#bfbfbf" stroke="black" points="7.5,-107 7.5,-175 146.5,-175 146.5,-107 7.5,-107"/>
<text text-anchor="start" x="15.5" y="-163" font-family="Helvetica,sans-Serif" font-size="10.00">Lang.Concurrency.abstract.</text>
<text text-anchor="middle" x="77" y="-152" font-family="Helvetica,sans-Serif" font-size="10.00">Semaphore</text>
<polyline fill="none" stroke="black" points="7.5,-145 146.5,-145 "/>
<text text-anchor="middle" x="77" y="-133" font-family="Helvetica,sans-Serif" font-size="10.00"> </text>
<polyline fill="none" stroke="black" points="7.5,-126 146.5,-126 "/>
<text text-anchor="middle" x="77" y="-114" font-family="Helvetica,sans-Serif" font-size="10.00"> </text>
</g>
<!-- Node4 -->
<g id="node4" class="node"><title>Node4</title>
<g id="a_node4"><a xlink:href="class_lang_1_1_concurrency_1_1___threading_1_1_semaphore.html" target="_top" xlink:title="{Lang.Concurrency._Threading.\lSemaphore\n||}">
<polygon fill="none" stroke="black" points="0,-1 0,-69 154,-69 154,-1 0,-1"/>
<text text-anchor="start" x="8" y="-57" font-family="Helvetica,sans-Serif" font-size="10.00">Lang.Concurrency._Threading.</text>
<text text-anchor="middle" x="77" y="-46" font-family="Helvetica,sans-Serif" font-size="10.00">Semaphore</text>
<polyline fill="none" stroke="black" points="0,-39 154,-39 "/>
<text text-anchor="middle" x="77" y="-27" font-family="Helvetica,sans-Serif" font-size="10.00"> </text>
<polyline fill="none" stroke="black" points="0,-20 154,-20 "/>
<text text-anchor="middle" x="77" y="-8" font-family="Helvetica,sans-Serif" font-size="10.00"> </text>
</a>
</g>
</g>
<!-- Node1&#45;&gt;Node4 -->
<g id="edge3" class="edge"><title>Node1&#45;&gt;Node4</title>
<path fill="none" stroke="midnightblue" d="M77,-96.6737C77,-87.5025 77,-77.9608 77,-69.2336"/>
<polygon fill="none" stroke="midnightblue" points="73.5001,-96.8078 77,-106.808 80.5001,-96.8078 73.5001,-96.8078"/>
</g>
<!-- Node2 -->
<g id="node2" class="node"><title>Node2</title>
<g id="a_node2"><a xlink:href="class_lang_1_1_concurrency_1_1abstract_1_1_lock_semaphore.html" target="_top" xlink:title="There are multiple ways to use subclasses of this class: ">
<polygon fill="none" stroke="black" points="6.5,-212.5 6.5,-423.5 147.5,-423.5 147.5,-212.5 6.5,-212.5"/>
<text text-anchor="start" x="14.5" y="-411.5" font-family="Helvetica,sans-Serif" font-size="10.00">Lang.Concurrency.abstract.</text>
<text text-anchor="middle" x="77" y="-400.5" font-family="Helvetica,sans-Serif" font-size="10.00">LockSemaphore</text>
<polyline fill="none" stroke="black" points="6.5,-393.5 147.5,-393.5 "/>
<text text-anchor="middle" x="77" y="-381.5" font-family="Helvetica,sans-Serif" font-size="10.00"> </text>
<polyline fill="none" stroke="black" points="6.5,-374.5 147.5,-374.5 "/>
<text text-anchor="start" x="14.5" y="-362.5" font-family="Helvetica,sans-Serif" font-size="10.00">+ __init__()</text>
<text text-anchor="start" x="14.5" y="-351.5" font-family="Helvetica,sans-Serif" font-size="10.00">+ __str__()</text>
<text text-anchor="start" x="14.5" y="-340.5" font-family="Helvetica,sans-Serif" font-size="10.00">+ __getstate__()</text>
<text text-anchor="start" x="14.5" y="-329.5" font-family="Helvetica,sans-Serif" font-size="10.00">+ __eq__()</text>
<text text-anchor="start" x="14.5" y="-318.5" font-family="Helvetica,sans-Serif" font-size="10.00">+ __ne__()</text>
<text text-anchor="start" x="14.5" y="-307.5" font-family="Helvetica,sans-Serif" font-size="10.00">+ getMaxSlots()</text>
<text text-anchor="start" x="14.5" y="-296.5" font-family="Helvetica,sans-Serif" font-size="10.00">+ getSlotsTakenByAnyone()</text>
<text text-anchor="start" x="14.5" y="-285.5" font-family="Helvetica,sans-Serif" font-size="10.00">+ getSlotsTakenBySelf()</text>
<text text-anchor="start" x="14.5" y="-274.5" font-family="Helvetica,sans-Serif" font-size="10.00">+ getSlotsAvailable()</text>
<text text-anchor="start" x="14.5" y="-263.5" font-family="Helvetica,sans-Serif" font-size="10.00">+ hasAvailableSlot()</text>
<text text-anchor="start" x="14.5" y="-252.5" font-family="Helvetica,sans-Serif" font-size="10.00">+ acquire()</text>
<text text-anchor="start" x="14.5" y="-241.5" font-family="Helvetica,sans-Serif" font-size="10.00">+ release()</text>
<text text-anchor="start" x="14.5" y="-230.5" font-family="Helvetica,sans-Serif" font-size="10.00">+ __enter__()</text>
<text text-anchor="start" x="14.5" y="-219.5" font-family="Helvetica,sans-Serif" font-size="10.00">+ __exit__()</text>
</a>
</g>
</g>
<!-- Node2&#45;&gt;Node1 -->
<g id="edge1" class="edge"><title>Node2&#45;&gt;Node1</title>
<path fill="none" stroke="midnightblue" d="M77,-202.169C77,-192.48 77,-183.288 77,-175.138"/>
<polygon fill="none" stroke="midnightblue" points="73.5001,-202.423 77,-212.423 80.5001,-202.423 73.5001,-202.423"/>
</g>
<!-- Node3 -->
<g id="node3" class="node"><title>Node3</title>
<g id="a_node3"><a xlink:href="classobject.html" target="_top" xlink:title="{object\n||}">
<polygon fill="none" stroke="black" points="55.5,-460.5 55.5,-517.5 98.5,-517.5 98.5,-460.5 55.5,-460.5"/>
<text text-anchor="middle" x="77" y="-505.5" font-family="Helvetica,sans-Serif" font-size="10.00">object</text>
<polyline fill="none" stroke="black" points="55.5,-498.5 98.5,-498.5 "/>
<text text-anchor="middle" x="77" y="-486.5" font-family="Helvetica,sans-Serif" font-size="10.00"> </text>
<polyline fill="none" stroke="black" points="55.5,-479.5 98.5,-479.5 "/>
<text text-anchor="middle" x="77" y="-467.5" font-family="Helvetica,sans-Serif" font-size="10.00"> </text>
</a>
</g>
</g>
<!-- Node3&#45;&gt;Node2 -->
<g id="edge2" class="edge"><title>Node3&#45;&gt;Node2</title>
<path fill="none" stroke="midnightblue" d="M77,-450.233C77,-442.038 77,-432.987 77,-423.584"/>
<polygon fill="none" stroke="midnightblue" points="73.5001,-450.471 77,-460.471 80.5001,-450.471 73.5001,-450.471"/>
</g>
</g>
</svg>
        <g id="navigator" transform="translate(0 0)" fill="#404254">
                <rect fill="#f2f5e9" fill-opacity="0.5" stroke="#606060" stroke-width=".5" x="0" y="0" width="60" height="60"/>
                <use id="zoomplus" xlink:href="#zoomPlus" x="17" y="9" onmousedown="handleZoom(evt,'in')"/>
                <use id="zoomminus" xlink:href="#zoomMin" x="42" y="9" onmousedown="handleZoom(evt,'out')"/>
                <use id="reset" xlink:href="#resetDef" x="30" y="36" onmousedown="handleReset()"/>
                <g id="arrowUp" xlink:href="#dirArrow" transform="translate(30 24)" onmousedown="handlePan(0,-1)">
                  <use xlink:href="#rim" fill="#404040">
                        <set attributeName="fill" to="#808080" begin="arrowUp.mouseover" end="arrowUp.mouseout"/>
                  </use>
                  <path fill="none" stroke="white" stroke-width="1.5" d="M0,-3.0v7 M-2.5,-0.5L0,-3.0L2.5,-0.5"/>
                </g>
                <g id="arrowRight" xlink:href="#dirArrow" transform="rotate(90) translate(36 -43)" onmousedown="handlePan(1,0)">
                  <use xlink:href="#rim" fill="#404040">
                        <set attributeName="fill" to="#808080" begin="arrowRight.mouseover" end="arrowRight.mouseout"/>
                  </use>
                  <path fill="none" stroke="white" stroke-width="1.5" d="M0,-3.0v7 M-2.5,-0.5L0,-3.0L2.5,-0.5"/>
                </g>
                <g id="arrowDown" xlink:href="#dirArrow" transform="rotate(180) translate(-30 -48)" onmousedown="handlePan(0,1)">
                  <use xlink:href="#rim" fill="#404040">
                        <set attributeName="fill" to="#808080" begin="arrowDown.mouseover" end="arrowDown.mouseout"/>
                  </use>
                  <path fill="none" stroke="white" stroke-width="1.5" d="M0,-3.0v7 M-2.5,-0.5L0,-3.0L2.5,-0.5"/>
                </g>
                <g id="arrowLeft" xlink:href="#dirArrow" transform="rotate(270) translate(-36 17)" onmousedown="handlePan(-1,0)">
                  <use xlink:href="#rim" fill="#404040">
                        <set attributeName="fill" to="#808080" begin="arrowLeft.mouseover" end="arrowLeft.mouseout"/>
                  </use>
                  <path fill="none" stroke="white" stroke-width="1.5" d="M0,-3.0v7 M-2.5,-0.5L0,-3.0L2.5,-0.5"/>
                </g>
        </g>
        <svg viewBox="0 0 15 15" width="100%" height="30px" preserveAspectRatio="xMaxYMin meet">
         <g id="arrow_out" transform="scale(0.3 0.3)">
          <a xlink:href="class_lang_1_1_concurrency_1_1abstract_1_1_semaphore__inherit__graph_org.svg" target="_base">
           <rect id="button" ry="5" rx="5" y="6" x="6" height="38" width="38"
                fill="#f2f5e9" fill-opacity="0.5" stroke="#606060" stroke-width="1.0"/>
           <path id="arrow"
             d="M 11.500037,31.436501 C 11.940474,20.09759 22.043105,11.32322 32.158766,21.979434 L 37.068811,17.246167 C 37.068811,17.246167 37.088388,32 37.088388,32 L 22.160133,31.978069 C 22.160133,31.978069 26.997745,27.140456 26.997745,27.140456 C 18.528582,18.264221 13.291696,25.230495 11.500037,31.436501 z"
             style="fill:#404040;"/>
          </a>
         </g>
        </svg>
</svg>
