<?xml version="1.0" encoding="UTF-8" standalone="no"?>
<!DOCTYPE svg PUBLIC "-//W3C//DTD SVG 1.1//EN"
 "http://www.w3.org/Graphics/SVG/1.1/DTD/svg11.dtd">
<!-- Generated by graphviz version 2.30.1 (20130219.2202)
 -->
<!-- Title: Lang.Terminal.FormattedText.asColored Pages: 1 -->
<svg width="334pt" height="87pt"
 viewBox="0.00 0.00 334.00 87.00" xmlns="http://www.w3.org/2000/svg" xmlns:xlink="http://www.w3.org/1999/xlink">
<g id="graph0" class="graph" transform="scale(1 1) rotate(0) translate(4 83)">
<title>Lang.Terminal.FormattedText.asColored</title>
<!-- Node1 -->
<g id="node1" class="node"><title>Node1</title>
<polygon fill="#bfbfbf" stroke="black" points="0,-24 0,-54 150,-54 150,-24 0,-24"/>
<text text-anchor="start" x="8" y="-42" font-family="Helvetica,sans-Serif" font-size="10.00">Lang.Terminal.FormattedText.as</text>
<text text-anchor="middle" x="75" y="-31" font-family="Helvetica,sans-Serif" font-size="10.00">Colored</text>
</g>
<!-- Node2 -->
<g id="node2" class="node"><title>Node2</title>
<g id="a_node2"><a xlink:href="class_lang_1_1_terminal_1_1_formatted_text.html#a15fcb406bc8e4050feff04a7867e6d92" target="_top" xlink:title="Lang.Terminal.FormattedText.\l__str__">
<polygon fill="none" stroke="black" points="186.5,-49 186.5,-79 325.5,-79 325.5,-49 186.5,-49"/>
<text text-anchor="start" x="194.5" y="-67" font-family="Helvetica,sans-Serif" font-size="10.00">Lang.Terminal.FormattedText.</text>
<text text-anchor="middle" x="256" y="-56" font-family="Helvetica,sans-Serif" font-size="10.00">__str__</text>
</a>
</g>
</g>
<!-- Node1&#45;&gt;Node2 -->
<g id="edge1" class="edge"><title>Node1&#45;&gt;Node2</title>
<path fill="none" stroke="midnightblue" d="M160.028,-50.7357C168.866,-51.9701 177.775,-53.2144 186.409,-54.4203"/>
<polygon fill="midnightblue" stroke="midnightblue" points="160.486,-47.2659 150.098,-49.3489 159.518,-54.1986 160.486,-47.2659"/>
</g>
<!-- Node3 -->
<g id="node3" class="node"><title>Node3</title>
<g id="a_node3"><a xlink:href="class_lang_1_1_terminal_1_1_formatted_text.html#ae113489c053718efb9caa68a65d1130d" target="_top" xlink:title="Lang.Terminal.FormattedText.\l__add__">
<polygon fill="none" stroke="black" points="186.5,-0 186.5,-30 325.5,-30 325.5,-0 186.5,-0"/>
<text text-anchor="start" x="194.5" y="-18" font-family="Helvetica,sans-Serif" font-size="10.00">Lang.Terminal.FormattedText.</text>
<text text-anchor="middle" x="256" y="-7" font-family="Helvetica,sans-Serif" font-size="10.00">__add__</text>
</a>
</g>
</g>
<!-- Node1&#45;&gt;Node3 -->
<g id="edge2" class="edge"><title>Node1&#45;&gt;Node3</title>
<path fill="none" stroke="midnightblue" d="M160.028,-27.7337C168.866,-26.5487 177.775,-25.3542 186.409,-24.1965"/>
<polygon fill="midnightblue" stroke="midnightblue" points="159.544,-24.2671 150.098,-29.065 160.475,-31.205 159.544,-24.2671"/>
</g>
</g>
</svg>
