<?xml version="1.0" encoding="UTF-8" standalone="no"?>
<!DOCTYPE svg PUBLIC "-//W3C//DTD SVG 1.1//EN"
 "http://www.w3.org/Graphics/SVG/1.1/DTD/svg11.dtd">
<!-- Generated by graphviz version 2.36.0 (20140111.2315)
 -->
<!-- Title: Lang.Diff.SequenceMatcher Pages: 1 -->
<svg width="174pt" height="282pt"
 viewBox="0.00 0.00 174.00 282.00" xmlns="http://www.w3.org/2000/svg" xmlns:xlink="http://www.w3.org/1999/xlink">
<g id="graph0" class="graph" transform="scale(1 1) rotate(0) translate(4 278)">
<title>Lang.Diff.SequenceMatcher</title>
<!-- Node1 -->
<g id="node1" class="node"><title>Node1</title>
<polygon fill="#bfbfbf" stroke="black" points="25.5,-1 25.5,-179 166.5,-179 166.5,-1 25.5,-1"/>
<text text-anchor="middle" x="96" y="-167" font-family="Helvetica,sans-Serif" font-size="10.00">Lang.Diff.SequenceMatcher</text>
<polyline fill="none" stroke="black" points="25.5,-160 166.5,-160 "/>
<text text-anchor="middle" x="96" y="-148" font-family="Helvetica,sans-Serif" font-size="10.00"> </text>
<polyline fill="none" stroke="black" points="25.5,-141 166.5,-141 "/>
<text text-anchor="start" x="33.5" y="-129" font-family="Helvetica,sans-Serif" font-size="10.00">+ __init__()</text>
<text text-anchor="start" x="33.5" y="-118" font-family="Helvetica,sans-Serif" font-size="10.00">+ ratio()</text>
<text text-anchor="start" x="33.5" y="-107" font-family="Helvetica,sans-Serif" font-size="10.00">+ get_matching_blocks()</text>
<text text-anchor="start" x="33.5" y="-96" font-family="Helvetica,sans-Serif" font-size="10.00">+ get_mismatching_blocks()</text>
<text text-anchor="start" x="33.5" y="-85" font-family="Helvetica,sans-Serif" font-size="10.00">+ get_matching_elems()</text>
<text text-anchor="start" x="33.5" y="-74" font-family="Helvetica,sans-Serif" font-size="10.00">+ get_matching_elems</text>
<text text-anchor="start" x="33.5" y="-63" font-family="Helvetica,sans-Serif" font-size="10.00">_useOnce()</text>
<text text-anchor="start" x="33.5" y="-52" font-family="Helvetica,sans-Serif" font-size="10.00">+ get_mismatching_elems()</text>
<text text-anchor="start" x="33.5" y="-41" font-family="Helvetica,sans-Serif" font-size="10.00">+ get_mismatching_elems</text>
<text text-anchor="start" x="33.5" y="-30" font-family="Helvetica,sans-Serif" font-size="10.00">_useOnce()</text>
<text text-anchor="start" x="33.5" y="-19" font-family="Helvetica,sans-Serif" font-size="10.00">+ get_matching()</text>
<text text-anchor="start" x="33.5" y="-8" font-family="Helvetica,sans-Serif" font-size="10.00">+ get_mismatching()</text>
</g>
<!-- Node2 -->
<g id="node2" class="node"><title>Node2</title>
<g id="a_node2"><a xlink:href="class___sequence_matcher.html" target="_top" xlink:title="{_SequenceMatcher\n||}">
<polygon fill="none" stroke="black" points="-0.5,-216.5 -0.5,-273.5 102.5,-273.5 102.5,-216.5 -0.5,-216.5"/>
<text text-anchor="middle" x="51" y="-261.5" font-family="Helvetica,sans-Serif" font-size="10.00">_SequenceMatcher</text>
<polyline fill="none" stroke="black" points="-0.5,-254.5 102.5,-254.5 "/>
<text text-anchor="middle" x="51" y="-242.5" font-family="Helvetica,sans-Serif" font-size="10.00"> </text>
<polyline fill="none" stroke="black" points="-0.5,-235.5 102.5,-235.5 "/>
<text text-anchor="middle" x="51" y="-223.5" font-family="Helvetica,sans-Serif" font-size="10.00"> </text>
</a>
</g>
</g>
<!-- Node2&#45;&gt;Node1 -->
<g id="edge1" class="edge"><title>Node2&#45;&gt;Node1</title>
<path fill="none" stroke="midnightblue" d="M62.0455,-206.445C64.5336,-197.986 67.2766,-188.66 70.0925,-179.086"/>
<polygon fill="none" stroke="midnightblue" points="58.6131,-205.712 59.1492,-216.293 65.3287,-207.687 58.6131,-205.712"/>
</g>
<!-- Node3 -->
<g id="node3" class="node"><title>Node3</title>
<g id="a_node3"><a xlink:href="classobject.html" target="_top" xlink:title="{object\n||}">
<polygon fill="none" stroke="black" points="120.5,-216.5 120.5,-273.5 163.5,-273.5 163.5,-216.5 120.5,-216.5"/>
<text text-anchor="middle" x="142" y="-261.5" font-family="Helvetica,sans-Serif" font-size="10.00">object</text>
<polyline fill="none" stroke="black" points="120.5,-254.5 163.5,-254.5 "/>
<text text-anchor="middle" x="142" y="-242.5" font-family="Helvetica,sans-Serif" font-size="10.00"> </text>
<polyline fill="none" stroke="black" points="120.5,-235.5 163.5,-235.5 "/>
<text text-anchor="middle" x="142" y="-223.5" font-family="Helvetica,sans-Serif" font-size="10.00"> </text>
</a>
</g>
</g>
<!-- Node3&#45;&gt;Node1 -->
<g id="edge2" class="edge"><title>Node3&#45;&gt;Node1</title>
<path fill="none" stroke="midnightblue" d="M130.709,-206.445C128.166,-197.986 125.362,-188.66 122.483,-179.086"/>
<polygon fill="none" stroke="midnightblue" points="127.439,-207.724 133.67,-216.293 134.142,-205.709 127.439,-207.724"/>
</g>
</g>
</svg>
