<?xml version="1.0" encoding="UTF-8" standalone="no"?>
<!DOCTYPE svg PUBLIC "-//W3C//DTD SVG 1.1//EN"
 "http://www.w3.org/Graphics/SVG/1.1/DTD/svg11.dtd">
<!-- Generated by graphviz version 2.36.0 (20140111.2315)
 -->
<!-- Title: Lang.Diff.SequenceMatcher.get_matching_blocks Pages: 1 -->
<svg width="748pt" height="185pt"
 viewBox="0.00 0.00 748.00 185.00" xmlns="http://www.w3.org/2000/svg" xmlns:xlink="http://www.w3.org/1999/xlink">
<g id="graph0" class="graph" transform="scale(1 1) rotate(0) translate(4 181)">
<title>Lang.Diff.SequenceMatcher.get_matching_blocks</title>
<!-- Node1 -->
<g id="node1" class="node"><title>Node1</title>
<polygon fill="#bfbfbf" stroke="black" points="0.5,-49 0.5,-79 157.5,-79 157.5,-49 0.5,-49"/>
<text text-anchor="start" x="8.5" y="-67" font-family="Helvetica,sans-Serif" font-size="10.00">Lang.Diff.SequenceMatcher.get</text>
<text text-anchor="middle" x="79" y="-56" font-family="Helvetica,sans-Serif" font-size="10.00">_matching_blocks</text>
</g>
<!-- Node2 -->
<g id="node2" class="node"><title>Node2</title>
<g id="a_node2"><a xlink:href="class_lang_1_1_diff_1_1_sequence_matcher.html#a2f91f89e168c2994d50ee29af7d1c988" target="_top" xlink:title="Lang.Diff.SequenceMatcher.get\l_mismatching_blocks">
<polygon fill="none" stroke="black" points="194.5,-98 194.5,-128 351.5,-128 351.5,-98 194.5,-98"/>
<text text-anchor="start" x="202.5" y="-116" font-family="Helvetica,sans-Serif" font-size="10.00">Lang.Diff.SequenceMatcher.get</text>
<text text-anchor="middle" x="273" y="-105" font-family="Helvetica,sans-Serif" font-size="10.00">_mismatching_blocks</text>
</a>
</g>
</g>
<!-- Node1&#45;&gt;Node2 -->
<g id="edge1" class="edge"><title>Node1&#45;&gt;Node2</title>
<path fill="none" stroke="midnightblue" d="M148.767,-81.5498C169.851,-86.9306 192.845,-92.799 213.2,-97.9938"/>
<polygon fill="midnightblue" stroke="midnightblue" points="149.466,-78.1162 138.911,-79.0346 147.735,-84.8988 149.466,-78.1162"/>
</g>
<!-- Node6 -->
<g id="node6" class="node"><title>Node6</title>
<g id="a_node6"><a xlink:href="class_lang_1_1_diff_1_1_sequence_matcher.html#a523e8db72ca0fa10a4519a28f3dd6202" target="_top" xlink:title="Generators will be returned which can only be iterated over once. ">
<polygon fill="none" stroke="black" points="194.5,-49 194.5,-79 351.5,-79 351.5,-49 194.5,-49"/>
<text text-anchor="start" x="202.5" y="-67" font-family="Helvetica,sans-Serif" font-size="10.00">Lang.Diff.SequenceMatcher.get</text>
<text text-anchor="middle" x="273" y="-56" font-family="Helvetica,sans-Serif" font-size="10.00">_matching_elems_useOnce</text>
</a>
</g>
</g>
<!-- Node1&#45;&gt;Node6 -->
<g id="edge5" class="edge"><title>Node1&#45;&gt;Node6</title>
<path fill="none" stroke="midnightblue" d="M167.605,-64C176.571,-64 185.635,-64 194.482,-64"/>
<polygon fill="midnightblue" stroke="midnightblue" points="167.54,-60.5001 157.54,-64 167.54,-67.5001 167.54,-60.5001"/>
</g>
<!-- Node8 -->
<g id="node8" class="node"><title>Node8</title>
<g id="a_node8"><a xlink:href="class_lang_1_1_diff_1_1_sequence_matcher.html#a3ca490a397c758740eb283359a360375" target="_top" xlink:title="Lang.Diff.SequenceMatcher.get\l_matching">
<polygon fill="none" stroke="black" points="194.5,-0 194.5,-30 351.5,-30 351.5,-0 194.5,-0"/>
<text text-anchor="start" x="202.5" y="-18" font-family="Helvetica,sans-Serif" font-size="10.00">Lang.Diff.SequenceMatcher.get</text>
<text text-anchor="middle" x="273" y="-7" font-family="Helvetica,sans-Serif" font-size="10.00">_matching</text>
</a>
</g>
</g>
<!-- Node1&#45;&gt;Node8 -->
<g id="edge7" class="edge"><title>Node1&#45;&gt;Node8</title>
<path fill="none" stroke="midnightblue" d="M148.767,-46.4502C169.851,-41.0694 192.845,-35.201 213.2,-30.0062"/>
<polygon fill="midnightblue" stroke="midnightblue" points="147.735,-43.1012 138.911,-48.9654 149.466,-49.8838 147.735,-43.1012"/>
</g>
<!-- Node3 -->
<g id="node3" class="node"><title>Node3</title>
<g id="a_node3"><a xlink:href="class_lang_1_1_diff_1_1_sequence_matcher.html#ad39d03c930490265c4cd1c85ae3e706c" target="_top" xlink:title="Generators will be returned which can only be iterated over once. ">
<polygon fill="none" stroke="black" points="388.5,-147 388.5,-177 545.5,-177 545.5,-147 388.5,-147"/>
<text text-anchor="start" x="396.5" y="-165" font-family="Helvetica,sans-Serif" font-size="10.00">Lang.Diff.SequenceMatcher.get</text>
<text text-anchor="middle" x="467" y="-154" font-family="Helvetica,sans-Serif" font-size="10.00">_mismatching_elems_useOnce</text>
</a>
</g>
</g>
<!-- Node2&#45;&gt;Node3 -->
<g id="edge2" class="edge"><title>Node2&#45;&gt;Node3</title>
<path fill="none" stroke="midnightblue" d="M342.767,-130.55C363.851,-135.931 386.845,-141.799 407.2,-146.994"/>
<polygon fill="midnightblue" stroke="midnightblue" points="343.466,-127.116 332.911,-128.035 341.735,-133.899 343.466,-127.116"/>
</g>
<!-- Node5 -->
<g id="node5" class="node"><title>Node5</title>
<g id="a_node5"><a xlink:href="class_lang_1_1_diff_1_1_sequence_matcher.html#a3c53dfe69d35f922ad4e4b61d11f7ff5" target="_top" xlink:title="Lang.Diff.SequenceMatcher.get\l_mismatching">
<polygon fill="none" stroke="black" points="388.5,-98 388.5,-128 545.5,-128 545.5,-98 388.5,-98"/>
<text text-anchor="start" x="396.5" y="-116" font-family="Helvetica,sans-Serif" font-size="10.00">Lang.Diff.SequenceMatcher.get</text>
<text text-anchor="middle" x="467" y="-105" font-family="Helvetica,sans-Serif" font-size="10.00">_mismatching</text>
</a>
</g>
</g>
<!-- Node2&#45;&gt;Node5 -->
<g id="edge4" class="edge"><title>Node2&#45;&gt;Node5</title>
<path fill="none" stroke="midnightblue" d="M361.605,-113C370.571,-113 379.635,-113 388.482,-113"/>
<polygon fill="midnightblue" stroke="midnightblue" points="361.54,-109.5 351.54,-113 361.54,-116.5 361.54,-109.5"/>
</g>
<!-- Node4 -->
<g id="node4" class="node"><title>Node4</title>
<g id="a_node4"><a xlink:href="class_lang_1_1_diff_1_1_sequence_matcher.html#ae5b602b7de355769e231792c131eac5b" target="_top" xlink:title="Tuples and lists are used here instead of generators. ">
<polygon fill="none" stroke="black" points="582.5,-147 582.5,-177 739.5,-177 739.5,-147 582.5,-147"/>
<text text-anchor="start" x="590.5" y="-165" font-family="Helvetica,sans-Serif" font-size="10.00">Lang.Diff.SequenceMatcher.get</text>
<text text-anchor="middle" x="661" y="-154" font-family="Helvetica,sans-Serif" font-size="10.00">_mismatching_elems</text>
</a>
</g>
</g>
<!-- Node3&#45;&gt;Node4 -->
<g id="edge3" class="edge"><title>Node3&#45;&gt;Node4</title>
<path fill="none" stroke="midnightblue" d="M555.605,-162C564.571,-162 573.635,-162 582.482,-162"/>
<polygon fill="midnightblue" stroke="midnightblue" points="555.54,-158.5 545.54,-162 555.54,-165.5 555.54,-158.5"/>
</g>
<!-- Node7 -->
<g id="node7" class="node"><title>Node7</title>
<g id="a_node7"><a xlink:href="class_lang_1_1_diff_1_1_sequence_matcher.html#a606798d3f359f0a5872578fbee9acba0" target="_top" xlink:title="Tuples and lists are used here instead of generators. ">
<polygon fill="none" stroke="black" points="388.5,-49 388.5,-79 545.5,-79 545.5,-49 388.5,-49"/>
<text text-anchor="start" x="396.5" y="-67" font-family="Helvetica,sans-Serif" font-size="10.00">Lang.Diff.SequenceMatcher.get</text>
<text text-anchor="middle" x="467" y="-56" font-family="Helvetica,sans-Serif" font-size="10.00">_matching_elems</text>
</a>
</g>
</g>
<!-- Node6&#45;&gt;Node7 -->
<g id="edge6" class="edge"><title>Node6&#45;&gt;Node7</title>
<path fill="none" stroke="midnightblue" d="M361.605,-64C370.571,-64 379.635,-64 388.482,-64"/>
<polygon fill="midnightblue" stroke="midnightblue" points="361.54,-60.5001 351.54,-64 361.54,-67.5001 361.54,-60.5001"/>
</g>
</g>
</svg>
