<?xml version="1.0" encoding="UTF-8" standalone="no"?>
<!DOCTYPE svg PUBLIC "-//W3C//DTD SVG 1.1//EN"
 "http://www.w3.org/Graphics/SVG/1.1/DTD/svg11.dtd">
<!-- Generated by graphviz version 2.30.1 (20130219.2202)
 -->
<!-- Title: Lang.Struct._OrderedSet.OrderedSet.insertMultiBefore Pages: 1 -->
<svg width="322pt" height="136pt"
 viewBox="0.00 0.00 322.00 136.00" xmlns="http://www.w3.org/2000/svg" xmlns:xlink="http://www.w3.org/1999/xlink">
<g id="graph0" class="graph" transform="scale(1 1) rotate(0) translate(4 132)">
<title>Lang.Struct._OrderedSet.OrderedSet.insertMultiBefore</title>
<!-- Node1 -->
<g id="node1" class="node"><title>Node1</title>
<polygon fill="#bfbfbf" stroke="black" points="0,-49 0,-79 134,-79 134,-49 0,-49"/>
<text text-anchor="start" x="8" y="-67" font-family="Helvetica,sans-Serif" font-size="10.00">Lang.Struct._OrderedSet.</text>
<text text-anchor="middle" x="67" y="-56" font-family="Helvetica,sans-Serif" font-size="10.00">OrderedSet.insertMultiBefore</text>
</g>
<!-- Node2 -->
<g id="node2" class="node"><title>Node2</title>
<g id="a_node2"><a xlink:href="class_lang_1_1_struct_1_1___ordered_set_1_1_ordered_set.html#a3d77225d0613232e8c9106025376660c" target="_top" xlink:title="Returns True if all links were inserted, False otherwise.">
<polygon fill="none" stroke="black" points="170,-98 170,-128 314,-128 314,-98 170,-98"/>
<text text-anchor="start" x="178" y="-116" font-family="Helvetica,sans-Serif" font-size="10.00">Lang.Struct._OrderedSet.</text>
<text text-anchor="middle" x="242" y="-105" font-family="Helvetica,sans-Serif" font-size="10.00">OrderedSet._insertBefore_links</text>
</a>
</g>
</g>
<!-- Node1&#45;&gt;Node2 -->
<g id="edge1" class="edge"><title>Node1&#45;&gt;Node2</title>
<path fill="none" stroke="midnightblue" d="M121.317,-79.1014C139.242,-84.1785 159.408,-89.8902 178.006,-95.1577"/>
<polygon fill="midnightblue" stroke="midnightblue" points="177.283,-98.5907 187.859,-97.9484 179.191,-91.8557 177.283,-98.5907"/>
</g>
<!-- Node3 -->
<g id="node3" class="node"><title>Node3</title>
<g id="a_node3"><a xlink:href="class_lang_1_1_struct_1_1___ordered_set_1_1_ordered_set.html#a0d96b91eb6a06a5725485bf0942646b5" target="_top" xlink:title="Lang.Struct._OrderedSet.\lOrderedSet.discard">
<polygon fill="none" stroke="black" points="181,-49 181,-79 303,-79 303,-49 181,-49"/>
<text text-anchor="start" x="189" y="-67" font-family="Helvetica,sans-Serif" font-size="10.00">Lang.Struct._OrderedSet.</text>
<text text-anchor="middle" x="242" y="-56" font-family="Helvetica,sans-Serif" font-size="10.00">OrderedSet.discard</text>
</a>
</g>
</g>
<!-- Node1&#45;&gt;Node3 -->
<g id="edge2" class="edge"><title>Node1&#45;&gt;Node3</title>
<path fill="none" stroke="midnightblue" d="M134.392,-64C146.183,-64 158.503,-64 170.406,-64"/>
<polygon fill="midnightblue" stroke="midnightblue" points="170.736,-67.5001 180.736,-64 170.736,-60.5001 170.736,-67.5001"/>
</g>
<!-- Node4 -->
<g id="node4" class="node"><title>Node4</title>
<g id="a_node4"><a xlink:href="class_lang_1_1_struct_1_1___ordered_set_1_1_ordered_set.html#a3b5b0f278022d362913215cc21961b4e" target="_top" xlink:title="Inserts newElemBefore into the current position of oldLinkAfter.">
<polygon fill="none" stroke="black" points="172.5,-0 172.5,-30 311.5,-30 311.5,-0 172.5,-0"/>
<text text-anchor="start" x="180.5" y="-18" font-family="Helvetica,sans-Serif" font-size="10.00">Lang.Struct._OrderedSet.</text>
<text text-anchor="middle" x="242" y="-7" font-family="Helvetica,sans-Serif" font-size="10.00">OrderedSet._insertBefore_link</text>
</a>
</g>
</g>
<!-- Node1&#45;&gt;Node4 -->
<g id="edge3" class="edge"><title>Node1&#45;&gt;Node4</title>
<path fill="none" stroke="midnightblue" d="M121.317,-48.8986C139.242,-43.8215 159.408,-38.1098 178.006,-32.8423"/>
<polygon fill="midnightblue" stroke="midnightblue" points="179.191,-36.1443 187.859,-30.0516 177.283,-29.4093 179.191,-36.1443"/>
</g>
</g>
</svg>
