<?xml version="1.0" encoding="UTF-8" standalone="no"?>
<!DOCTYPE svg PUBLIC "-//W3C//DTD SVG 1.1//EN"
 "http://www.w3.org/Graphics/SVG/1.1/DTD/svg11.dtd">
<!-- Generated by graphviz version 2.36.0 (20140111.2315)
 -->
<!-- Title: Lang.Terminal.ArgParser._HelpFormatter.add_argument Pages: 1 -->
<svg width="354pt" height="160pt"
 viewBox="0.00 0.00 354.00 160.00" xmlns="http://www.w3.org/2000/svg" xmlns:xlink="http://www.w3.org/1999/xlink">
<g id="graph0" class="graph" transform="scale(1 1) rotate(0) translate(4 156)">
<title>Lang.Terminal.ArgParser._HelpFormatter.add_argument</title>
<!-- Node1 -->
<g id="node1" class="node"><title>Node1</title>
<polygon fill="#bfbfbf" stroke="black" points="0.5,-61 0.5,-91 153.5,-91 153.5,-61 0.5,-61"/>
<text text-anchor="start" x="8.5" y="-79" font-family="Helvetica,sans-Serif" font-size="10.00">Lang.Terminal.ArgParser.</text>
<text text-anchor="middle" x="77" y="-68" font-family="Helvetica,sans-Serif" font-size="10.00">_HelpFormatter.add_argument</text>
</g>
<!-- Node2 -->
<g id="node2" class="node"><title>Node2</title>
<g id="a_node2"><a xlink:href="class_lang_1_1_terminal_1_1_arg_parser_1_1___help_formatter.html#ab4c7db6aa1facbde7f0dc45e11dba681" target="_top" xlink:title="Lang.Terminal.ArgParser.\l_HelpFormatter._format\l_action_invocation">
<polygon fill="none" stroke="black" points="202.5,-110.5 202.5,-151.5 333.5,-151.5 333.5,-110.5 202.5,-110.5"/>
<text text-anchor="start" x="210.5" y="-139.5" font-family="Helvetica,sans-Serif" font-size="10.00">Lang.Terminal.ArgParser.</text>
<text text-anchor="start" x="210.5" y="-128.5" font-family="Helvetica,sans-Serif" font-size="10.00">_HelpFormatter._format</text>
<text text-anchor="middle" x="268" y="-117.5" font-family="Helvetica,sans-Serif" font-size="10.00">_action_invocation</text>
</a>
</g>
</g>
<!-- Node1&#45;&gt;Node2 -->
<g id="edge1" class="edge"><title>Node1&#45;&gt;Node2</title>
<path fill="none" stroke="midnightblue" d="M129.645,-91.029C148.987,-96.6577 171.369,-103.171 192.377,-109.284"/>
<polygon fill="midnightblue" stroke="midnightblue" points="191.658,-112.72 202.238,-112.154 193.614,-105.999 191.658,-112.72"/>
</g>
<!-- Node3 -->
<g id="node3" class="node"><title>Node3</title>
<g id="a_node3"><a xlink:href="class_lang_1_1_terminal_1_1_arg_parser_1_1___help_formatter.html#a594fc410802489c7f9e38f64104467c9" target="_top" xlink:title="Lang.Terminal.ArgParser.\l_HelpFormatter._format_action">
<polygon fill="none" stroke="black" points="190.5,-61 190.5,-91 345.5,-91 345.5,-61 190.5,-61"/>
<text text-anchor="start" x="198.5" y="-79" font-family="Helvetica,sans-Serif" font-size="10.00">Lang.Terminal.ArgParser.</text>
<text text-anchor="middle" x="268" y="-68" font-family="Helvetica,sans-Serif" font-size="10.00">_HelpFormatter._format_action</text>
</a>
</g>
</g>
<!-- Node1&#45;&gt;Node3 -->
<g id="edge2" class="edge"><title>Node1&#45;&gt;Node3</title>
<path fill="none" stroke="midnightblue" d="M153.513,-76C162.328,-76 171.373,-76 180.324,-76"/>
<polygon fill="midnightblue" stroke="midnightblue" points="180.372,-79.5001 190.372,-76 180.372,-72.5001 180.372,-79.5001"/>
</g>
<!-- Node4 -->
<g id="node4" class="node"><title>Node4</title>
<g id="a_node4"><a xlink:href="class_lang_1_1_terminal_1_1_arg_parser_1_1___help_formatter.html#a711123a0316f56896dea9b45159a4f28" target="_top" xlink:title="Lang.Terminal.ArgParser.\l_HelpFormatter._format\l_action_calcWidths">
<polygon fill="none" stroke="black" points="202.5,-0.5 202.5,-41.5 333.5,-41.5 333.5,-0.5 202.5,-0.5"/>
<text text-anchor="start" x="210.5" y="-29.5" font-family="Helvetica,sans-Serif" font-size="10.00">Lang.Terminal.ArgParser.</text>
<text text-anchor="start" x="210.5" y="-18.5" font-family="Helvetica,sans-Serif" font-size="10.00">_HelpFormatter._format</text>
<text text-anchor="middle" x="268" y="-7.5" font-family="Helvetica,sans-Serif" font-size="10.00">_action_calcWidths</text>
</a>
</g>
</g>
<!-- Node1&#45;&gt;Node4 -->
<g id="edge3" class="edge"><title>Node1&#45;&gt;Node4</title>
<path fill="none" stroke="midnightblue" d="M129.645,-60.971C148.987,-55.3423 171.369,-48.8292 192.377,-42.7156"/>
<polygon fill="midnightblue" stroke="midnightblue" points="193.614,-46.0009 202.238,-39.8461 191.658,-39.2797 193.614,-46.0009"/>
</g>
</g>
</svg>
