<?xml version="1.0" encoding="UTF-8" standalone="no"?>
<!DOCTYPE svg PUBLIC "-//W3C//DTD SVG 1.1//EN"
 "http://www.w3.org/Graphics/SVG/1.1/DTD/svg11.dtd">
<!-- Generated by graphviz version 2.36.0 (20140111.2315)
 -->
<!-- Title: Lang.Diff._BlockMatch Pages: 1 -->
<svg width="124pt" height="404pt"
 viewBox="0.00 0.00 124.00 404.00" xmlns="http://www.w3.org/2000/svg" xmlns:xlink="http://www.w3.org/1999/xlink">
<g id="graph0" class="graph" transform="scale(1 1) rotate(0) translate(4 400)">
<title>Lang.Diff._BlockMatch</title>
<!-- Node1 -->
<g id="node1" class="node"><title>Node1</title>
<polygon fill="#bfbfbf" stroke="black" points="-0.5,-0.5 -0.5,-79.5 116.5,-79.5 116.5,-0.5 -0.5,-0.5"/>
<text text-anchor="middle" x="58" y="-67.5" font-family="Helvetica,sans-Serif" font-size="10.00">Lang.Diff._BlockMatch</text>
<polyline fill="none" stroke="black" points="-0.5,-60.5 116.5,-60.5 "/>
<text text-anchor="middle" x="58" y="-48.5" font-family="Helvetica,sans-Serif" font-size="10.00"> </text>
<polyline fill="none" stroke="black" points="-0.5,-41.5 116.5,-41.5 "/>
<text text-anchor="start" x="7.5" y="-29.5" font-family="Helvetica,sans-Serif" font-size="10.00">+ __init__()</text>
<text text-anchor="start" x="7.5" y="-18.5" font-family="Helvetica,sans-Serif" font-size="10.00">+ __getattr__()</text>
<text text-anchor="start" x="7.5" y="-7.5" font-family="Helvetica,sans-Serif" font-size="10.00">+ __getitem__()</text>
</g>
<!-- Node2 -->
<g id="node2" class="node"><title>Node2</title>
<g id="a_node2"><a xlink:href="class_lang_1_1_diff_1_1___block.html" target="_top" xlink:title="{Lang.Diff._Block\n||}">
<polygon fill="none" stroke="black" points="13.5,-116.5 13.5,-173.5 102.5,-173.5 102.5,-116.5 13.5,-116.5"/>
<text text-anchor="middle" x="58" y="-161.5" font-family="Helvetica,sans-Serif" font-size="10.00">Lang.Diff._Block</text>
<polyline fill="none" stroke="black" points="13.5,-154.5 102.5,-154.5 "/>
<text text-anchor="middle" x="58" y="-142.5" font-family="Helvetica,sans-Serif" font-size="10.00"> </text>
<polyline fill="none" stroke="black" points="13.5,-135.5 102.5,-135.5 "/>
<text text-anchor="middle" x="58" y="-123.5" font-family="Helvetica,sans-Serif" font-size="10.00"> </text>
</a>
</g>
</g>
<!-- Node2&#45;&gt;Node1 -->
<g id="edge1" class="edge"><title>Node2&#45;&gt;Node1</title>
<path fill="none" stroke="midnightblue" d="M58,-106.156C58,-97.4733 58,-88.2318 58,-79.5205"/>
<polygon fill="none" stroke="midnightblue" points="54.5001,-106.398 58,-116.398 61.5001,-106.398 54.5001,-106.398"/>
</g>
<!-- Node3 -->
<g id="node3" class="node"><title>Node3</title>
<g id="a_node3"><a xlink:href="class_lang_1_1_diff_1_1___two_side.html" target="_top" xlink:title="{Lang.Diff._TwoSide\n|+ a\l+ b\l|+ __init__()\l+ __str__()\l+ __repr__()\l}">
<polygon fill="none" stroke="black" points="6,-211 6,-301 110,-301 110,-211 6,-211"/>
<text text-anchor="middle" x="58" y="-289" font-family="Helvetica,sans-Serif" font-size="10.00">Lang.Diff._TwoSide</text>
<polyline fill="none" stroke="black" points="6,-282 110,-282 "/>
<text text-anchor="start" x="14" y="-270" font-family="Helvetica,sans-Serif" font-size="10.00">+ a</text>
<text text-anchor="start" x="14" y="-259" font-family="Helvetica,sans-Serif" font-size="10.00">+ b</text>
<polyline fill="none" stroke="black" points="6,-252 110,-252 "/>
<text text-anchor="start" x="14" y="-240" font-family="Helvetica,sans-Serif" font-size="10.00">+ __init__()</text>
<text text-anchor="start" x="14" y="-229" font-family="Helvetica,sans-Serif" font-size="10.00">+ __str__()</text>
<text text-anchor="start" x="14" y="-218" font-family="Helvetica,sans-Serif" font-size="10.00">+ __repr__()</text>
</a>
</g>
</g>
<!-- Node3&#45;&gt;Node2 -->
<g id="edge2" class="edge"><title>Node3&#45;&gt;Node2</title>
<path fill="none" stroke="midnightblue" d="M58,-200.792C58,-191.35 58,-181.896 58,-173.564"/>
<polygon fill="none" stroke="midnightblue" points="54.5001,-200.98 58,-210.98 61.5001,-200.98 54.5001,-200.98"/>
</g>
<!-- Node4 -->
<g id="node4" class="node"><title>Node4</title>
<g id="a_node4"><a xlink:href="classobject.html" target="_top" xlink:title="{object\n||}">
<polygon fill="none" stroke="black" points="36.5,-338.5 36.5,-395.5 79.5,-395.5 79.5,-338.5 36.5,-338.5"/>
<text text-anchor="middle" x="58" y="-383.5" font-family="Helvetica,sans-Serif" font-size="10.00">object</text>
<polyline fill="none" stroke="black" points="36.5,-376.5 79.5,-376.5 "/>
<text text-anchor="middle" x="58" y="-364.5" font-family="Helvetica,sans-Serif" font-size="10.00"> </text>
<polyline fill="none" stroke="black" points="36.5,-357.5 79.5,-357.5 "/>
<text text-anchor="middle" x="58" y="-345.5" font-family="Helvetica,sans-Serif" font-size="10.00"> </text>
</a>
</g>
</g>
<!-- Node4&#45;&gt;Node3 -->
<g id="edge3" class="edge"><title>Node4&#45;&gt;Node3</title>
<path fill="none" stroke="midnightblue" d="M58,-328.484C58,-319.643 58,-310.139 58,-301.04"/>
<polygon fill="none" stroke="midnightblue" points="54.5001,-328.495 58,-338.495 61.5001,-328.495 54.5001,-328.495"/>
</g>
</g>
</svg>
