<?xml version="1.0" encoding="UTF-8" standalone="no"?>
<!DOCTYPE svg PUBLIC "-//W3C//DTD SVG 1.1//EN"
 "http://www.w3.org/Graphics/SVG/1.1/DTD/svg11.dtd">
<!-- Generated by graphviz version 2.30.1 (20130219.2202)
 -->
<!-- Title: Lang.Diff._ElemMismatch Pages: 1 -->
<svg width="130pt" height="288pt"
 viewBox="0.00 0.00 130.00 288.00" xmlns="http://www.w3.org/2000/svg" xmlns:xlink="http://www.w3.org/1999/xlink">
<g id="graph0" class="graph" transform="scale(1 1) rotate(0) translate(4 284)">
<title>Lang.Diff._ElemMismatch</title>
<!-- Node1 -->
<g id="node1" class="node"><title>Node1</title>
<polygon fill="#bfbfbf" stroke="black" points="-0.5,-0.5 -0.5,-57.5 122.5,-57.5 122.5,-0.5 -0.5,-0.5"/>
<text text-anchor="middle" x="61" y="-45.5" font-family="Helvetica,sans-Serif" font-size="10.00">Lang.Diff._ElemMismatch</text>
<polyline fill="none" stroke="black" points="-0.5,-38.5 122.5,-38.5 "/>
<text text-anchor="middle" x="61" y="-26.5" font-family="Helvetica,sans-Serif" font-size="10.00"> </text>
<polyline fill="none" stroke="black" points="-0.5,-19.5 122.5,-19.5 "/>
<text text-anchor="middle" x="61" y="-7.5" font-family="Helvetica,sans-Serif" font-size="10.00"> </text>
</g>
<!-- Node2 -->
<g id="node2" class="node"><title>Node2</title>
<g id="a_node2"><a xlink:href="class_lang_1_1_diff_1_1___two_side.html" target="_top" xlink:title="{Lang.Diff._TwoSide\n|+ a\l+ b\l|+ __init__()\l+ __str__()\l+ __repr__()\l}">
<polygon fill="none" stroke="black" points="11.5,-95 11.5,-185 110.5,-185 110.5,-95 11.5,-95"/>
<text text-anchor="middle" x="61" y="-173" font-family="Helvetica,sans-Serif" font-size="10.00">Lang.Diff._TwoSide</text>
<polyline fill="none" stroke="black" points="11.5,-166 110.5,-166 "/>
<text text-anchor="start" x="19.5" y="-154" font-family="Helvetica,sans-Serif" font-size="10.00">+ a</text>
<text text-anchor="start" x="19.5" y="-143" font-family="Helvetica,sans-Serif" font-size="10.00">+ b</text>
<polyline fill="none" stroke="black" points="11.5,-136 110.5,-136 "/>
<text text-anchor="start" x="19.5" y="-124" font-family="Helvetica,sans-Serif" font-size="10.00">+ __init__()</text>
<text text-anchor="start" x="19.5" y="-113" font-family="Helvetica,sans-Serif" font-size="10.00">+ __str__()</text>
<text text-anchor="start" x="19.5" y="-102" font-family="Helvetica,sans-Serif" font-size="10.00">+ __repr__()</text>
</a>
</g>
</g>
<!-- Node2&#45;&gt;Node1 -->
<g id="edge1" class="edge"><title>Node2&#45;&gt;Node1</title>
<path fill="none" stroke="midnightblue" d="M61,-84.792C61,-75.3496 61,-65.8956 61,-57.5636"/>
<polygon fill="none" stroke="midnightblue" points="57.5001,-84.9797 61,-94.9797 64.5001,-84.9798 57.5001,-84.9797"/>
</g>
<!-- Node3 -->
<g id="node3" class="node"><title>Node3</title>
<g id="a_node3"><a xlink:href="classobject.html" target="_top" xlink:title="{object\n||}">
<polygon fill="none" stroke="black" points="40,-222.5 40,-279.5 82,-279.5 82,-222.5 40,-222.5"/>
<text text-anchor="middle" x="61" y="-267.5" font-family="Helvetica,sans-Serif" font-size="10.00">object</text>
<polyline fill="none" stroke="black" points="40,-260.5 82,-260.5 "/>
<text text-anchor="middle" x="61" y="-248.5" font-family="Helvetica,sans-Serif" font-size="10.00"> </text>
<polyline fill="none" stroke="black" points="40,-241.5 82,-241.5 "/>
<text text-anchor="middle" x="61" y="-229.5" font-family="Helvetica,sans-Serif" font-size="10.00"> </text>
</a>
</g>
</g>
<!-- Node3&#45;&gt;Node2 -->
<g id="edge2" class="edge"><title>Node3&#45;&gt;Node2</title>
<path fill="none" stroke="midnightblue" d="M61,-212.484C61,-203.643 61,-194.139 61,-185.04"/>
<polygon fill="none" stroke="midnightblue" points="57.5001,-212.495 61,-222.495 64.5001,-212.495 57.5001,-212.495"/>
</g>
</g>
</svg>
