<?xml version="1.0" encoding="UTF-8" standalone="no"?>
<!DOCTYPE svg PUBLIC "-//W3C//DTD SVG 1.1//EN"
 "http://www.w3.org/Graphics/SVG/1.1/DTD/svg11.dtd">
<!-- Generated by graphviz version 2.36.0 (20140111.2315)
 -->
<!-- Title: Lang.Concurrency.abstract.Lock Pages: 1 -->
<svg width="353pt" height="602pt"
 viewBox="0.00 0.00 353.00 602.00" xmlns="http://www.w3.org/2000/svg" xmlns:xlink="http://www.w3.org/1999/xlink">
<g id="graph0" class="graph" transform="scale(1 1) rotate(0) translate(4 598)">
<title>Lang.Concurrency.abstract.Lock</title>
<!-- Node1 -->
<g id="node1" class="node"><title>Node1</title>
<polygon fill="#bfbfbf" stroke="black" points="98,-161 98,-251 258,-251 258,-161 98,-161"/>
<text text-anchor="middle" x="178" y="-239" font-family="Helvetica,sans-Serif" font-size="10.00">Lang.Concurrency.abstract.Lock</text>
<polyline fill="none" stroke="black" points="98,-232 258,-232 "/>
<text text-anchor="middle" x="178" y="-220" font-family="Helvetica,sans-Serif" font-size="10.00"> </text>
<polyline fill="none" stroke="black" points="98,-213 258,-213 "/>
<text text-anchor="start" x="106" y="-201" font-family="Helvetica,sans-Serif" font-size="10.00">+ __init__()</text>
<text text-anchor="start" x="106" y="-190" font-family="Helvetica,sans-Serif" font-size="10.00">+ getMaxSlots()</text>
<text text-anchor="start" x="106" y="-179" font-family="Helvetica,sans-Serif" font-size="10.00">+ isAcquiredByAnyone()</text>
<text text-anchor="start" x="106" y="-168" font-family="Helvetica,sans-Serif" font-size="10.00">+ isAcquiredBySelf()</text>
</g>
<!-- Node4 -->
<g id="node4" class="node"><title>Node4</title>
<g id="a_node4"><a xlink:href="class_lang_1_1_concurrency_1_1___threading_1_1_lock.html" target="_top" xlink:title="{Lang.Concurrency._Threading.Lock\n||}">
<polygon fill="none" stroke="black" points="-0.5,-33.5 -0.5,-90.5 174.5,-90.5 174.5,-33.5 -0.5,-33.5"/>
<text text-anchor="middle" x="87" y="-78.5" font-family="Helvetica,sans-Serif" font-size="10.00">Lang.Concurrency._Threading.Lock</text>
<polyline fill="none" stroke="black" points="-0.5,-71.5 174.5,-71.5 "/>
<text text-anchor="middle" x="87" y="-59.5" font-family="Helvetica,sans-Serif" font-size="10.00"> </text>
<polyline fill="none" stroke="black" points="-0.5,-52.5 174.5,-52.5 "/>
<text text-anchor="middle" x="87" y="-40.5" font-family="Helvetica,sans-Serif" font-size="10.00"> </text>
</a>
</g>
</g>
<!-- Node1&#45;&gt;Node4 -->
<g id="edge3" class="edge"><title>Node1&#45;&gt;Node4</title>
<path fill="none" stroke="midnightblue" d="M144.25,-152.336C130.817,-131.374 115.917,-108.123 104.686,-90.5975"/>
<polygon fill="none" stroke="midnightblue" points="141.363,-154.318 149.706,-160.849 147.257,-150.541 141.363,-154.318"/>
</g>
<!-- Node5 -->
<g id="node5" class="node"><title>Node5</title>
<g id="a_node5"><a xlink:href="class_lang_1_1_concurrency_1_1_file_system_1_1___lock_1_1_file_lock___by_f_c_n_t_l.html" target="_top" xlink:title="Pros of this solution: ">
<polygon fill="none" stroke="black" points="192.5,-0.5 192.5,-123.5 345.5,-123.5 345.5,-0.5 192.5,-0.5"/>
<text text-anchor="start" x="200.5" y="-111.5" font-family="Helvetica,sans-Serif" font-size="10.00">Lang.Concurrency.FileSystem.</text>
<text text-anchor="middle" x="269" y="-100.5" font-family="Helvetica,sans-Serif" font-size="10.00">_Lock.FileLock_ByFCNTL</text>
<polyline fill="none" stroke="black" points="192.5,-93.5 345.5,-93.5 "/>
<text text-anchor="start" x="200.5" y="-81.5" font-family="Helvetica,sans-Serif" font-size="10.00">+ lockName</text>
<text text-anchor="start" x="200.5" y="-70.5" font-family="Helvetica,sans-Serif" font-size="10.00">+ lockFolder</text>
<polyline fill="none" stroke="black" points="192.5,-63.5 345.5,-63.5 "/>
<text text-anchor="start" x="200.5" y="-51.5" font-family="Helvetica,sans-Serif" font-size="10.00">+ __init__()</text>
<text text-anchor="start" x="200.5" y="-40.5" font-family="Helvetica,sans-Serif" font-size="10.00">+ __eq__()</text>
<text text-anchor="start" x="200.5" y="-29.5" font-family="Helvetica,sans-Serif" font-size="10.00">+ __getattribute__()</text>
<text text-anchor="start" x="200.5" y="-18.5" font-family="Helvetica,sans-Serif" font-size="10.00">+ getLockFilePath()</text>
<text text-anchor="start" x="200.5" y="-7.5" font-family="Helvetica,sans-Serif" font-size="10.00">+ getSlotsTakenByAnyone()</text>
</a>
</g>
</g>
<!-- Node1&#45;&gt;Node5 -->
<g id="edge4" class="edge"><title>Node1&#45;&gt;Node5</title>
<path fill="none" stroke="midnightblue" d="M211.723,-152.377C217.739,-142.99 224.05,-133.142 230.194,-123.554"/>
<polygon fill="none" stroke="midnightblue" points="208.743,-150.541 206.294,-160.849 214.637,-154.318 208.743,-150.541"/>
</g>
<!-- Node2 -->
<g id="node2" class="node"><title>Node2</title>
<g id="a_node2"><a xlink:href="class_lang_1_1_concurrency_1_1abstract_1_1_lock_semaphore.html" target="_top" xlink:title="There are multiple ways to use subclasses of this class: ">
<polygon fill="none" stroke="black" points="107.5,-288.5 107.5,-499.5 248.5,-499.5 248.5,-288.5 107.5,-288.5"/>
<text text-anchor="start" x="115.5" y="-487.5" font-family="Helvetica,sans-Serif" font-size="10.00">Lang.Concurrency.abstract.</text>
<text text-anchor="middle" x="178" y="-476.5" font-family="Helvetica,sans-Serif" font-size="10.00">LockSemaphore</text>
<polyline fill="none" stroke="black" points="107.5,-469.5 248.5,-469.5 "/>
<text text-anchor="middle" x="178" y="-457.5" font-family="Helvetica,sans-Serif" font-size="10.00"> </text>
<polyline fill="none" stroke="black" points="107.5,-450.5 248.5,-450.5 "/>
<text text-anchor="start" x="115.5" y="-438.5" font-family="Helvetica,sans-Serif" font-size="10.00">+ __init__()</text>
<text text-anchor="start" x="115.5" y="-427.5" font-family="Helvetica,sans-Serif" font-size="10.00">+ __str__()</text>
<text text-anchor="start" x="115.5" y="-416.5" font-family="Helvetica,sans-Serif" font-size="10.00">+ __getstate__()</text>
<text text-anchor="start" x="115.5" y="-405.5" font-family="Helvetica,sans-Serif" font-size="10.00">+ __eq__()</text>
<text text-anchor="start" x="115.5" y="-394.5" font-family="Helvetica,sans-Serif" font-size="10.00">+ __ne__()</text>
<text text-anchor="start" x="115.5" y="-383.5" font-family="Helvetica,sans-Serif" font-size="10.00">+ getMaxSlots()</text>
<text text-anchor="start" x="115.5" y="-372.5" font-family="Helvetica,sans-Serif" font-size="10.00">+ getSlotsTakenByAnyone()</text>
<text text-anchor="start" x="115.5" y="-361.5" font-family="Helvetica,sans-Serif" font-size="10.00">+ getSlotsTakenBySelf()</text>
<text text-anchor="start" x="115.5" y="-350.5" font-family="Helvetica,sans-Serif" font-size="10.00">+ getSlotsAvailable()</text>
<text text-anchor="start" x="115.5" y="-339.5" font-family="Helvetica,sans-Serif" font-size="10.00">+ hasAvailableSlot()</text>
<text text-anchor="start" x="115.5" y="-328.5" font-family="Helvetica,sans-Serif" font-size="10.00">+ acquire()</text>
<text text-anchor="start" x="115.5" y="-317.5" font-family="Helvetica,sans-Serif" font-size="10.00">+ release()</text>
<text text-anchor="start" x="115.5" y="-306.5" font-family="Helvetica,sans-Serif" font-size="10.00">+ __enter__()</text>
<text text-anchor="start" x="115.5" y="-295.5" font-family="Helvetica,sans-Serif" font-size="10.00">+ __exit__()</text>
</a>
</g>
</g>
<!-- Node2&#45;&gt;Node1 -->
<g id="edge1" class="edge"><title>Node2&#45;&gt;Node1</title>
<path fill="none" stroke="midnightblue" d="M178,-278.297C178,-268.782 178,-259.587 178,-251.143"/>
<polygon fill="none" stroke="midnightblue" points="174.5,-278.312 178,-288.312 181.5,-278.312 174.5,-278.312"/>
</g>
<!-- Node3 -->
<g id="node3" class="node"><title>Node3</title>
<g id="a_node3"><a xlink:href="classobject.html" target="_top" xlink:title="{object\n||}">
<polygon fill="none" stroke="black" points="156.5,-536.5 156.5,-593.5 199.5,-593.5 199.5,-536.5 156.5,-536.5"/>
<text text-anchor="middle" x="178" y="-581.5" font-family="Helvetica,sans-Serif" font-size="10.00">object</text>
<polyline fill="none" stroke="black" points="156.5,-574.5 199.5,-574.5 "/>
<text text-anchor="middle" x="178" y="-562.5" font-family="Helvetica,sans-Serif" font-size="10.00"> </text>
<polyline fill="none" stroke="black" points="156.5,-555.5 199.5,-555.5 "/>
<text text-anchor="middle" x="178" y="-543.5" font-family="Helvetica,sans-Serif" font-size="10.00"> </text>
</a>
</g>
</g>
<!-- Node3&#45;&gt;Node2 -->
<g id="edge2" class="edge"><title>Node3&#45;&gt;Node2</title>
<path fill="none" stroke="midnightblue" d="M178,-526.233C178,-518.038 178,-508.987 178,-499.584"/>
<polygon fill="none" stroke="midnightblue" points="174.5,-526.471 178,-536.471 181.5,-526.471 174.5,-526.471"/>
</g>
</g>
</svg>
