<?xml version="1.0" encoding="UTF-8" standalone="no"?>
<!DOCTYPE svg PUBLIC "-//W3C//DTD SVG 1.1//EN"
 "http://www.w3.org/Graphics/SVG/1.1/DTD/svg11.dtd">
<!-- Generated by graphviz version 2.36.0 (20140111.2315)
 -->
<!-- Title: Lang.Diff.SequenceMatcher.get_mismatching_blocks Pages: 1 -->
<svg width="554pt" height="87pt"
 viewBox="0.00 0.00 554.00 87.00" xmlns="http://www.w3.org/2000/svg" xmlns:xlink="http://www.w3.org/1999/xlink">
<g id="graph0" class="graph" transform="scale(1 1) rotate(0) translate(4 83)">
<title>Lang.Diff.SequenceMatcher.get_mismatching_blocks</title>
<!-- Node1 -->
<g id="node1" class="node"><title>Node1</title>
<polygon fill="#bfbfbf" stroke="black" points="0.5,-24 0.5,-54 157.5,-54 157.5,-24 0.5,-24"/>
<text text-anchor="start" x="8.5" y="-42" font-family="Helvetica,sans-Serif" font-size="10.00">Lang.Diff.SequenceMatcher.get</text>
<text text-anchor="middle" x="79" y="-31" font-family="Helvetica,sans-Serif" font-size="10.00">_mismatching_blocks</text>
</g>
<!-- Node2 -->
<g id="node2" class="node"><title>Node2</title>
<g id="a_node2"><a xlink:href="class_lang_1_1_diff_1_1_sequence_matcher.html#ad39d03c930490265c4cd1c85ae3e706c" target="_top" xlink:title="Generators will be returned which can only be iterated over once. ">
<polygon fill="none" stroke="black" points="194.5,-49 194.5,-79 351.5,-79 351.5,-49 194.5,-49"/>
<text text-anchor="start" x="202.5" y="-67" font-family="Helvetica,sans-Serif" font-size="10.00">Lang.Diff.SequenceMatcher.get</text>
<text text-anchor="middle" x="273" y="-56" font-family="Helvetica,sans-Serif" font-size="10.00">_mismatching_elems_useOnce</text>
</a>
</g>
</g>
<!-- Node1&#45;&gt;Node2 -->
<g id="edge1" class="edge"><title>Node1&#45;&gt;Node2</title>
<path fill="none" stroke="midnightblue" d="M167.605,-50.4069C176.571,-51.5743 185.635,-52.7546 194.482,-53.9066"/>
<polygon fill="midnightblue" stroke="midnightblue" points="167.909,-46.917 157.54,-49.0964 167.005,-53.8584 167.909,-46.917"/>
</g>
<!-- Node4 -->
<g id="node4" class="node"><title>Node4</title>
<g id="a_node4"><a xlink:href="class_lang_1_1_diff_1_1_sequence_matcher.html#a3c53dfe69d35f922ad4e4b61d11f7ff5" target="_top" xlink:title="Lang.Diff.SequenceMatcher.get\l_mismatching">
<polygon fill="none" stroke="black" points="194.5,-0 194.5,-30 351.5,-30 351.5,-0 194.5,-0"/>
<text text-anchor="start" x="202.5" y="-18" font-family="Helvetica,sans-Serif" font-size="10.00">Lang.Diff.SequenceMatcher.get</text>
<text text-anchor="middle" x="273" y="-7" font-family="Helvetica,sans-Serif" font-size="10.00">_mismatching</text>
</a>
</g>
</g>
<!-- Node1&#45;&gt;Node4 -->
<g id="edge3" class="edge"><title>Node1&#45;&gt;Node4</title>
<path fill="none" stroke="midnightblue" d="M167.605,-28.0494C176.571,-26.9286 185.635,-25.7956 194.482,-24.6897"/>
<polygon fill="midnightblue" stroke="midnightblue" points="167.029,-24.5941 157.54,-29.3075 167.897,-31.54 167.029,-24.5941"/>
</g>
<!-- Node3 -->
<g id="node3" class="node"><title>Node3</title>
<g id="a_node3"><a xlink:href="class_lang_1_1_diff_1_1_sequence_matcher.html#ae5b602b7de355769e231792c131eac5b" target="_top" xlink:title="Tuples and lists are used here instead of generators. ">
<polygon fill="none" stroke="black" points="388.5,-49 388.5,-79 545.5,-79 545.5,-49 388.5,-49"/>
<text text-anchor="start" x="396.5" y="-67" font-family="Helvetica,sans-Serif" font-size="10.00">Lang.Diff.SequenceMatcher.get</text>
<text text-anchor="middle" x="467" y="-56" font-family="Helvetica,sans-Serif" font-size="10.00">_mismatching_elems</text>
</a>
</g>
</g>
<!-- Node2&#45;&gt;Node3 -->
<g id="edge2" class="edge"><title>Node2&#45;&gt;Node3</title>
<path fill="none" stroke="midnightblue" d="M361.605,-64C370.571,-64 379.635,-64 388.482,-64"/>
<polygon fill="midnightblue" stroke="midnightblue" points="361.54,-60.5001 351.54,-64 361.54,-67.5001 361.54,-60.5001"/>
</g>
</g>
</svg>
