<?xml version="1.0" encoding="UTF-8" standalone="no"?>
<!DOCTYPE svg PUBLIC "-//W3C//DTD SVG 1.1//EN"
 "http://www.w3.org/Graphics/SVG/1.1/DTD/svg11.dtd">
<!-- Generated by graphviz version 2.36.0 (20140111.2315)
 -->
<!-- Title: Lang.Struct._OrderedSet.OrderedSet.insertMultiBefore Pages: 1 -->
<svg width="346pt" height="136pt"
 viewBox="0.00 0.00 346.00 136.00" xmlns="http://www.w3.org/2000/svg" xmlns:xlink="http://www.w3.org/1999/xlink">
<g id="graph0" class="graph" transform="scale(1 1) rotate(0) translate(4 132)">
<title>Lang.Struct._OrderedSet.OrderedSet.insertMultiBefore</title>
<!-- Node1 -->
<g id="node1" class="node"><title>Node1</title>
<polygon fill="#bfbfbf" stroke="black" points="0,-49 0,-79 146,-79 146,-49 0,-49"/>
<text text-anchor="start" x="8" y="-67" font-family="Helvetica,sans-Serif" font-size="10.00">Lang.Struct._OrderedSet.</text>
<text text-anchor="middle" x="73" y="-56" font-family="Helvetica,sans-Serif" font-size="10.00">OrderedSet.insertMultiBefore</text>
</g>
<!-- Node2 -->
<g id="node2" class="node"><title>Node2</title>
<g id="a_node2"><a xlink:href="class_lang_1_1_struct_1_1___ordered_set_1_1_ordered_set.html#a3d77225d0613232e8c9106025376660c" target="_top" xlink:title="Returns True if all links were inserted, False otherwise. ">
<polygon fill="none" stroke="black" points="182,-98 182,-128 338,-128 338,-98 182,-98"/>
<text text-anchor="start" x="190" y="-116" font-family="Helvetica,sans-Serif" font-size="10.00">Lang.Struct._OrderedSet.</text>
<text text-anchor="middle" x="260" y="-105" font-family="Helvetica,sans-Serif" font-size="10.00">OrderedSet._insertBefore_links</text>
</a>
</g>
</g>
<!-- Node1&#45;&gt;Node2 -->
<g id="edge1" class="edge"><title>Node1&#45;&gt;Node2</title>
<path fill="none" stroke="midnightblue" d="M130.763,-79.0346C150.297,-84.2083 172.343,-90.0475 192.576,-95.4066"/>
<polygon fill="midnightblue" stroke="midnightblue" points="191.781,-98.8167 202.344,-97.9938 193.573,-92.05 191.781,-98.8167"/>
</g>
<!-- Node3 -->
<g id="node3" class="node"><title>Node3</title>
<g id="a_node3"><a xlink:href="class_lang_1_1_struct_1_1___ordered_set_1_1_ordered_set.html#a0d96b91eb6a06a5725485bf0942646b5" target="_top" xlink:title="Lang.Struct._OrderedSet.\lOrderedSet.discard">
<polygon fill="none" stroke="black" points="195,-49 195,-79 325,-79 325,-49 195,-49"/>
<text text-anchor="start" x="203" y="-67" font-family="Helvetica,sans-Serif" font-size="10.00">Lang.Struct._OrderedSet.</text>
<text text-anchor="middle" x="260" y="-56" font-family="Helvetica,sans-Serif" font-size="10.00">OrderedSet.discard</text>
</a>
</g>
</g>
<!-- Node1&#45;&gt;Node3 -->
<g id="edge2" class="edge"><title>Node1&#45;&gt;Node3</title>
<path fill="none" stroke="midnightblue" d="M146.056,-64C158.784,-64 172.057,-64 184.842,-64"/>
<polygon fill="midnightblue" stroke="midnightblue" points="184.971,-67.5001 194.971,-64 184.971,-60.5001 184.971,-67.5001"/>
</g>
<!-- Node4 -->
<g id="node4" class="node"><title>Node4</title>
<g id="a_node4"><a xlink:href="class_lang_1_1_struct_1_1___ordered_set_1_1_ordered_set.html#a3b5b0f278022d362913215cc21961b4e" target="_top" xlink:title="Inserts newElemBefore into the current position of oldLinkAfter. ">
<polygon fill="none" stroke="black" points="184.5,-0 184.5,-30 335.5,-30 335.5,-0 184.5,-0"/>
<text text-anchor="start" x="192.5" y="-18" font-family="Helvetica,sans-Serif" font-size="10.00">Lang.Struct._OrderedSet.</text>
<text text-anchor="middle" x="260" y="-7" font-family="Helvetica,sans-Serif" font-size="10.00">OrderedSet._insertBefore_link</text>
</a>
</g>
</g>
<!-- Node1&#45;&gt;Node4 -->
<g id="edge3" class="edge"><title>Node1&#45;&gt;Node4</title>
<path fill="none" stroke="midnightblue" d="M130.763,-48.9654C150.297,-43.7917 172.343,-37.9525 192.576,-32.5934"/>
<polygon fill="midnightblue" stroke="midnightblue" points="193.573,-35.95 202.344,-30.0062 191.781,-29.1833 193.573,-35.95"/>
</g>
</g>
</svg>
