<?xml version="1.0" encoding="UTF-8" standalone="no"?>
<!DOCTYPE svg PUBLIC "-//W3C//DTD SVG 1.1//EN"
 "http://www.w3.org/Graphics/SVG/1.1/DTD/svg11.dtd">
<!-- Generated by graphviz version 2.36.0 (20140111.2315)
 -->
<!-- Title: Lang.Diff._ElemBlockMismatch Pages: 1 -->
<svg width="162pt" height="288pt"
 viewBox="0.00 0.00 162.00 288.00" xmlns="http://www.w3.org/2000/svg" xmlns:xlink="http://www.w3.org/1999/xlink">
<g id="graph0" class="graph" transform="scale(1 1) rotate(0) translate(4 284)">
<title>Lang.Diff._ElemBlockMismatch</title>
<!-- Node1 -->
<g id="node1" class="node"><title>Node1</title>
<polygon fill="#bfbfbf" stroke="black" points="-0.5,-0.5 -0.5,-57.5 154.5,-57.5 154.5,-0.5 -0.5,-0.5"/>
<text text-anchor="middle" x="77" y="-45.5" font-family="Helvetica,sans-Serif" font-size="10.00">Lang.Diff._ElemBlockMismatch</text>
<polyline fill="none" stroke="black" points="-0.5,-38.5 154.5,-38.5 "/>
<text text-anchor="middle" x="77" y="-26.5" font-family="Helvetica,sans-Serif" font-size="10.00"> </text>
<polyline fill="none" stroke="black" points="-0.5,-19.5 154.5,-19.5 "/>
<text text-anchor="middle" x="77" y="-7.5" font-family="Helvetica,sans-Serif" font-size="10.00"> </text>
</g>
<!-- Node2 -->
<g id="node2" class="node"><title>Node2</title>
<g id="a_node2"><a xlink:href="class_lang_1_1_diff_1_1___two_side.html" target="_top" xlink:title="{Lang.Diff._TwoSide\n|+ a\l+ b\l|+ __init__()\l+ __str__()\l+ __repr__()\l}">
<polygon fill="none" stroke="black" points="25,-95 25,-185 129,-185 129,-95 25,-95"/>
<text text-anchor="middle" x="77" y="-173" font-family="Helvetica,sans-Serif" font-size="10.00">Lang.Diff._TwoSide</text>
<polyline fill="none" stroke="black" points="25,-166 129,-166 "/>
<text text-anchor="start" x="33" y="-154" font-family="Helvetica,sans-Serif" font-size="10.00">+ a</text>
<text text-anchor="start" x="33" y="-143" font-family="Helvetica,sans-Serif" font-size="10.00">+ b</text>
<polyline fill="none" stroke="black" points="25,-136 129,-136 "/>
<text text-anchor="start" x="33" y="-124" font-family="Helvetica,sans-Serif" font-size="10.00">+ __init__()</text>
<text text-anchor="start" x="33" y="-113" font-family="Helvetica,sans-Serif" font-size="10.00">+ __str__()</text>
<text text-anchor="start" x="33" y="-102" font-family="Helvetica,sans-Serif" font-size="10.00">+ __repr__()</text>
</a>
</g>
</g>
<!-- Node2&#45;&gt;Node1 -->
<g id="edge1" class="edge"><title>Node2&#45;&gt;Node1</title>
<path fill="none" stroke="midnightblue" d="M77,-84.792C77,-75.3496 77,-65.8956 77,-57.5636"/>
<polygon fill="none" stroke="midnightblue" points="73.5001,-84.9797 77,-94.9797 80.5001,-84.9798 73.5001,-84.9797"/>
</g>
<!-- Node3 -->
<g id="node3" class="node"><title>Node3</title>
<g id="a_node3"><a xlink:href="classobject.html" target="_top" xlink:title="{object\n||}">
<polygon fill="none" stroke="black" points="55.5,-222.5 55.5,-279.5 98.5,-279.5 98.5,-222.5 55.5,-222.5"/>
<text text-anchor="middle" x="77" y="-267.5" font-family="Helvetica,sans-Serif" font-size="10.00">object</text>
<polyline fill="none" stroke="black" points="55.5,-260.5 98.5,-260.5 "/>
<text text-anchor="middle" x="77" y="-248.5" font-family="Helvetica,sans-Serif" font-size="10.00"> </text>
<polyline fill="none" stroke="black" points="55.5,-241.5 98.5,-241.5 "/>
<text text-anchor="middle" x="77" y="-229.5" font-family="Helvetica,sans-Serif" font-size="10.00"> </text>
</a>
</g>
</g>
<!-- Node3&#45;&gt;Node2 -->
<g id="edge2" class="edge"><title>Node3&#45;&gt;Node2</title>
<path fill="none" stroke="midnightblue" d="M77,-212.484C77,-203.643 77,-194.139 77,-185.04"/>
<polygon fill="none" stroke="midnightblue" points="73.5001,-212.495 77,-222.495 80.5001,-212.495 73.5001,-212.495"/>
</g>
</g>
</svg>
