<?xml version="1.0" encoding="UTF-8" standalone="no"?>
<!DOCTYPE svg PUBLIC "-//W3C//DTD SVG 1.1//EN"
 "http://www.w3.org/Graphics/SVG/1.1/DTD/svg11.dtd">
<!-- Generated by graphviz version 2.30.1 (20130219.2202)
 -->
<!-- Title: Lang.Struct._OrderedSet.OrderedSet.__setitem__ Pages: 1 -->
<svg width="310pt" height="234pt"
 viewBox="0.00 0.00 310.00 234.00" xmlns="http://www.w3.org/2000/svg" xmlns:xlink="http://www.w3.org/1999/xlink">
<g id="graph0" class="graph" transform="scale(1 1) rotate(0) translate(4 230)">
<title>Lang.Struct._OrderedSet.OrderedSet.__setitem__</title>
<!-- Node1 -->
<g id="node1" class="node"><title>Node1</title>
<polygon fill="#bfbfbf" stroke="black" points="0,-98 0,-128 122,-128 122,-98 0,-98"/>
<text text-anchor="start" x="8" y="-116" font-family="Helvetica,sans-Serif" font-size="10.00">Lang.Struct._OrderedSet.</text>
<text text-anchor="middle" x="61" y="-105" font-family="Helvetica,sans-Serif" font-size="10.00">OrderedSet.__setitem__</text>
</g>
<!-- Node2 -->
<g id="node2" class="node"><title>Node2</title>
<g id="a_node2"><a xlink:href="class_lang_1_1_struct_1_1___ordered_set_1_1_ordered_set.html#ab742d8d2e00b307db1314f9d3780f08f" target="_top" xlink:title="Lang.Struct._OrderedSet.\lOrderedSet._getLink_byIndex">
<polygon fill="none" stroke="black" points="159.5,-196 159.5,-226 300.5,-226 300.5,-196 159.5,-196"/>
<text text-anchor="start" x="167.5" y="-214" font-family="Helvetica,sans-Serif" font-size="10.00">Lang.Struct._OrderedSet.</text>
<text text-anchor="middle" x="230" y="-203" font-family="Helvetica,sans-Serif" font-size="10.00">OrderedSet._getLink_byIndex</text>
</a>
</g>
</g>
<!-- Node1&#45;&gt;Node2 -->
<g id="edge1" class="edge"><title>Node1&#45;&gt;Node2</title>
<path fill="none" stroke="midnightblue" d="M78.5723,-128.195C96.8757,-144.331 127.773,-169.708 158,-186 161.924,-188.115 166.062,-190.11 170.289,-191.98"/>
<polygon fill="midnightblue" stroke="midnightblue" points="169.056,-195.258 179.633,-195.87 171.747,-188.795 169.056,-195.258"/>
</g>
<!-- Node3 -->
<g id="node3" class="node"><title>Node3</title>
<g id="a_node3"><a xlink:href="class_lang_1_1_struct_1_1___ordered_set_1_1_ordered_set.html#a3d77225d0613232e8c9106025376660c" target="_top" xlink:title="Returns True if all links were inserted, False otherwise.">
<polygon fill="none" stroke="black" points="158,-147 158,-177 302,-177 302,-147 158,-147"/>
<text text-anchor="start" x="166" y="-165" font-family="Helvetica,sans-Serif" font-size="10.00">Lang.Struct._OrderedSet.</text>
<text text-anchor="middle" x="230" y="-154" font-family="Helvetica,sans-Serif" font-size="10.00">OrderedSet._insertBefore_links</text>
</a>
</g>
</g>
<!-- Node1&#45;&gt;Node3 -->
<g id="edge2" class="edge"><title>Node1&#45;&gt;Node3</title>
<path fill="none" stroke="midnightblue" d="M113.468,-128.101C130.692,-133.155 150.059,-138.838 167.942,-144.085"/>
<polygon fill="midnightblue" stroke="midnightblue" points="167.121,-147.491 177.702,-146.948 169.092,-140.774 167.121,-147.491"/>
</g>
<!-- Node4 -->
<g id="node4" class="node"><title>Node4</title>
<g id="a_node4"><a xlink:href="class_lang_1_1_struct_1_1___ordered_set_1_1_ordered_set.html#a3b5b0f278022d362913215cc21961b4e" target="_top" xlink:title="Inserts newElemBefore into the current position of oldLinkAfter.">
<polygon fill="none" stroke="black" points="160.5,-98 160.5,-128 299.5,-128 299.5,-98 160.5,-98"/>
<text text-anchor="start" x="168.5" y="-116" font-family="Helvetica,sans-Serif" font-size="10.00">Lang.Struct._OrderedSet.</text>
<text text-anchor="middle" x="230" y="-105" font-family="Helvetica,sans-Serif" font-size="10.00">OrderedSet._insertBefore_link</text>
</a>
</g>
</g>
<!-- Node1&#45;&gt;Node4 -->
<g id="edge3" class="edge"><title>Node1&#45;&gt;Node4</title>
<path fill="none" stroke="midnightblue" d="M122.291,-113C131.348,-113 140.8,-113 150.173,-113"/>
<polygon fill="midnightblue" stroke="midnightblue" points="150.292,-116.5 160.291,-113 150.291,-109.5 150.292,-116.5"/>
</g>
<!-- Node5 -->
<g id="node5" class="node"><title>Node5</title>
<g id="a_node5"><a xlink:href="class_lang_1_1_struct_1_1___ordered_set_1_1_ordered_set.html#ab0705d1a0100c1d113ddb52fbddc5152" target="_top" xlink:title="Lang.Struct._OrderedSet.\lOrderedSet._iterLinks">
<polygon fill="none" stroke="black" points="169,-49 169,-79 291,-79 291,-49 169,-49"/>
<text text-anchor="start" x="177" y="-67" font-family="Helvetica,sans-Serif" font-size="10.00">Lang.Struct._OrderedSet.</text>
<text text-anchor="middle" x="230" y="-56" font-family="Helvetica,sans-Serif" font-size="10.00">OrderedSet._iterLinks</text>
</a>
</g>
</g>
<!-- Node1&#45;&gt;Node5 -->
<g id="edge4" class="edge"><title>Node1&#45;&gt;Node5</title>
<path fill="none" stroke="midnightblue" d="M113.468,-97.8986C130.692,-92.8449 150.059,-87.1624 167.942,-81.9152"/>
<polygon fill="midnightblue" stroke="midnightblue" points="169.092,-85.2255 177.702,-79.0516 167.121,-78.5087 169.092,-85.2255"/>
</g>
<!-- Node6 -->
<g id="node6" class="node"><title>Node6</title>
<g id="a_node6"><a xlink:href="class_lang_1_1_struct_1_1___ordered_set_1_1_ordered_set.html#af8d153315a4e2afb5659e7e78a9c7520" target="_top" xlink:title="Lang.Struct._OrderedSet.\lOrderedSet._replace">
<polygon fill="none" stroke="black" points="169,-0 169,-30 291,-30 291,-0 169,-0"/>
<text text-anchor="start" x="177" y="-18" font-family="Helvetica,sans-Serif" font-size="10.00">Lang.Struct._OrderedSet.</text>
<text text-anchor="middle" x="230" y="-7" font-family="Helvetica,sans-Serif" font-size="10.00">OrderedSet._replace</text>
</a>
</g>
</g>
<!-- Node1&#45;&gt;Node6 -->
<g id="edge5" class="edge"><title>Node1&#45;&gt;Node6</title>
<path fill="none" stroke="midnightblue" d="M78.5723,-97.8048C96.8757,-81.6691 127.773,-56.292 158,-40 161.924,-37.8851 166.062,-35.89 170.289,-34.0203"/>
<polygon fill="midnightblue" stroke="midnightblue" points="171.747,-37.2047 179.633,-30.1295 169.056,-30.7425 171.747,-37.2047"/>
</g>
</g>
</svg>
