<?xml version="1.0" encoding="UTF-8" standalone="no"?>
<!DOCTYPE svg PUBLIC "-//W3C//DTD SVG 1.1//EN"
 "http://www.w3.org/Graphics/SVG/1.1/DTD/svg11.dtd">
<!-- Generated by graphviz version 2.36.0 (20140111.2315)
 -->
<!-- Title: Lang.Concurrency.abstract.LockSemaphore.__exit__ Pages: 1 -->
<svg width="546pt" height="136pt"
 viewBox="0.00 0.00 546.00 136.00" xmlns="http://www.w3.org/2000/svg" xmlns:xlink="http://www.w3.org/1999/xlink">
<g id="graph0" class="graph" transform="scale(1 1) rotate(0) translate(4 132)">
<title>Lang.Concurrency.abstract.LockSemaphore.__exit__</title>
<!-- Node1 -->
<g id="node1" class="node"><title>Node1</title>
<polygon fill="#bfbfbf" stroke="black" points="0.5,-49 0.5,-79 139.5,-79 139.5,-49 0.5,-49"/>
<text text-anchor="start" x="8.5" y="-67" font-family="Helvetica,sans-Serif" font-size="10.00">Lang.Concurrency.abstract.</text>
<text text-anchor="middle" x="70" y="-56" font-family="Helvetica,sans-Serif" font-size="10.00">LockSemaphore.__exit__</text>
</g>
<!-- Node2 -->
<g id="node2" class="node"><title>Node2</title>
<g id="a_node2"><a xlink:href="class_lang_1_1_concurrency_1_1abstract_1_1_lock_semaphore.html#a463c3352f2c02af5edad3a7d0bcc5e1b" target="_top" xlink:title="*args and **kwargs are for optional/implementation specific parameters. ">
<polygon fill="none" stroke="black" points="176.5,-49 176.5,-79 315.5,-79 315.5,-49 176.5,-49"/>
<text text-anchor="start" x="184.5" y="-67" font-family="Helvetica,sans-Serif" font-size="10.00">Lang.Concurrency.abstract.</text>
<text text-anchor="middle" x="246" y="-56" font-family="Helvetica,sans-Serif" font-size="10.00">LockSemaphore.release</text>
</a>
</g>
</g>
<!-- Node1&#45;&gt;Node2 -->
<g id="edge1" class="edge"><title>Node1&#45;&gt;Node2</title>
<path fill="none" stroke="midnightblue" d="M139.769,-64C148.44,-64 157.364,-64 166.176,-64"/>
<polygon fill="midnightblue" stroke="midnightblue" points="166.445,-67.5001 176.445,-64 166.445,-60.5001 166.445,-67.5001"/>
</g>
<!-- Node3 -->
<g id="node3" class="node"><title>Node3</title>
<g id="a_node3"><a xlink:href="class_lang_1_1_concurrency_1_1abstract_1_1_lock_semaphore.html#ae687dfe782a109b12e1f3e80b656872b" target="_top" xlink:title="Lang.Concurrency.abstract.\lLockSemaphore.getSlotsTakenBySelf">
<polygon fill="none" stroke="black" points="352.5,-98 352.5,-128 537.5,-128 537.5,-98 352.5,-98"/>
<text text-anchor="start" x="360.5" y="-116" font-family="Helvetica,sans-Serif" font-size="10.00">Lang.Concurrency.abstract.</text>
<text text-anchor="middle" x="445" y="-105" font-family="Helvetica,sans-Serif" font-size="10.00">LockSemaphore.getSlotsTakenBySelf</text>
</a>
</g>
</g>
<!-- Node2&#45;&gt;Node3 -->
<g id="edge2" class="edge"><title>Node2&#45;&gt;Node3</title>
<path fill="none" stroke="midnightblue" d="M307.445,-79.0346C328.435,-84.2554 352.149,-90.1537 373.854,-95.5526"/>
<polygon fill="midnightblue" stroke="midnightblue" points="373.12,-98.9765 383.669,-97.9938 374.81,-92.1835 373.12,-98.9765"/>
</g>
<!-- Node4 -->
<g id="node4" class="node"><title>Node4</title>
<g id="a_node4"><a xlink:href="class_lang_1_1_concurrency_1_1___threading_1_1___threading_adapter.html#ae1f8a05015754cecd7f392156803a692" target="_top" xlink:title="http://docs.python.org/2/library/threading.html#threading.Lock.release ">
<polygon fill="none" stroke="black" points="368,-49 368,-79 522,-79 522,-49 368,-49"/>
<text text-anchor="start" x="376" y="-67" font-family="Helvetica,sans-Serif" font-size="10.00">Lang.Concurrency._Threading.</text>
<text text-anchor="middle" x="445" y="-56" font-family="Helvetica,sans-Serif" font-size="10.00">_ThreadingAdapter._release</text>
</a>
</g>
</g>
<!-- Node2&#45;&gt;Node4 -->
<g id="edge3" class="edge"><title>Node2&#45;&gt;Node4</title>
<path fill="none" stroke="midnightblue" d="M315.624,-64C329.206,-64 343.625,-64 357.706,-64"/>
<polygon fill="midnightblue" stroke="midnightblue" points="357.883,-67.5001 367.883,-64 357.883,-60.5001 357.883,-67.5001"/>
</g>
<!-- Node5 -->
<g id="node5" class="node"><title>Node5</title>
<g id="a_node5"><a xlink:href="class_lang_1_1_concurrency_1_1abstract_1_1_lock_semaphore.html#a9dfb7b72008620bfa9a1e2ee454140d7" target="_top" xlink:title="Lang.Concurrency.abstract.\lLockSemaphore._release">
<polygon fill="none" stroke="black" points="375.5,-0 375.5,-30 514.5,-30 514.5,-0 375.5,-0"/>
<text text-anchor="start" x="383.5" y="-18" font-family="Helvetica,sans-Serif" font-size="10.00">Lang.Concurrency.abstract.</text>
<text text-anchor="middle" x="445" y="-7" font-family="Helvetica,sans-Serif" font-size="10.00">LockSemaphore._release</text>
</a>
</g>
</g>
<!-- Node2&#45;&gt;Node5 -->
<g id="edge4" class="edge"><title>Node2&#45;&gt;Node5</title>
<path fill="none" stroke="midnightblue" d="M307.445,-48.9654C328.435,-43.7446 352.149,-37.8463 373.854,-32.4474"/>
<polygon fill="midnightblue" stroke="midnightblue" points="374.81,-35.8165 383.669,-30.0062 373.12,-29.0235 374.81,-35.8165"/>
</g>
</g>
</svg>
