<?xml version="1.0" encoding="UTF-8" standalone="no"?>
<!DOCTYPE svg PUBLIC "-//W3C//DTD SVG 1.1//EN"
 "http://www.w3.org/Graphics/SVG/1.1/DTD/svg11.dtd">
<!-- Generated by graphviz version 2.36.0 (20140111.2315)
 -->
<!-- Title: Lang.ClassTools.Patterns._startEndWith.StartEndWith.__init__ Pages: 1 -->
<svg width="332pt" height="170pt"
 viewBox="0.00 0.00 332.00 170.00" xmlns="http://www.w3.org/2000/svg" xmlns:xlink="http://www.w3.org/1999/xlink">
<g id="graph0" class="graph" transform="scale(1 1) rotate(0) translate(4 166)">
<title>Lang.ClassTools.Patterns._startEndWith.StartEndWith.__init__</title>
<!-- Node1 -->
<g id="node1" class="node"><title>Node1</title>
<polygon fill="#bfbfbf" stroke="black" points="0,-60.5 0,-101.5 144,-101.5 144,-60.5 0,-60.5"/>
<text text-anchor="start" x="8" y="-89.5" font-family="Helvetica,sans-Serif" font-size="10.00">Lang.ClassTools.Patterns.</text>
<text text-anchor="start" x="8" y="-78.5" font-family="Helvetica,sans-Serif" font-size="10.00">_startEndWith.StartEndWith.</text>
<text text-anchor="middle" x="72" y="-67.5" font-family="Helvetica,sans-Serif" font-size="10.00">__init__</text>
</g>
<!-- Node2 -->
<g id="node2" class="node"><title>Node2</title>
<g id="a_node2"><a xlink:href="class_lang_1_1_class_tools_1_1_patterns_1_1__start_end_with_1_1_start_end_with.html#a28b6b6c0e51c1045d2be11d1ce0c7f2b" target="_top" xlink:title="Lang.ClassTools.Patterns.\l_startEndWith.StartEndWith.\l_public_start">
<polygon fill="none" stroke="black" points="180,-120.5 180,-161.5 324,-161.5 324,-120.5 180,-120.5"/>
<text text-anchor="start" x="188" y="-149.5" font-family="Helvetica,sans-Serif" font-size="10.00">Lang.ClassTools.Patterns.</text>
<text text-anchor="start" x="188" y="-138.5" font-family="Helvetica,sans-Serif" font-size="10.00">_startEndWith.StartEndWith.</text>
<text text-anchor="middle" x="252" y="-127.5" font-family="Helvetica,sans-Serif" font-size="10.00">_public_start</text>
</a>
</g>
</g>
<!-- Node1&#45;&gt;Node2 -->
<g id="edge1" class="edge"><title>Node1&#45;&gt;Node2</title>
<path fill="none" stroke="midnightblue" d="M134.258,-101.649C149.024,-106.626 164.923,-111.985 180.089,-117.098"/>
<polygon fill="midnightblue" stroke="midnightblue" points="179.337,-120.537 189.931,-120.415 181.573,-113.904 179.337,-120.537"/>
</g>
<!-- Node3 -->
<g id="node3" class="node"><title>Node3</title>
<g id="a_node3"><a xlink:href="class_lang_1_1_class_tools_1_1_patterns_1_1__start_end_with_1_1_start_end_with.html#ae3d7e42e7dff0feed80f4fddb254fe92" target="_top" xlink:title="Lang.ClassTools.Patterns.\l_startEndWith.StartEndWith.\l_public_end">
<polygon fill="none" stroke="black" points="180,-60.5 180,-101.5 324,-101.5 324,-60.5 180,-60.5"/>
<text text-anchor="start" x="188" y="-89.5" font-family="Helvetica,sans-Serif" font-size="10.00">Lang.ClassTools.Patterns.</text>
<text text-anchor="start" x="188" y="-78.5" font-family="Helvetica,sans-Serif" font-size="10.00">_startEndWith.StartEndWith.</text>
<text text-anchor="middle" x="252" y="-67.5" font-family="Helvetica,sans-Serif" font-size="10.00">_public_end</text>
</a>
</g>
</g>
<!-- Node1&#45;&gt;Node3 -->
<g id="edge2" class="edge"><title>Node1&#45;&gt;Node3</title>
<path fill="none" stroke="midnightblue" d="M144.118,-81C152.609,-81 161.327,-81 169.944,-81"/>
<polygon fill="midnightblue" stroke="midnightblue" points="169.995,-84.5001 179.995,-81 169.995,-77.5001 169.995,-84.5001"/>
</g>
<!-- Node4 -->
<g id="node4" class="node"><title>Node4</title>
<g id="a_node4"><a xlink:href="class_lang_1_1_class_tools_1_1_patterns_1_1__start_end_with_1_1_start_end_with.html#a06c779c237ea08beca0557aa94cb55e7" target="_top" xlink:title="Lang.ClassTools.Patterns.\l_startEndWith.StartEndWith.\l__method_isActive">
<polygon fill="none" stroke="black" points="180,-0.5 180,-41.5 324,-41.5 324,-0.5 180,-0.5"/>
<text text-anchor="start" x="188" y="-29.5" font-family="Helvetica,sans-Serif" font-size="10.00">Lang.ClassTools.Patterns.</text>
<text text-anchor="start" x="188" y="-18.5" font-family="Helvetica,sans-Serif" font-size="10.00">_startEndWith.StartEndWith.</text>
<text text-anchor="middle" x="252" y="-7.5" font-family="Helvetica,sans-Serif" font-size="10.00">__method_isActive</text>
</a>
</g>
</g>
<!-- Node1&#45;&gt;Node4 -->
<g id="edge3" class="edge"><title>Node1&#45;&gt;Node4</title>
<path fill="none" stroke="midnightblue" d="M134.258,-60.3514C149.024,-55.3739 164.923,-50.0149 180.089,-44.9025"/>
<polygon fill="midnightblue" stroke="midnightblue" points="181.573,-48.0959 189.931,-41.585 179.337,-41.4626 181.573,-48.0959"/>
</g>
</g>
</svg>
