<?xml version="1.0" encoding="UTF-8" standalone="no"?>
<!DOCTYPE svg PUBLIC "-//W3C//DTD SVG 1.1//EN"
 "http://www.w3.org/Graphics/SVG/1.1/DTD/svg11.dtd">
<!-- Generated by graphviz version 2.36.0 (20140111.2315)
 -->
<!-- Title: Exception Pages: 1 -->
<svg width="520pt" height="182pt"
 viewBox="0.00 0.00 520.00 182.00" xmlns="http://www.w3.org/2000/svg" xmlns:xlink="http://www.w3.org/1999/xlink">
<g id="graph0" class="graph" transform="scale(1 1) rotate(0) translate(4 178)">
<title>Exception</title>
<!-- Node1 -->
<g id="node1" class="node"><title>Node1</title>
<polygon fill="#bfbfbf" stroke="black" points="248,-116.5 248,-173.5 308,-173.5 308,-116.5 248,-116.5"/>
<text text-anchor="middle" x="278" y="-161.5" font-family="Helvetica,sans-Serif" font-size="10.00">Exception</text>
<polyline fill="none" stroke="black" points="248,-154.5 308,-154.5 "/>
<text text-anchor="middle" x="278" y="-142.5" font-family="Helvetica,sans-Serif" font-size="10.00"> </text>
<polyline fill="none" stroke="black" points="248,-135.5 308,-135.5 "/>
<text text-anchor="middle" x="278" y="-123.5" font-family="Helvetica,sans-Serif" font-size="10.00"> </text>
</g>
<!-- Node2 -->
<g id="node2" class="node"><title>Node2</title>
<g id="a_node2"><a xlink:href="class_lang_1_1_class_tools_1_1_patterns_1_1__singleton__multiton__abstract_1_1_duplicate_instance_exception.html" target="_top" xlink:title="{Lang.ClassTools.Patterns.\l_singleton_multiton_abstract.Duplicate\lInstanceException\n||}">
<polygon fill="none" stroke="black" points="0,-0.5 0,-79.5 188,-79.5 188,-0.5 0,-0.5"/>
<text text-anchor="start" x="8" y="-67.5" font-family="Helvetica,sans-Serif" font-size="10.00">Lang.ClassTools.Patterns.</text>
<text text-anchor="start" x="8" y="-56.5" font-family="Helvetica,sans-Serif" font-size="10.00">_singleton_multiton_abstract.Duplicate</text>
<text text-anchor="middle" x="94" y="-45.5" font-family="Helvetica,sans-Serif" font-size="10.00">InstanceException</text>
<polyline fill="none" stroke="black" points="0,-38.5 188,-38.5 "/>
<text text-anchor="middle" x="94" y="-26.5" font-family="Helvetica,sans-Serif" font-size="10.00"> </text>
<polyline fill="none" stroke="black" points="0,-19.5 188,-19.5 "/>
<text text-anchor="middle" x="94" y="-7.5" font-family="Helvetica,sans-Serif" font-size="10.00"> </text>
</a>
</g>
</g>
<!-- Node1&#45;&gt;Node2 -->
<g id="edge1" class="edge"><title>Node1&#45;&gt;Node2</title>
<path fill="none" stroke="midnightblue" d="M238.878,-122.1C216.84,-109.764 188.671,-93.9954 163.042,-79.6487"/>
<polygon fill="none" stroke="midnightblue" points="237.181,-125.161 247.616,-126.992 240.6,-119.053 237.181,-125.161"/>
</g>
<!-- Node3 -->
<g id="node3" class="node"><title>Node3</title>
<g id="a_node3"><a xlink:href="class_lang_1_1_concurrency_1_1_resource_already_released_exception.html" target="_top" xlink:title="{Lang.Concurrency.Resource\lAlreadyReleasedException\n||}">
<polygon fill="none" stroke="black" points="206,-6 206,-74 350,-74 350,-6 206,-6"/>
<text text-anchor="start" x="214" y="-62" font-family="Helvetica,sans-Serif" font-size="10.00">Lang.Concurrency.Resource</text>
<text text-anchor="middle" x="278" y="-51" font-family="Helvetica,sans-Serif" font-size="10.00">AlreadyReleasedException</text>
<polyline fill="none" stroke="black" points="206,-44 350,-44 "/>
<text text-anchor="middle" x="278" y="-32" font-family="Helvetica,sans-Serif" font-size="10.00"> </text>
<polyline fill="none" stroke="black" points="206,-25 350,-25 "/>
<text text-anchor="middle" x="278" y="-13" font-family="Helvetica,sans-Serif" font-size="10.00"> </text>
</a>
</g>
</g>
<!-- Node1&#45;&gt;Node3 -->
<g id="edge2" class="edge"><title>Node1&#45;&gt;Node3</title>
<path fill="none" stroke="midnightblue" d="M278,-106.238C278,-95.7318 278,-84.403 278,-74.1812"/>
<polygon fill="none" stroke="midnightblue" points="274.5,-106.398 278,-116.398 281.5,-106.398 274.5,-106.398"/>
</g>
<!-- Node4 -->
<g id="node4" class="node"><title>Node4</title>
<g id="a_node4"><a xlink:href="class_lang_1_1_concurrency_1_1_resource_is_full_exception.html" target="_top" xlink:title="{Lang.Concurrency.Resource\lIsFullException\n||}">
<polygon fill="none" stroke="black" points="368,-6 368,-74 512,-74 512,-6 368,-6"/>
<text text-anchor="start" x="376" y="-62" font-family="Helvetica,sans-Serif" font-size="10.00">Lang.Concurrency.Resource</text>
<text text-anchor="middle" x="440" y="-51" font-family="Helvetica,sans-Serif" font-size="10.00">IsFullException</text>
<polyline fill="none" stroke="black" points="368,-44 512,-44 "/>
<text text-anchor="middle" x="440" y="-32" font-family="Helvetica,sans-Serif" font-size="10.00"> </text>
<polyline fill="none" stroke="black" points="368,-25 512,-25 "/>
<text text-anchor="middle" x="440" y="-13" font-family="Helvetica,sans-Serif" font-size="10.00"> </text>
</a>
</g>
</g>
<!-- Node1&#45;&gt;Node4 -->
<g id="edge3" class="edge"><title>Node1&#45;&gt;Node4</title>
<path fill="none" stroke="midnightblue" d="M316.596,-119.46C337.988,-105.86 364.875,-88.7648 388.087,-74.0065"/>
<polygon fill="none" stroke="midnightblue" points="314.652,-116.549 308.091,-124.868 318.408,-122.456 314.652,-116.549"/>
</g>
</g>
</svg>
