<?xml version="1.0" encoding="UTF-8" standalone="no"?>
<!DOCTYPE svg PUBLIC "-//W3C//DTD SVG 1.1//EN"
 "http://www.w3.org/Graphics/SVG/1.1/DTD/svg11.dtd">
<!-- Generated by graphviz version 2.36.0 (20140111.2315)
 -->
<!-- Title: Lang.Concurrency.abstract.LockSemaphore.__str__ Pages: 1 -->
<svg width="386pt" height="136pt"
 viewBox="0.00 0.00 386.00 136.00" xmlns="http://www.w3.org/2000/svg" xmlns:xlink="http://www.w3.org/1999/xlink">
<g id="graph0" class="graph" transform="scale(1 1) rotate(0) translate(4 132)">
<title>Lang.Concurrency.abstract.LockSemaphore.__str__</title>
<!-- Node1 -->
<g id="node1" class="node"><title>Node1</title>
<polygon fill="#bfbfbf" stroke="black" points="0.5,-49 0.5,-79 139.5,-79 139.5,-49 0.5,-49"/>
<text text-anchor="start" x="8.5" y="-67" font-family="Helvetica,sans-Serif" font-size="10.00">Lang.Concurrency.abstract.</text>
<text text-anchor="middle" x="70" y="-56" font-family="Helvetica,sans-Serif" font-size="10.00">LockSemaphore.__str__</text>
</g>
<!-- Node2 -->
<g id="node2" class="node"><title>Node2</title>
<g id="a_node2"><a xlink:href="class_lang_1_1_concurrency_1_1abstract_1_1_lock_semaphore.html#ae687dfe782a109b12e1f3e80b656872b" target="_top" xlink:title="Lang.Concurrency.abstract.\lLockSemaphore.getSlotsTakenBySelf">
<polygon fill="none" stroke="black" points="184.5,-98 184.5,-128 369.5,-128 369.5,-98 184.5,-98"/>
<text text-anchor="start" x="192.5" y="-116" font-family="Helvetica,sans-Serif" font-size="10.00">Lang.Concurrency.abstract.</text>
<text text-anchor="middle" x="277" y="-105" font-family="Helvetica,sans-Serif" font-size="10.00">LockSemaphore.getSlotsTakenBySelf</text>
</a>
</g>
</g>
<!-- Node1&#45;&gt;Node2 -->
<g id="edge1" class="edge"><title>Node1&#45;&gt;Node2</title>
<path fill="none" stroke="midnightblue" d="M133.9,-79.0346C155.84,-84.2789 180.641,-90.2069 203.311,-95.6255"/>
<polygon fill="midnightblue" stroke="midnightblue" points="202.679,-99.0731 213.219,-97.9938 204.307,-92.2649 202.679,-99.0731"/>
</g>
<!-- Node3 -->
<g id="node3" class="node"><title>Node3</title>
<g id="a_node3"><a xlink:href="class_lang_1_1_concurrency_1_1abstract_1_1_lock_semaphore.html#aaa6946939da1ab97dfab3f19bde29a83" target="_top" xlink:title="Lang.Concurrency.abstract.\lLockSemaphore.getMaxSlots">
<polygon fill="none" stroke="black" points="203.5,-49 203.5,-79 350.5,-79 350.5,-49 203.5,-49"/>
<text text-anchor="start" x="211.5" y="-67" font-family="Helvetica,sans-Serif" font-size="10.00">Lang.Concurrency.abstract.</text>
<text text-anchor="middle" x="277" y="-56" font-family="Helvetica,sans-Serif" font-size="10.00">LockSemaphore.getMaxSlots</text>
</a>
</g>
</g>
<!-- Node1&#45;&gt;Node3 -->
<g id="edge2" class="edge"><title>Node1&#45;&gt;Node3</title>
<path fill="none" stroke="midnightblue" d="M139.547,-64C156.672,-64 175.222,-64 192.965,-64"/>
<polygon fill="midnightblue" stroke="midnightblue" points="193.301,-67.5001 203.301,-64 193.301,-60.5001 193.301,-67.5001"/>
</g>
<!-- Node4 -->
<g id="node4" class="node"><title>Node4</title>
<g id="a_node4"><a xlink:href="class_lang_1_1_concurrency_1_1abstract_1_1_lock_semaphore.html#a7d464e01bf7681e74ad8190af1c362f2" target="_top" xlink:title="Lang.Concurrency.abstract.\lLockSemaphore.getSlotsTakenByAnyone">
<polygon fill="none" stroke="black" points="176,-0 176,-30 378,-30 378,-0 176,-0"/>
<text text-anchor="start" x="184" y="-18" font-family="Helvetica,sans-Serif" font-size="10.00">Lang.Concurrency.abstract.</text>
<text text-anchor="middle" x="277" y="-7" font-family="Helvetica,sans-Serif" font-size="10.00">LockSemaphore.getSlotsTakenByAnyone</text>
</a>
</g>
</g>
<!-- Node1&#45;&gt;Node4 -->
<g id="edge3" class="edge"><title>Node1&#45;&gt;Node4</title>
<path fill="none" stroke="midnightblue" d="M133.9,-48.9654C155.84,-43.7211 180.641,-37.7931 203.311,-32.3745"/>
<polygon fill="midnightblue" stroke="midnightblue" points="204.307,-35.7351 213.219,-30.0062 202.679,-28.9269 204.307,-35.7351"/>
</g>
</g>
</svg>
