<?xml version="1.0" encoding="UTF-8" standalone="no"?>
<!DOCTYPE svg PUBLIC "-//W3C//DTD SVG 1.1//EN"
 "http://www.w3.org/Graphics/SVG/1.1/DTD/svg11.dtd">
<!-- Generated by graphviz version 2.36.0 (20140111.2315)
 -->
<!-- Title: Lang.Struct._OrderedSet.OrderedSet.insertAt Pages: 1 -->
<svg width="492pt" height="87pt"
 viewBox="0.00 0.00 492.00 87.00" xmlns="http://www.w3.org/2000/svg" xmlns:xlink="http://www.w3.org/1999/xlink">
<g id="graph0" class="graph" transform="scale(1 1) rotate(0) translate(4 83)">
<title>Lang.Struct._OrderedSet.OrderedSet.insertAt</title>
<!-- Node1 -->
<g id="node1" class="node"><title>Node1</title>
<polygon fill="#bfbfbf" stroke="black" points="0,-24 0,-54 130,-54 130,-24 0,-24"/>
<text text-anchor="start" x="8" y="-42" font-family="Helvetica,sans-Serif" font-size="10.00">Lang.Struct._OrderedSet.</text>
<text text-anchor="middle" x="65" y="-31" font-family="Helvetica,sans-Serif" font-size="10.00">OrderedSet.insertAt</text>
</g>
<!-- Node2 -->
<g id="node2" class="node"><title>Node2</title>
<g id="a_node2"><a xlink:href="class_lang_1_1_struct_1_1___ordered_set_1_1_ordered_set.html#af876cf3bdae69173dff1374db440e1f2" target="_top" xlink:title="See _insertBefore_link(...) method. ">
<polygon fill="none" stroke="black" points="166,-49 166,-79 296,-79 296,-49 166,-49"/>
<text text-anchor="start" x="174" y="-67" font-family="Helvetica,sans-Serif" font-size="10.00">Lang.Struct._OrderedSet.</text>
<text text-anchor="middle" x="231" y="-56" font-family="Helvetica,sans-Serif" font-size="10.00">OrderedSet.insertBefore</text>
</a>
</g>
</g>
<!-- Node1&#45;&gt;Node2 -->
<g id="edge1" class="edge"><title>Node1&#45;&gt;Node2</title>
<path fill="none" stroke="midnightblue" d="M130.346,-48.8089C138.731,-50.0871 147.375,-51.4047 155.903,-52.7047"/>
<polygon fill="midnightblue" stroke="midnightblue" points="155.426,-56.1723 165.839,-54.2194 156.481,-49.2523 155.426,-56.1723"/>
</g>
<!-- Node4 -->
<g id="node4" class="node"><title>Node4</title>
<g id="a_node4"><a xlink:href="class_lang_1_1_struct_1_1___ordered_set_1_1_ordered_set.html#a86ca893edaad1d4ac2dfee131550dc01" target="_top" xlink:title="Same as append ">
<polygon fill="none" stroke="black" points="166,-0 166,-30 296,-30 296,-0 166,-0"/>
<text text-anchor="start" x="174" y="-18" font-family="Helvetica,sans-Serif" font-size="10.00">Lang.Struct._OrderedSet.</text>
<text text-anchor="middle" x="231" y="-7" font-family="Helvetica,sans-Serif" font-size="10.00">OrderedSet.add</text>
</a>
</g>
</g>
<!-- Node1&#45;&gt;Node4 -->
<g id="edge3" class="edge"><title>Node1&#45;&gt;Node4</title>
<path fill="none" stroke="midnightblue" d="M130.346,-29.5834C138.731,-28.3564 147.375,-27.0915 155.903,-25.8435"/>
<polygon fill="midnightblue" stroke="midnightblue" points="156.451,-29.3006 165.839,-24.3894 155.438,-22.3744 156.451,-29.3006"/>
</g>
<!-- Node3 -->
<g id="node3" class="node"><title>Node3</title>
<g id="a_node3"><a xlink:href="class_lang_1_1_struct_1_1___ordered_set_1_1_ordered_set.html#a3b5b0f278022d362913215cc21961b4e" target="_top" xlink:title="Inserts newElemBefore into the current position of oldLinkAfter. ">
<polygon fill="none" stroke="black" points="332.5,-24 332.5,-54 483.5,-54 483.5,-24 332.5,-24"/>
<text text-anchor="start" x="340.5" y="-42" font-family="Helvetica,sans-Serif" font-size="10.00">Lang.Struct._OrderedSet.</text>
<text text-anchor="middle" x="408" y="-31" font-family="Helvetica,sans-Serif" font-size="10.00">OrderedSet._insertBefore_link</text>
</a>
</g>
</g>
<!-- Node2&#45;&gt;Node3 -->
<g id="edge2" class="edge"><title>Node2&#45;&gt;Node3</title>
<path fill="none" stroke="midnightblue" d="M296.17,-54.8329C304.746,-53.6078 313.644,-52.3365 322.502,-51.0712"/>
<polygon fill="midnightblue" stroke="midnightblue" points="323.061,-54.527 332.465,-49.6478 322.071,-47.5973 323.061,-54.527"/>
</g>
<!-- Node4&#45;&gt;Node3 -->
<g id="edge4" class="edge"><title>Node4&#45;&gt;Node3</title>
<path fill="none" stroke="midnightblue" d="M296.17,-23.8004C304.746,-24.9766 313.644,-26.1969 322.502,-27.4116"/>
<polygon fill="midnightblue" stroke="midnightblue" points="322.082,-30.8868 332.465,-28.7781 323.033,-23.9517 322.082,-30.8868"/>
</g>
</g>
</svg>
