<?xml version="1.0" encoding="UTF-8" standalone="no"?>
<!DOCTYPE svg PUBLIC "-//W3C//DTD SVG 1.1//EN"
 "http://www.w3.org/Graphics/SVG/1.1/DTD/svg11.dtd">
<!-- Generated by graphviz version 2.36.0 (20140111.2315)
 -->
<!-- Title: Lang.Concurrency.abstract.LockSemaphore.getSlotsAvailable Pages: 1 -->
<svg width="416pt" height="87pt"
 viewBox="0.00 0.00 416.00 87.00" xmlns="http://www.w3.org/2000/svg" xmlns:xlink="http://www.w3.org/1999/xlink">
<g id="graph0" class="graph" transform="scale(1 1) rotate(0) translate(4 83)">
<title>Lang.Concurrency.abstract.LockSemaphore.getSlotsAvailable</title>
<!-- Node1 -->
<g id="node1" class="node"><title>Node1</title>
<polygon fill="#bfbfbf" stroke="black" points="0.5,-24 0.5,-54 169.5,-54 169.5,-24 0.5,-24"/>
<text text-anchor="start" x="8.5" y="-42" font-family="Helvetica,sans-Serif" font-size="10.00">Lang.Concurrency.abstract.</text>
<text text-anchor="middle" x="85" y="-31" font-family="Helvetica,sans-Serif" font-size="10.00">LockSemaphore.getSlotsAvailable</text>
</g>
<!-- Node2 -->
<g id="node2" class="node"><title>Node2</title>
<g id="a_node2"><a xlink:href="class_lang_1_1_concurrency_1_1abstract_1_1_lock_semaphore.html#aaa6946939da1ab97dfab3f19bde29a83" target="_top" xlink:title="Lang.Concurrency.abstract.\lLockSemaphore.getMaxSlots">
<polygon fill="none" stroke="black" points="233.5,-49 233.5,-79 380.5,-79 380.5,-49 233.5,-49"/>
<text text-anchor="start" x="241.5" y="-67" font-family="Helvetica,sans-Serif" font-size="10.00">Lang.Concurrency.abstract.</text>
<text text-anchor="middle" x="307" y="-56" font-family="Helvetica,sans-Serif" font-size="10.00">LockSemaphore.getMaxSlots</text>
</a>
</g>
</g>
<!-- Node1&#45;&gt;Node2 -->
<g id="edge1" class="edge"><title>Node1&#45;&gt;Node2</title>
<path fill="none" stroke="midnightblue" d="M169.8,-48.5227C187.259,-50.5068 205.654,-52.597 223.081,-54.5774"/>
<polygon fill="midnightblue" stroke="midnightblue" points="222.884,-58.0775 233.216,-55.7291 223.675,-51.1223 222.884,-58.0775"/>
</g>
<!-- Node3 -->
<g id="node3" class="node"><title>Node3</title>
<g id="a_node3"><a xlink:href="class_lang_1_1_concurrency_1_1abstract_1_1_lock_semaphore.html#a7d464e01bf7681e74ad8190af1c362f2" target="_top" xlink:title="Lang.Concurrency.abstract.\lLockSemaphore.getSlotsTakenByAnyone">
<polygon fill="none" stroke="black" points="206,-0 206,-30 408,-30 408,-0 206,-0"/>
<text text-anchor="start" x="214" y="-18" font-family="Helvetica,sans-Serif" font-size="10.00">Lang.Concurrency.abstract.</text>
<text text-anchor="middle" x="307" y="-7" font-family="Helvetica,sans-Serif" font-size="10.00">LockSemaphore.getSlotsTakenByAnyone</text>
</a>
</g>
</g>
<!-- Node1&#45;&gt;Node3 -->
<g id="edge2" class="edge"><title>Node1&#45;&gt;Node3</title>
<path fill="none" stroke="midnightblue" d="M169.8,-29.8582C178.266,-28.9346 186.952,-27.9871 195.641,-27.0392"/>
<polygon fill="midnightblue" stroke="midnightblue" points="196.267,-30.4917 205.829,-25.9278 195.508,-23.533 196.267,-30.4917"/>
</g>
</g>
</svg>
