<?xml version="1.0" encoding="UTF-8" standalone="no"?>
<!DOCTYPE svg PUBLIC "-//W3C//DTD SVG 1.1//EN"
 "http://www.w3.org/Graphics/SVG/1.1/DTD/svg11.dtd">
<!-- Generated by graphviz version 2.30.1 (20130219.2202)
 -->
<!-- Title: Lang.Struct._FrozenDict.FrozenDict Pages: 1 -->
<svg width="126pt" height="216pt"
 viewBox="0.00 0.00 126.00 216.00" xmlns="http://www.w3.org/2000/svg" xmlns:xlink="http://www.w3.org/1999/xlink">
<g id="graph0" class="graph" transform="scale(1 1) rotate(0) translate(4 212)">
<title>Lang.Struct._FrozenDict.FrozenDict</title>
<!-- Node1 -->
<g id="node1" class="node"><title>Node1</title>
<polygon fill="#bfbfbf" stroke="black" points="0,-1 0,-113 118,-113 118,-1 0,-1"/>
<text text-anchor="start" x="8" y="-101" font-family="Helvetica,sans-Serif" font-size="10.00">Lang.Struct._FrozenDict.</text>
<text text-anchor="middle" x="59" y="-90" font-family="Helvetica,sans-Serif" font-size="10.00">FrozenDict</text>
<polyline fill="none" stroke="black" points="0,-83 118,-83 "/>
<text text-anchor="start" x="8" y="-71" font-family="Helvetica,sans-Serif" font-size="10.00">+ pop</text>
<text text-anchor="start" x="8" y="-60" font-family="Helvetica,sans-Serif" font-size="10.00">+ _blocked_attribute</text>
<polyline fill="none" stroke="black" points="0,-53 118,-53 "/>
<text text-anchor="start" x="8" y="-41" font-family="Helvetica,sans-Serif" font-size="10.00">+ __new__()</text>
<text text-anchor="start" x="8" y="-30" font-family="Helvetica,sans-Serif" font-size="10.00">+ __init__()</text>
<text text-anchor="start" x="8" y="-19" font-family="Helvetica,sans-Serif" font-size="10.00">+ __hash__()</text>
<text text-anchor="start" x="8" y="-8" font-family="Helvetica,sans-Serif" font-size="10.00">+ __repr__()</text>
</g>
<!-- Node2 -->
<g id="node2" class="node"><title>Node2</title>
<g id="a_node2"><a xlink:href="classdict.html" target="_top" xlink:title="{dict\n||}">
<polygon fill="none" stroke="black" points="44,-150.5 44,-207.5 74,-207.5 74,-150.5 44,-150.5"/>
<text text-anchor="middle" x="59" y="-195.5" font-family="Helvetica,sans-Serif" font-size="10.00">dict</text>
<polyline fill="none" stroke="black" points="44,-188.5 74,-188.5 "/>
<text text-anchor="middle" x="59" y="-176.5" font-family="Helvetica,sans-Serif" font-size="10.00"> </text>
<polyline fill="none" stroke="black" points="44,-169.5 74,-169.5 "/>
<text text-anchor="middle" x="59" y="-157.5" font-family="Helvetica,sans-Serif" font-size="10.00"> </text>
</a>
</g>
</g>
<!-- Node2&#45;&gt;Node1 -->
<g id="edge1" class="edge"><title>Node2&#45;&gt;Node1</title>
<path fill="none" stroke="midnightblue" d="M59,-140.398C59,-131.802 59,-122.49 59,-113.324"/>
<polygon fill="none" stroke="midnightblue" points="55.5001,-140.47 59,-150.47 62.5001,-140.47 55.5001,-140.47"/>
</g>
</g>
</svg>
