<?xml version="1.0" encoding="UTF-8" standalone="no"?>
<!DOCTYPE svg PUBLIC "-//W3C//DTD SVG 1.1//EN"
 "http://www.w3.org/Graphics/SVG/1.1/DTD/svg11.dtd">
<!-- Generated by graphviz version 2.36.0 (20140111.2315)
 -->
<!-- Title: type Pages: 1 -->
<svg width="154pt" height="194pt"
 viewBox="0.00 0.00 154.00 194.00" xmlns="http://www.w3.org/2000/svg" xmlns:xlink="http://www.w3.org/1999/xlink">
<g id="graph0" class="graph" transform="scale(1 1) rotate(0) translate(4 190)">
<title>type</title>
<!-- Node1 -->
<g id="node1" class="node"><title>Node1</title>
<polygon fill="#bfbfbf" stroke="black" points="55.5,-128.5 55.5,-185.5 90.5,-185.5 90.5,-128.5 55.5,-128.5"/>
<text text-anchor="middle" x="73" y="-173.5" font-family="Helvetica,sans-Serif" font-size="10.00">type</text>
<polyline fill="none" stroke="black" points="55.5,-166.5 90.5,-166.5 "/>
<text text-anchor="middle" x="73" y="-154.5" font-family="Helvetica,sans-Serif" font-size="10.00"> </text>
<polyline fill="none" stroke="black" points="55.5,-147.5 90.5,-147.5 "/>
<text text-anchor="middle" x="73" y="-135.5" font-family="Helvetica,sans-Serif" font-size="10.00"> </text>
</g>
<!-- Node2 -->
<g id="node2" class="node"><title>Node2</title>
<g id="a_node2"><a xlink:href="class_lang_1_1_class_tools_1_1_patterns_1_1__singleton__multiton__abstract_1_1___singleton_multiton_abstract.html" target="_top" xlink:title="{Lang.ClassTools.Patterns.\l_singleton_multiton_abstract.\l_SingletonMultitonAbstract\n||+ getAllClasses()\l+ getAllInstances()\l}">
<polygon fill="none" stroke="black" points="-0.5,-1 -0.5,-91 146.5,-91 146.5,-1 -0.5,-1"/>
<text text-anchor="start" x="7.5" y="-79" font-family="Helvetica,sans-Serif" font-size="10.00">Lang.ClassTools.Patterns.</text>
<text text-anchor="start" x="7.5" y="-68" font-family="Helvetica,sans-Serif" font-size="10.00">_singleton_multiton_abstract.</text>
<text text-anchor="middle" x="73" y="-57" font-family="Helvetica,sans-Serif" font-size="10.00">_SingletonMultitonAbstract</text>
<polyline fill="none" stroke="black" points="-0.5,-50 146.5,-50 "/>
<text text-anchor="middle" x="73" y="-38" font-family="Helvetica,sans-Serif" font-size="10.00"> </text>
<polyline fill="none" stroke="black" points="-0.5,-31 146.5,-31 "/>
<text text-anchor="start" x="7.5" y="-19" font-family="Helvetica,sans-Serif" font-size="10.00">+ getAllClasses()</text>
<text text-anchor="start" x="7.5" y="-8" font-family="Helvetica,sans-Serif" font-size="10.00">+ getAllInstances()</text>
</a>
</g>
</g>
<!-- Node1&#45;&gt;Node2 -->
<g id="edge1" class="edge"><title>Node1&#45;&gt;Node2</title>
<path fill="none" stroke="midnightblue" d="M73,-118.484C73,-109.643 73,-100.139 73,-91.0399"/>
<polygon fill="none" stroke="midnightblue" points="69.5001,-118.495 73,-128.495 76.5001,-118.495 69.5001,-118.495"/>
</g>
</g>
</svg>
