<?xml version="1.0" encoding="UTF-8" standalone="no"?>
<!DOCTYPE svg PUBLIC "-//W3C//DTD SVG 1.1//EN"
 "http://www.w3.org/Graphics/SVG/1.1/DTD/svg11.dtd">
<!-- Generated by graphviz version 2.36.0 (20140111.2315)
 -->
<!-- Title: Lang.Events.Proxy.EventProxy Pages: 1 -->
<svg width="176pt" height="288pt"
 viewBox="0.00 0.00 176.00 288.00" xmlns="http://www.w3.org/2000/svg" xmlns:xlink="http://www.w3.org/1999/xlink">
<g id="graph0" class="graph" transform="scale(1 1) rotate(0) translate(4 284)">
<title>Lang.Events.Proxy.EventProxy</title>
<!-- Node1 -->
<g id="node1" class="node"><title>Node1</title>
<polygon fill="#bfbfbf" stroke="black" points="7,-1 7,-91 161,-91 161,-1 7,-1"/>
<text text-anchor="middle" x="84" y="-79" font-family="Helvetica,sans-Serif" font-size="10.00">Lang.Events.Proxy.EventProxy</text>
<polyline fill="none" stroke="black" points="7,-72 161,-72 "/>
<text text-anchor="start" x="15" y="-60" font-family="Helvetica,sans-Serif" font-size="10.00">+ errorOnMethodNotFound</text>
<polyline fill="none" stroke="black" points="7,-53 161,-53 "/>
<text text-anchor="start" x="15" y="-41" font-family="Helvetica,sans-Serif" font-size="10.00">+ __init__()</text>
<text text-anchor="start" x="15" y="-30" font-family="Helvetica,sans-Serif" font-size="10.00">+ __getattr__()</text>
<text text-anchor="start" x="15" y="-19" font-family="Helvetica,sans-Serif" font-size="10.00">+ addReceiver()</text>
<text text-anchor="start" x="15" y="-8" font-family="Helvetica,sans-Serif" font-size="10.00">+ getReceivers()</text>
</g>
<!-- Node2 -->
<g id="node2" class="node"><title>Node2</title>
<g id="a_node2"><a xlink:href="class_lang_1_1_events_1_1_proxy_1_1_event_receiver.html" target="_top" xlink:title="Feel free to use this class as a mixin for receiving specific events. ">
<polygon fill="none" stroke="black" points="0,-128.5 0,-185.5 168,-185.5 168,-128.5 0,-128.5"/>
<text text-anchor="middle" x="84" y="-173.5" font-family="Helvetica,sans-Serif" font-size="10.00">Lang.Events.Proxy.EventReceiver</text>
<polyline fill="none" stroke="black" points="0,-166.5 168,-166.5 "/>
<text text-anchor="middle" x="84" y="-154.5" font-family="Helvetica,sans-Serif" font-size="10.00"> </text>
<polyline fill="none" stroke="black" points="0,-147.5 168,-147.5 "/>
<text text-anchor="middle" x="84" y="-135.5" font-family="Helvetica,sans-Serif" font-size="10.00"> </text>
</a>
</g>
</g>
<!-- Node2&#45;&gt;Node1 -->
<g id="edge1" class="edge"><title>Node2&#45;&gt;Node1</title>
<path fill="none" stroke="midnightblue" d="M84,-118.484C84,-109.643 84,-100.139 84,-91.0399"/>
<polygon fill="none" stroke="midnightblue" points="80.5001,-118.495 84,-128.495 87.5001,-118.495 80.5001,-118.495"/>
</g>
<!-- Node3 -->
<g id="node3" class="node"><title>Node3</title>
<g id="a_node3"><a xlink:href="classobject.html" target="_top" xlink:title="{object\n||}">
<polygon fill="none" stroke="black" points="62.5,-222.5 62.5,-279.5 105.5,-279.5 105.5,-222.5 62.5,-222.5"/>
<text text-anchor="middle" x="84" y="-267.5" font-family="Helvetica,sans-Serif" font-size="10.00">object</text>
<polyline fill="none" stroke="black" points="62.5,-260.5 105.5,-260.5 "/>
<text text-anchor="middle" x="84" y="-248.5" font-family="Helvetica,sans-Serif" font-size="10.00"> </text>
<polyline fill="none" stroke="black" points="62.5,-241.5 105.5,-241.5 "/>
<text text-anchor="middle" x="84" y="-229.5" font-family="Helvetica,sans-Serif" font-size="10.00"> </text>
</a>
</g>
</g>
<!-- Node3&#45;&gt;Node2 -->
<g id="edge2" class="edge"><title>Node3&#45;&gt;Node2</title>
<path fill="none" stroke="midnightblue" d="M84,-212.209C84,-203.293 84,-193.951 84,-185.584"/>
<polygon fill="none" stroke="midnightblue" points="80.5001,-212.397 84,-222.397 87.5001,-212.397 80.5001,-212.397"/>
</g>
</g>
</svg>
