<?xml version="1.0" encoding="UTF-8" standalone="no"?>
<!DOCTYPE svg PUBLIC "-//W3C//DTD SVG 1.1//EN"
 "http://www.w3.org/Graphics/SVG/1.1/DTD/svg11.dtd">
<!-- Generated by graphviz version 2.36.0 (20140111.2315)
 -->
<!-- Title: Lang.Diff._TwoSide Pages: 1 -->
<svg width="793pt" height="404pt"
 viewBox="0.00 0.00 793.00 404.00" xmlns="http://www.w3.org/2000/svg" xmlns:xlink="http://www.w3.org/1999/xlink">
<g id="graph0" class="graph" transform="scale(1 1) rotate(0) translate(4 400)">
<title>Lang.Diff._TwoSide</title>
<!-- Node1 -->
<g id="node1" class="node"><title>Node1</title>
<polygon fill="#bfbfbf" stroke="black" points="374,-211 374,-301 478,-301 478,-211 374,-211"/>
<text text-anchor="middle" x="426" y="-289" font-family="Helvetica,sans-Serif" font-size="10.00">Lang.Diff._TwoSide</text>
<polyline fill="none" stroke="black" points="374,-282 478,-282 "/>
<text text-anchor="start" x="382" y="-270" font-family="Helvetica,sans-Serif" font-size="10.00">+ a</text>
<text text-anchor="start" x="382" y="-259" font-family="Helvetica,sans-Serif" font-size="10.00">+ b</text>
<polyline fill="none" stroke="black" points="374,-252 478,-252 "/>
<text text-anchor="start" x="382" y="-240" font-family="Helvetica,sans-Serif" font-size="10.00">+ __init__()</text>
<text text-anchor="start" x="382" y="-229" font-family="Helvetica,sans-Serif" font-size="10.00">+ __str__()</text>
<text text-anchor="start" x="382" y="-218" font-family="Helvetica,sans-Serif" font-size="10.00">+ __repr__()</text>
</g>
<!-- Node3 -->
<g id="node3" class="node"><title>Node3</title>
<g id="a_node3"><a xlink:href="class_lang_1_1_diff_1_1___block.html" target="_top" xlink:title="{Lang.Diff._Block\n||}">
<polygon fill="none" stroke="black" points="84.5,-116.5 84.5,-173.5 173.5,-173.5 173.5,-116.5 84.5,-116.5"/>
<text text-anchor="middle" x="129" y="-161.5" font-family="Helvetica,sans-Serif" font-size="10.00">Lang.Diff._Block</text>
<polyline fill="none" stroke="black" points="84.5,-154.5 173.5,-154.5 "/>
<text text-anchor="middle" x="129" y="-142.5" font-family="Helvetica,sans-Serif" font-size="10.00"> </text>
<polyline fill="none" stroke="black" points="84.5,-135.5 173.5,-135.5 "/>
<text text-anchor="middle" x="129" y="-123.5" font-family="Helvetica,sans-Serif" font-size="10.00"> </text>
</a>
</g>
</g>
<!-- Node1&#45;&gt;Node3 -->
<g id="edge2" class="edge"><title>Node1&#45;&gt;Node3</title>
<path fill="none" stroke="midnightblue" d="M363.977,-237.512C314.027,-222.693 242.426,-199.781 182,-174 179.224,-172.816 176.397,-171.54 173.566,-170.21"/>
<polygon fill="none" stroke="midnightblue" points="363.088,-240.898 373.669,-240.366 365.065,-234.184 363.088,-240.898"/>
</g>
<!-- Node6 -->
<g id="node6" class="node"><title>Node6</title>
<g id="a_node6"><a xlink:href="class_lang_1_1_diff_1_1___elem_block_match.html" target="_top" xlink:title="{Lang.Diff._ElemBlockMatch\n||}">
<polygon fill="none" stroke="black" points="191.5,-116.5 191.5,-173.5 330.5,-173.5 330.5,-116.5 191.5,-116.5"/>
<text text-anchor="middle" x="261" y="-161.5" font-family="Helvetica,sans-Serif" font-size="10.00">Lang.Diff._ElemBlockMatch</text>
<polyline fill="none" stroke="black" points="191.5,-154.5 330.5,-154.5 "/>
<text text-anchor="middle" x="261" y="-142.5" font-family="Helvetica,sans-Serif" font-size="10.00"> </text>
<polyline fill="none" stroke="black" points="191.5,-135.5 330.5,-135.5 "/>
<text text-anchor="middle" x="261" y="-123.5" font-family="Helvetica,sans-Serif" font-size="10.00"> </text>
</a>
</g>
</g>
<!-- Node1&#45;&gt;Node6 -->
<g id="edge5" class="edge"><title>Node1&#45;&gt;Node6</title>
<path fill="none" stroke="midnightblue" d="M365.314,-214.91C344.488,-201.153 321.664,-186.075 302.69,-173.541"/>
<polygon fill="none" stroke="midnightblue" points="363.52,-217.92 373.793,-220.512 367.378,-212.079 363.52,-217.92"/>
</g>
<!-- Node7 -->
<g id="node7" class="node"><title>Node7</title>
<g id="a_node7"><a xlink:href="class_lang_1_1_diff_1_1___elem_block_mismatch.html" target="_top" xlink:title="{Lang.Diff._ElemBlockMismatch\n||}">
<polygon fill="none" stroke="black" points="348.5,-116.5 348.5,-173.5 503.5,-173.5 503.5,-116.5 348.5,-116.5"/>
<text text-anchor="middle" x="426" y="-161.5" font-family="Helvetica,sans-Serif" font-size="10.00">Lang.Diff._ElemBlockMismatch</text>
<polyline fill="none" stroke="black" points="348.5,-154.5 503.5,-154.5 "/>
<text text-anchor="middle" x="426" y="-142.5" font-family="Helvetica,sans-Serif" font-size="10.00"> </text>
<polyline fill="none" stroke="black" points="348.5,-135.5 503.5,-135.5 "/>
<text text-anchor="middle" x="426" y="-123.5" font-family="Helvetica,sans-Serif" font-size="10.00"> </text>
</a>
</g>
</g>
<!-- Node1&#45;&gt;Node7 -->
<g id="edge6" class="edge"><title>Node1&#45;&gt;Node7</title>
<path fill="none" stroke="midnightblue" d="M426,-200.792C426,-191.35 426,-181.896 426,-173.564"/>
<polygon fill="none" stroke="midnightblue" points="422.5,-200.98 426,-210.98 429.5,-200.98 422.5,-200.98"/>
</g>
<!-- Node8 -->
<g id="node8" class="node"><title>Node8</title>
<g id="a_node8"><a xlink:href="class_lang_1_1_diff_1_1___elem_match.html" target="_top" xlink:title="{Lang.Diff._ElemMatch\n||}">
<polygon fill="none" stroke="black" points="521.5,-116.5 521.5,-173.5 636.5,-173.5 636.5,-116.5 521.5,-116.5"/>
<text text-anchor="middle" x="579" y="-161.5" font-family="Helvetica,sans-Serif" font-size="10.00">Lang.Diff._ElemMatch</text>
<polyline fill="none" stroke="black" points="521.5,-154.5 636.5,-154.5 "/>
<text text-anchor="middle" x="579" y="-142.5" font-family="Helvetica,sans-Serif" font-size="10.00"> </text>
<polyline fill="none" stroke="black" points="521.5,-135.5 636.5,-135.5 "/>
<text text-anchor="middle" x="579" y="-123.5" font-family="Helvetica,sans-Serif" font-size="10.00"> </text>
</a>
</g>
</g>
<!-- Node1&#45;&gt;Node8 -->
<g id="edge7" class="edge"><title>Node1&#45;&gt;Node8</title>
<path fill="none" stroke="midnightblue" d="M486.416,-211.959C504.466,-199.1 523.767,-185.349 540.05,-173.749"/>
<polygon fill="none" stroke="midnightblue" points="484.34,-209.14 478.226,-217.793 488.401,-214.841 484.34,-209.14"/>
</g>
<!-- Node9 -->
<g id="node9" class="node"><title>Node9</title>
<g id="a_node9"><a xlink:href="class_lang_1_1_diff_1_1___elem_mismatch.html" target="_top" xlink:title="{Lang.Diff._ElemMismatch\n||}">
<polygon fill="none" stroke="black" points="655,-116.5 655,-173.5 785,-173.5 785,-116.5 655,-116.5"/>
<text text-anchor="middle" x="720" y="-161.5" font-family="Helvetica,sans-Serif" font-size="10.00">Lang.Diff._ElemMismatch</text>
<polyline fill="none" stroke="black" points="655,-154.5 785,-154.5 "/>
<text text-anchor="middle" x="720" y="-142.5" font-family="Helvetica,sans-Serif" font-size="10.00"> </text>
<polyline fill="none" stroke="black" points="655,-135.5 785,-135.5 "/>
<text text-anchor="middle" x="720" y="-123.5" font-family="Helvetica,sans-Serif" font-size="10.00"> </text>
</a>
</g>
</g>
<!-- Node1&#45;&gt;Node9 -->
<g id="edge8" class="edge"><title>Node1&#45;&gt;Node9</title>
<path fill="none" stroke="midnightblue" d="M487.617,-232.267C531.511,-216.059 591.897,-193.733 645,-174 648.257,-172.79 651.593,-171.549 654.962,-170.295"/>
<polygon fill="none" stroke="midnightblue" points="486.399,-228.986 478.23,-235.733 488.824,-235.552 486.399,-228.986"/>
</g>
<!-- Node2 -->
<g id="node2" class="node"><title>Node2</title>
<g id="a_node2"><a xlink:href="classobject.html" target="_top" xlink:title="{object\n||}">
<polygon fill="none" stroke="black" points="404.5,-338.5 404.5,-395.5 447.5,-395.5 447.5,-338.5 404.5,-338.5"/>
<text text-anchor="middle" x="426" y="-383.5" font-family="Helvetica,sans-Serif" font-size="10.00">object</text>
<polyline fill="none" stroke="black" points="404.5,-376.5 447.5,-376.5 "/>
<text text-anchor="middle" x="426" y="-364.5" font-family="Helvetica,sans-Serif" font-size="10.00"> </text>
<polyline fill="none" stroke="black" points="404.5,-357.5 447.5,-357.5 "/>
<text text-anchor="middle" x="426" y="-345.5" font-family="Helvetica,sans-Serif" font-size="10.00"> </text>
</a>
</g>
</g>
<!-- Node2&#45;&gt;Node1 -->
<g id="edge1" class="edge"><title>Node2&#45;&gt;Node1</title>
<path fill="none" stroke="midnightblue" d="M426,-328.484C426,-319.643 426,-310.139 426,-301.04"/>
<polygon fill="none" stroke="midnightblue" points="422.5,-328.495 426,-338.495 429.5,-328.495 422.5,-328.495"/>
</g>
<!-- Node4 -->
<g id="node4" class="node"><title>Node4</title>
<g id="a_node4"><a xlink:href="class_lang_1_1_diff_1_1___block_match.html" target="_top" xlink:title="{Lang.Diff._BlockMatch\n||+ __init__()\l+ __getattr__()\l+ __getitem__()\l}">
<polygon fill="none" stroke="black" points="-0.5,-0.5 -0.5,-79.5 116.5,-79.5 116.5,-0.5 -0.5,-0.5"/>
<text text-anchor="middle" x="58" y="-67.5" font-family="Helvetica,sans-Serif" font-size="10.00">Lang.Diff._BlockMatch</text>
<polyline fill="none" stroke="black" points="-0.5,-60.5 116.5,-60.5 "/>
<text text-anchor="middle" x="58" y="-48.5" font-family="Helvetica,sans-Serif" font-size="10.00"> </text>
<polyline fill="none" stroke="black" points="-0.5,-41.5 116.5,-41.5 "/>
<text text-anchor="start" x="7.5" y="-29.5" font-family="Helvetica,sans-Serif" font-size="10.00">+ __init__()</text>
<text text-anchor="start" x="7.5" y="-18.5" font-family="Helvetica,sans-Serif" font-size="10.00">+ __getattr__()</text>
<text text-anchor="start" x="7.5" y="-7.5" font-family="Helvetica,sans-Serif" font-size="10.00">+ __getitem__()</text>
</a>
</g>
</g>
<!-- Node3&#45;&gt;Node4 -->
<g id="edge3" class="edge"><title>Node3&#45;&gt;Node4</title>
<path fill="none" stroke="midnightblue" d="M104.288,-108.15C97.9104,-98.8982 91.0198,-88.902 84.5529,-79.5205"/>
<polygon fill="none" stroke="midnightblue" points="101.416,-110.151 109.973,-116.398 107.18,-106.178 101.416,-110.151"/>
</g>
<!-- Node5 -->
<g id="node5" class="node"><title>Node5</title>
<g id="a_node5"><a xlink:href="class_lang_1_1_diff_1_1___block_mismatch.html" target="_top" xlink:title="{Lang.Diff._BlockMismatch\n||+ __init__()\l}">
<polygon fill="none" stroke="black" points="135,-11.5 135,-68.5 267,-68.5 267,-11.5 135,-11.5"/>
<text text-anchor="middle" x="201" y="-56.5" font-family="Helvetica,sans-Serif" font-size="10.00">Lang.Diff._BlockMismatch</text>
<polyline fill="none" stroke="black" points="135,-49.5 267,-49.5 "/>
<text text-anchor="middle" x="201" y="-37.5" font-family="Helvetica,sans-Serif" font-size="10.00"> </text>
<polyline fill="none" stroke="black" points="135,-30.5 267,-30.5 "/>
<text text-anchor="start" x="143" y="-18.5" font-family="Helvetica,sans-Serif" font-size="10.00">+ __init__()</text>
</a>
</g>
</g>
<!-- Node3&#45;&gt;Node5 -->
<g id="edge4" class="edge"><title>Node3&#45;&gt;Node5</title>
<path fill="none" stroke="midnightblue" d="M154.065,-108.144C163.109,-95.205 173.171,-80.8105 181.652,-68.6783"/>
<polygon fill="none" stroke="midnightblue" points="151.155,-106.197 148.295,-116.398 156.893,-110.207 151.155,-106.197"/>
</g>
</g>
</svg>
