<?xml version="1.0" encoding="UTF-8" standalone="no"?>
<!DOCTYPE svg PUBLIC "-//W3C//DTD SVG 1.1//EN"
 "http://www.w3.org/Graphics/SVG/1.1/DTD/svg11.dtd">
<!-- Generated by graphviz version 2.36.0 (20140111.2315)
 -->
<!-- Title: Lang.Concurrency.FileSystem._Lock.FileLock_ByFCNTL.__getattribute__ Pages: 1 -->
<svg width="386pt" height="99pt"
 viewBox="0.00 0.00 386.00 99.00" xmlns="http://www.w3.org/2000/svg" xmlns:xlink="http://www.w3.org/1999/xlink">
<g id="graph0" class="graph" transform="scale(1 1) rotate(0) translate(4 95)">
<title>Lang.Concurrency.FileSystem._Lock.FileLock_ByFCNTL.__getattribute__</title>
<!-- Node1 -->
<g id="node1" class="node"><title>Node1</title>
<polygon fill="#bfbfbf" stroke="black" points="0.5,-21.5 0.5,-62.5 153.5,-62.5 153.5,-21.5 0.5,-21.5"/>
<text text-anchor="start" x="8.5" y="-50.5" font-family="Helvetica,sans-Serif" font-size="10.00">Lang.Concurrency.FileSystem.</text>
<text text-anchor="start" x="8.5" y="-39.5" font-family="Helvetica,sans-Serif" font-size="10.00">_Lock.FileLock_ByFCNTL._</text>
<text text-anchor="middle" x="77" y="-28.5" font-family="Helvetica,sans-Serif" font-size="10.00">_getattribute__</text>
</g>
<!-- Node2 -->
<g id="node2" class="node"><title>Node2</title>
<g id="a_node2"><a xlink:href="class_lang_1_1_concurrency_1_1_file_system_1_1___lock_1_1_file_lock___by_f_c_n_t_l.html#a3354219d59c5b378c8bb3059d63f4460" target="_top" xlink:title="Lang.Concurrency.FileSystem.\l_Lock.FileLock_ByFCNTL._checkFork\lSafety">
<polygon fill="none" stroke="black" points="190.5,-49.5 190.5,-90.5 377.5,-90.5 377.5,-49.5 190.5,-49.5"/>
<text text-anchor="start" x="198.5" y="-78.5" font-family="Helvetica,sans-Serif" font-size="10.00">Lang.Concurrency.FileSystem.</text>
<text text-anchor="start" x="198.5" y="-67.5" font-family="Helvetica,sans-Serif" font-size="10.00">_Lock.FileLock_ByFCNTL._checkFork</text>
<text text-anchor="middle" x="284" y="-56.5" font-family="Helvetica,sans-Serif" font-size="10.00">Safety</text>
</a>
</g>
</g>
<!-- Node1&#45;&gt;Node2 -->
<g id="edge1" class="edge"><title>Node1&#45;&gt;Node2</title>
<path fill="none" stroke="midnightblue" d="M153.752,-52.3466C162.37,-53.5238 171.26,-54.738 180.153,-55.9526"/>
<polygon fill="midnightblue" stroke="midnightblue" points="179.799,-59.4367 190.181,-57.3223 180.747,-52.5011 179.799,-59.4367"/>
</g>
<!-- Node3 -->
<g id="node3" class="node"><title>Node3</title>
<g id="a_node3"><a xlink:href="class_lang_1_1_concurrency_1_1abstract_1_1_lock_semaphore.html#ae687dfe782a109b12e1f3e80b656872b" target="_top" xlink:title="Lang.Concurrency.abstract.\lLockSemaphore.getSlotsTakenBySelf">
<polygon fill="none" stroke="black" points="191.5,-0 191.5,-30 376.5,-30 376.5,-0 191.5,-0"/>
<text text-anchor="start" x="199.5" y="-18" font-family="Helvetica,sans-Serif" font-size="10.00">Lang.Concurrency.abstract.</text>
<text text-anchor="middle" x="284" y="-7" font-family="Helvetica,sans-Serif" font-size="10.00">LockSemaphore.getSlotsTakenBySelf</text>
</a>
</g>
</g>
<!-- Node1&#45;&gt;Node3 -->
<g id="edge2" class="edge"><title>Node1&#45;&gt;Node3</title>
<path fill="none" stroke="midnightblue" d="M153.752,-32.0229C162.714,-30.8425 171.97,-29.6235 181.218,-28.4054"/>
<polygon fill="midnightblue" stroke="midnightblue" points="181.778,-31.862 191.236,-27.0861 180.864,-24.9219 181.778,-31.862"/>
</g>
</g>
</svg>
