<?xml version="1.0" encoding="UTF-8" standalone="no"?>
<!DOCTYPE svg PUBLIC "-//W3C//DTD SVG 1.1//EN"
 "http://www.w3.org/Graphics/SVG/1.1/DTD/svg11.dtd">
<!-- Generated by graphviz version 2.36.0 (20140111.2315)
 -->
<!-- Title: Lang.ClassTools.Patterns._singleton._Singleton_OnDupRaiseException Pages: 1 -->
<svg width="182pt" height="288pt"
 viewBox="0.00 0.00 182.00 288.00" xmlns="http://www.w3.org/2000/svg" xmlns:xlink="http://www.w3.org/1999/xlink">
<g id="graph0" class="graph" transform="scale(1 1) rotate(0) translate(4 284)">
<title>Lang.ClassTools.Patterns._singleton._Singleton_OnDupRaiseException</title>
<!-- Node1 -->
<g id="node1" class="node"><title>Node1</title>
<polygon fill="#bfbfbf" stroke="black" points="-0.5,-0.5 -0.5,-79.5 174.5,-79.5 174.5,-0.5 -0.5,-0.5"/>
<text text-anchor="start" x="7.5" y="-67.5" font-family="Helvetica,sans-Serif" font-size="10.00">Lang.ClassTools.Patterns.</text>
<text text-anchor="start" x="7.5" y="-56.5" font-family="Helvetica,sans-Serif" font-size="10.00">_singleton._Singleton_OnDupRaise</text>
<text text-anchor="middle" x="87" y="-45.5" font-family="Helvetica,sans-Serif" font-size="10.00">Exception</text>
<polyline fill="none" stroke="black" points="-0.5,-38.5 174.5,-38.5 "/>
<text text-anchor="middle" x="87" y="-26.5" font-family="Helvetica,sans-Serif" font-size="10.00"> </text>
<polyline fill="none" stroke="black" points="-0.5,-19.5 174.5,-19.5 "/>
<text text-anchor="start" x="7.5" y="-7.5" font-family="Helvetica,sans-Serif" font-size="10.00">+ __call__()</text>
</g>
<!-- Node2 -->
<g id="node2" class="node"><title>Node2</title>
<g id="a_node2"><a xlink:href="class_lang_1_1_class_tools_1_1_patterns_1_1__singleton_1_1___singleton___abstract.html" target="_top" xlink:title="{Lang.ClassTools.Patterns.\l_singleton._Singleton_Abstract\n||}">
<polygon fill="none" stroke="black" points="10,-117 10,-185 164,-185 164,-117 10,-117"/>
<text text-anchor="start" x="18" y="-173" font-family="Helvetica,sans-Serif" font-size="10.00">Lang.ClassTools.Patterns.</text>
<text text-anchor="middle" x="87" y="-162" font-family="Helvetica,sans-Serif" font-size="10.00">_singleton._Singleton_Abstract</text>
<polyline fill="none" stroke="black" points="10,-155 164,-155 "/>
<text text-anchor="middle" x="87" y="-143" font-family="Helvetica,sans-Serif" font-size="10.00"> </text>
<polyline fill="none" stroke="black" points="10,-136 164,-136 "/>
<text text-anchor="middle" x="87" y="-124" font-family="Helvetica,sans-Serif" font-size="10.00"> </text>
</a>
</g>
</g>
<!-- Node2&#45;&gt;Node1 -->
<g id="edge1" class="edge"><title>Node2&#45;&gt;Node1</title>
<path fill="none" stroke="midnightblue" d="M87,-106.575C87,-97.7367 87,-88.4932 87,-79.8274"/>
<polygon fill="none" stroke="midnightblue" points="83.5001,-106.704 87,-116.704 90.5001,-106.704 83.5001,-106.704"/>
</g>
<!-- Node3 -->
<g id="node3" class="node"><title>Node3</title>
<polygon fill="none" stroke="#bfbfbf" points="19.5,-222.5 19.5,-279.5 154.5,-279.5 154.5,-222.5 19.5,-222.5"/>
<text text-anchor="middle" x="87" y="-267.5" font-family="Helvetica,sans-Serif" font-size="10.00">_SingletonMultitonAbstract</text>
<polyline fill="none" stroke="#bfbfbf" points="19.5,-260.5 154.5,-260.5 "/>
<text text-anchor="middle" x="87" y="-248.5" font-family="Helvetica,sans-Serif" font-size="10.00"> </text>
<polyline fill="none" stroke="#bfbfbf" points="19.5,-241.5 154.5,-241.5 "/>
<text text-anchor="middle" x="87" y="-229.5" font-family="Helvetica,sans-Serif" font-size="10.00"> </text>
</g>
<!-- Node3&#45;&gt;Node2 -->
<g id="edge2" class="edge"><title>Node3&#45;&gt;Node2</title>
<path fill="none" stroke="midnightblue" d="M87,-212.302C87,-203.395 87,-193.961 87,-185.266"/>
<polygon fill="none" stroke="midnightblue" points="83.5001,-212.441 87,-222.441 90.5001,-212.441 83.5001,-212.441"/>
</g>
</g>
</svg>
