<?xml version="1.0" encoding="UTF-8" standalone="no"?>
<!DOCTYPE svg PUBLIC "-//W3C//DTD SVG 1.1//EN"
 "http://www.w3.org/Graphics/SVG/1.1/DTD/svg11.dtd">
<!-- Generated by graphviz version 2.30.1 (20130219.2202)
 -->
<!-- Title: Lang.Struct._OrderedSet.OrderedSet.__getitem__ Pages: 1 -->
<svg width="308pt" height="87pt"
 viewBox="0.00 0.00 308.00 87.00" xmlns="http://www.w3.org/2000/svg" xmlns:xlink="http://www.w3.org/1999/xlink">
<g id="graph0" class="graph" transform="scale(1 1) rotate(0) translate(4 83)">
<title>Lang.Struct._OrderedSet.OrderedSet.__getitem__</title>
<!-- Node1 -->
<g id="node1" class="node"><title>Node1</title>
<polygon fill="#bfbfbf" stroke="black" points="0,-24 0,-54 122,-54 122,-24 0,-24"/>
<text text-anchor="start" x="8" y="-42" font-family="Helvetica,sans-Serif" font-size="10.00">Lang.Struct._OrderedSet.</text>
<text text-anchor="middle" x="61" y="-31" font-family="Helvetica,sans-Serif" font-size="10.00">OrderedSet.__getitem__</text>
</g>
<!-- Node2 -->
<g id="node2" class="node"><title>Node2</title>
<g id="a_node2"><a xlink:href="class_lang_1_1_struct_1_1___ordered_set_1_1_ordered_set.html#ab0705d1a0100c1d113ddb52fbddc5152" target="_top" xlink:title="Lang.Struct._OrderedSet.\lOrderedSet._iterLinks">
<polygon fill="none" stroke="black" points="168,-49 168,-79 290,-79 290,-49 168,-49"/>
<text text-anchor="start" x="176" y="-67" font-family="Helvetica,sans-Serif" font-size="10.00">Lang.Struct._OrderedSet.</text>
<text text-anchor="middle" x="229" y="-56" font-family="Helvetica,sans-Serif" font-size="10.00">OrderedSet._iterLinks</text>
</a>
</g>
</g>
<!-- Node1&#45;&gt;Node2 -->
<g id="edge1" class="edge"><title>Node1&#45;&gt;Node2</title>
<path fill="none" stroke="midnightblue" d="M122.399,-48.0963C133.871,-49.824 145.967,-51.6456 157.714,-53.4148"/>
<polygon fill="midnightblue" stroke="midnightblue" points="157.514,-56.924 167.924,-54.9523 158.556,-50.0021 157.514,-56.924"/>
</g>
<!-- Node3 -->
<g id="node3" class="node"><title>Node3</title>
<g id="a_node3"><a xlink:href="class_lang_1_1_struct_1_1___ordered_set_1_1_ordered_set.html#ab742d8d2e00b307db1314f9d3780f08f" target="_top" xlink:title="Lang.Struct._OrderedSet.\lOrderedSet._getLink_byIndex">
<polygon fill="none" stroke="black" points="158.5,-0 158.5,-30 299.5,-30 299.5,-0 158.5,-0"/>
<text text-anchor="start" x="166.5" y="-18" font-family="Helvetica,sans-Serif" font-size="10.00">Lang.Struct._OrderedSet.</text>
<text text-anchor="middle" x="229" y="-7" font-family="Helvetica,sans-Serif" font-size="10.00">OrderedSet._getLink_byIndex</text>
</a>
</g>
</g>
<!-- Node1&#45;&gt;Node3 -->
<g id="edge2" class="edge"><title>Node1&#45;&gt;Node3</title>
<path fill="none" stroke="midnightblue" d="M122.399,-30.2676C130.795,-29.0538 139.524,-27.7917 148.206,-26.5364"/>
<polygon fill="midnightblue" stroke="midnightblue" points="148.958,-29.9642 158.355,-25.0692 147.957,-23.0362 148.958,-29.9642"/>
</g>
</g>
</svg>
