<?xml version="1.0" encoding="UTF-8" standalone="no"?>
<!DOCTYPE svg PUBLIC "-//W3C//DTD SVG 1.1//EN"
 "http://www.w3.org/Graphics/SVG/1.1/DTD/svg11.dtd">
<!-- Generated by graphviz version 2.36.0 (20140111.2315)
 -->
<!-- Title: Lang.Terminal.ArgParser.ActionsContainer Pages: 1 -->
<svg width="150pt" height="288pt"
 viewBox="0.00 0.00 150.00 288.00" xmlns="http://www.w3.org/2000/svg" xmlns:xlink="http://www.w3.org/1999/xlink">
<g id="graph0" class="graph" transform="scale(1 1) rotate(0) translate(4 284)">
<title>Lang.Terminal.ArgParser.ActionsContainer</title>
<!-- Node1 -->
<g id="node1" class="node"><title>Node1</title>
<polygon fill="#bfbfbf" stroke="black" points="5.5,-117 5.5,-185 136.5,-185 136.5,-117 5.5,-117"/>
<text text-anchor="start" x="13.5" y="-173" font-family="Helvetica,sans-Serif" font-size="10.00">Lang.Terminal.ArgParser.</text>
<text text-anchor="middle" x="71" y="-162" font-family="Helvetica,sans-Serif" font-size="10.00">ActionsContainer</text>
<polyline fill="none" stroke="black" points="5.5,-155 136.5,-155 "/>
<text text-anchor="middle" x="71" y="-143" font-family="Helvetica,sans-Serif" font-size="10.00"> </text>
<polyline fill="none" stroke="black" points="5.5,-136 136.5,-136 "/>
<text text-anchor="start" x="13.5" y="-124" font-family="Helvetica,sans-Serif" font-size="10.00">+ add_argument()</text>
</g>
<!-- Node3 -->
<g id="node3" class="node"><title>Node3</title>
<g id="a_node3"><a xlink:href="class_lang_1_1_terminal_1_1_arg_parser_1_1_arg_parser.html" target="_top" xlink:title="Supports positional arguments, named required arguments, and named optional arguments, with help in man&#45;page&#45;like format. ">
<polygon fill="none" stroke="black" points="5.5,-0.5 5.5,-79.5 136.5,-79.5 136.5,-0.5 5.5,-0.5"/>
<text text-anchor="start" x="13.5" y="-67.5" font-family="Helvetica,sans-Serif" font-size="10.00">Lang.Terminal.ArgParser.</text>
<text text-anchor="middle" x="71" y="-56.5" font-family="Helvetica,sans-Serif" font-size="10.00">ArgParser</text>
<polyline fill="none" stroke="black" points="5.5,-49.5 136.5,-49.5 "/>
<text text-anchor="middle" x="71" y="-37.5" font-family="Helvetica,sans-Serif" font-size="10.00"> </text>
<polyline fill="none" stroke="black" points="5.5,-30.5 136.5,-30.5 "/>
<text text-anchor="start" x="13.5" y="-18.5" font-family="Helvetica,sans-Serif" font-size="10.00">+ __init__()</text>
<text text-anchor="start" x="13.5" y="-7.5" font-family="Helvetica,sans-Serif" font-size="10.00">+ error()</text>
</a>
</g>
</g>
<!-- Node1&#45;&gt;Node3 -->
<g id="edge2" class="edge"><title>Node1&#45;&gt;Node3</title>
<path fill="none" stroke="midnightblue" d="M71,-106.575C71,-97.7367 71,-88.4932 71,-79.8274"/>
<polygon fill="none" stroke="midnightblue" points="67.5001,-106.704 71,-116.704 74.5001,-106.704 67.5001,-106.704"/>
</g>
<!-- Node2 -->
<g id="node2" class="node"><title>Node2</title>
<polygon fill="none" stroke="#bfbfbf" points="-0.5,-222.5 -0.5,-279.5 142.5,-279.5 142.5,-222.5 -0.5,-222.5"/>
<text text-anchor="middle" x="71" y="-267.5" font-family="Helvetica,sans-Serif" font-size="10.00">argparse::_ActionsContainer</text>
<polyline fill="none" stroke="#bfbfbf" points="-0.5,-260.5 142.5,-260.5 "/>
<text text-anchor="middle" x="71" y="-248.5" font-family="Helvetica,sans-Serif" font-size="10.00"> </text>
<polyline fill="none" stroke="#bfbfbf" points="-0.5,-241.5 142.5,-241.5 "/>
<text text-anchor="middle" x="71" y="-229.5" font-family="Helvetica,sans-Serif" font-size="10.00"> </text>
</g>
<!-- Node2&#45;&gt;Node1 -->
<g id="edge1" class="edge"><title>Node2&#45;&gt;Node1</title>
<path fill="none" stroke="midnightblue" d="M71,-212.302C71,-203.395 71,-193.961 71,-185.266"/>
<polygon fill="none" stroke="midnightblue" points="67.5001,-212.441 71,-222.441 74.5001,-212.441 67.5001,-212.441"/>
</g>
</g>
</svg>
