<?xml version="1.0" encoding="UTF-8" standalone="no"?>
<!DOCTYPE svg PUBLIC "-//W3C//DTD SVG 1.1//EN"
 "http://www.w3.org/Graphics/SVG/1.1/DTD/svg11.dtd">
<!-- Generated by graphviz version 2.36.0 (20140111.2315)
 -->
<!-- Title: Lang.Terminal._table.Table.addRow Pages: 1 -->
<svg width="364pt" height="87pt"
 viewBox="0.00 0.00 364.00 87.00" xmlns="http://www.w3.org/2000/svg" xmlns:xlink="http://www.w3.org/1999/xlink">
<g id="graph0" class="graph" transform="scale(1 1) rotate(0) translate(4 83)">
<title>Lang.Terminal._table.Table.addRow</title>
<!-- Node1 -->
<g id="node1" class="node"><title>Node1</title>
<polygon fill="#bfbfbf" stroke="black" points="0,-29.5 0,-48.5 178,-48.5 178,-29.5 0,-29.5"/>
<text text-anchor="middle" x="89" y="-36.5" font-family="Helvetica,sans-Serif" font-size="10.00">Lang.Terminal._table.Table.addRow</text>
</g>
<!-- Node2 -->
<g id="node2" class="node"><title>Node2</title>
<g id="a_node2"><a xlink:href="class_lang_1_1_terminal_1_1__table_1_1_table.html#a3b83d08a729e58bd6e107351d3c8dff1" target="_top" xlink:title="Lang.Terminal._table.Table.\l_updateColMaxLens">
<polygon fill="none" stroke="black" points="214.5,-49 214.5,-79 355.5,-79 355.5,-49 214.5,-49"/>
<text text-anchor="start" x="222.5" y="-67" font-family="Helvetica,sans-Serif" font-size="10.00">Lang.Terminal._table.Table.</text>
<text text-anchor="middle" x="285" y="-56" font-family="Helvetica,sans-Serif" font-size="10.00">_updateColMaxLens</text>
</a>
</g>
</g>
<!-- Node1&#45;&gt;Node2 -->
<g id="edge1" class="edge"><title>Node1&#45;&gt;Node2</title>
<path fill="none" stroke="midnightblue" d="M163.897,-48.5227C177.122,-50.2271 190.957,-52.0099 204.336,-53.7341"/>
<polygon fill="midnightblue" stroke="midnightblue" points="204.096,-57.232 214.461,-55.0388 204.991,-50.2894 204.096,-57.232"/>
</g>
<!-- Node3 -->
<g id="node3" class="node"><title>Node3</title>
<g id="a_node3"><a xlink:href="class_lang_1_1_terminal_1_1__table_1_1_table.html#a57e440a49f4ea6b9fe08ba533ef3935c" target="_top" xlink:title="On the fly computation for maximum length of columns. ">
<polygon fill="none" stroke="black" points="214.5,-0 214.5,-30 355.5,-30 355.5,-0 214.5,-0"/>
<text text-anchor="start" x="222.5" y="-18" font-family="Helvetica,sans-Serif" font-size="10.00">Lang.Terminal._table.Table.</text>
<text text-anchor="middle" x="285" y="-7" font-family="Helvetica,sans-Serif" font-size="10.00">_computeColMaxLen</text>
</a>
</g>
</g>
<!-- Node1&#45;&gt;Node3 -->
<g id="edge2" class="edge"><title>Node1&#45;&gt;Node3</title>
<path fill="none" stroke="midnightblue" d="M166.953,-29.4801C179.184,-27.9669 191.861,-26.3987 204.157,-24.8774"/>
<polygon fill="midnightblue" stroke="midnightblue" points="204.884,-28.3143 214.379,-23.6129 204.025,-21.3672 204.884,-28.3143"/>
</g>
</g>
</svg>
