<?xml version="1.0" encoding="UTF-8" standalone="no"?>
<!DOCTYPE svg PUBLIC "-//W3C//DTD SVG 1.1//EN"
 "http://www.w3.org/Graphics/SVG/1.1/DTD/svg11.dtd">
<!-- Generated by graphviz version 2.36.0 (20140111.2315)
 -->
<!-- Title: Lang.Diff._BlockMismatch Pages: 1 -->
<svg width="140pt" height="382pt"
 viewBox="0.00 0.00 140.00 382.00" xmlns="http://www.w3.org/2000/svg" xmlns:xlink="http://www.w3.org/1999/xlink">
<g id="graph0" class="graph" transform="scale(1 1) rotate(0) translate(4 378)">
<title>Lang.Diff._BlockMismatch</title>
<!-- Node1 -->
<g id="node1" class="node"><title>Node1</title>
<polygon fill="#bfbfbf" stroke="black" points="0,-0.5 0,-57.5 132,-57.5 132,-0.5 0,-0.5"/>
<text text-anchor="middle" x="66" y="-45.5" font-family="Helvetica,sans-Serif" font-size="10.00">Lang.Diff._BlockMismatch</text>
<polyline fill="none" stroke="black" points="0,-38.5 132,-38.5 "/>
<text text-anchor="middle" x="66" y="-26.5" font-family="Helvetica,sans-Serif" font-size="10.00"> </text>
<polyline fill="none" stroke="black" points="0,-19.5 132,-19.5 "/>
<text text-anchor="start" x="8" y="-7.5" font-family="Helvetica,sans-Serif" font-size="10.00">+ __init__()</text>
</g>
<!-- Node2 -->
<g id="node2" class="node"><title>Node2</title>
<g id="a_node2"><a xlink:href="class_lang_1_1_diff_1_1___block.html" target="_top" xlink:title="{Lang.Diff._Block\n||}">
<polygon fill="none" stroke="black" points="21.5,-94.5 21.5,-151.5 110.5,-151.5 110.5,-94.5 21.5,-94.5"/>
<text text-anchor="middle" x="66" y="-139.5" font-family="Helvetica,sans-Serif" font-size="10.00">Lang.Diff._Block</text>
<polyline fill="none" stroke="black" points="21.5,-132.5 110.5,-132.5 "/>
<text text-anchor="middle" x="66" y="-120.5" font-family="Helvetica,sans-Serif" font-size="10.00"> </text>
<polyline fill="none" stroke="black" points="21.5,-113.5 110.5,-113.5 "/>
<text text-anchor="middle" x="66" y="-101.5" font-family="Helvetica,sans-Serif" font-size="10.00"> </text>
</a>
</g>
</g>
<!-- Node2&#45;&gt;Node1 -->
<g id="edge1" class="edge"><title>Node2&#45;&gt;Node1</title>
<path fill="none" stroke="midnightblue" d="M66,-84.2092C66,-75.2929 66,-65.9513 66,-57.5836"/>
<polygon fill="none" stroke="midnightblue" points="62.5001,-84.3969 66,-94.397 69.5001,-84.397 62.5001,-84.3969"/>
</g>
<!-- Node3 -->
<g id="node3" class="node"><title>Node3</title>
<g id="a_node3"><a xlink:href="class_lang_1_1_diff_1_1___two_side.html" target="_top" xlink:title="{Lang.Diff._TwoSide\n|+ a\l+ b\l|+ __init__()\l+ __str__()\l+ __repr__()\l}">
<polygon fill="none" stroke="black" points="14,-189 14,-279 118,-279 118,-189 14,-189"/>
<text text-anchor="middle" x="66" y="-267" font-family="Helvetica,sans-Serif" font-size="10.00">Lang.Diff._TwoSide</text>
<polyline fill="none" stroke="black" points="14,-260 118,-260 "/>
<text text-anchor="start" x="22" y="-248" font-family="Helvetica,sans-Serif" font-size="10.00">+ a</text>
<text text-anchor="start" x="22" y="-237" font-family="Helvetica,sans-Serif" font-size="10.00">+ b</text>
<polyline fill="none" stroke="black" points="14,-230 118,-230 "/>
<text text-anchor="start" x="22" y="-218" font-family="Helvetica,sans-Serif" font-size="10.00">+ __init__()</text>
<text text-anchor="start" x="22" y="-207" font-family="Helvetica,sans-Serif" font-size="10.00">+ __str__()</text>
<text text-anchor="start" x="22" y="-196" font-family="Helvetica,sans-Serif" font-size="10.00">+ __repr__()</text>
</a>
</g>
</g>
<!-- Node3&#45;&gt;Node2 -->
<g id="edge2" class="edge"><title>Node3&#45;&gt;Node2</title>
<path fill="none" stroke="midnightblue" d="M66,-178.792C66,-169.35 66,-159.896 66,-151.564"/>
<polygon fill="none" stroke="midnightblue" points="62.5001,-178.98 66,-188.98 69.5001,-178.98 62.5001,-178.98"/>
</g>
<!-- Node4 -->
<g id="node4" class="node"><title>Node4</title>
<g id="a_node4"><a xlink:href="classobject.html" target="_top" xlink:title="{object\n||}">
<polygon fill="none" stroke="black" points="44.5,-316.5 44.5,-373.5 87.5,-373.5 87.5,-316.5 44.5,-316.5"/>
<text text-anchor="middle" x="66" y="-361.5" font-family="Helvetica,sans-Serif" font-size="10.00">object</text>
<polyline fill="none" stroke="black" points="44.5,-354.5 87.5,-354.5 "/>
<text text-anchor="middle" x="66" y="-342.5" font-family="Helvetica,sans-Serif" font-size="10.00"> </text>
<polyline fill="none" stroke="black" points="44.5,-335.5 87.5,-335.5 "/>
<text text-anchor="middle" x="66" y="-323.5" font-family="Helvetica,sans-Serif" font-size="10.00"> </text>
</a>
</g>
</g>
<!-- Node4&#45;&gt;Node3 -->
<g id="edge3" class="edge"><title>Node4&#45;&gt;Node3</title>
<path fill="none" stroke="midnightblue" d="M66,-306.484C66,-297.643 66,-288.139 66,-279.04"/>
<polygon fill="none" stroke="midnightblue" points="62.5001,-306.495 66,-316.495 69.5001,-306.495 62.5001,-306.495"/>
</g>
</g>
</svg>
