<?xml version="1.0" encoding="UTF-8" standalone="no"?>
<!DOCTYPE svg PUBLIC "-//W3C//DTD SVG 1.1//EN"
 "http://www.w3.org/Graphics/SVG/1.1/DTD/svg11.dtd">
<!-- Generated by graphviz version 2.30.1 (20130219.2202)
 -->
<!-- Title: Lang.Diff.SequenceMatcher Pages: 1 -->
<svg width="168pt" height="282pt"
 viewBox="0.00 0.00 168.00 282.00" xmlns="http://www.w3.org/2000/svg" xmlns:xlink="http://www.w3.org/1999/xlink">
<g id="graph0" class="graph" transform="scale(1 1) rotate(0) translate(4 278)">
<title>Lang.Diff.SequenceMatcher</title>
<!-- Node1 -->
<g id="node1" class="node"><title>Node1</title>
<polygon fill="#bfbfbf" stroke="black" points="26,-1 26,-179 160,-179 160,-1 26,-1"/>
<text text-anchor="middle" x="93" y="-167" font-family="Helvetica,sans-Serif" font-size="10.00">Lang.Diff.SequenceMatcher</text>
<polyline fill="none" stroke="black" points="26,-160 160,-160 "/>
<text text-anchor="middle" x="93" y="-148" font-family="Helvetica,sans-Serif" font-size="10.00"> </text>
<polyline fill="none" stroke="black" points="26,-141 160,-141 "/>
<text text-anchor="start" x="34" y="-129" font-family="Helvetica,sans-Serif" font-size="10.00">+ __init__()</text>
<text text-anchor="start" x="34" y="-118" font-family="Helvetica,sans-Serif" font-size="10.00">+ ratio()</text>
<text text-anchor="start" x="34" y="-107" font-family="Helvetica,sans-Serif" font-size="10.00">+ get_matching_blocks()</text>
<text text-anchor="start" x="34" y="-96" font-family="Helvetica,sans-Serif" font-size="10.00">+ get_mismatching_blocks()</text>
<text text-anchor="start" x="34" y="-85" font-family="Helvetica,sans-Serif" font-size="10.00">+ get_matching_elems()</text>
<text text-anchor="start" x="34" y="-74" font-family="Helvetica,sans-Serif" font-size="10.00">+ get_matching_elems</text>
<text text-anchor="start" x="34" y="-63" font-family="Helvetica,sans-Serif" font-size="10.00">_useOnce()</text>
<text text-anchor="start" x="34" y="-52" font-family="Helvetica,sans-Serif" font-size="10.00">+ get_mismatching_elems()</text>
<text text-anchor="start" x="34" y="-41" font-family="Helvetica,sans-Serif" font-size="10.00">+ get_mismatching_elems</text>
<text text-anchor="start" x="34" y="-30" font-family="Helvetica,sans-Serif" font-size="10.00">_useOnce()</text>
<text text-anchor="start" x="34" y="-19" font-family="Helvetica,sans-Serif" font-size="10.00">+ get_matching()</text>
<text text-anchor="start" x="34" y="-8" font-family="Helvetica,sans-Serif" font-size="10.00">+ get_mismatching()</text>
</g>
<!-- Node2 -->
<g id="node2" class="node"><title>Node2</title>
<g id="a_node2"><a xlink:href="class___sequence_matcher.html" target="_top" xlink:title="{_SequenceMatcher\n||}">
<polygon fill="none" stroke="black" points="0,-216.5 0,-273.5 98,-273.5 98,-216.5 0,-216.5"/>
<text text-anchor="middle" x="49" y="-261.5" font-family="Helvetica,sans-Serif" font-size="10.00">_SequenceMatcher</text>
<polyline fill="none" stroke="black" points="0,-254.5 98,-254.5 "/>
<text text-anchor="middle" x="49" y="-242.5" font-family="Helvetica,sans-Serif" font-size="10.00"> </text>
<polyline fill="none" stroke="black" points="0,-235.5 98,-235.5 "/>
<text text-anchor="middle" x="49" y="-223.5" font-family="Helvetica,sans-Serif" font-size="10.00"> </text>
</a>
</g>
</g>
<!-- Node2&#45;&gt;Node1 -->
<g id="edge1" class="edge"><title>Node2&#45;&gt;Node1</title>
<path fill="none" stroke="midnightblue" d="M59.8,-206.445C62.2329,-197.986 64.9149,-188.66 67.6682,-179.086"/>
<polygon fill="none" stroke="midnightblue" points="56.3683,-205.715 56.9681,-216.293 63.0956,-207.65 56.3683,-205.715"/>
</g>
<!-- Node3 -->
<g id="node3" class="node"><title>Node3</title>
<g id="a_node3"><a xlink:href="classobject.html" target="_top" xlink:title="{object\n||}">
<polygon fill="none" stroke="black" points="116,-216.5 116,-273.5 158,-273.5 158,-216.5 116,-216.5"/>
<text text-anchor="middle" x="137" y="-261.5" font-family="Helvetica,sans-Serif" font-size="10.00">object</text>
<polyline fill="none" stroke="black" points="116,-254.5 158,-254.5 "/>
<text text-anchor="middle" x="137" y="-242.5" font-family="Helvetica,sans-Serif" font-size="10.00"> </text>
<polyline fill="none" stroke="black" points="116,-235.5 158,-235.5 "/>
<text text-anchor="middle" x="137" y="-223.5" font-family="Helvetica,sans-Serif" font-size="10.00"> </text>
</a>
</g>
</g>
<!-- Node3&#45;&gt;Node1 -->
<g id="edge2" class="edge"><title>Node3&#45;&gt;Node1</title>
<path fill="none" stroke="midnightblue" d="M126.2,-206.445C123.767,-197.986 121.085,-188.66 118.332,-179.086"/>
<polygon fill="none" stroke="midnightblue" points="122.904,-207.65 129.032,-216.293 129.632,-205.715 122.904,-207.65"/>
</g>
</g>
</svg>
