<?xml version="1.0" encoding="UTF-8" standalone="no"?>
<!DOCTYPE svg PUBLIC "-//W3C//DTD SVG 1.1//EN"
 "http://www.w3.org/Graphics/SVG/1.1/DTD/svg11.dtd">
<!-- Generated by graphviz version 2.36.0 (20140111.2315)
 -->
<!-- Title: Lang.Concurrency.abstract.LockSemaphore.__enter__ Pages: 1 -->
<svg width="970pt" height="162pt"
 viewBox="0.00 0.00 970.00 162.00" xmlns="http://www.w3.org/2000/svg" xmlns:xlink="http://www.w3.org/1999/xlink">
<g id="graph0" class="graph" transform="scale(1 1) rotate(0) translate(4 158)">
<title>Lang.Concurrency.abstract.LockSemaphore.__enter__</title>
<!-- Node1 -->
<g id="node1" class="node"><title>Node1</title>
<polygon fill="#bfbfbf" stroke="black" points="0.5,-50 0.5,-80 139.5,-80 139.5,-50 0.5,-50"/>
<text text-anchor="start" x="8.5" y="-68" font-family="Helvetica,sans-Serif" font-size="10.00">Lang.Concurrency.abstract.</text>
<text text-anchor="middle" x="70" y="-57" font-family="Helvetica,sans-Serif" font-size="10.00">LockSemaphore.__enter__</text>
</g>
<!-- Node2 -->
<g id="node2" class="node"><title>Node2</title>
<g id="a_node2"><a xlink:href="class_lang_1_1_concurrency_1_1abstract_1_1_lock_semaphore.html#a8ee5b3958b78376c28c0e54eb5a0b534" target="_top" xlink:title="*args and **kwargs are for optional/implementation specific parameters. ">
<polygon fill="none" stroke="black" points="176.5,-50 176.5,-80 315.5,-80 315.5,-50 176.5,-50"/>
<text text-anchor="start" x="184.5" y="-68" font-family="Helvetica,sans-Serif" font-size="10.00">Lang.Concurrency.abstract.</text>
<text text-anchor="middle" x="246" y="-57" font-family="Helvetica,sans-Serif" font-size="10.00">LockSemaphore.acquire</text>
</a>
</g>
</g>
<!-- Node1&#45;&gt;Node2 -->
<g id="edge1" class="edge"><title>Node1&#45;&gt;Node2</title>
<path fill="none" stroke="midnightblue" d="M139.769,-65C148.44,-65 157.364,-65 166.176,-65"/>
<polygon fill="midnightblue" stroke="midnightblue" points="166.445,-68.5001 176.445,-65 166.445,-61.5001 166.445,-68.5001"/>
</g>
<!-- Node3 -->
<g id="node3" class="node"><title>Node3</title>
<g id="a_node3"><a xlink:href="class_lang_1_1_concurrency_1_1abstract_1_1_lock_semaphore.html#a1a48c3f86e145ca6e6bba4b8b9b126ab" target="_top" xlink:title="Lang.Concurrency.abstract.\lLockSemaphore.hasAvailableSlot">
<polygon fill="none" stroke="black" points="352,-99 352,-129 518,-129 518,-99 352,-99"/>
<text text-anchor="start" x="360" y="-117" font-family="Helvetica,sans-Serif" font-size="10.00">Lang.Concurrency.abstract.</text>
<text text-anchor="middle" x="435" y="-106" font-family="Helvetica,sans-Serif" font-size="10.00">LockSemaphore.hasAvailableSlot</text>
</a>
</g>
</g>
<!-- Node2&#45;&gt;Node3 -->
<g id="edge2" class="edge"><title>Node2&#45;&gt;Node3</title>
<path fill="none" stroke="midnightblue" d="M304.377,-80.0346C324.122,-85.2083 346.406,-91.0475 366.858,-96.4066"/>
<polygon fill="midnightblue" stroke="midnightblue" points="366.171,-99.8447 376.731,-98.9938 367.945,-93.0733 366.171,-99.8447"/>
</g>
<!-- Node7 -->
<g id="node7" class="node"><title>Node7</title>
<g id="a_node7"><a xlink:href="class_lang_1_1_concurrency_1_1___threading_1_1___threading_adapter.html#ac470982a3ad9bb7834850c351f270293" target="_top" xlink:title="http://docs.python.org/2/library/threading.html#threading.Lock.acquire ">
<polygon fill="none" stroke="black" points="358,-50 358,-80 512,-80 512,-50 358,-50"/>
<text text-anchor="start" x="366" y="-68" font-family="Helvetica,sans-Serif" font-size="10.00">Lang.Concurrency._Threading.</text>
<text text-anchor="middle" x="435" y="-57" font-family="Helvetica,sans-Serif" font-size="10.00">_ThreadingAdapter._acquire</text>
</a>
</g>
</g>
<!-- Node2&#45;&gt;Node7 -->
<g id="edge6" class="edge"><title>Node2&#45;&gt;Node7</title>
<path fill="none" stroke="midnightblue" d="M315.57,-65C325.997,-65 336.87,-65 347.617,-65"/>
<polygon fill="midnightblue" stroke="midnightblue" points="347.864,-68.5001 357.864,-65 347.864,-61.5001 347.864,-68.5001"/>
</g>
<!-- Node8 -->
<g id="node8" class="node"><title>Node8</title>
<g id="a_node8"><a xlink:href="class_lang_1_1_concurrency_1_1abstract_1_1_lock_semaphore.html#a252560d171d768f5e501419e2f496572" target="_top" xlink:title="Lang.Concurrency.abstract.\lLockSemaphore._acquire">
<polygon fill="none" stroke="black" points="365.5,-1 365.5,-31 504.5,-31 504.5,-1 365.5,-1"/>
<text text-anchor="start" x="373.5" y="-19" font-family="Helvetica,sans-Serif" font-size="10.00">Lang.Concurrency.abstract.</text>
<text text-anchor="middle" x="435" y="-8" font-family="Helvetica,sans-Serif" font-size="10.00">LockSemaphore._acquire</text>
</a>
</g>
</g>
<!-- Node2&#45;&gt;Node8 -->
<g id="edge7" class="edge"><title>Node2&#45;&gt;Node8</title>
<path fill="none" stroke="midnightblue" d="M304.377,-49.9654C324.122,-44.7917 346.406,-38.9525 366.858,-33.5934"/>
<polygon fill="midnightblue" stroke="midnightblue" points="367.945,-36.9267 376.731,-31.0062 366.171,-30.1553 367.945,-36.9267"/>
</g>
<!-- Node4 -->
<g id="node4" class="node"><title>Node4</title>
<g id="a_node4"><a xlink:href="class_lang_1_1_concurrency_1_1abstract_1_1_lock_semaphore.html#afa66446fed0a299bb0fa6764fff0491f" target="_top" xlink:title="Lang.Concurrency.abstract.\lLockSemaphore.getSlotsAvailable">
<polygon fill="none" stroke="black" points="554.5,-99 554.5,-129 723.5,-129 723.5,-99 554.5,-99"/>
<text text-anchor="start" x="562.5" y="-117" font-family="Helvetica,sans-Serif" font-size="10.00">Lang.Concurrency.abstract.</text>
<text text-anchor="middle" x="639" y="-106" font-family="Helvetica,sans-Serif" font-size="10.00">LockSemaphore.getSlotsAvailable</text>
</a>
</g>
</g>
<!-- Node3&#45;&gt;Node4 -->
<g id="edge3" class="edge"><title>Node3&#45;&gt;Node4</title>
<path fill="none" stroke="midnightblue" d="M518.161,-114C526.718,-114 535.463,-114 544.137,-114"/>
<polygon fill="midnightblue" stroke="midnightblue" points="544.271,-117.5 554.271,-114 544.271,-110.5 544.271,-117.5"/>
</g>
<!-- Node5 -->
<g id="node5" class="node"><title>Node5</title>
<g id="a_node5"><a xlink:href="class_lang_1_1_concurrency_1_1abstract_1_1_lock_semaphore.html#aaa6946939da1ab97dfab3f19bde29a83" target="_top" xlink:title="Lang.Concurrency.abstract.\lLockSemaphore.getMaxSlots">
<polygon fill="none" stroke="black" points="787.5,-124 787.5,-154 934.5,-154 934.5,-124 787.5,-124"/>
<text text-anchor="start" x="795.5" y="-142" font-family="Helvetica,sans-Serif" font-size="10.00">Lang.Concurrency.abstract.</text>
<text text-anchor="middle" x="861" y="-131" font-family="Helvetica,sans-Serif" font-size="10.00">LockSemaphore.getMaxSlots</text>
</a>
</g>
</g>
<!-- Node4&#45;&gt;Node5 -->
<g id="edge4" class="edge"><title>Node4&#45;&gt;Node5</title>
<path fill="none" stroke="midnightblue" d="M723.8,-123.523C741.259,-125.507 759.654,-127.597 777.081,-129.577"/>
<polygon fill="midnightblue" stroke="midnightblue" points="776.884,-133.077 787.216,-130.729 777.675,-126.122 776.884,-133.077"/>
</g>
<!-- Node6 -->
<g id="node6" class="node"><title>Node6</title>
<g id="a_node6"><a xlink:href="class_lang_1_1_concurrency_1_1abstract_1_1_lock_semaphore.html#a7d464e01bf7681e74ad8190af1c362f2" target="_top" xlink:title="Lang.Concurrency.abstract.\lLockSemaphore.getSlotsTakenByAnyone">
<polygon fill="none" stroke="black" points="760,-75 760,-105 962,-105 962,-75 760,-75"/>
<text text-anchor="start" x="768" y="-93" font-family="Helvetica,sans-Serif" font-size="10.00">Lang.Concurrency.abstract.</text>
<text text-anchor="middle" x="861" y="-82" font-family="Helvetica,sans-Serif" font-size="10.00">LockSemaphore.getSlotsTakenByAnyone</text>
</a>
</g>
</g>
<!-- Node4&#45;&gt;Node6 -->
<g id="edge5" class="edge"><title>Node4&#45;&gt;Node6</title>
<path fill="none" stroke="midnightblue" d="M723.8,-104.858C732.266,-103.935 740.952,-102.987 749.641,-102.039"/>
<polygon fill="midnightblue" stroke="midnightblue" points="750.267,-105.492 759.829,-100.928 749.508,-98.533 750.267,-105.492"/>
</g>
</g>
</svg>
