<?xml version="1.0" encoding="UTF-8" standalone="no"?>
<!DOCTYPE svg PUBLIC "-//W3C//DTD SVG 1.1//EN"
 "http://www.w3.org/Graphics/SVG/1.1/DTD/svg11.dtd">
<!-- Generated by graphviz version 2.30.1 (20130219.2202)
 -->
<!-- Title: Lang.Diff._TwoSide Pages: 1 -->
<!--zoomable 404 -->
<svg id="main" version="1.1" xmlns="http://www.w3.org/2000/svg" xmlns:xlink="http://www.w3.org/1999/xlink" xml:space="preserve" onload="init(evt)">
        <defs>
                <circle id="rim" cx="0" cy="0" r="7"/>
                <circle id="rim2" cx="0" cy="0" r="3.5"/>
                <g id="zoomPlus">
                        <use xlink:href="#rim" fill="#404040">
                                <set attributeName="fill" to="#808080" begin="zoomplus.mouseover" end="zoomplus.mouseout"/>
                        </use>
                        <path d="M-4,0h8M0,-4v8" fill="none" stroke="white" stroke-width="1.5" pointer-events="none"/>
                </g>
                <g id="zoomMin">
                        <use xlink:href="#rim" fill="#404040">
                                <set attributeName="fill" to="#808080" begin="zoomminus.mouseover" end="zoomminus.mouseout"/>
                        </use>
                        <path d="M-4,0h8" fill="none" stroke="white" stroke-width="1.5" pointer-events="none"/>
                </g>
                <g id="dirArrow">
                        <path fill="none" stroke="white" stroke-width="1.5" d="M0,-3.0v7 M-2.5,-0.5L0,-3.0L2.5,-0.5"/>
                </g>
               <g id="resetDef">
                       <use xlink:href="#rim2" fill="#404040">
                               <set attributeName="fill" to="#808080" begin="reset.mouseover" end="reset.mouseout"/>
                       </use>
               </g>
        </defs>

<script type="text/javascript">
var viewWidth = 755;
var viewHeight = 404;
var sectionId = 'dynsection-0';
</script>
<script xlink:href="svgpan.js"/>
<svg id="graph" class="graph">
<g id="viewport">
<title>Lang.Diff._TwoSide</title>
<!-- Node1 -->
<g id="node1" class="node"><title>Node1</title>
<polygon fill="#bfbfbf" stroke="black" points="356.5,-211 356.5,-301 455.5,-301 455.5,-211 356.5,-211"/>
<text text-anchor="middle" x="406" y="-289" font-family="Helvetica,sans-Serif" font-size="10.00">Lang.Diff._TwoSide</text>
<polyline fill="none" stroke="black" points="356.5,-282 455.5,-282 "/>
<text text-anchor="start" x="364.5" y="-270" font-family="Helvetica,sans-Serif" font-size="10.00">+ a</text>
<text text-anchor="start" x="364.5" y="-259" font-family="Helvetica,sans-Serif" font-size="10.00">+ b</text>
<polyline fill="none" stroke="black" points="356.5,-252 455.5,-252 "/>
<text text-anchor="start" x="364.5" y="-240" font-family="Helvetica,sans-Serif" font-size="10.00">+ __init__()</text>
<text text-anchor="start" x="364.5" y="-229" font-family="Helvetica,sans-Serif" font-size="10.00">+ __str__()</text>
<text text-anchor="start" x="364.5" y="-218" font-family="Helvetica,sans-Serif" font-size="10.00">+ __repr__()</text>
</g>
<!-- Node3 -->
<g id="node3" class="node"><title>Node3</title>
<g id="a_node3"><a xlink:href="class_lang_1_1_diff_1_1___block.html" target="_top" xlink:title="{Lang.Diff._Block\n||}">
<polygon fill="none" stroke="black" points="81,-116.5 81,-173.5 165,-173.5 165,-116.5 81,-116.5"/>
<text text-anchor="middle" x="123" y="-161.5" font-family="Helvetica,sans-Serif" font-size="10.00">Lang.Diff._Block</text>
<polyline fill="none" stroke="black" points="81,-154.5 165,-154.5 "/>
<text text-anchor="middle" x="123" y="-142.5" font-family="Helvetica,sans-Serif" font-size="10.00"> </text>
<polyline fill="none" stroke="black" points="81,-135.5 165,-135.5 "/>
<text text-anchor="middle" x="123" y="-123.5" font-family="Helvetica,sans-Serif" font-size="10.00"> </text>
</a>
</g>
</g>
<!-- Node1&#45;&gt;Node3 -->
<g id="edge2" class="edge"><title>Node1&#45;&gt;Node3</title>
<path fill="none" stroke="midnightblue" d="M346.382,-237.198C298.888,-222.302 231.122,-199.441 174,-174 171.047,-172.685 168.036,-171.261 165.027,-169.776"/>
<polygon fill="none" stroke="midnightblue" points="345.61,-240.624 356.199,-240.254 347.691,-233.94 345.61,-240.624"/>
</g>
<!-- Node6 -->
<g id="node6" class="node"><title>Node6</title>
<g id="a_node6"><a xlink:href="class_lang_1_1_diff_1_1___elem_block_match.html" target="_top" xlink:title="{Lang.Diff._ElemBlockMatch\n||}">
<polygon fill="none" stroke="black" points="183.5,-116.5 183.5,-173.5 314.5,-173.5 314.5,-116.5 183.5,-116.5"/>
<text text-anchor="middle" x="249" y="-161.5" font-family="Helvetica,sans-Serif" font-size="10.00">Lang.Diff._ElemBlockMatch</text>
<polyline fill="none" stroke="black" points="183.5,-154.5 314.5,-154.5 "/>
<text text-anchor="middle" x="249" y="-142.5" font-family="Helvetica,sans-Serif" font-size="10.00"> </text>
<polyline fill="none" stroke="black" points="183.5,-135.5 314.5,-135.5 "/>
<text text-anchor="middle" x="249" y="-123.5" font-family="Helvetica,sans-Serif" font-size="10.00"> </text>
</a>
</g>
</g>
<!-- Node1&#45;&gt;Node6 -->
<g id="edge5" class="edge"><title>Node1&#45;&gt;Node6</title>
<path fill="none" stroke="midnightblue" d="M347.992,-214.727C328.247,-201.019 306.643,-186.019 288.668,-173.541"/>
<polygon fill="none" stroke="midnightblue" points="346.114,-217.684 356.324,-220.512 350.106,-211.934 346.114,-217.684"/>
</g>
<!-- Node7 -->
<g id="node7" class="node"><title>Node7</title>
<g id="a_node7"><a xlink:href="class_lang_1_1_diff_1_1___elem_block_mismatch.html" target="_top" xlink:title="{Lang.Diff._ElemBlockMismatch\n||}">
<polygon fill="none" stroke="black" points="333,-116.5 333,-173.5 479,-173.5 479,-116.5 333,-116.5"/>
<text text-anchor="middle" x="406" y="-161.5" font-family="Helvetica,sans-Serif" font-size="10.00">Lang.Diff._ElemBlockMismatch</text>
<polyline fill="none" stroke="black" points="333,-154.5 479,-154.5 "/>
<text text-anchor="middle" x="406" y="-142.5" font-family="Helvetica,sans-Serif" font-size="10.00"> </text>
<polyline fill="none" stroke="black" points="333,-135.5 479,-135.5 "/>
<text text-anchor="middle" x="406" y="-123.5" font-family="Helvetica,sans-Serif" font-size="10.00"> </text>
</a>
</g>
</g>
<!-- Node1&#45;&gt;Node7 -->
<g id="edge6" class="edge"><title>Node1&#45;&gt;Node7</title>
<path fill="none" stroke="midnightblue" d="M406,-200.792C406,-191.35 406,-181.896 406,-173.564"/>
<polygon fill="none" stroke="midnightblue" points="402.5,-200.98 406,-210.98 409.5,-200.98 402.5,-200.98"/>
</g>
<!-- Node8 -->
<g id="node8" class="node"><title>Node8</title>
<g id="a_node8"><a xlink:href="class_lang_1_1_diff_1_1___elem_match.html" target="_top" xlink:title="{Lang.Diff._ElemMatch\n||}">
<polygon fill="none" stroke="black" points="497.5,-116.5 497.5,-173.5 606.5,-173.5 606.5,-116.5 497.5,-116.5"/>
<text text-anchor="middle" x="552" y="-161.5" font-family="Helvetica,sans-Serif" font-size="10.00">Lang.Diff._ElemMatch</text>
<polyline fill="none" stroke="black" points="497.5,-154.5 606.5,-154.5 "/>
<text text-anchor="middle" x="552" y="-142.5" font-family="Helvetica,sans-Serif" font-size="10.00"> </text>
<polyline fill="none" stroke="black" points="497.5,-135.5 606.5,-135.5 "/>
<text text-anchor="middle" x="552" y="-123.5" font-family="Helvetica,sans-Serif" font-size="10.00"> </text>
</a>
</g>
</g>
<!-- Node1&#45;&gt;Node8 -->
<g id="edge7" class="edge"><title>Node1&#45;&gt;Node8</title>
<path fill="none" stroke="midnightblue" d="M464.118,-211.611C481.208,-198.852 499.434,-185.244 514.832,-173.749"/>
<polygon fill="none" stroke="midnightblue" points="461.756,-209.006 455.837,-217.793 465.944,-214.615 461.756,-209.006"/>
</g>
<!-- Node9 -->
<g id="node9" class="node"><title>Node9</title>
<g id="a_node9"><a xlink:href="class_lang_1_1_diff_1_1___elem_mismatch.html" target="_top" xlink:title="{Lang.Diff._ElemMismatch\n||}">
<polygon fill="none" stroke="black" points="624.5,-116.5 624.5,-173.5 747.5,-173.5 747.5,-116.5 624.5,-116.5"/>
<text text-anchor="middle" x="686" y="-161.5" font-family="Helvetica,sans-Serif" font-size="10.00">Lang.Diff._ElemMismatch</text>
<polyline fill="none" stroke="black" points="624.5,-154.5 747.5,-154.5 "/>
<text text-anchor="middle" x="686" y="-142.5" font-family="Helvetica,sans-Serif" font-size="10.00"> </text>
<polyline fill="none" stroke="black" points="624.5,-135.5 747.5,-135.5 "/>
<text text-anchor="middle" x="686" y="-123.5" font-family="Helvetica,sans-Serif" font-size="10.00"> </text>
</a>
</g>
</g>
<!-- Node1&#45;&gt;Node9 -->
<g id="edge8" class="edge"><title>Node1&#45;&gt;Node9</title>
<path fill="none" stroke="midnightblue" d="M465.349,-232.106C507.203,-215.934 564.564,-193.718 615,-174 618.085,-172.794 621.245,-171.556 624.435,-170.305"/>
<polygon fill="none" stroke="midnightblue" points="463.929,-228.902 455.862,-235.771 466.451,-235.432 463.929,-228.902"/>
</g>
<!-- Node2 -->
<g id="node2" class="node"><title>Node2</title>
<g id="a_node2"><a xlink:href="classobject.html" target="_top" xlink:title="{object\n||}">
<polygon fill="none" stroke="black" points="385,-338.5 385,-395.5 427,-395.5 427,-338.5 385,-338.5"/>
<text text-anchor="middle" x="406" y="-383.5" font-family="Helvetica,sans-Serif" font-size="10.00">object</text>
<polyline fill="none" stroke="black" points="385,-376.5 427,-376.5 "/>
<text text-anchor="middle" x="406" y="-364.5" font-family="Helvetica,sans-Serif" font-size="10.00"> </text>
<polyline fill="none" stroke="black" points="385,-357.5 427,-357.5 "/>
<text text-anchor="middle" x="406" y="-345.5" font-family="Helvetica,sans-Serif" font-size="10.00"> </text>
</a>
</g>
</g>
<!-- Node2&#45;&gt;Node1 -->
<g id="edge1" class="edge"><title>Node2&#45;&gt;Node1</title>
<path fill="none" stroke="midnightblue" d="M406,-328.484C406,-319.643 406,-310.139 406,-301.04"/>
<polygon fill="none" stroke="midnightblue" points="402.5,-328.495 406,-338.495 409.5,-328.495 402.5,-328.495"/>
</g>
<!-- Node4 -->
<g id="node4" class="node"><title>Node4</title>
<g id="a_node4"><a xlink:href="class_lang_1_1_diff_1_1___block_match.html" target="_top" xlink:title="{Lang.Diff._BlockMatch\n||+ __init__()\l+ __getattr__()\l+ __getitem__()\l}">
<polygon fill="none" stroke="black" points="0,-0.5 0,-79.5 110,-79.5 110,-0.5 0,-0.5"/>
<text text-anchor="middle" x="55" y="-67.5" font-family="Helvetica,sans-Serif" font-size="10.00">Lang.Diff._BlockMatch</text>
<polyline fill="none" stroke="black" points="0,-60.5 110,-60.5 "/>
<text text-anchor="middle" x="55" y="-48.5" font-family="Helvetica,sans-Serif" font-size="10.00"> </text>
<polyline fill="none" stroke="black" points="0,-41.5 110,-41.5 "/>
<text text-anchor="start" x="8" y="-29.5" font-family="Helvetica,sans-Serif" font-size="10.00">+ __init__()</text>
<text text-anchor="start" x="8" y="-18.5" font-family="Helvetica,sans-Serif" font-size="10.00">+ __getattr__()</text>
<text text-anchor="start" x="8" y="-7.5" font-family="Helvetica,sans-Serif" font-size="10.00">+ __getitem__()</text>
</a>
</g>
</g>
<!-- Node3&#45;&gt;Node4 -->
<g id="edge3" class="edge"><title>Node3&#45;&gt;Node4</title>
<path fill="none" stroke="midnightblue" d="M99.1448,-107.866C93.0894,-98.6942 86.5614,-88.8062 80.431,-79.5205"/>
<polygon fill="none" stroke="midnightblue" points="96.3468,-109.981 104.777,-116.398 102.189,-106.124 96.3468,-109.981"/>
</g>
<!-- Node5 -->
<g id="node5" class="node"><title>Node5</title>
<g id="a_node5"><a xlink:href="class_lang_1_1_diff_1_1___block_mismatch.html" target="_top" xlink:title="{Lang.Diff._BlockMismatch\n||+ __init__()\l}">
<polygon fill="none" stroke="black" points="128.5,-11.5 128.5,-68.5 253.5,-68.5 253.5,-11.5 128.5,-11.5"/>
<text text-anchor="middle" x="191" y="-56.5" font-family="Helvetica,sans-Serif" font-size="10.00">Lang.Diff._BlockMismatch</text>
<polyline fill="none" stroke="black" points="128.5,-49.5 253.5,-49.5 "/>
<text text-anchor="middle" x="191" y="-37.5" font-family="Helvetica,sans-Serif" font-size="10.00"> </text>
<polyline fill="none" stroke="black" points="128.5,-30.5 253.5,-30.5 "/>
<text text-anchor="start" x="136.5" y="-18.5" font-family="Helvetica,sans-Serif" font-size="10.00">+ __init__()</text>
</a>
</g>
</g>
<!-- Node3&#45;&gt;Node5 -->
<g id="edge4" class="edge"><title>Node3&#45;&gt;Node5</title>
<path fill="none" stroke="midnightblue" d="M146.916,-107.774C155.395,-94.931 164.794,-80.695 172.727,-68.6783"/>
<polygon fill="none" stroke="midnightblue" points="143.811,-106.124 141.223,-116.398 149.653,-109.981 143.811,-106.124"/>
</g>
</g>
</svg>
        <g id="navigator" transform="translate(0 0)" fill="#404254">
                <rect fill="#f2f5e9" fill-opacity="0.5" stroke="#606060" stroke-width=".5" x="0" y="0" width="60" height="60"/>
                <use id="zoomplus" xlink:href="#zoomPlus" x="17" y="9" onmousedown="handleZoom(evt,'in')"/>
                <use id="zoomminus" xlink:href="#zoomMin" x="42" y="9" onmousedown="handleZoom(evt,'out')"/>
                <use id="reset" xlink:href="#resetDef" x="30" y="36" onmousedown="handleReset()"/>
                <g id="arrowUp" xlink:href="#dirArrow" transform="translate(30 24)" onmousedown="handlePan(0,-1)">
                  <use xlink:href="#rim" fill="#404040">
                        <set attributeName="fill" to="#808080" begin="arrowUp.mouseover" end="arrowUp.mouseout"/>
                  </use>
                  <path fill="none" stroke="white" stroke-width="1.5" d="M0,-3.0v7 M-2.5,-0.5L0,-3.0L2.5,-0.5"/>
                </g>
                <g id="arrowRight" xlink:href="#dirArrow" transform="rotate(90) translate(36 -43)" onmousedown="handlePan(1,0)">
                  <use xlink:href="#rim" fill="#404040">
                        <set attributeName="fill" to="#808080" begin="arrowRight.mouseover" end="arrowRight.mouseout"/>
                  </use>
                  <path fill="none" stroke="white" stroke-width="1.5" d="M0,-3.0v7 M-2.5,-0.5L0,-3.0L2.5,-0.5"/>
                </g>
                <g id="arrowDown" xlink:href="#dirArrow" transform="rotate(180) translate(-30 -48)" onmousedown="handlePan(0,1)">
                  <use xlink:href="#rim" fill="#404040">
                        <set attributeName="fill" to="#808080" begin="arrowDown.mouseover" end="arrowDown.mouseout"/>
                  </use>
                  <path fill="none" stroke="white" stroke-width="1.5" d="M0,-3.0v7 M-2.5,-0.5L0,-3.0L2.5,-0.5"/>
                </g>
                <g id="arrowLeft" xlink:href="#dirArrow" transform="rotate(270) translate(-36 17)" onmousedown="handlePan(-1,0)">
                  <use xlink:href="#rim" fill="#404040">
                        <set attributeName="fill" to="#808080" begin="arrowLeft.mouseover" end="arrowLeft.mouseout"/>
                  </use>
                  <path fill="none" stroke="white" stroke-width="1.5" d="M0,-3.0v7 M-2.5,-0.5L0,-3.0L2.5,-0.5"/>
                </g>
        </g>
        <svg viewBox="0 0 15 15" width="100%" height="30px" preserveAspectRatio="xMaxYMin meet">
         <g id="arrow_out" transform="scale(0.3 0.3)">
          <a xlink:href="class_lang_1_1_diff_1_1___two_side__inherit__graph_org.svg" target="_base">
           <rect id="button" ry="5" rx="5" y="6" x="6" height="38" width="38"
                fill="#f2f5e9" fill-opacity="0.5" stroke="#606060" stroke-width="1.0"/>
           <path id="arrow"
             d="M 11.500037,31.436501 C 11.940474,20.09759 22.043105,11.32322 32.158766,21.979434 L 37.068811,17.246167 C 37.068811,17.246167 37.088388,32 37.088388,32 L 22.160133,31.978069 C 22.160133,31.978069 26.997745,27.140456 26.997745,27.140456 C 18.528582,18.264221 13.291696,25.230495 11.500037,31.436501 z"
             style="fill:#404040;"/>
          </a>
         </g>
        </svg>
</svg>
