<?xml version="1.0" encoding="UTF-8" standalone="no"?>
<!DOCTYPE svg PUBLIC "-//W3C//DTD SVG 1.1//EN"
 "http://www.w3.org/Graphics/SVG/1.1/DTD/svg11.dtd">
<!-- Generated by graphviz version 2.30.1 (20130219.2202)
 -->
<!-- Title: Lang.Events.Logging.StdoutLogger Pages: 1 -->
<svg width="144pt" height="300pt"
 viewBox="0.00 0.00 144.00 300.00" xmlns="http://www.w3.org/2000/svg" xmlns:xlink="http://www.w3.org/1999/xlink">
<g id="graph0" class="graph" transform="scale(1 1) rotate(0) translate(4 296)">
<title>Lang.Events.Logging.StdoutLogger</title>
<!-- Node1 -->
<g id="node1" class="node"><title>Node1</title>
<polygon fill="#bfbfbf" stroke="black" points="0.5,-1 0.5,-69 135.5,-69 135.5,-1 0.5,-1"/>
<text text-anchor="start" x="8.5" y="-57" font-family="Helvetica,sans-Serif" font-size="10.00">Lang.Events.Logging.Stdout</text>
<text text-anchor="middle" x="68" y="-46" font-family="Helvetica,sans-Serif" font-size="10.00">Logger</text>
<polyline fill="none" stroke="black" points="0.5,-39 135.5,-39 "/>
<text text-anchor="middle" x="68" y="-27" font-family="Helvetica,sans-Serif" font-size="10.00"> </text>
<polyline fill="none" stroke="black" points="0.5,-20 135.5,-20 "/>
<text text-anchor="start" x="8.5" y="-8" font-family="Helvetica,sans-Serif" font-size="10.00">+ __init__()</text>
</g>
<!-- Node2 -->
<g id="node2" class="node"><title>Node2</title>
<g id="a_node2"><a xlink:href="class_lang_1_1_events_1_1_logging_1_1_logger_abstract.html" target="_top" xlink:title="{Lang.Events.Logging.Logger\lAbstract\n|+ minSeverity\l+ execLevel\l|+ __init__()\l+ write()\l}">
<polygon fill="none" stroke="black" points="-0.5,-107 -0.5,-197 136.5,-197 136.5,-107 -0.5,-107"/>
<text text-anchor="start" x="7.5" y="-185" font-family="Helvetica,sans-Serif" font-size="10.00">Lang.Events.Logging.Logger</text>
<text text-anchor="middle" x="68" y="-174" font-family="Helvetica,sans-Serif" font-size="10.00">Abstract</text>
<polyline fill="none" stroke="black" points="-0.5,-167 136.5,-167 "/>
<text text-anchor="start" x="7.5" y="-155" font-family="Helvetica,sans-Serif" font-size="10.00">+ minSeverity</text>
<text text-anchor="start" x="7.5" y="-144" font-family="Helvetica,sans-Serif" font-size="10.00">+ execLevel</text>
<polyline fill="none" stroke="black" points="-0.5,-137 136.5,-137 "/>
<text text-anchor="start" x="7.5" y="-125" font-family="Helvetica,sans-Serif" font-size="10.00">+ __init__()</text>
<text text-anchor="start" x="7.5" y="-114" font-family="Helvetica,sans-Serif" font-size="10.00">+ write()</text>
</a>
</g>
</g>
<!-- Node2&#45;&gt;Node1 -->
<g id="edge1" class="edge"><title>Node2&#45;&gt;Node1</title>
<path fill="none" stroke="midnightblue" d="M68,-96.7309C68,-87.3035 68,-77.7599 68,-69.1181"/>
<polygon fill="none" stroke="midnightblue" points="64.5001,-96.8669 68,-106.867 71.5001,-96.8669 64.5001,-96.8669"/>
</g>
<!-- Node3 -->
<g id="node3" class="node"><title>Node3</title>
<polygon fill="none" stroke="#bfbfbf" points="29,-234.5 29,-291.5 107,-291.5 107,-234.5 29,-234.5"/>
<text text-anchor="middle" x="68" y="-279.5" font-family="Helvetica,sans-Serif" font-size="10.00">EventReceiver</text>
<polyline fill="none" stroke="#bfbfbf" points="29,-272.5 107,-272.5 "/>
<text text-anchor="middle" x="68" y="-260.5" font-family="Helvetica,sans-Serif" font-size="10.00"> </text>
<polyline fill="none" stroke="#bfbfbf" points="29,-253.5 107,-253.5 "/>
<text text-anchor="middle" x="68" y="-241.5" font-family="Helvetica,sans-Serif" font-size="10.00"> </text>
</g>
<!-- Node3&#45;&gt;Node2 -->
<g id="edge2" class="edge"><title>Node3&#45;&gt;Node2</title>
<path fill="none" stroke="midnightblue" d="M68,-224.484C68,-215.643 68,-206.139 68,-197.04"/>
<polygon fill="none" stroke="midnightblue" points="64.5001,-224.495 68,-234.495 71.5001,-224.495 64.5001,-224.495"/>
</g>
</g>
</svg>
