<?xml version="1.0" encoding="UTF-8" standalone="no"?>
<!DOCTYPE svg PUBLIC "-//W3C//DTD SVG 1.1//EN"
 "http://www.w3.org/Graphics/SVG/1.1/DTD/svg11.dtd">
<!-- Generated by graphviz version 2.30.1 (20130219.2202)
 -->
<!-- Title: Lang.Diff.SequenceMatcher.get_mismatching_elems_useOnce Pages: 1 -->
<svg width="524pt" height="136pt"
 viewBox="0.00 0.00 524.00 136.00" xmlns="http://www.w3.org/2000/svg" xmlns:xlink="http://www.w3.org/1999/xlink">
<g id="graph0" class="graph" transform="scale(1 1) rotate(0) translate(4 132)">
<title>Lang.Diff.SequenceMatcher.get_mismatching_elems_useOnce</title>
<!-- Node1 -->
<g id="node1" class="node"><title>Node1</title>
<polygon fill="#bfbfbf" stroke="black" points="0,-73 0,-103 148,-103 148,-73 0,-73"/>
<text text-anchor="start" x="8" y="-91" font-family="Helvetica,sans-Serif" font-size="10.00">Lang.Diff.SequenceMatcher.get</text>
<text text-anchor="middle" x="74" y="-80" font-family="Helvetica,sans-Serif" font-size="10.00">_mismatching_elems_useOnce</text>
</g>
<!-- Node2 -->
<g id="node2" class="node"><title>Node2</title>
<g id="a_node2"><a xlink:href="class_lang_1_1_diff_1_1_sequence_matcher.html#a2346b09e64458b8797a8285136376ff5" target="_top" xlink:title="Lang.Diff.SequenceMatcher.\l_getElems">
<polygon fill="none" stroke="black" points="190.5,-98 190.5,-128 325.5,-128 325.5,-98 190.5,-98"/>
<text text-anchor="start" x="198.5" y="-116" font-family="Helvetica,sans-Serif" font-size="10.00">Lang.Diff.SequenceMatcher.</text>
<text text-anchor="middle" x="258" y="-105" font-family="Helvetica,sans-Serif" font-size="10.00">_getElems</text>
</a>
</g>
</g>
<!-- Node1&#45;&gt;Node2 -->
<g id="edge1" class="edge"><title>Node1&#45;&gt;Node2</title>
<path fill="none" stroke="midnightblue" d="M148.24,-98.0604C158.794,-99.5102 169.68,-101.005 180.299,-102.464"/>
<polygon fill="midnightblue" stroke="midnightblue" points="179.996,-105.955 190.38,-103.849 180.949,-99.0205 179.996,-105.955"/>
</g>
<!-- Node3 -->
<g id="node3" class="node"><title>Node3</title>
<g id="a_node3"><a xlink:href="class_lang_1_1_diff_1_1_sequence_matcher.html#a2f91f89e168c2994d50ee29af7d1c988" target="_top" xlink:title="Lang.Diff.SequenceMatcher.get\l_mismatching_blocks">
<polygon fill="none" stroke="black" points="184,-49 184,-79 332,-79 332,-49 184,-49"/>
<text text-anchor="start" x="192" y="-67" font-family="Helvetica,sans-Serif" font-size="10.00">Lang.Diff.SequenceMatcher.get</text>
<text text-anchor="middle" x="258" y="-56" font-family="Helvetica,sans-Serif" font-size="10.00">_mismatching_blocks</text>
</a>
</g>
</g>
<!-- Node1&#45;&gt;Node3 -->
<g id="edge2" class="edge"><title>Node1&#45;&gt;Node3</title>
<path fill="none" stroke="midnightblue" d="M148.24,-78.342C156.688,-77.228 165.349,-76.0859 173.916,-74.9562"/>
<polygon fill="midnightblue" stroke="midnightblue" points="174.454,-78.4156 183.91,-73.6382 173.538,-71.4757 174.454,-78.4156"/>
</g>
<!-- Node4 -->
<g id="node4" class="node"><title>Node4</title>
<g id="a_node4"><a xlink:href="class_lang_1_1_diff_1_1_sequence_matcher.html#aae18597b82d486839e6b1b9e1d850438" target="_top" xlink:title="Lang.Diff.SequenceMatcher.get\l_matching_blocks">
<polygon fill="none" stroke="black" points="368,-98 368,-128 516,-128 516,-98 368,-98"/>
<text text-anchor="start" x="376" y="-116" font-family="Helvetica,sans-Serif" font-size="10.00">Lang.Diff.SequenceMatcher.get</text>
<text text-anchor="middle" x="442" y="-105" font-family="Helvetica,sans-Serif" font-size="10.00">_matching_blocks</text>
</a>
</g>
</g>
<!-- Node3&#45;&gt;Node4 -->
<g id="edge3" class="edge"><title>Node3&#45;&gt;Node4</title>
<path fill="none" stroke="midnightblue" d="M315.091,-79.1014C334.123,-84.2253 355.555,-89.9956 375.269,-95.3032"/>
<polygon fill="midnightblue" stroke="midnightblue" points="374.528,-98.7283 385.094,-97.9484 376.348,-91.969 374.528,-98.7283"/>
</g>
<!-- Node5 -->
<g id="node5" class="node"><title>Node5</title>
<g id="a_node5"><a xlink:href="class_lang_1_1_diff_1_1_sequence_matcher.html#a7d87778dba05d7442659d922584994ea" target="_top" xlink:title="Lang.Diff.SequenceMatcher.\l_diffSingleSide">
<polygon fill="none" stroke="black" points="374.5,-49 374.5,-79 509.5,-79 509.5,-49 374.5,-49"/>
<text text-anchor="start" x="382.5" y="-67" font-family="Helvetica,sans-Serif" font-size="10.00">Lang.Diff.SequenceMatcher.</text>
<text text-anchor="middle" x="442" y="-56" font-family="Helvetica,sans-Serif" font-size="10.00">_diffSingleSide</text>
</a>
</g>
</g>
<!-- Node3&#45;&gt;Node5 -->
<g id="edge4" class="edge"><title>Node3&#45;&gt;Node5</title>
<path fill="none" stroke="midnightblue" d="M332.24,-64C342.794,-64 353.68,-64 364.299,-64"/>
<polygon fill="midnightblue" stroke="midnightblue" points="364.38,-67.5001 374.38,-64 364.38,-60.5001 364.38,-67.5001"/>
</g>
<!-- Node6 -->
<g id="node6" class="node"><title>Node6</title>
<g id="a_node6"><a xlink:href="class_lang_1_1_diff_1_1_sequence_matcher.html#a180307710206ac883b8f7236bc8ef93a" target="_top" xlink:title="Lang.Diff.SequenceMatcher.\l_blocksToElems">
<polygon fill="none" stroke="black" points="374.5,-0 374.5,-30 509.5,-30 509.5,-0 374.5,-0"/>
<text text-anchor="start" x="382.5" y="-18" font-family="Helvetica,sans-Serif" font-size="10.00">Lang.Diff.SequenceMatcher.</text>
<text text-anchor="middle" x="442" y="-7" font-family="Helvetica,sans-Serif" font-size="10.00">_blocksToElems</text>
</a>
</g>
</g>
<!-- Node3&#45;&gt;Node6 -->
<g id="edge5" class="edge"><title>Node3&#45;&gt;Node6</title>
<path fill="none" stroke="midnightblue" d="M315.091,-48.8986C334.123,-43.7747 355.555,-38.0044 375.269,-32.6968"/>
<polygon fill="midnightblue" stroke="midnightblue" points="376.348,-36.031 385.094,-30.0516 374.528,-29.2717 376.348,-36.031"/>
</g>
</g>
</svg>
