<?xml version="1.0" encoding="UTF-8" standalone="no"?>
<!DOCTYPE svg PUBLIC "-//W3C//DTD SVG 1.1//EN"
 "http://www.w3.org/Graphics/SVG/1.1/DTD/svg11.dtd">
<!-- Generated by graphviz version 2.30.1 (20130219.2202)
 -->
<!-- Title: Lang.ArgParser.ArgParser Pages: 1 -->
<svg width="309pt" height="266pt"
 viewBox="0.00 0.00 309.00 266.00" xmlns="http://www.w3.org/2000/svg" xmlns:xlink="http://www.w3.org/1999/xlink">
<g id="graph0" class="graph" transform="scale(1 1) rotate(0) translate(4 262)">
<title>Lang.ArgParser.ArgParser</title>
<!-- Node1 -->
<g id="node1" class="node"><title>Node1</title>
<polygon fill="#bfbfbf" stroke="black" points="94.5,-1 94.5,-69 221.5,-69 221.5,-1 94.5,-1"/>
<text text-anchor="middle" x="158" y="-57" font-family="Helvetica,sans-Serif" font-size="10.00">Lang.ArgParser.ArgParser</text>
<polyline fill="none" stroke="black" points="94.5,-50 221.5,-50 "/>
<text text-anchor="middle" x="158" y="-38" font-family="Helvetica,sans-Serif" font-size="10.00"> </text>
<polyline fill="none" stroke="black" points="94.5,-31 221.5,-31 "/>
<text text-anchor="start" x="102.5" y="-19" font-family="Helvetica,sans-Serif" font-size="10.00">+ __init__()</text>
<text text-anchor="start" x="102.5" y="-8" font-family="Helvetica,sans-Serif" font-size="10.00">+ error()</text>
</g>
<!-- Node2 -->
<g id="node2" class="node"><title>Node2</title>
<g id="a_node2"><a xlink:href="class_lang_1_1_arg_parser_1_1_actions_container.html" target="_top" xlink:title="{Lang.ArgParser.ActionsContainer\n||+ add_argument()\l}">
<polygon fill="none" stroke="black" points="0,-106.5 0,-163.5 156,-163.5 156,-106.5 0,-106.5"/>
<text text-anchor="middle" x="78" y="-151.5" font-family="Helvetica,sans-Serif" font-size="10.00">Lang.ArgParser.ActionsContainer</text>
<polyline fill="none" stroke="black" points="0,-144.5 156,-144.5 "/>
<text text-anchor="middle" x="78" y="-132.5" font-family="Helvetica,sans-Serif" font-size="10.00"> </text>
<polyline fill="none" stroke="black" points="0,-125.5 156,-125.5 "/>
<text text-anchor="start" x="8" y="-113.5" font-family="Helvetica,sans-Serif" font-size="10.00">+ add_argument()</text>
</a>
</g>
</g>
<!-- Node2&#45;&gt;Node1 -->
<g id="edge1" class="edge"><title>Node2&#45;&gt;Node1</title>
<path fill="none" stroke="midnightblue" d="M106.887,-98.6132C114.701,-89.0414 123.129,-78.7168 130.844,-69.2659"/>
<polygon fill="none" stroke="midnightblue" points="104.11,-96.4808 100.497,-106.441 109.532,-100.907 104.11,-96.4808"/>
</g>
<!-- Node3 -->
<g id="node3" class="node"><title>Node3</title>
<g id="a_node3"><a xlink:href="classargparse_1_1___actions_container.html" target="_top" xlink:title="{argparse::_ActionsContainer\n||}">
<polygon fill="none" stroke="black" points="10,-200.5 10,-257.5 146,-257.5 146,-200.5 10,-200.5"/>
<text text-anchor="middle" x="78" y="-245.5" font-family="Helvetica,sans-Serif" font-size="10.00">argparse::_ActionsContainer</text>
<polyline fill="none" stroke="black" points="10,-238.5 146,-238.5 "/>
<text text-anchor="middle" x="78" y="-226.5" font-family="Helvetica,sans-Serif" font-size="10.00"> </text>
<polyline fill="none" stroke="black" points="10,-219.5 146,-219.5 "/>
<text text-anchor="middle" x="78" y="-207.5" font-family="Helvetica,sans-Serif" font-size="10.00"> </text>
</a>
</g>
</g>
<!-- Node3&#45;&gt;Node2 -->
<g id="edge2" class="edge"><title>Node3&#45;&gt;Node2</title>
<path fill="none" stroke="midnightblue" d="M78,-190.209C78,-181.293 78,-171.951 78,-163.584"/>
<polygon fill="none" stroke="midnightblue" points="74.5001,-190.397 78,-200.397 81.5001,-190.397 74.5001,-190.397"/>
</g>
<!-- Node4 -->
<g id="node4" class="node"><title>Node4</title>
<g id="a_node4"><a xlink:href="classargparse_1_1_argument_parser.html" target="_top" xlink:title="{argparse::ArgumentParser\n||}">
<polygon fill="none" stroke="black" points="174.5,-106.5 174.5,-163.5 301.5,-163.5 301.5,-106.5 174.5,-106.5"/>
<text text-anchor="middle" x="238" y="-151.5" font-family="Helvetica,sans-Serif" font-size="10.00">argparse::ArgumentParser</text>
<polyline fill="none" stroke="black" points="174.5,-144.5 301.5,-144.5 "/>
<text text-anchor="middle" x="238" y="-132.5" font-family="Helvetica,sans-Serif" font-size="10.00"> </text>
<polyline fill="none" stroke="black" points="174.5,-125.5 301.5,-125.5 "/>
<text text-anchor="middle" x="238" y="-113.5" font-family="Helvetica,sans-Serif" font-size="10.00"> </text>
</a>
</g>
</g>
<!-- Node4&#45;&gt;Node1 -->
<g id="edge3" class="edge"><title>Node4&#45;&gt;Node1</title>
<path fill="none" stroke="midnightblue" d="M209.113,-98.6132C201.299,-89.0414 192.871,-78.7168 185.156,-69.2659"/>
<polygon fill="none" stroke="midnightblue" points="206.468,-100.907 215.503,-106.441 211.89,-96.4808 206.468,-100.907"/>
</g>
</g>
</svg>
