<?xml version="1.0" encoding="UTF-8" standalone="no"?>
<!DOCTYPE svg PUBLIC "-//W3C//DTD SVG 1.1//EN"
 "http://www.w3.org/Graphics/SVG/1.1/DTD/svg11.dtd">
<!-- Generated by graphviz version 2.30.1 (20130219.2202)
 -->
<!-- Title: Lang.Struct._OrderedSet.OrderedSet.insertAt Pages: 1 -->
<svg width="464pt" height="87pt"
 viewBox="0.00 0.00 464.00 87.00" xmlns="http://www.w3.org/2000/svg" xmlns:xlink="http://www.w3.org/1999/xlink">
<g id="graph0" class="graph" transform="scale(1 1) rotate(0) translate(4 83)">
<title>Lang.Struct._OrderedSet.OrderedSet.insertAt</title>
<!-- Node1 -->
<g id="node1" class="node"><title>Node1</title>
<polygon fill="#bfbfbf" stroke="black" points="0,-24 0,-54 122,-54 122,-24 0,-24"/>
<text text-anchor="start" x="8" y="-42" font-family="Helvetica,sans-Serif" font-size="10.00">Lang.Struct._OrderedSet.</text>
<text text-anchor="middle" x="61" y="-31" font-family="Helvetica,sans-Serif" font-size="10.00">OrderedSet.insertAt</text>
</g>
<!-- Node2 -->
<g id="node2" class="node"><title>Node2</title>
<g id="a_node2"><a xlink:href="class_lang_1_1_struct_1_1___ordered_set_1_1_ordered_set.html#af876cf3bdae69173dff1374db440e1f2" target="_top" xlink:title="See _insertBefore_link(...) method.">
<polygon fill="none" stroke="black" points="158,-49 158,-79 280,-79 280,-49 158,-49"/>
<text text-anchor="start" x="166" y="-67" font-family="Helvetica,sans-Serif" font-size="10.00">Lang.Struct._OrderedSet.</text>
<text text-anchor="middle" x="219" y="-56" font-family="Helvetica,sans-Serif" font-size="10.00">OrderedSet.insertBefore</text>
</a>
</g>
</g>
<!-- Node1&#45;&gt;Node2 -->
<g id="edge1" class="edge"><title>Node1&#45;&gt;Node2</title>
<path fill="none" stroke="midnightblue" d="M122.314,-48.6657C130.695,-50.0088 139.363,-51.398 147.904,-52.7667"/>
<polygon fill="midnightblue" stroke="midnightblue" points="147.419,-56.2335 157.847,-54.3601 148.527,-49.3217 147.419,-56.2335"/>
</g>
<!-- Node4 -->
<g id="node4" class="node"><title>Node4</title>
<g id="a_node4"><a xlink:href="class_lang_1_1_struct_1_1___ordered_set_1_1_ordered_set.html#a86ca893edaad1d4ac2dfee131550dc01" target="_top" xlink:title="Same as append">
<polygon fill="none" stroke="black" points="158,-0 158,-30 280,-30 280,-0 158,-0"/>
<text text-anchor="start" x="166" y="-18" font-family="Helvetica,sans-Serif" font-size="10.00">Lang.Struct._OrderedSet.</text>
<text text-anchor="middle" x="219" y="-7" font-family="Helvetica,sans-Serif" font-size="10.00">OrderedSet.add</text>
</a>
</g>
</g>
<!-- Node1&#45;&gt;Node4 -->
<g id="edge3" class="edge"><title>Node1&#45;&gt;Node4</title>
<path fill="none" stroke="midnightblue" d="M122.314,-29.721C130.695,-28.4316 139.363,-27.098 147.904,-25.784"/>
<polygon fill="midnightblue" stroke="midnightblue" points="148.495,-29.2343 157.847,-24.2543 147.431,-22.3157 148.495,-29.2343"/>
</g>
<!-- Node3 -->
<g id="node3" class="node"><title>Node3</title>
<g id="a_node3"><a xlink:href="class_lang_1_1_struct_1_1___ordered_set_1_1_ordered_set.html#a3b5b0f278022d362913215cc21961b4e" target="_top" xlink:title="Inserts newElemBefore into the current position of oldLinkAfter.">
<polygon fill="none" stroke="black" points="316.5,-24 316.5,-54 455.5,-54 455.5,-24 316.5,-24"/>
<text text-anchor="start" x="324.5" y="-42" font-family="Helvetica,sans-Serif" font-size="10.00">Lang.Struct._OrderedSet.</text>
<text text-anchor="middle" x="386" y="-31" font-family="Helvetica,sans-Serif" font-size="10.00">OrderedSet._insertBefore_link</text>
</a>
</g>
</g>
<!-- Node2&#45;&gt;Node3 -->
<g id="edge2" class="edge"><title>Node2&#45;&gt;Node3</title>
<path fill="none" stroke="midnightblue" d="M280.036,-54.9037C288.605,-53.6053 297.524,-52.2539 306.384,-50.9115"/>
<polygon fill="midnightblue" stroke="midnightblue" points="306.976,-54.3618 316.339,-49.4031 305.928,-47.4408 306.976,-54.3618"/>
</g>
<!-- Node4&#45;&gt;Node3 -->
<g id="edge4" class="edge"><title>Node4&#45;&gt;Node3</title>
<path fill="none" stroke="midnightblue" d="M280.036,-23.7324C288.605,-24.9789 297.524,-26.2763 306.384,-27.5649"/>
<polygon fill="midnightblue" stroke="midnightblue" points="305.94,-31.0371 316.339,-29.013 306.947,-24.1099 305.94,-31.0371"/>
</g>
</g>
</svg>
