<?xml version="1.0" encoding="UTF-8" standalone="no"?>
<!DOCTYPE svg PUBLIC "-//W3C//DTD SVG 1.1//EN"
 "http://www.w3.org/Graphics/SVG/1.1/DTD/svg11.dtd">
<!-- Generated by graphviz version 2.36.0 (20140111.2315)
 -->
<!-- Title: Lang.Diff.SequenceMatcher.get_mismatching_elems_useOnce Pages: 1 -->
<svg width="554pt" height="136pt"
 viewBox="0.00 0.00 554.00 136.00" xmlns="http://www.w3.org/2000/svg" xmlns:xlink="http://www.w3.org/1999/xlink">
<g id="graph0" class="graph" transform="scale(1 1) rotate(0) translate(4 132)">
<title>Lang.Diff.SequenceMatcher.get_mismatching_elems_useOnce</title>
<!-- Node1 -->
<g id="node1" class="node"><title>Node1</title>
<polygon fill="#bfbfbf" stroke="black" points="0.5,-73 0.5,-103 157.5,-103 157.5,-73 0.5,-73"/>
<text text-anchor="start" x="8.5" y="-91" font-family="Helvetica,sans-Serif" font-size="10.00">Lang.Diff.SequenceMatcher.get</text>
<text text-anchor="middle" x="79" y="-80" font-family="Helvetica,sans-Serif" font-size="10.00">_mismatching_elems_useOnce</text>
</g>
<!-- Node2 -->
<g id="node2" class="node"><title>Node2</title>
<g id="a_node2"><a xlink:href="class_lang_1_1_diff_1_1_sequence_matcher.html#a2346b09e64458b8797a8285136376ff5" target="_top" xlink:title="Lang.Diff.SequenceMatcher.\l_getElems">
<polygon fill="none" stroke="black" points="201.5,-98 201.5,-128 344.5,-128 344.5,-98 201.5,-98"/>
<text text-anchor="start" x="209.5" y="-116" font-family="Helvetica,sans-Serif" font-size="10.00">Lang.Diff.SequenceMatcher.</text>
<text text-anchor="middle" x="273" y="-105" font-family="Helvetica,sans-Serif" font-size="10.00">_getElems</text>
</a>
</g>
</g>
<!-- Node1&#45;&gt;Node2 -->
<g id="edge1" class="edge"><title>Node1&#45;&gt;Node2</title>
<path fill="none" stroke="midnightblue" d="M157.54,-98.0964C168.616,-99.5386 180.033,-101.025 191.17,-102.475"/>
<polygon fill="midnightblue" stroke="midnightblue" points="190.934,-105.974 201.302,-103.795 191.838,-99.0325 190.934,-105.974"/>
</g>
<!-- Node3 -->
<g id="node3" class="node"><title>Node3</title>
<g id="a_node3"><a xlink:href="class_lang_1_1_diff_1_1_sequence_matcher.html#a2f91f89e168c2994d50ee29af7d1c988" target="_top" xlink:title="Lang.Diff.SequenceMatcher.get\l_mismatching_blocks">
<polygon fill="none" stroke="black" points="194.5,-49 194.5,-79 351.5,-79 351.5,-49 194.5,-49"/>
<text text-anchor="start" x="202.5" y="-67" font-family="Helvetica,sans-Serif" font-size="10.00">Lang.Diff.SequenceMatcher.get</text>
<text text-anchor="middle" x="273" y="-56" font-family="Helvetica,sans-Serif" font-size="10.00">_mismatching_blocks</text>
</a>
</g>
</g>
<!-- Node1&#45;&gt;Node3 -->
<g id="edge2" class="edge"><title>Node1&#45;&gt;Node3</title>
<path fill="none" stroke="midnightblue" d="M157.54,-78.3075C166.388,-77.2015 175.452,-76.0685 184.418,-74.9477"/>
<polygon fill="midnightblue" stroke="midnightblue" points="184.994,-78.4031 194.482,-73.6897 184.125,-71.4572 184.994,-78.4031"/>
</g>
<!-- Node4 -->
<g id="node4" class="node"><title>Node4</title>
<g id="a_node4"><a xlink:href="class_lang_1_1_diff_1_1_sequence_matcher.html#aae18597b82d486839e6b1b9e1d850438" target="_top" xlink:title="Lang.Diff.SequenceMatcher.get\l_matching_blocks">
<polygon fill="none" stroke="black" points="388.5,-98 388.5,-128 545.5,-128 545.5,-98 388.5,-98"/>
<text text-anchor="start" x="396.5" y="-116" font-family="Helvetica,sans-Serif" font-size="10.00">Lang.Diff.SequenceMatcher.get</text>
<text text-anchor="middle" x="467" y="-105" font-family="Helvetica,sans-Serif" font-size="10.00">_matching_blocks</text>
</a>
</g>
</g>
<!-- Node3&#45;&gt;Node4 -->
<g id="edge3" class="edge"><title>Node3&#45;&gt;Node4</title>
<path fill="none" stroke="midnightblue" d="M332.911,-79.0346C353.276,-84.2318 376.272,-90.1006 397.349,-95.4796"/>
<polygon fill="midnightblue" stroke="midnightblue" points="396.645,-98.9122 407.2,-97.9938 398.376,-92.1296 396.645,-98.9122"/>
</g>
<!-- Node5 -->
<g id="node5" class="node"><title>Node5</title>
<g id="a_node5"><a xlink:href="class_lang_1_1_diff_1_1_sequence_matcher.html#a7d87778dba05d7442659d922584994ea" target="_top" xlink:title="Lang.Diff.SequenceMatcher.\l_diffSingleSide">
<polygon fill="none" stroke="black" points="395.5,-49 395.5,-79 538.5,-79 538.5,-49 395.5,-49"/>
<text text-anchor="start" x="403.5" y="-67" font-family="Helvetica,sans-Serif" font-size="10.00">Lang.Diff.SequenceMatcher.</text>
<text text-anchor="middle" x="467" y="-56" font-family="Helvetica,sans-Serif" font-size="10.00">_diffSingleSide</text>
</a>
</g>
</g>
<!-- Node3&#45;&gt;Node5 -->
<g id="edge4" class="edge"><title>Node3&#45;&gt;Node5</title>
<path fill="none" stroke="midnightblue" d="M351.54,-64C362.616,-64 374.033,-64 385.17,-64"/>
<polygon fill="midnightblue" stroke="midnightblue" points="385.302,-67.5001 395.302,-64 385.302,-60.5001 385.302,-67.5001"/>
</g>
<!-- Node6 -->
<g id="node6" class="node"><title>Node6</title>
<g id="a_node6"><a xlink:href="class_lang_1_1_diff_1_1_sequence_matcher.html#a180307710206ac883b8f7236bc8ef93a" target="_top" xlink:title="Lang.Diff.SequenceMatcher.\l_blocksToElems">
<polygon fill="none" stroke="black" points="395.5,-0 395.5,-30 538.5,-30 538.5,-0 395.5,-0"/>
<text text-anchor="start" x="403.5" y="-18" font-family="Helvetica,sans-Serif" font-size="10.00">Lang.Diff.SequenceMatcher.</text>
<text text-anchor="middle" x="467" y="-7" font-family="Helvetica,sans-Serif" font-size="10.00">_blocksToElems</text>
</a>
</g>
</g>
<!-- Node3&#45;&gt;Node6 -->
<g id="edge5" class="edge"><title>Node3&#45;&gt;Node6</title>
<path fill="none" stroke="midnightblue" d="M332.911,-48.9654C353.276,-43.7682 376.272,-37.8994 397.349,-32.5204"/>
<polygon fill="midnightblue" stroke="midnightblue" points="398.376,-35.8704 407.2,-30.0062 396.645,-29.0878 398.376,-35.8704"/>
</g>
</g>
</svg>
