<?xml version="1.0" encoding="UTF-8" standalone="no"?>
<!DOCTYPE svg PUBLIC "-//W3C//DTD SVG 1.1//EN"
 "http://www.w3.org/Graphics/SVG/1.1/DTD/svg11.dtd">
<!-- Generated by graphviz version 2.36.0 (20140111.2315)
 -->
<!-- Title: Lang.Struct._OrderedSet.OrderedSet.index Pages: 1 -->
<svg width="324pt" height="136pt"
 viewBox="0.00 0.00 324.00 136.00" xmlns="http://www.w3.org/2000/svg" xmlns:xlink="http://www.w3.org/1999/xlink">
<g id="graph0" class="graph" transform="scale(1 1) rotate(0) translate(4 132)">
<title>Lang.Struct._OrderedSet.OrderedSet.index</title>
<!-- Node1 -->
<g id="node1" class="node"><title>Node1</title>
<polygon fill="#bfbfbf" stroke="black" points="0,-49 0,-79 130,-79 130,-49 0,-49"/>
<text text-anchor="start" x="8" y="-67" font-family="Helvetica,sans-Serif" font-size="10.00">Lang.Struct._OrderedSet.</text>
<text text-anchor="middle" x="65" y="-56" font-family="Helvetica,sans-Serif" font-size="10.00">OrderedSet.index</text>
</g>
<!-- Node2 -->
<g id="node2" class="node"><title>Node2</title>
<g id="a_node2"><a xlink:href="class_lang_1_1_struct_1_1___ordered_set_1_1_ordered_set.html#ade6efa32feaaaaa421886dd13ac63a11" target="_top" xlink:title="Lang.Struct._OrderedSet.\lOrderedSet._getPositiveIndex">
<polygon fill="none" stroke="black" points="166,-98 166,-128 316,-128 316,-98 166,-98"/>
<text text-anchor="start" x="174" y="-116" font-family="Helvetica,sans-Serif" font-size="10.00">Lang.Struct._OrderedSet.</text>
<text text-anchor="middle" x="241" y="-105" font-family="Helvetica,sans-Serif" font-size="10.00">OrderedSet._getPositiveIndex</text>
</a>
</g>
</g>
<!-- Node1&#45;&gt;Node2 -->
<g id="edge1" class="edge"><title>Node1&#45;&gt;Node2</title>
<path fill="none" stroke="midnightblue" d="M119.626,-79.1014C137.737,-84.2019 158.124,-89.9429 176.9,-95.2305"/>
<polygon fill="midnightblue" stroke="midnightblue" points="175.977,-98.6067 186.552,-97.9484 177.875,-91.8687 175.977,-98.6067"/>
</g>
<!-- Node3 -->
<g id="node3" class="node"><title>Node3</title>
<g id="a_node3"><a xlink:href="class_lang_1_1_struct_1_1___ordered_set_1_1_ordered_set.html#ab742d8d2e00b307db1314f9d3780f08f" target="_top" xlink:title="Lang.Struct._OrderedSet.\lOrderedSet._getLink_byIndex">
<polygon fill="none" stroke="black" points="166.5,-49 166.5,-79 315.5,-79 315.5,-49 166.5,-49"/>
<text text-anchor="start" x="174.5" y="-67" font-family="Helvetica,sans-Serif" font-size="10.00">Lang.Struct._OrderedSet.</text>
<text text-anchor="middle" x="241" y="-56" font-family="Helvetica,sans-Serif" font-size="10.00">OrderedSet._getLink_byIndex</text>
</a>
</g>
</g>
<!-- Node1&#45;&gt;Node3 -->
<g id="edge2" class="edge"><title>Node1&#45;&gt;Node3</title>
<path fill="none" stroke="midnightblue" d="M130.297,-64C138.716,-64 147.44,-64 156.123,-64"/>
<polygon fill="midnightblue" stroke="midnightblue" points="156.276,-67.5001 166.276,-64 156.276,-60.5001 156.276,-67.5001"/>
</g>
<!-- Node4 -->
<g id="node4" class="node"><title>Node4</title>
<g id="a_node4"><a xlink:href="class_lang_1_1_struct_1_1___ordered_set_1_1_ordered_set.html#ab84ac707e36e2bb8d03afc65e17c53c2" target="_top" xlink:title="Does 2 things: ">
<polygon fill="none" stroke="black" points="175.5,-0 175.5,-30 306.5,-30 306.5,-0 175.5,-0"/>
<text text-anchor="start" x="183.5" y="-18" font-family="Helvetica,sans-Serif" font-size="10.00">Lang.Struct._OrderedSet.</text>
<text text-anchor="middle" x="241" y="-7" font-family="Helvetica,sans-Serif" font-size="10.00">OrderedSet._convertSlice</text>
</a>
</g>
</g>
<!-- Node1&#45;&gt;Node4 -->
<g id="edge3" class="edge"><title>Node1&#45;&gt;Node4</title>
<path fill="none" stroke="midnightblue" d="M119.626,-48.8986C137.737,-43.7981 158.124,-38.0571 176.9,-32.7695"/>
<polygon fill="midnightblue" stroke="midnightblue" points="177.875,-36.1313 186.552,-30.0516 175.977,-29.3933 177.875,-36.1313"/>
</g>
</g>
</svg>
