<?xml version="1.0" encoding="UTF-8" standalone="no"?>
<!DOCTYPE svg PUBLIC "-//W3C//DTD SVG 1.1//EN"
 "http://www.w3.org/Graphics/SVG/1.1/DTD/svg11.dtd">
<!-- Generated by graphviz version 2.36.0 (20140111.2315)
 -->
<!-- Title: Lang.Struct._OrderedSet.OrderedSet.__setitem__ Pages: 1 -->
<svg width="330pt" height="234pt"
 viewBox="0.00 0.00 330.00 234.00" xmlns="http://www.w3.org/2000/svg" xmlns:xlink="http://www.w3.org/1999/xlink">
<g id="graph0" class="graph" transform="scale(1 1) rotate(0) translate(4 230)">
<title>Lang.Struct._OrderedSet.OrderedSet.__setitem__</title>
<!-- Node1 -->
<g id="node1" class="node"><title>Node1</title>
<polygon fill="#bfbfbf" stroke="black" points="0,-98 0,-128 130,-128 130,-98 0,-98"/>
<text text-anchor="start" x="8" y="-116" font-family="Helvetica,sans-Serif" font-size="10.00">Lang.Struct._OrderedSet.</text>
<text text-anchor="middle" x="65" y="-105" font-family="Helvetica,sans-Serif" font-size="10.00">OrderedSet.__setitem__</text>
</g>
<!-- Node2 -->
<g id="node2" class="node"><title>Node2</title>
<g id="a_node2"><a xlink:href="class_lang_1_1_struct_1_1___ordered_set_1_1_ordered_set.html#ab742d8d2e00b307db1314f9d3780f08f" target="_top" xlink:title="Lang.Struct._OrderedSet.\lOrderedSet._getLink_byIndex">
<polygon fill="none" stroke="black" points="169.5,-196 169.5,-226 318.5,-226 318.5,-196 169.5,-196"/>
<text text-anchor="start" x="177.5" y="-214" font-family="Helvetica,sans-Serif" font-size="10.00">Lang.Struct._OrderedSet.</text>
<text text-anchor="middle" x="244" y="-203" font-family="Helvetica,sans-Serif" font-size="10.00">OrderedSet._getLink_byIndex</text>
</a>
</g>
</g>
<!-- Node1&#45;&gt;Node2 -->
<g id="edge1" class="edge"><title>Node1&#45;&gt;Node2</title>
<path fill="none" stroke="midnightblue" d="M83.2992,-128.294C102.396,-144.515 134.607,-169.964 166,-186 170.31,-188.202 174.855,-190.264 179.491,-192.183"/>
<polygon fill="midnightblue" stroke="midnightblue" points="178.506,-195.556 189.095,-195.923 181.047,-189.033 178.506,-195.556"/>
</g>
<!-- Node3 -->
<g id="node3" class="node"><title>Node3</title>
<g id="a_node3"><a xlink:href="class_lang_1_1_struct_1_1___ordered_set_1_1_ordered_set.html#a3d77225d0613232e8c9106025376660c" target="_top" xlink:title="Returns True if all links were inserted, False otherwise. ">
<polygon fill="none" stroke="black" points="166,-147 166,-177 322,-177 322,-147 166,-147"/>
<text text-anchor="start" x="174" y="-165" font-family="Helvetica,sans-Serif" font-size="10.00">Lang.Struct._OrderedSet.</text>
<text text-anchor="middle" x="244" y="-154" font-family="Helvetica,sans-Serif" font-size="10.00">OrderedSet._insertBefore_links</text>
</a>
</g>
</g>
<!-- Node1&#45;&gt;Node3 -->
<g id="edge2" class="edge"><title>Node1&#45;&gt;Node3</title>
<path fill="none" stroke="midnightblue" d="M120.55,-128.101C138.974,-133.202 159.712,-138.943 178.812,-144.23"/>
<polygon fill="midnightblue" stroke="midnightblue" points="178.059,-147.653 188.63,-146.948 179.926,-140.907 178.059,-147.653"/>
</g>
<!-- Node4 -->
<g id="node4" class="node"><title>Node4</title>
<g id="a_node4"><a xlink:href="class_lang_1_1_struct_1_1___ordered_set_1_1_ordered_set.html#a3b5b0f278022d362913215cc21961b4e" target="_top" xlink:title="Inserts newElemBefore into the current position of oldLinkAfter. ">
<polygon fill="none" stroke="black" points="168.5,-98 168.5,-128 319.5,-128 319.5,-98 168.5,-98"/>
<text text-anchor="start" x="176.5" y="-116" font-family="Helvetica,sans-Serif" font-size="10.00">Lang.Struct._OrderedSet.</text>
<text text-anchor="middle" x="244" y="-105" font-family="Helvetica,sans-Serif" font-size="10.00">OrderedSet._insertBefore_link</text>
</a>
</g>
</g>
<!-- Node1&#45;&gt;Node4 -->
<g id="edge3" class="edge"><title>Node1&#45;&gt;Node4</title>
<path fill="none" stroke="midnightblue" d="M130.151,-113C139.233,-113 148.686,-113 158.085,-113"/>
<polygon fill="midnightblue" stroke="midnightblue" points="158.242,-116.5 168.242,-113 158.242,-109.5 158.242,-116.5"/>
</g>
<!-- Node5 -->
<g id="node5" class="node"><title>Node5</title>
<g id="a_node5"><a xlink:href="class_lang_1_1_struct_1_1___ordered_set_1_1_ordered_set.html#ab0705d1a0100c1d113ddb52fbddc5152" target="_top" xlink:title="Lang.Struct._OrderedSet.\lOrderedSet._iterLinks">
<polygon fill="none" stroke="black" points="179,-49 179,-79 309,-79 309,-49 179,-49"/>
<text text-anchor="start" x="187" y="-67" font-family="Helvetica,sans-Serif" font-size="10.00">Lang.Struct._OrderedSet.</text>
<text text-anchor="middle" x="244" y="-56" font-family="Helvetica,sans-Serif" font-size="10.00">OrderedSet._iterLinks</text>
</a>
</g>
</g>
<!-- Node1&#45;&gt;Node5 -->
<g id="edge4" class="edge"><title>Node1&#45;&gt;Node5</title>
<path fill="none" stroke="midnightblue" d="M120.55,-97.8986C138.974,-92.7981 159.712,-87.0571 178.812,-81.7695"/>
<polygon fill="midnightblue" stroke="midnightblue" points="179.926,-85.0928 188.63,-79.0516 178.059,-78.3465 179.926,-85.0928"/>
</g>
<!-- Node6 -->
<g id="node6" class="node"><title>Node6</title>
<g id="a_node6"><a xlink:href="class_lang_1_1_struct_1_1___ordered_set_1_1_ordered_set.html#af8d153315a4e2afb5659e7e78a9c7520" target="_top" xlink:title="Lang.Struct._OrderedSet.\lOrderedSet._replace">
<polygon fill="none" stroke="black" points="179,-0 179,-30 309,-30 309,-0 179,-0"/>
<text text-anchor="start" x="187" y="-18" font-family="Helvetica,sans-Serif" font-size="10.00">Lang.Struct._OrderedSet.</text>
<text text-anchor="middle" x="244" y="-7" font-family="Helvetica,sans-Serif" font-size="10.00">OrderedSet._replace</text>
</a>
</g>
</g>
<!-- Node1&#45;&gt;Node6 -->
<g id="edge5" class="edge"><title>Node1&#45;&gt;Node6</title>
<path fill="none" stroke="midnightblue" d="M83.2992,-97.7055C102.396,-81.485 134.607,-56.0359 166,-40 170.31,-37.7982 174.855,-35.7364 179.491,-33.8167"/>
<polygon fill="midnightblue" stroke="midnightblue" points="181.047,-36.9672 189.095,-30.0767 178.506,-30.4444 181.047,-36.9672"/>
</g>
</g>
</svg>
