<?xml version="1.0" encoding="UTF-8" standalone="no"?>
<!DOCTYPE svg PUBLIC "-//W3C//DTD SVG 1.1//EN"
 "http://www.w3.org/Graphics/SVG/1.1/DTD/svg11.dtd">
<!-- Generated by graphviz version 2.36.0 (20140111.2315)
 -->
<!-- Title: Lang.Struct._OrderedSet.OrderedSet.discard Pages: 1 -->
<svg width="320pt" height="136pt"
 viewBox="0.00 0.00 320.00 136.00" xmlns="http://www.w3.org/2000/svg" xmlns:xlink="http://www.w3.org/1999/xlink">
<g id="graph0" class="graph" transform="scale(1 1) rotate(0) translate(4 132)">
<title>Lang.Struct._OrderedSet.OrderedSet.discard</title>
<!-- Node1 -->
<g id="node1" class="node"><title>Node1</title>
<polygon fill="#bfbfbf" stroke="black" points="0,-49 0,-79 130,-79 130,-49 0,-49"/>
<text text-anchor="start" x="8" y="-67" font-family="Helvetica,sans-Serif" font-size="10.00">Lang.Struct._OrderedSet.</text>
<text text-anchor="middle" x="65" y="-56" font-family="Helvetica,sans-Serif" font-size="10.00">OrderedSet.discard</text>
</g>
<!-- Node2 -->
<g id="node2" class="node"><title>Node2</title>
<g id="a_node2"><a xlink:href="class_lang_1_1_struct_1_1___ordered_set_1_1_ordered_set.html#ac0b7ea0819787a1ac35a19e7b800251e" target="_top" xlink:title="Lang.Struct._OrderedSet.\lOrderedSet.__delitem__">
<polygon fill="none" stroke="black" points="174,-98 174,-128 304,-128 304,-98 174,-98"/>
<text text-anchor="start" x="182" y="-116" font-family="Helvetica,sans-Serif" font-size="10.00">Lang.Struct._OrderedSet.</text>
<text text-anchor="middle" x="239" y="-105" font-family="Helvetica,sans-Serif" font-size="10.00">OrderedSet.__delitem__</text>
</a>
</g>
</g>
<!-- Node1&#45;&gt;Node2 -->
<g id="edge1" class="edge"><title>Node1&#45;&gt;Node2</title>
<path fill="none" stroke="midnightblue" d="M128.812,-81.8941C147.312,-87.1644 167.359,-92.8755 185.166,-97.9484"/>
<polygon fill="midnightblue" stroke="midnightblue" points="129.585,-78.4753 119.009,-79.1014 127.668,-85.2074 129.585,-78.4753"/>
</g>
<!-- Node3 -->
<g id="node3" class="node"><title>Node3</title>
<g id="a_node3"><a xlink:href="class_lang_1_1_struct_1_1___ordered_set_1_1_ordered_set.html#ae7575342d75192de3163730ee4a87559" target="_top" xlink:title="Lang.Struct._OrderedSet.\lOrderedSet.insertMultiBefore">
<polygon fill="none" stroke="black" points="166,-49 166,-79 312,-79 312,-49 166,-49"/>
<text text-anchor="start" x="174" y="-67" font-family="Helvetica,sans-Serif" font-size="10.00">Lang.Struct._OrderedSet.</text>
<text text-anchor="middle" x="239" y="-56" font-family="Helvetica,sans-Serif" font-size="10.00">OrderedSet.insertMultiBefore</text>
</a>
</g>
</g>
<!-- Node1&#45;&gt;Node3 -->
<g id="edge2" class="edge"><title>Node1&#45;&gt;Node3</title>
<path fill="none" stroke="midnightblue" d="M140.273,-64C148.739,-64 157.358,-64 165.796,-64"/>
<polygon fill="midnightblue" stroke="midnightblue" points="140.046,-60.5001 130.046,-64 140.046,-67.5001 140.046,-60.5001"/>
</g>
<!-- Node4 -->
<g id="node4" class="node"><title>Node4</title>
<g id="a_node4"><a xlink:href="class_lang_1_1_struct_1_1___ordered_set_1_1_ordered_set.html#a2ebbeca5626629ff8e9c4da52abb9567" target="_top" xlink:title="Lang.Struct._OrderedSet.\lOrderedSet.pop">
<polygon fill="none" stroke="black" points="174,-0 174,-30 304,-30 304,-0 174,-0"/>
<text text-anchor="start" x="182" y="-18" font-family="Helvetica,sans-Serif" font-size="10.00">Lang.Struct._OrderedSet.</text>
<text text-anchor="middle" x="239" y="-7" font-family="Helvetica,sans-Serif" font-size="10.00">OrderedSet.pop</text>
</a>
</g>
</g>
<!-- Node1&#45;&gt;Node4 -->
<g id="edge3" class="edge"><title>Node1&#45;&gt;Node4</title>
<path fill="none" stroke="midnightblue" d="M128.812,-46.1059C147.312,-40.8356 167.359,-35.1245 185.166,-30.0516"/>
<polygon fill="midnightblue" stroke="midnightblue" points="127.668,-42.7926 119.009,-48.8986 129.585,-49.5247 127.668,-42.7926"/>
</g>
</g>
</svg>
