<?xml version="1.0" encoding="UTF-8" standalone="no"?>
<!DOCTYPE svg PUBLIC "-//W3C//DTD SVG 1.1//EN"
 "http://www.w3.org/Graphics/SVG/1.1/DTD/svg11.dtd">
<!-- Generated by graphviz version 2.36.0 (20140111.2315)
 -->
<!-- Title: Lang.ClassTools.Patterns._singleton._Singleton_OnDupReturnExisting Pages: 1 -->
<svg width="186pt" height="288pt"
 viewBox="0.00 0.00 186.00 288.00" xmlns="http://www.w3.org/2000/svg" xmlns:xlink="http://www.w3.org/1999/xlink">
<g id="graph0" class="graph" transform="scale(1 1) rotate(0) translate(4 284)">
<title>Lang.ClassTools.Patterns._singleton._Singleton_OnDupReturnExisting</title>
<!-- Node1 -->
<g id="node1" class="node"><title>Node1</title>
<polygon fill="#bfbfbf" stroke="black" points="-0.5,-0.5 -0.5,-79.5 178.5,-79.5 178.5,-0.5 -0.5,-0.5"/>
<text text-anchor="start" x="7.5" y="-67.5" font-family="Helvetica,sans-Serif" font-size="10.00">Lang.ClassTools.Patterns.</text>
<text text-anchor="start" x="7.5" y="-56.5" font-family="Helvetica,sans-Serif" font-size="10.00">_singleton._Singleton_OnDupReturn</text>
<text text-anchor="middle" x="89" y="-45.5" font-family="Helvetica,sans-Serif" font-size="10.00">Existing</text>
<polyline fill="none" stroke="black" points="-0.5,-38.5 178.5,-38.5 "/>
<text text-anchor="middle" x="89" y="-26.5" font-family="Helvetica,sans-Serif" font-size="10.00"> </text>
<polyline fill="none" stroke="black" points="-0.5,-19.5 178.5,-19.5 "/>
<text text-anchor="start" x="7.5" y="-7.5" font-family="Helvetica,sans-Serif" font-size="10.00">+ __call__()</text>
</g>
<!-- Node2 -->
<g id="node2" class="node"><title>Node2</title>
<g id="a_node2"><a xlink:href="class_lang_1_1_class_tools_1_1_patterns_1_1__singleton_1_1___singleton___abstract.html" target="_top" xlink:title="{Lang.ClassTools.Patterns.\l_singleton._Singleton_Abstract\n||}">
<polygon fill="none" stroke="black" points="12,-117 12,-185 166,-185 166,-117 12,-117"/>
<text text-anchor="start" x="20" y="-173" font-family="Helvetica,sans-Serif" font-size="10.00">Lang.ClassTools.Patterns.</text>
<text text-anchor="middle" x="89" y="-162" font-family="Helvetica,sans-Serif" font-size="10.00">_singleton._Singleton_Abstract</text>
<polyline fill="none" stroke="black" points="12,-155 166,-155 "/>
<text text-anchor="middle" x="89" y="-143" font-family="Helvetica,sans-Serif" font-size="10.00"> </text>
<polyline fill="none" stroke="black" points="12,-136 166,-136 "/>
<text text-anchor="middle" x="89" y="-124" font-family="Helvetica,sans-Serif" font-size="10.00"> </text>
</a>
</g>
</g>
<!-- Node2&#45;&gt;Node1 -->
<g id="edge1" class="edge"><title>Node2&#45;&gt;Node1</title>
<path fill="none" stroke="midnightblue" d="M89,-106.575C89,-97.7367 89,-88.4932 89,-79.8274"/>
<polygon fill="none" stroke="midnightblue" points="85.5001,-106.704 89,-116.704 92.5001,-106.704 85.5001,-106.704"/>
</g>
<!-- Node3 -->
<g id="node3" class="node"><title>Node3</title>
<polygon fill="none" stroke="#bfbfbf" points="21.5,-222.5 21.5,-279.5 156.5,-279.5 156.5,-222.5 21.5,-222.5"/>
<text text-anchor="middle" x="89" y="-267.5" font-family="Helvetica,sans-Serif" font-size="10.00">_SingletonMultitonAbstract</text>
<polyline fill="none" stroke="#bfbfbf" points="21.5,-260.5 156.5,-260.5 "/>
<text text-anchor="middle" x="89" y="-248.5" font-family="Helvetica,sans-Serif" font-size="10.00"> </text>
<polyline fill="none" stroke="#bfbfbf" points="21.5,-241.5 156.5,-241.5 "/>
<text text-anchor="middle" x="89" y="-229.5" font-family="Helvetica,sans-Serif" font-size="10.00"> </text>
</g>
<!-- Node3&#45;&gt;Node2 -->
<g id="edge2" class="edge"><title>Node3&#45;&gt;Node2</title>
<path fill="none" stroke="midnightblue" d="M89,-212.302C89,-203.395 89,-193.961 89,-185.266"/>
<polygon fill="none" stroke="midnightblue" points="85.5001,-212.441 89,-222.441 92.5001,-212.441 85.5001,-212.441"/>
</g>
</g>
</svg>
