<?xml version="1.0" encoding="UTF-8" standalone="no"?>
<!DOCTYPE svg PUBLIC "-//W3C//DTD SVG 1.1//EN"
 "http://www.w3.org/Graphics/SVG/1.1/DTD/svg11.dtd">
<!-- Generated by graphviz version 2.36.0 (20140111.2315)
 -->
<!-- Title: Lang.Concurrency.ResourceAlreadyReleasedException Pages: 1 -->
<svg width="152pt" height="172pt"
 viewBox="0.00 0.00 152.00 172.00" xmlns="http://www.w3.org/2000/svg" xmlns:xlink="http://www.w3.org/1999/xlink">
<g id="graph0" class="graph" transform="scale(1 1) rotate(0) translate(4 168)">
<title>Lang.Concurrency.ResourceAlreadyReleasedException</title>
<!-- Node1 -->
<g id="node1" class="node"><title>Node1</title>
<polygon fill="#bfbfbf" stroke="black" points="0,-1 0,-69 144,-69 144,-1 0,-1"/>
<text text-anchor="start" x="8" y="-57" font-family="Helvetica,sans-Serif" font-size="10.00">Lang.Concurrency.Resource</text>
<text text-anchor="middle" x="72" y="-46" font-family="Helvetica,sans-Serif" font-size="10.00">AlreadyReleasedException</text>
<polyline fill="none" stroke="black" points="0,-39 144,-39 "/>
<text text-anchor="middle" x="72" y="-27" font-family="Helvetica,sans-Serif" font-size="10.00"> </text>
<polyline fill="none" stroke="black" points="0,-20 144,-20 "/>
<text text-anchor="middle" x="72" y="-8" font-family="Helvetica,sans-Serif" font-size="10.00"> </text>
</g>
<!-- Node2 -->
<g id="node2" class="node"><title>Node2</title>
<g id="a_node2"><a xlink:href="class_exception.html" target="_top" xlink:title="{Exception\n||}">
<polygon fill="none" stroke="black" points="42,-106.5 42,-163.5 102,-163.5 102,-106.5 42,-106.5"/>
<text text-anchor="middle" x="72" y="-151.5" font-family="Helvetica,sans-Serif" font-size="10.00">Exception</text>
<polyline fill="none" stroke="black" points="42,-144.5 102,-144.5 "/>
<text text-anchor="middle" x="72" y="-132.5" font-family="Helvetica,sans-Serif" font-size="10.00"> </text>
<polyline fill="none" stroke="black" points="42,-125.5 102,-125.5 "/>
<text text-anchor="middle" x="72" y="-113.5" font-family="Helvetica,sans-Serif" font-size="10.00"> </text>
</a>
</g>
</g>
<!-- Node2&#45;&gt;Node1 -->
<g id="edge1" class="edge"><title>Node2&#45;&gt;Node1</title>
<path fill="none" stroke="midnightblue" d="M72,-96.3023C72,-87.3951 72,-77.9608 72,-69.2659"/>
<polygon fill="none" stroke="midnightblue" points="68.5001,-96.4407 72,-106.441 75.5001,-96.4408 68.5001,-96.4407"/>
</g>
</g>
</svg>
