<?xml version="1.0" encoding="UTF-8" standalone="no"?>
<!DOCTYPE svg PUBLIC "-//W3C//DTD SVG 1.1//EN"
 "http://www.w3.org/Graphics/SVG/1.1/DTD/svg11.dtd">
<!-- Generated by graphviz version 2.36.0 (20140111.2315)
 -->
<!-- Title: Lang.Concurrency._Threading.Semaphore Pages: 1 -->
<svg width="319pt" height="536pt"
 viewBox="0.00 0.00 319.00 536.00" xmlns="http://www.w3.org/2000/svg" xmlns:xlink="http://www.w3.org/1999/xlink">
<g id="graph0" class="graph" transform="scale(1 1) rotate(0) translate(4 532)">
<title>Lang.Concurrency._Threading.Semaphore</title>
<!-- Node1 -->
<g id="node1" class="node"><title>Node1</title>
<polygon fill="#bfbfbf" stroke="black" points="82,-1 82,-69 236,-69 236,-1 82,-1"/>
<text text-anchor="start" x="90" y="-57" font-family="Helvetica,sans-Serif" font-size="10.00">Lang.Concurrency._Threading.</text>
<text text-anchor="middle" x="159" y="-46" font-family="Helvetica,sans-Serif" font-size="10.00">Semaphore</text>
<polyline fill="none" stroke="black" points="82,-39 236,-39 "/>
<text text-anchor="middle" x="159" y="-27" font-family="Helvetica,sans-Serif" font-size="10.00"> </text>
<polyline fill="none" stroke="black" points="82,-20 236,-20 "/>
<text text-anchor="middle" x="159" y="-8" font-family="Helvetica,sans-Serif" font-size="10.00"> </text>
</g>
<!-- Node2 -->
<g id="node2" class="node"><title>Node2</title>
<g id="a_node2"><a xlink:href="class_lang_1_1_concurrency_1_1___threading_1_1___threading_adapter.html" target="_top" xlink:title="{Lang.Concurrency._Threading.\l_ThreadingAdapter\n||+ __init__()\l+ __getattr__()\l}">
<polygon fill="none" stroke="black" points="0,-106.5 0,-185.5 154,-185.5 154,-106.5 0,-106.5"/>
<text text-anchor="start" x="8" y="-173.5" font-family="Helvetica,sans-Serif" font-size="10.00">Lang.Concurrency._Threading.</text>
<text text-anchor="middle" x="77" y="-162.5" font-family="Helvetica,sans-Serif" font-size="10.00">_ThreadingAdapter</text>
<polyline fill="none" stroke="black" points="0,-155.5 154,-155.5 "/>
<text text-anchor="middle" x="77" y="-143.5" font-family="Helvetica,sans-Serif" font-size="10.00"> </text>
<polyline fill="none" stroke="black" points="0,-136.5 154,-136.5 "/>
<text text-anchor="start" x="8" y="-124.5" font-family="Helvetica,sans-Serif" font-size="10.00">+ __init__()</text>
<text text-anchor="start" x="8" y="-113.5" font-family="Helvetica,sans-Serif" font-size="10.00">+ __getattr__()</text>
</a>
</g>
</g>
<!-- Node2&#45;&gt;Node1 -->
<g id="edge1" class="edge"><title>Node2&#45;&gt;Node1</title>
<path fill="none" stroke="midnightblue" d="M112.224,-98.1777C119.562,-88.4241 127.151,-78.3358 134.027,-69.1962"/>
<polygon fill="none" stroke="midnightblue" points="109.356,-96.1684 106.141,-106.264 114.95,-100.377 109.356,-96.1684"/>
</g>
<!-- Node3 -->
<g id="node3" class="node"><title>Node3</title>
<g id="a_node3"><a xlink:href="classobject.html" target="_top" xlink:title="{object\n||}">
<polygon fill="none" stroke="black" points="145.5,-470.5 145.5,-527.5 188.5,-527.5 188.5,-470.5 145.5,-470.5"/>
<text text-anchor="middle" x="167" y="-515.5" font-family="Helvetica,sans-Serif" font-size="10.00">object</text>
<polyline fill="none" stroke="black" points="145.5,-508.5 188.5,-508.5 "/>
<text text-anchor="middle" x="167" y="-496.5" font-family="Helvetica,sans-Serif" font-size="10.00"> </text>
<polyline fill="none" stroke="black" points="145.5,-489.5 188.5,-489.5 "/>
<text text-anchor="middle" x="167" y="-477.5" font-family="Helvetica,sans-Serif" font-size="10.00"> </text>
</a>
</g>
</g>
<!-- Node3&#45;&gt;Node2 -->
<g id="edge2" class="edge"><title>Node3&#45;&gt;Node2</title>
<path fill="none" stroke="midnightblue" d="M153.55,-460.884C150.567,-452.121 147.541,-442.774 145,-434 119.576,-346.205 96.5465,-241.309 84.9328,-185.845"/>
<polygon fill="none" stroke="midnightblue" points="150.29,-462.165 156.871,-470.468 156.904,-459.873 150.29,-462.165"/>
</g>
<!-- Node5 -->
<g id="node5" class="node"><title>Node5</title>
<g id="a_node5"><a xlink:href="class_lang_1_1_concurrency_1_1abstract_1_1_lock_semaphore.html" target="_top" xlink:title="There are multiple ways to use subclasses of this class: ">
<polygon fill="none" stroke="black" points="154.5,-222.5 154.5,-433.5 295.5,-433.5 295.5,-222.5 154.5,-222.5"/>
<text text-anchor="start" x="162.5" y="-421.5" font-family="Helvetica,sans-Serif" font-size="10.00">Lang.Concurrency.abstract.</text>
<text text-anchor="middle" x="225" y="-410.5" font-family="Helvetica,sans-Serif" font-size="10.00">LockSemaphore</text>
<polyline fill="none" stroke="black" points="154.5,-403.5 295.5,-403.5 "/>
<text text-anchor="middle" x="225" y="-391.5" font-family="Helvetica,sans-Serif" font-size="10.00"> </text>
<polyline fill="none" stroke="black" points="154.5,-384.5 295.5,-384.5 "/>
<text text-anchor="start" x="162.5" y="-372.5" font-family="Helvetica,sans-Serif" font-size="10.00">+ __init__()</text>
<text text-anchor="start" x="162.5" y="-361.5" font-family="Helvetica,sans-Serif" font-size="10.00">+ __str__()</text>
<text text-anchor="start" x="162.5" y="-350.5" font-family="Helvetica,sans-Serif" font-size="10.00">+ __getstate__()</text>
<text text-anchor="start" x="162.5" y="-339.5" font-family="Helvetica,sans-Serif" font-size="10.00">+ __eq__()</text>
<text text-anchor="start" x="162.5" y="-328.5" font-family="Helvetica,sans-Serif" font-size="10.00">+ __ne__()</text>
<text text-anchor="start" x="162.5" y="-317.5" font-family="Helvetica,sans-Serif" font-size="10.00">+ getMaxSlots()</text>
<text text-anchor="start" x="162.5" y="-306.5" font-family="Helvetica,sans-Serif" font-size="10.00">+ getSlotsTakenByAnyone()</text>
<text text-anchor="start" x="162.5" y="-295.5" font-family="Helvetica,sans-Serif" font-size="10.00">+ getSlotsTakenBySelf()</text>
<text text-anchor="start" x="162.5" y="-284.5" font-family="Helvetica,sans-Serif" font-size="10.00">+ getSlotsAvailable()</text>
<text text-anchor="start" x="162.5" y="-273.5" font-family="Helvetica,sans-Serif" font-size="10.00">+ hasAvailableSlot()</text>
<text text-anchor="start" x="162.5" y="-262.5" font-family="Helvetica,sans-Serif" font-size="10.00">+ acquire()</text>
<text text-anchor="start" x="162.5" y="-251.5" font-family="Helvetica,sans-Serif" font-size="10.00">+ release()</text>
<text text-anchor="start" x="162.5" y="-240.5" font-family="Helvetica,sans-Serif" font-size="10.00">+ __enter__()</text>
<text text-anchor="start" x="162.5" y="-229.5" font-family="Helvetica,sans-Serif" font-size="10.00">+ __exit__()</text>
</a>
</g>
</g>
<!-- Node3&#45;&gt;Node5 -->
<g id="edge5" class="edge"><title>Node3&#45;&gt;Node5</title>
<path fill="none" stroke="midnightblue" d="M179.772,-460.784C182.635,-452.444 185.808,-443.198 189.107,-433.584"/>
<polygon fill="none" stroke="midnightblue" points="176.383,-459.876 176.448,-470.471 183.004,-462.149 176.383,-459.876"/>
</g>
<!-- Node4 -->
<g id="node4" class="node"><title>Node4</title>
<g id="a_node4"><a xlink:href="class_lang_1_1_concurrency_1_1abstract_1_1_semaphore.html" target="_top" xlink:title="{Lang.Concurrency.abstract.\lSemaphore\n||}">
<polygon fill="none" stroke="black" points="172.5,-112 172.5,-180 311.5,-180 311.5,-112 172.5,-112"/>
<text text-anchor="start" x="180.5" y="-168" font-family="Helvetica,sans-Serif" font-size="10.00">Lang.Concurrency.abstract.</text>
<text text-anchor="middle" x="242" y="-157" font-family="Helvetica,sans-Serif" font-size="10.00">Semaphore</text>
<polyline fill="none" stroke="black" points="172.5,-150 311.5,-150 "/>
<text text-anchor="middle" x="242" y="-138" font-family="Helvetica,sans-Serif" font-size="10.00"> </text>
<polyline fill="none" stroke="black" points="172.5,-131 311.5,-131 "/>
<text text-anchor="middle" x="242" y="-119" font-family="Helvetica,sans-Serif" font-size="10.00"> </text>
</a>
</g>
</g>
<!-- Node4&#45;&gt;Node1 -->
<g id="edge3" class="edge"><title>Node4&#45;&gt;Node1</title>
<path fill="none" stroke="midnightblue" d="M210.456,-103.575C201.773,-92.1719 192.472,-79.9571 184.198,-69.092"/>
<polygon fill="none" stroke="midnightblue" points="207.803,-105.869 216.646,-111.704 213.373,-101.628 207.803,-105.869"/>
</g>
<!-- Node5&#45;&gt;Node4 -->
<g id="edge4" class="edge"><title>Node5&#45;&gt;Node4</title>
<path fill="none" stroke="midnightblue" d="M235.852,-212.099C236.933,-200.646 237.96,-189.777 238.853,-180.316"/>
<polygon fill="none" stroke="midnightblue" points="232.345,-212.008 234.889,-222.293 239.314,-212.667 232.345,-212.008"/>
</g>
</g>
</svg>
