<?xml version="1.0" encoding="UTF-8" standalone="no"?>
<!DOCTYPE svg PUBLIC "-//W3C//DTD SVG 1.1//EN"
 "http://www.w3.org/Graphics/SVG/1.1/DTD/svg11.dtd">
<!-- Generated by graphviz version 2.36.0 (20140111.2315)
 -->
<!-- Title: Lang.Diff._ElemsBlockSide Pages: 1 -->
<svg width="144pt" height="204pt"
 viewBox="0.00 0.00 144.00 204.00" xmlns="http://www.w3.org/2000/svg" xmlns:xlink="http://www.w3.org/1999/xlink">
<g id="graph0" class="graph" transform="scale(1 1) rotate(0) translate(4 200)">
<title>Lang.Diff._ElemsBlockSide</title>
<!-- Node1 -->
<g id="node1" class="node"><title>Node1</title>
<polygon fill="#bfbfbf" stroke="black" points="-0.5,-0.5 -0.5,-101.5 136.5,-101.5 136.5,-0.5 -0.5,-0.5"/>
<text text-anchor="middle" x="68" y="-89.5" font-family="Helvetica,sans-Serif" font-size="10.00">Lang.Diff._ElemsBlockSide</text>
<polyline fill="none" stroke="black" points="-0.5,-82.5 136.5,-82.5 "/>
<text text-anchor="start" x="7.5" y="-70.5" font-family="Helvetica,sans-Serif" font-size="10.00">+ block</text>
<text text-anchor="start" x="7.5" y="-59.5" font-family="Helvetica,sans-Serif" font-size="10.00">+ elems</text>
<polyline fill="none" stroke="black" points="-0.5,-52.5 136.5,-52.5 "/>
<text text-anchor="start" x="7.5" y="-40.5" font-family="Helvetica,sans-Serif" font-size="10.00">+ __init__()</text>
<text text-anchor="start" x="7.5" y="-29.5" font-family="Helvetica,sans-Serif" font-size="10.00">+ __getattr__()</text>
<text text-anchor="start" x="7.5" y="-18.5" font-family="Helvetica,sans-Serif" font-size="10.00">+ __str__()</text>
<text text-anchor="start" x="7.5" y="-7.5" font-family="Helvetica,sans-Serif" font-size="10.00">+ __repr__()</text>
</g>
<!-- Node2 -->
<g id="node2" class="node"><title>Node2</title>
<g id="a_node2"><a xlink:href="classobject.html" target="_top" xlink:title="{object\n||}">
<polygon fill="none" stroke="black" points="46.5,-138.5 46.5,-195.5 89.5,-195.5 89.5,-138.5 46.5,-138.5"/>
<text text-anchor="middle" x="68" y="-183.5" font-family="Helvetica,sans-Serif" font-size="10.00">object</text>
<polyline fill="none" stroke="black" points="46.5,-176.5 89.5,-176.5 "/>
<text text-anchor="middle" x="68" y="-164.5" font-family="Helvetica,sans-Serif" font-size="10.00"> </text>
<polyline fill="none" stroke="black" points="46.5,-157.5 89.5,-157.5 "/>
<text text-anchor="middle" x="68" y="-145.5" font-family="Helvetica,sans-Serif" font-size="10.00"> </text>
</a>
</g>
</g>
<!-- Node2&#45;&gt;Node1 -->
<g id="edge1" class="edge"><title>Node2&#45;&gt;Node1</title>
<path fill="none" stroke="midnightblue" d="M68,-128.354C68,-119.796 68,-110.578 68,-101.608"/>
<polygon fill="none" stroke="midnightblue" points="64.5001,-128.404 68,-138.404 71.5001,-128.404 64.5001,-128.404"/>
</g>
</g>
</svg>
