<?xml version="1.0" encoding="UTF-8" standalone="no"?>
<!DOCTYPE svg PUBLIC "-//W3C//DTD SVG 1.1//EN"
 "http://www.w3.org/Graphics/SVG/1.1/DTD/svg11.dtd">
<!-- Generated by graphviz version 2.36.0 (20140111.2315)
 -->
<!-- Title: Lang.Concurrency.FileSystem._Lock.FileLock_ByFCNTL Pages: 1 -->
<svg width="346pt" height="602pt"
 viewBox="0.00 0.00 346.00 602.00" xmlns="http://www.w3.org/2000/svg" xmlns:xlink="http://www.w3.org/1999/xlink">
<g id="graph0" class="graph" transform="scale(1 1) rotate(0) translate(4 598)">
<title>Lang.Concurrency.FileSystem._Lock.FileLock_ByFCNTL</title>
<!-- Node1 -->
<g id="node1" class="node"><title>Node1</title>
<polygon fill="#bfbfbf" stroke="black" points="92.5,-0.5 92.5,-123.5 245.5,-123.5 245.5,-0.5 92.5,-0.5"/>
<text text-anchor="start" x="100.5" y="-111.5" font-family="Helvetica,sans-Serif" font-size="10.00">Lang.Concurrency.FileSystem.</text>
<text text-anchor="middle" x="169" y="-100.5" font-family="Helvetica,sans-Serif" font-size="10.00">_Lock.FileLock_ByFCNTL</text>
<polyline fill="none" stroke="black" points="92.5,-93.5 245.5,-93.5 "/>
<text text-anchor="start" x="100.5" y="-81.5" font-family="Helvetica,sans-Serif" font-size="10.00">+ lockName</text>
<text text-anchor="start" x="100.5" y="-70.5" font-family="Helvetica,sans-Serif" font-size="10.00">+ lockFolder</text>
<polyline fill="none" stroke="black" points="92.5,-63.5 245.5,-63.5 "/>
<text text-anchor="start" x="100.5" y="-51.5" font-family="Helvetica,sans-Serif" font-size="10.00">+ __init__()</text>
<text text-anchor="start" x="100.5" y="-40.5" font-family="Helvetica,sans-Serif" font-size="10.00">+ __eq__()</text>
<text text-anchor="start" x="100.5" y="-29.5" font-family="Helvetica,sans-Serif" font-size="10.00">+ __getattribute__()</text>
<text text-anchor="start" x="100.5" y="-18.5" font-family="Helvetica,sans-Serif" font-size="10.00">+ getLockFilePath()</text>
<text text-anchor="start" x="100.5" y="-7.5" font-family="Helvetica,sans-Serif" font-size="10.00">+ getSlotsTakenByAnyone()</text>
</g>
<!-- Node2 -->
<g id="node2" class="node"><title>Node2</title>
<g id="a_node2"><a xlink:href="class_lang_1_1_concurrency_1_1abstract_1_1_lock.html" target="_top" xlink:title="{Lang.Concurrency.abstract.Lock\n||+ __init__()\l+ getMaxSlots()\l+ isAcquiredByAnyone()\l+ isAcquiredBySelf()\l}">
<polygon fill="none" stroke="black" points="0,-161 0,-251 160,-251 160,-161 0,-161"/>
<text text-anchor="middle" x="80" y="-239" font-family="Helvetica,sans-Serif" font-size="10.00">Lang.Concurrency.abstract.Lock</text>
<polyline fill="none" stroke="black" points="0,-232 160,-232 "/>
<text text-anchor="middle" x="80" y="-220" font-family="Helvetica,sans-Serif" font-size="10.00"> </text>
<polyline fill="none" stroke="black" points="0,-213 160,-213 "/>
<text text-anchor="start" x="8" y="-201" font-family="Helvetica,sans-Serif" font-size="10.00">+ __init__()</text>
<text text-anchor="start" x="8" y="-190" font-family="Helvetica,sans-Serif" font-size="10.00">+ getMaxSlots()</text>
<text text-anchor="start" x="8" y="-179" font-family="Helvetica,sans-Serif" font-size="10.00">+ isAcquiredByAnyone()</text>
<text text-anchor="start" x="8" y="-168" font-family="Helvetica,sans-Serif" font-size="10.00">+ isAcquiredBySelf()</text>
</a>
</g>
</g>
<!-- Node2&#45;&gt;Node1 -->
<g id="edge1" class="edge"><title>Node2&#45;&gt;Node1</title>
<path fill="none" stroke="midnightblue" d="M113.162,-152.09C118.991,-142.789 125.099,-133.044 131.047,-123.554"/>
<polygon fill="none" stroke="midnightblue" points="110.017,-150.517 107.672,-160.849 115.949,-154.234 110.017,-150.517"/>
</g>
<!-- Node3 -->
<g id="node3" class="node"><title>Node3</title>
<g id="a_node3"><a xlink:href="class_lang_1_1_concurrency_1_1abstract_1_1_lock_semaphore.html" target="_top" xlink:title="There are multiple ways to use subclasses of this class: ">
<polygon fill="none" stroke="black" points="9.5,-288.5 9.5,-499.5 150.5,-499.5 150.5,-288.5 9.5,-288.5"/>
<text text-anchor="start" x="17.5" y="-487.5" font-family="Helvetica,sans-Serif" font-size="10.00">Lang.Concurrency.abstract.</text>
<text text-anchor="middle" x="80" y="-476.5" font-family="Helvetica,sans-Serif" font-size="10.00">LockSemaphore</text>
<polyline fill="none" stroke="black" points="9.5,-469.5 150.5,-469.5 "/>
<text text-anchor="middle" x="80" y="-457.5" font-family="Helvetica,sans-Serif" font-size="10.00"> </text>
<polyline fill="none" stroke="black" points="9.5,-450.5 150.5,-450.5 "/>
<text text-anchor="start" x="17.5" y="-438.5" font-family="Helvetica,sans-Serif" font-size="10.00">+ __init__()</text>
<text text-anchor="start" x="17.5" y="-427.5" font-family="Helvetica,sans-Serif" font-size="10.00">+ __str__()</text>
<text text-anchor="start" x="17.5" y="-416.5" font-family="Helvetica,sans-Serif" font-size="10.00">+ __getstate__()</text>
<text text-anchor="start" x="17.5" y="-405.5" font-family="Helvetica,sans-Serif" font-size="10.00">+ __eq__()</text>
<text text-anchor="start" x="17.5" y="-394.5" font-family="Helvetica,sans-Serif" font-size="10.00">+ __ne__()</text>
<text text-anchor="start" x="17.5" y="-383.5" font-family="Helvetica,sans-Serif" font-size="10.00">+ getMaxSlots()</text>
<text text-anchor="start" x="17.5" y="-372.5" font-family="Helvetica,sans-Serif" font-size="10.00">+ getSlotsTakenByAnyone()</text>
<text text-anchor="start" x="17.5" y="-361.5" font-family="Helvetica,sans-Serif" font-size="10.00">+ getSlotsTakenBySelf()</text>
<text text-anchor="start" x="17.5" y="-350.5" font-family="Helvetica,sans-Serif" font-size="10.00">+ getSlotsAvailable()</text>
<text text-anchor="start" x="17.5" y="-339.5" font-family="Helvetica,sans-Serif" font-size="10.00">+ hasAvailableSlot()</text>
<text text-anchor="start" x="17.5" y="-328.5" font-family="Helvetica,sans-Serif" font-size="10.00">+ acquire()</text>
<text text-anchor="start" x="17.5" y="-317.5" font-family="Helvetica,sans-Serif" font-size="10.00">+ release()</text>
<text text-anchor="start" x="17.5" y="-306.5" font-family="Helvetica,sans-Serif" font-size="10.00">+ __enter__()</text>
<text text-anchor="start" x="17.5" y="-295.5" font-family="Helvetica,sans-Serif" font-size="10.00">+ __exit__()</text>
</a>
</g>
</g>
<!-- Node3&#45;&gt;Node2 -->
<g id="edge2" class="edge"><title>Node3&#45;&gt;Node2</title>
<path fill="none" stroke="midnightblue" d="M80,-278.297C80,-268.782 80,-259.587 80,-251.143"/>
<polygon fill="none" stroke="midnightblue" points="76.5001,-278.312 80,-288.312 83.5001,-278.312 76.5001,-278.312"/>
</g>
<!-- Node4 -->
<g id="node4" class="node"><title>Node4</title>
<g id="a_node4"><a xlink:href="classobject.html" target="_top" xlink:title="{object\n||}">
<polygon fill="none" stroke="black" points="58.5,-536.5 58.5,-593.5 101.5,-593.5 101.5,-536.5 58.5,-536.5"/>
<text text-anchor="middle" x="80" y="-581.5" font-family="Helvetica,sans-Serif" font-size="10.00">object</text>
<polyline fill="none" stroke="black" points="58.5,-574.5 101.5,-574.5 "/>
<text text-anchor="middle" x="80" y="-562.5" font-family="Helvetica,sans-Serif" font-size="10.00"> </text>
<polyline fill="none" stroke="black" points="58.5,-555.5 101.5,-555.5 "/>
<text text-anchor="middle" x="80" y="-543.5" font-family="Helvetica,sans-Serif" font-size="10.00"> </text>
</a>
</g>
</g>
<!-- Node4&#45;&gt;Node3 -->
<g id="edge3" class="edge"><title>Node4&#45;&gt;Node3</title>
<path fill="none" stroke="midnightblue" d="M80,-526.233C80,-518.038 80,-508.987 80,-499.584"/>
<polygon fill="none" stroke="midnightblue" points="76.5001,-526.471 80,-536.471 83.5001,-526.471 76.5001,-526.471"/>
</g>
<!-- Node5 -->
<g id="node5" class="node"><title>Node5</title>
<polygon fill="none" stroke="#bfbfbf" points="178,-172 178,-240 338,-240 338,-172 178,-172"/>
<text text-anchor="start" x="186" y="-228" font-family="Helvetica,sans-Serif" font-size="10.00">Multiton_OneEquivalentInstance</text>
<text text-anchor="middle" x="258" y="-217" font-family="Helvetica,sans-Serif" font-size="10.00">_OnDupReturnExisting</text>
<polyline fill="none" stroke="#bfbfbf" points="178,-210 338,-210 "/>
<text text-anchor="middle" x="258" y="-198" font-family="Helvetica,sans-Serif" font-size="10.00"> </text>
<polyline fill="none" stroke="#bfbfbf" points="178,-191 338,-191 "/>
<text text-anchor="middle" x="258" y="-179" font-family="Helvetica,sans-Serif" font-size="10.00"> </text>
</g>
<!-- Node5&#45;&gt;Node1 -->
<g id="edge4" class="edge"><title>Node5&#45;&gt;Node1</title>
<path fill="none" stroke="midnightblue" d="M231.675,-162.998C223.94,-150.657 215.32,-136.905 207.01,-123.645"/>
<polygon fill="none" stroke="midnightblue" points="228.857,-165.093 237.133,-171.707 234.788,-161.375 228.857,-165.093"/>
</g>
</g>
</svg>
