<?xml version="1.0" encoding="UTF-8" standalone="no"?>
<!DOCTYPE svg PUBLIC "-//W3C//DTD SVG 1.1//EN"
 "http://www.w3.org/Graphics/SVG/1.1/DTD/svg11.dtd">
<!-- Generated by graphviz version 2.36.0 (20140111.2315)
 -->
<!-- Title: Lang.Concurrency.abstract.LockSemaphore Pages: 1 -->
<svg width="526pt" height="602pt"
 viewBox="0.00 0.00 526.00 602.00" xmlns="http://www.w3.org/2000/svg" xmlns:xlink="http://www.w3.org/1999/xlink">
<g id="graph0" class="graph" transform="scale(1 1) rotate(0) translate(4 598)">
<title>Lang.Concurrency.abstract.LockSemaphore</title>
<!-- Node1 -->
<g id="node1" class="node"><title>Node1</title>
<polygon fill="#bfbfbf" stroke="black" points="282.5,-288.5 282.5,-499.5 423.5,-499.5 423.5,-288.5 282.5,-288.5"/>
<text text-anchor="start" x="290.5" y="-487.5" font-family="Helvetica,sans-Serif" font-size="10.00">Lang.Concurrency.abstract.</text>
<text text-anchor="middle" x="353" y="-476.5" font-family="Helvetica,sans-Serif" font-size="10.00">LockSemaphore</text>
<polyline fill="none" stroke="black" points="282.5,-469.5 423.5,-469.5 "/>
<text text-anchor="middle" x="353" y="-457.5" font-family="Helvetica,sans-Serif" font-size="10.00"> </text>
<polyline fill="none" stroke="black" points="282.5,-450.5 423.5,-450.5 "/>
<text text-anchor="start" x="290.5" y="-438.5" font-family="Helvetica,sans-Serif" font-size="10.00">+ __init__()</text>
<text text-anchor="start" x="290.5" y="-427.5" font-family="Helvetica,sans-Serif" font-size="10.00">+ __str__()</text>
<text text-anchor="start" x="290.5" y="-416.5" font-family="Helvetica,sans-Serif" font-size="10.00">+ __getstate__()</text>
<text text-anchor="start" x="290.5" y="-405.5" font-family="Helvetica,sans-Serif" font-size="10.00">+ __eq__()</text>
<text text-anchor="start" x="290.5" y="-394.5" font-family="Helvetica,sans-Serif" font-size="10.00">+ __ne__()</text>
<text text-anchor="start" x="290.5" y="-383.5" font-family="Helvetica,sans-Serif" font-size="10.00">+ getMaxSlots()</text>
<text text-anchor="start" x="290.5" y="-372.5" font-family="Helvetica,sans-Serif" font-size="10.00">+ getSlotsTakenByAnyone()</text>
<text text-anchor="start" x="290.5" y="-361.5" font-family="Helvetica,sans-Serif" font-size="10.00">+ getSlotsTakenBySelf()</text>
<text text-anchor="start" x="290.5" y="-350.5" font-family="Helvetica,sans-Serif" font-size="10.00">+ getSlotsAvailable()</text>
<text text-anchor="start" x="290.5" y="-339.5" font-family="Helvetica,sans-Serif" font-size="10.00">+ hasAvailableSlot()</text>
<text text-anchor="start" x="290.5" y="-328.5" font-family="Helvetica,sans-Serif" font-size="10.00">+ acquire()</text>
<text text-anchor="start" x="290.5" y="-317.5" font-family="Helvetica,sans-Serif" font-size="10.00">+ release()</text>
<text text-anchor="start" x="290.5" y="-306.5" font-family="Helvetica,sans-Serif" font-size="10.00">+ __enter__()</text>
<text text-anchor="start" x="290.5" y="-295.5" font-family="Helvetica,sans-Serif" font-size="10.00">+ __exit__()</text>
</g>
<!-- Node3 -->
<g id="node3" class="node"><title>Node3</title>
<g id="a_node3"><a xlink:href="class_lang_1_1_concurrency_1_1abstract_1_1_lock.html" target="_top" xlink:title="{Lang.Concurrency.abstract.Lock\n||+ __init__()\l+ getMaxSlots()\l+ isAcquiredByAnyone()\l+ isAcquiredBySelf()\l}">
<polygon fill="none" stroke="black" points="189,-161 189,-251 349,-251 349,-161 189,-161"/>
<text text-anchor="middle" x="269" y="-239" font-family="Helvetica,sans-Serif" font-size="10.00">Lang.Concurrency.abstract.Lock</text>
<polyline fill="none" stroke="black" points="189,-232 349,-232 "/>
<text text-anchor="middle" x="269" y="-220" font-family="Helvetica,sans-Serif" font-size="10.00"> </text>
<polyline fill="none" stroke="black" points="189,-213 349,-213 "/>
<text text-anchor="start" x="197" y="-201" font-family="Helvetica,sans-Serif" font-size="10.00">+ __init__()</text>
<text text-anchor="start" x="197" y="-190" font-family="Helvetica,sans-Serif" font-size="10.00">+ getMaxSlots()</text>
<text text-anchor="start" x="197" y="-179" font-family="Helvetica,sans-Serif" font-size="10.00">+ isAcquiredByAnyone()</text>
<text text-anchor="start" x="197" y="-168" font-family="Helvetica,sans-Serif" font-size="10.00">+ isAcquiredBySelf()</text>
</a>
</g>
</g>
<!-- Node1&#45;&gt;Node3 -->
<g id="edge2" class="edge"><title>Node1&#45;&gt;Node3</title>
<path fill="none" stroke="midnightblue" d="M301.47,-278.899C297.076,-269.169 292.829,-259.765 288.936,-251.143"/>
<polygon fill="none" stroke="midnightblue" points="298.416,-280.639 305.721,-288.312 304.795,-277.757 298.416,-280.639"/>
</g>
<!-- Node6 -->
<g id="node6" class="node"><title>Node6</title>
<g id="a_node6"><a xlink:href="class_lang_1_1_concurrency_1_1abstract_1_1_semaphore.html" target="_top" xlink:title="{Lang.Concurrency.abstract.\lSemaphore\n||}">
<polygon fill="none" stroke="black" points="369.5,-172 369.5,-240 508.5,-240 508.5,-172 369.5,-172"/>
<text text-anchor="start" x="377.5" y="-228" font-family="Helvetica,sans-Serif" font-size="10.00">Lang.Concurrency.abstract.</text>
<text text-anchor="middle" x="439" y="-217" font-family="Helvetica,sans-Serif" font-size="10.00">Semaphore</text>
<polyline fill="none" stroke="black" points="369.5,-210 508.5,-210 "/>
<text text-anchor="middle" x="439" y="-198" font-family="Helvetica,sans-Serif" font-size="10.00"> </text>
<polyline fill="none" stroke="black" points="369.5,-191 508.5,-191 "/>
<text text-anchor="middle" x="439" y="-179" font-family="Helvetica,sans-Serif" font-size="10.00"> </text>
</a>
</g>
</g>
<!-- Node1&#45;&gt;Node6 -->
<g id="edge5" class="edge"><title>Node1&#45;&gt;Node6</title>
<path fill="none" stroke="midnightblue" d="M405.697,-279.028C412.171,-265.026 418.336,-251.693 423.562,-240.39"/>
<polygon fill="none" stroke="midnightblue" points="402.424,-277.766 401.404,-288.312 408.778,-280.704 402.424,-277.766"/>
</g>
<!-- Node2 -->
<g id="node2" class="node"><title>Node2</title>
<g id="a_node2"><a xlink:href="classobject.html" target="_top" xlink:title="{object\n||}">
<polygon fill="none" stroke="black" points="331.5,-536.5 331.5,-593.5 374.5,-593.5 374.5,-536.5 331.5,-536.5"/>
<text text-anchor="middle" x="353" y="-581.5" font-family="Helvetica,sans-Serif" font-size="10.00">object</text>
<polyline fill="none" stroke="black" points="331.5,-574.5 374.5,-574.5 "/>
<text text-anchor="middle" x="353" y="-562.5" font-family="Helvetica,sans-Serif" font-size="10.00"> </text>
<polyline fill="none" stroke="black" points="331.5,-555.5 374.5,-555.5 "/>
<text text-anchor="middle" x="353" y="-543.5" font-family="Helvetica,sans-Serif" font-size="10.00"> </text>
</a>
</g>
</g>
<!-- Node2&#45;&gt;Node1 -->
<g id="edge1" class="edge"><title>Node2&#45;&gt;Node1</title>
<path fill="none" stroke="midnightblue" d="M353,-526.233C353,-518.038 353,-508.987 353,-499.584"/>
<polygon fill="none" stroke="midnightblue" points="349.5,-526.471 353,-536.471 356.5,-526.471 349.5,-526.471"/>
</g>
<!-- Node4 -->
<g id="node4" class="node"><title>Node4</title>
<g id="a_node4"><a xlink:href="class_lang_1_1_concurrency_1_1___threading_1_1_lock.html" target="_top" xlink:title="{Lang.Concurrency._Threading.Lock\n||}">
<polygon fill="none" stroke="black" points="-0.5,-33.5 -0.5,-90.5 174.5,-90.5 174.5,-33.5 -0.5,-33.5"/>
<text text-anchor="middle" x="87" y="-78.5" font-family="Helvetica,sans-Serif" font-size="10.00">Lang.Concurrency._Threading.Lock</text>
<polyline fill="none" stroke="black" points="-0.5,-71.5 174.5,-71.5 "/>
<text text-anchor="middle" x="87" y="-59.5" font-family="Helvetica,sans-Serif" font-size="10.00"> </text>
<polyline fill="none" stroke="black" points="-0.5,-52.5 174.5,-52.5 "/>
<text text-anchor="middle" x="87" y="-40.5" font-family="Helvetica,sans-Serif" font-size="10.00"> </text>
</a>
</g>
</g>
<!-- Node3&#45;&gt;Node4 -->
<g id="edge3" class="edge"><title>Node3&#45;&gt;Node4</title>
<path fill="none" stroke="midnightblue" d="M204.355,-154.563C176.763,-133.035 145.633,-108.747 122.371,-90.5975"/>
<polygon fill="none" stroke="midnightblue" points="202.375,-157.457 212.412,-160.849 206.681,-151.938 202.375,-157.457"/>
</g>
<!-- Node5 -->
<g id="node5" class="node"><title>Node5</title>
<g id="a_node5"><a xlink:href="class_lang_1_1_concurrency_1_1_file_system_1_1___lock_1_1_file_lock___by_f_c_n_t_l.html" target="_top" xlink:title="Pros of this solution: ">
<polygon fill="none" stroke="black" points="192.5,-0.5 192.5,-123.5 345.5,-123.5 345.5,-0.5 192.5,-0.5"/>
<text text-anchor="start" x="200.5" y="-111.5" font-family="Helvetica,sans-Serif" font-size="10.00">Lang.Concurrency.FileSystem.</text>
<text text-anchor="middle" x="269" y="-100.5" font-family="Helvetica,sans-Serif" font-size="10.00">_Lock.FileLock_ByFCNTL</text>
<polyline fill="none" stroke="black" points="192.5,-93.5 345.5,-93.5 "/>
<text text-anchor="start" x="200.5" y="-81.5" font-family="Helvetica,sans-Serif" font-size="10.00">+ lockName</text>
<text text-anchor="start" x="200.5" y="-70.5" font-family="Helvetica,sans-Serif" font-size="10.00">+ lockFolder</text>
<polyline fill="none" stroke="black" points="192.5,-63.5 345.5,-63.5 "/>
<text text-anchor="start" x="200.5" y="-51.5" font-family="Helvetica,sans-Serif" font-size="10.00">+ __init__()</text>
<text text-anchor="start" x="200.5" y="-40.5" font-family="Helvetica,sans-Serif" font-size="10.00">+ __eq__()</text>
<text text-anchor="start" x="200.5" y="-29.5" font-family="Helvetica,sans-Serif" font-size="10.00">+ __getattribute__()</text>
<text text-anchor="start" x="200.5" y="-18.5" font-family="Helvetica,sans-Serif" font-size="10.00">+ getLockFilePath()</text>
<text text-anchor="start" x="200.5" y="-7.5" font-family="Helvetica,sans-Serif" font-size="10.00">+ getSlotsTakenByAnyone()</text>
</a>
</g>
</g>
<!-- Node3&#45;&gt;Node5 -->
<g id="edge4" class="edge"><title>Node3&#45;&gt;Node5</title>
<path fill="none" stroke="midnightblue" d="M269,-150.648C269,-141.785 269,-132.555 269,-123.554"/>
<polygon fill="none" stroke="midnightblue" points="265.5,-150.849 269,-160.849 272.5,-150.849 265.5,-150.849"/>
</g>
<!-- Node7 -->
<g id="node7" class="node"><title>Node7</title>
<g id="a_node7"><a xlink:href="class_lang_1_1_concurrency_1_1___threading_1_1_semaphore.html" target="_top" xlink:title="{Lang.Concurrency._Threading.\lSemaphore\n||}">
<polygon fill="none" stroke="black" points="364,-28 364,-96 518,-96 518,-28 364,-28"/>
<text text-anchor="start" x="372" y="-84" font-family="Helvetica,sans-Serif" font-size="10.00">Lang.Concurrency._Threading.</text>
<text text-anchor="middle" x="441" y="-73" font-family="Helvetica,sans-Serif" font-size="10.00">Semaphore</text>
<polyline fill="none" stroke="black" points="364,-66 518,-66 "/>
<text text-anchor="middle" x="441" y="-54" font-family="Helvetica,sans-Serif" font-size="10.00"> </text>
<polyline fill="none" stroke="black" points="364,-47 518,-47 "/>
<text text-anchor="middle" x="441" y="-35" font-family="Helvetica,sans-Serif" font-size="10.00"> </text>
</a>
</g>
</g>
<!-- Node6&#45;&gt;Node7 -->
<g id="edge6" class="edge"><title>Node6&#45;&gt;Node7</title>
<path fill="none" stroke="midnightblue" d="M439.61,-161.701C439.907,-140.601 440.259,-115.63 440.534,-96.0841"/>
<polygon fill="none" stroke="midnightblue" points="436.11,-161.659 439.469,-171.707 443.109,-161.758 436.11,-161.659"/>
</g>
</g>
</svg>
