<?xml version="1.0" encoding="UTF-8" standalone="no"?>
<!DOCTYPE svg PUBLIC "-//W3C//DTD SVG 1.1//EN"
 "http://www.w3.org/Graphics/SVG/1.1/DTD/svg11.dtd">
<!-- Generated by graphviz version 2.36.0 (20140111.2315)
 -->
<!-- Title: Lang.Concurrency.FileSystem._Lock.FileLock_ByFCNTL.getSlotsTakenByAnyone Pages: 1 -->
<svg width="430pt" height="234pt"
 viewBox="0.00 0.00 430.00 234.00" xmlns="http://www.w3.org/2000/svg" xmlns:xlink="http://www.w3.org/1999/xlink">
<g id="graph0" class="graph" transform="scale(1 1) rotate(0) translate(4 230)">
<title>Lang.Concurrency.FileSystem._Lock.FileLock_ByFCNTL.getSlotsTakenByAnyone</title>
<!-- Node1 -->
<g id="node1" class="node"><title>Node1</title>
<polygon fill="#bfbfbf" stroke="black" points="0.5,-92.5 0.5,-133.5 199.5,-133.5 199.5,-92.5 0.5,-92.5"/>
<text text-anchor="start" x="8.5" y="-121.5" font-family="Helvetica,sans-Serif" font-size="10.00">Lang.Concurrency.FileSystem.</text>
<text text-anchor="start" x="8.5" y="-110.5" font-family="Helvetica,sans-Serif" font-size="10.00">_Lock.FileLock_ByFCNTL.getSlotsTaken</text>
<text text-anchor="middle" x="100" y="-99.5" font-family="Helvetica,sans-Serif" font-size="10.00">ByAnyone</text>
</g>
<!-- Node2 -->
<g id="node2" class="node"><title>Node2</title>
<g id="a_node2"><a xlink:href="class_lang_1_1_concurrency_1_1abstract_1_1_lock_semaphore.html#ae687dfe782a109b12e1f3e80b656872b" target="_top" xlink:title="Lang.Concurrency.abstract.\lLockSemaphore.getSlotsTakenBySelf">
<polygon fill="none" stroke="black" points="236.5,-196 236.5,-226 421.5,-226 421.5,-196 236.5,-196"/>
<text text-anchor="start" x="244.5" y="-214" font-family="Helvetica,sans-Serif" font-size="10.00">Lang.Concurrency.abstract.</text>
<text text-anchor="middle" x="329" y="-203" font-family="Helvetica,sans-Serif" font-size="10.00">LockSemaphore.getSlotsTakenBySelf</text>
</a>
</g>
</g>
<!-- Node1&#45;&gt;Node2 -->
<g id="edge1" class="edge"><title>Node1&#45;&gt;Node2</title>
<path fill="none" stroke="midnightblue" d="M133.803,-133.521C160.519,-149.542 199.634,-171.453 236,-186 242.195,-188.478 248.72,-190.796 255.318,-192.942"/>
<polygon fill="midnightblue" stroke="midnightblue" points="254.418,-196.327 265.007,-195.962 256.502,-189.645 254.418,-196.327"/>
</g>
<!-- Node3 -->
<g id="node3" class="node"><title>Node3</title>
<g id="a_node3"><a xlink:href="class_lang_1_1_concurrency_1_1___threading_1_1___threading_adapter.html#ac470982a3ad9bb7834850c351f270293" target="_top" xlink:title="http://docs.python.org/2/library/threading.html#threading.Lock.acquire ">
<polygon fill="none" stroke="black" points="252,-147 252,-177 406,-177 406,-147 252,-147"/>
<text text-anchor="start" x="260" y="-165" font-family="Helvetica,sans-Serif" font-size="10.00">Lang.Concurrency._Threading.</text>
<text text-anchor="middle" x="329" y="-154" font-family="Helvetica,sans-Serif" font-size="10.00">_ThreadingAdapter._acquire</text>
</a>
</g>
</g>
<!-- Node1&#45;&gt;Node3 -->
<g id="edge2" class="edge"><title>Node1&#45;&gt;Node3</title>
<path fill="none" stroke="midnightblue" d="M196.282,-133.567C213.727,-137.333 231.761,-141.226 248.679,-144.878"/>
<polygon fill="midnightblue" stroke="midnightblue" points="247.984,-148.308 258.497,-146.997 249.461,-141.466 247.984,-148.308"/>
</g>
<!-- Node4 -->
<g id="node4" class="node"><title>Node4</title>
<g id="a_node4"><a xlink:href="class_lang_1_1_concurrency_1_1abstract_1_1_lock_semaphore.html#a252560d171d768f5e501419e2f496572" target="_top" xlink:title="Lang.Concurrency.abstract.\lLockSemaphore._acquire">
<polygon fill="none" stroke="black" points="259.5,-98 259.5,-128 398.5,-128 398.5,-98 259.5,-98"/>
<text text-anchor="start" x="267.5" y="-116" font-family="Helvetica,sans-Serif" font-size="10.00">Lang.Concurrency.abstract.</text>
<text text-anchor="middle" x="329" y="-105" font-family="Helvetica,sans-Serif" font-size="10.00">LockSemaphore._acquire</text>
</a>
</g>
</g>
<!-- Node1&#45;&gt;Node4 -->
<g id="edge3" class="edge"><title>Node1&#45;&gt;Node4</title>
<path fill="none" stroke="midnightblue" d="M199.575,-113C216.064,-113 232.981,-113 248.901,-113"/>
<polygon fill="midnightblue" stroke="midnightblue" points="249.204,-116.5 259.204,-113 249.204,-109.5 249.204,-116.5"/>
</g>
<!-- Node5 -->
<g id="node5" class="node"><title>Node5</title>
<g id="a_node5"><a xlink:href="class_lang_1_1_concurrency_1_1___threading_1_1___threading_adapter.html#ae1f8a05015754cecd7f392156803a692" target="_top" xlink:title="http://docs.python.org/2/library/threading.html#threading.Lock.release ">
<polygon fill="none" stroke="black" points="252,-49 252,-79 406,-79 406,-49 252,-49"/>
<text text-anchor="start" x="260" y="-67" font-family="Helvetica,sans-Serif" font-size="10.00">Lang.Concurrency._Threading.</text>
<text text-anchor="middle" x="329" y="-56" font-family="Helvetica,sans-Serif" font-size="10.00">_ThreadingAdapter._release</text>
</a>
</g>
</g>
<!-- Node1&#45;&gt;Node5 -->
<g id="edge4" class="edge"><title>Node1&#45;&gt;Node5</title>
<path fill="none" stroke="midnightblue" d="M196.282,-92.4326C213.727,-88.6669 231.761,-84.774 248.679,-81.1222"/>
<polygon fill="midnightblue" stroke="midnightblue" points="249.461,-84.5341 258.497,-79.0028 247.984,-77.6917 249.461,-84.5341"/>
</g>
<!-- Node6 -->
<g id="node6" class="node"><title>Node6</title>
<g id="a_node6"><a xlink:href="class_lang_1_1_concurrency_1_1abstract_1_1_lock_semaphore.html#a9dfb7b72008620bfa9a1e2ee454140d7" target="_top" xlink:title="Lang.Concurrency.abstract.\lLockSemaphore._release">
<polygon fill="none" stroke="black" points="259.5,-0 259.5,-30 398.5,-30 398.5,-0 259.5,-0"/>
<text text-anchor="start" x="267.5" y="-18" font-family="Helvetica,sans-Serif" font-size="10.00">Lang.Concurrency.abstract.</text>
<text text-anchor="middle" x="329" y="-7" font-family="Helvetica,sans-Serif" font-size="10.00">LockSemaphore._release</text>
</a>
</g>
</g>
<!-- Node1&#45;&gt;Node6 -->
<g id="edge5" class="edge"><title>Node1&#45;&gt;Node6</title>
<path fill="none" stroke="midnightblue" d="M133.803,-92.4789C160.519,-76.4577 199.634,-54.547 236,-40 242.195,-37.5219 248.72,-35.2043 255.318,-33.0582"/>
<polygon fill="midnightblue" stroke="midnightblue" points="256.502,-36.3554 265.007,-30.0377 254.418,-29.6726 256.502,-36.3554"/>
</g>
</g>
</svg>
