<?xml version="1.0" encoding="UTF-8" standalone="no"?>
<!DOCTYPE svg PUBLIC "-//W3C//DTD SVG 1.1//EN"
 "http://www.w3.org/Graphics/SVG/1.1/DTD/svg11.dtd">
<!-- Generated by graphviz version 2.30.1 (20130219.2202)
 -->
<!-- Title: object Pages: 1 -->
<svg width="1163pt" height="526pt"
 viewBox="0.00 0.00 1163.00 526.00" xmlns="http://www.w3.org/2000/svg" xmlns:xlink="http://www.w3.org/1999/xlink">
<g id="graph0" class="graph" transform="scale(1 1) rotate(0) translate(4 522)">
<title>object</title>
<!-- Node1 -->
<g id="node1" class="node"><title>Node1</title>
<polygon fill="#bfbfbf" stroke="black" points="587,-460.5 587,-517.5 629,-517.5 629,-460.5 587,-460.5"/>
<text text-anchor="middle" x="608" y="-505.5" font-family="Helvetica,sans-Serif" font-size="10.00">object</text>
<polyline fill="none" stroke="black" points="587,-498.5 629,-498.5 "/>
<text text-anchor="middle" x="608" y="-486.5" font-family="Helvetica,sans-Serif" font-size="10.00"> </text>
<polyline fill="none" stroke="black" points="587,-479.5 629,-479.5 "/>
<text text-anchor="middle" x="608" y="-467.5" font-family="Helvetica,sans-Serif" font-size="10.00"> </text>
</g>
<!-- Node2 -->
<g id="node2" class="node"><title>Node2</title>
<g id="a_node2"><a xlink:href="class_lang_1_1_diff_1_1___block_side.html" target="_top" xlink:title="{Lang.Diff._BlockSide\n|+ index\l+ size\l|+ __init__()\l+ __str__()\l+ __repr__()\l}">
<polygon fill="none" stroke="black" points="155.5,-289 155.5,-379 258.5,-379 258.5,-289 155.5,-289"/>
<text text-anchor="middle" x="207" y="-367" font-family="Helvetica,sans-Serif" font-size="10.00">Lang.Diff._BlockSide</text>
<polyline fill="none" stroke="black" points="155.5,-360 258.5,-360 "/>
<text text-anchor="start" x="163.5" y="-348" font-family="Helvetica,sans-Serif" font-size="10.00">+ index</text>
<text text-anchor="start" x="163.5" y="-337" font-family="Helvetica,sans-Serif" font-size="10.00">+ size</text>
<polyline fill="none" stroke="black" points="155.5,-330 258.5,-330 "/>
<text text-anchor="start" x="163.5" y="-318" font-family="Helvetica,sans-Serif" font-size="10.00">+ __init__()</text>
<text text-anchor="start" x="163.5" y="-307" font-family="Helvetica,sans-Serif" font-size="10.00">+ __str__()</text>
<text text-anchor="start" x="163.5" y="-296" font-family="Helvetica,sans-Serif" font-size="10.00">+ __repr__()</text>
</a>
</g>
</g>
<!-- Node1&#45;&gt;Node2 -->
<g id="edge1" class="edge"><title>Node1&#45;&gt;Node2</title>
<path fill="none" stroke="midnightblue" d="M576.79,-485.227C502.602,-478.153 318.091,-457.589 267,-424 250.339,-413.047 237.124,-395.701 227.384,-379.221"/>
<polygon fill="none" stroke="midnightblue" points="576.624,-488.726 586.907,-486.172 577.276,-481.757 576.624,-488.726"/>
</g>
<!-- Node3 -->
<g id="node3" class="node"><title>Node3</title>
<g id="a_node3"><a xlink:href="class_lang_1_1_diff_1_1___elems_block_side.html" target="_top" xlink:title="elems attribute is guaranteed to be an iterable, not indexable">
<polygon fill="none" stroke="black" points="276.5,-283.5 276.5,-384.5 405.5,-384.5 405.5,-283.5 276.5,-283.5"/>
<text text-anchor="middle" x="341" y="-372.5" font-family="Helvetica,sans-Serif" font-size="10.00">Lang.Diff._ElemsBlockSide</text>
<polyline fill="none" stroke="black" points="276.5,-365.5 405.5,-365.5 "/>
<text text-anchor="start" x="284.5" y="-353.5" font-family="Helvetica,sans-Serif" font-size="10.00">+ block</text>
<text text-anchor="start" x="284.5" y="-342.5" font-family="Helvetica,sans-Serif" font-size="10.00">+ elems</text>
<polyline fill="none" stroke="black" points="276.5,-335.5 405.5,-335.5 "/>
<text text-anchor="start" x="284.5" y="-323.5" font-family="Helvetica,sans-Serif" font-size="10.00">+ __init__()</text>
<text text-anchor="start" x="284.5" y="-312.5" font-family="Helvetica,sans-Serif" font-size="10.00">+ __getattr__()</text>
<text text-anchor="start" x="284.5" y="-301.5" font-family="Helvetica,sans-Serif" font-size="10.00">+ __str__()</text>
<text text-anchor="start" x="284.5" y="-290.5" font-family="Helvetica,sans-Serif" font-size="10.00">+ __repr__()</text>
</a>
</g>
</g>
<!-- Node1&#45;&gt;Node3 -->
<g id="edge2" class="edge"><title>Node1&#45;&gt;Node3</title>
<path fill="none" stroke="midnightblue" d="M576.867,-483.156C536.631,-475.733 465.728,-458.607 415,-424 399.728,-413.582 385.876,-399.157 374.395,-384.951"/>
<polygon fill="none" stroke="midnightblue" points="576.428,-486.633 586.883,-484.919 577.641,-479.739 576.428,-486.633"/>
</g>
<!-- Node4 -->
<g id="node4" class="node"><title>Node4</title>
<g id="a_node4"><a xlink:href="class_lang_1_1_diff_1_1___two_side.html" target="_top" xlink:title="{Lang.Diff._TwoSide\n|+ a\l+ b\l|+ __init__()\l+ __str__()\l+ __repr__()\l}">
<polygon fill="none" stroke="black" points="423.5,-289 423.5,-379 522.5,-379 522.5,-289 423.5,-289"/>
<text text-anchor="middle" x="473" y="-367" font-family="Helvetica,sans-Serif" font-size="10.00">Lang.Diff._TwoSide</text>
<polyline fill="none" stroke="black" points="423.5,-360 522.5,-360 "/>
<text text-anchor="start" x="431.5" y="-348" font-family="Helvetica,sans-Serif" font-size="10.00">+ a</text>
<text text-anchor="start" x="431.5" y="-337" font-family="Helvetica,sans-Serif" font-size="10.00">+ b</text>
<polyline fill="none" stroke="black" points="423.5,-330 522.5,-330 "/>
<text text-anchor="start" x="431.5" y="-318" font-family="Helvetica,sans-Serif" font-size="10.00">+ __init__()</text>
<text text-anchor="start" x="431.5" y="-307" font-family="Helvetica,sans-Serif" font-size="10.00">+ __str__()</text>
<text text-anchor="start" x="431.5" y="-296" font-family="Helvetica,sans-Serif" font-size="10.00">+ __repr__()</text>
</a>
</g>
</g>
<!-- Node1&#45;&gt;Node4 -->
<g id="edge3" class="edge"><title>Node1&#45;&gt;Node4</title>
<path fill="none" stroke="midnightblue" d="M578.968,-466.761C564.023,-455.065 546.044,-439.752 532,-424 519.91,-410.44 508.43,-394.219 498.865,-379.362"/>
<polygon fill="none" stroke="midnightblue" points="576.852,-469.55 586.914,-472.867 581.117,-463.999 576.852,-469.55"/>
</g>
<!-- Node12 -->
<g id="node12" class="node"><title>Node12</title>
<g id="a_node12"><a xlink:href="class_lang_1_1_diff_1_1_sequence_matcher.html" target="_top" xlink:title="Improved difflib.SequenceMatcher.">
<polygon fill="none" stroke="black" points="541,-245 541,-423 675,-423 675,-245 541,-245"/>
<text text-anchor="middle" x="608" y="-411" font-family="Helvetica,sans-Serif" font-size="10.00">Lang.Diff.SequenceMatcher</text>
<polyline fill="none" stroke="black" points="541,-404 675,-404 "/>
<text text-anchor="middle" x="608" y="-392" font-family="Helvetica,sans-Serif" font-size="10.00"> </text>
<polyline fill="none" stroke="black" points="541,-385 675,-385 "/>
<text text-anchor="start" x="549" y="-373" font-family="Helvetica,sans-Serif" font-size="10.00">+ __init__()</text>
<text text-anchor="start" x="549" y="-362" font-family="Helvetica,sans-Serif" font-size="10.00">+ ratio()</text>
<text text-anchor="start" x="549" y="-351" font-family="Helvetica,sans-Serif" font-size="10.00">+ get_matching_blocks()</text>
<text text-anchor="start" x="549" y="-340" font-family="Helvetica,sans-Serif" font-size="10.00">+ get_mismatching_blocks()</text>
<text text-anchor="start" x="549" y="-329" font-family="Helvetica,sans-Serif" font-size="10.00">+ get_matching_elems()</text>
<text text-anchor="start" x="549" y="-318" font-family="Helvetica,sans-Serif" font-size="10.00">+ get_matching_elems</text>
<text text-anchor="start" x="549" y="-307" font-family="Helvetica,sans-Serif" font-size="10.00">_useOnce()</text>
<text text-anchor="start" x="549" y="-296" font-family="Helvetica,sans-Serif" font-size="10.00">+ get_mismatching_elems()</text>
<text text-anchor="start" x="549" y="-285" font-family="Helvetica,sans-Serif" font-size="10.00">+ get_mismatching_elems</text>
<text text-anchor="start" x="549" y="-274" font-family="Helvetica,sans-Serif" font-size="10.00">_useOnce()</text>
<text text-anchor="start" x="549" y="-263" font-family="Helvetica,sans-Serif" font-size="10.00">+ get_matching()</text>
<text text-anchor="start" x="549" y="-252" font-family="Helvetica,sans-Serif" font-size="10.00">+ get_mismatching()</text>
</a>
</g>
</g>
<!-- Node1&#45;&gt;Node12 -->
<g id="edge11" class="edge"><title>Node1&#45;&gt;Node12</title>
<path fill="none" stroke="midnightblue" d="M608,-450.166C608,-441.781 608,-432.554 608,-423.086"/>
<polygon fill="none" stroke="midnightblue" points="604.5,-450.293 608,-460.293 611.5,-450.293 604.5,-450.293"/>
</g>
<!-- Node13 -->
<g id="node13" class="node"><title>Node13</title>
<g id="a_node13"><a xlink:href="class_lang_1_1_events_1_1_proxy_1_1_event_receiver.html" target="_top" xlink:title="Feel free to use this class as a mixin for receiving specific events.">
<polygon fill="none" stroke="black" points="693.5,-305.5 693.5,-362.5 854.5,-362.5 854.5,-305.5 693.5,-305.5"/>
<text text-anchor="middle" x="774" y="-350.5" font-family="Helvetica,sans-Serif" font-size="10.00">Lang.Events.Proxy.EventReceiver</text>
<polyline fill="none" stroke="black" points="693.5,-343.5 854.5,-343.5 "/>
<text text-anchor="middle" x="774" y="-331.5" font-family="Helvetica,sans-Serif" font-size="10.00"> </text>
<polyline fill="none" stroke="black" points="693.5,-324.5 854.5,-324.5 "/>
<text text-anchor="middle" x="774" y="-312.5" font-family="Helvetica,sans-Serif" font-size="10.00"> </text>
</a>
</g>
</g>
<!-- Node1&#45;&gt;Node13 -->
<g id="edge12" class="edge"><title>Node1&#45;&gt;Node13</title>
<path fill="none" stroke="midnightblue" d="M637.083,-464.432C651.439,-452.567 668.877,-437.804 684,-424 705.748,-404.148 729.387,-380.694 746.979,-362.848"/>
<polygon fill="none" stroke="midnightblue" points="634.531,-461.999 629.028,-471.053 638.976,-467.407 634.531,-461.999"/>
</g>
<!-- Node15 -->
<g id="node15" class="node"><title>Node15</title>
<g id="a_node15"><a xlink:href="class_lang_1_1_iter_1_1_peekable_iterable.html" target="_top" xlink:title="{Lang.Iter.PeekableIterable\n||+ __init__()\l+ __iter__()\l+ __getattr__()\l}">
<polygon fill="none" stroke="black" points="873,-294.5 873,-373.5 999,-373.5 999,-294.5 873,-294.5"/>
<text text-anchor="middle" x="936" y="-361.5" font-family="Helvetica,sans-Serif" font-size="10.00">Lang.Iter.PeekableIterable</text>
<polyline fill="none" stroke="black" points="873,-354.5 999,-354.5 "/>
<text text-anchor="middle" x="936" y="-342.5" font-family="Helvetica,sans-Serif" font-size="10.00"> </text>
<polyline fill="none" stroke="black" points="873,-335.5 999,-335.5 "/>
<text text-anchor="start" x="881" y="-323.5" font-family="Helvetica,sans-Serif" font-size="10.00">+ __init__()</text>
<text text-anchor="start" x="881" y="-312.5" font-family="Helvetica,sans-Serif" font-size="10.00">+ __iter__()</text>
<text text-anchor="start" x="881" y="-301.5" font-family="Helvetica,sans-Serif" font-size="10.00">+ __getattr__()</text>
</a>
</g>
</g>
<!-- Node1&#45;&gt;Node15 -->
<g id="edge14" class="edge"><title>Node1&#45;&gt;Node15</title>
<path fill="none" stroke="midnightblue" d="M639.243,-486.413C689.919,-482.542 791.553,-469.28 863,-424 882.918,-411.377 899.984,-391.481 912.595,-373.7"/>
<polygon fill="none" stroke="midnightblue" points="638.967,-482.924 629.232,-487.105 639.45,-489.907 638.967,-482.924"/>
</g>
<!-- Node16 -->
<g id="node16" class="node"><title>Node16</title>
<g id="a_node16"><a xlink:href="class_lang_1_1_struct_1_1___ordered_set_1_1_link.html" target="_top" xlink:title="{Lang.Struct._OrderedSet.Link\n|+ key\l|+ __init__()\l}">
<polygon fill="none" stroke="black" points="1017,-305.5 1017,-362.5 1155,-362.5 1155,-305.5 1017,-305.5"/>
<text text-anchor="middle" x="1086" y="-350.5" font-family="Helvetica,sans-Serif" font-size="10.00">Lang.Struct._OrderedSet.Link</text>
<polyline fill="none" stroke="black" points="1017,-343.5 1155,-343.5 "/>
<text text-anchor="start" x="1025" y="-331.5" font-family="Helvetica,sans-Serif" font-size="10.00">+ key</text>
<polyline fill="none" stroke="black" points="1017,-324.5 1155,-324.5 "/>
<text text-anchor="start" x="1025" y="-312.5" font-family="Helvetica,sans-Serif" font-size="10.00">+ __init__()</text>
</a>
</g>
</g>
<!-- Node1&#45;&gt;Node16 -->
<g id="edge15" class="edge"><title>Node1&#45;&gt;Node16</title>
<path fill="none" stroke="midnightblue" d="M639.436,-485.727C722.234,-479.31 944.315,-459.198 1008,-424 1034.07,-409.589 1055.63,-382.95 1069.43,-362.559"/>
<polygon fill="none" stroke="midnightblue" points="639.082,-482.244 629.376,-486.492 639.613,-489.223 639.082,-482.244"/>
</g>
<!-- Node5 -->
<g id="node5" class="node"><title>Node5</title>
<g id="a_node5"><a xlink:href="class_lang_1_1_diff_1_1___block.html" target="_top" xlink:title="{Lang.Diff._Block\n||}">
<polygon fill="none" stroke="black" points="81,-133.5 81,-190.5 165,-190.5 165,-133.5 81,-133.5"/>
<text text-anchor="middle" x="123" y="-178.5" font-family="Helvetica,sans-Serif" font-size="10.00">Lang.Diff._Block</text>
<polyline fill="none" stroke="black" points="81,-171.5 165,-171.5 "/>
<text text-anchor="middle" x="123" y="-159.5" font-family="Helvetica,sans-Serif" font-size="10.00"> </text>
<polyline fill="none" stroke="black" points="81,-152.5 165,-152.5 "/>
<text text-anchor="middle" x="123" y="-140.5" font-family="Helvetica,sans-Serif" font-size="10.00"> </text>
</a>
</g>
</g>
<!-- Node4&#45;&gt;Node5 -->
<g id="edge4" class="edge"><title>Node4&#45;&gt;Node5</title>
<path fill="none" stroke="midnightblue" d="M448.332,-280.311C439.399,-266.454 427.984,-252.907 414,-244 323.027,-186.055 271.772,-253.545 174,-208 164.795,-203.712 156.019,-197.227 148.422,-190.504"/>
<polygon fill="none" stroke="midnightblue" points="445.391,-282.211 453.574,-288.94 451.374,-278.576 445.391,-282.211"/>
</g>
<!-- Node8 -->
<g id="node8" class="node"><title>Node8</title>
<g id="a_node8"><a xlink:href="class_lang_1_1_diff_1_1___elem_block_match.html" target="_top" xlink:title="{Lang.Diff._ElemBlockMatch\n||}">
<polygon fill="none" stroke="black" points="183.5,-133.5 183.5,-190.5 314.5,-190.5 314.5,-133.5 183.5,-133.5"/>
<text text-anchor="middle" x="249" y="-178.5" font-family="Helvetica,sans-Serif" font-size="10.00">Lang.Diff._ElemBlockMatch</text>
<polyline fill="none" stroke="black" points="183.5,-171.5 314.5,-171.5 "/>
<text text-anchor="middle" x="249" y="-159.5" font-family="Helvetica,sans-Serif" font-size="10.00"> </text>
<polyline fill="none" stroke="black" points="183.5,-152.5 314.5,-152.5 "/>
<text text-anchor="middle" x="249" y="-140.5" font-family="Helvetica,sans-Serif" font-size="10.00"> </text>
</a>
</g>
</g>
<!-- Node4&#45;&gt;Node8 -->
<g id="edge7" class="edge"><title>Node4&#45;&gt;Node8</title>
<path fill="none" stroke="midnightblue" d="M445.652,-280.375C436.912,-267.193 426.268,-253.981 414,-244 380.581,-216.812 362.594,-227.144 324,-208 313.526,-202.804 302.567,-196.663 292.363,-190.615"/>
<polygon fill="none" stroke="midnightblue" points="442.808,-282.427 451.118,-288.999 448.72,-278.679 442.808,-282.427"/>
</g>
<!-- Node9 -->
<g id="node9" class="node"><title>Node9</title>
<g id="a_node9"><a xlink:href="class_lang_1_1_diff_1_1___elem_block_mismatch.html" target="_top" xlink:title="{Lang.Diff._ElemBlockMismatch\n||}">
<polygon fill="none" stroke="black" points="333,-133.5 333,-190.5 479,-190.5 479,-133.5 333,-133.5"/>
<text text-anchor="middle" x="406" y="-178.5" font-family="Helvetica,sans-Serif" font-size="10.00">Lang.Diff._ElemBlockMismatch</text>
<polyline fill="none" stroke="black" points="333,-171.5 479,-171.5 "/>
<text text-anchor="middle" x="406" y="-159.5" font-family="Helvetica,sans-Serif" font-size="10.00"> </text>
<polyline fill="none" stroke="black" points="333,-152.5 479,-152.5 "/>
<text text-anchor="middle" x="406" y="-140.5" font-family="Helvetica,sans-Serif" font-size="10.00"> </text>
</a>
</g>
</g>
<!-- Node4&#45;&gt;Node9 -->
<g id="edge8" class="edge"><title>Node4&#45;&gt;Node9</title>
<path fill="none" stroke="midnightblue" d="M451.883,-279.42C440.245,-249.89 426.286,-214.473 416.845,-190.517"/>
<polygon fill="none" stroke="midnightblue" points="448.648,-280.758 455.571,-288.778 455.161,-278.191 448.648,-280.758"/>
</g>
<!-- Node10 -->
<g id="node10" class="node"><title>Node10</title>
<g id="a_node10"><a xlink:href="class_lang_1_1_diff_1_1___elem_match.html" target="_top" xlink:title="{Lang.Diff._ElemMatch\n||}">
<polygon fill="none" stroke="black" points="497.5,-133.5 497.5,-190.5 606.5,-190.5 606.5,-133.5 497.5,-133.5"/>
<text text-anchor="middle" x="552" y="-178.5" font-family="Helvetica,sans-Serif" font-size="10.00">Lang.Diff._ElemMatch</text>
<polyline fill="none" stroke="black" points="497.5,-171.5 606.5,-171.5 "/>
<text text-anchor="middle" x="552" y="-159.5" font-family="Helvetica,sans-Serif" font-size="10.00"> </text>
<polyline fill="none" stroke="black" points="497.5,-152.5 606.5,-152.5 "/>
<text text-anchor="middle" x="552" y="-140.5" font-family="Helvetica,sans-Serif" font-size="10.00"> </text>
</a>
</g>
</g>
<!-- Node4&#45;&gt;Node10 -->
<g id="edge9" class="edge"><title>Node4&#45;&gt;Node10</title>
<path fill="none" stroke="midnightblue" d="M497.899,-279.42C511.622,-249.89 528.08,-214.473 539.213,-190.517"/>
<polygon fill="none" stroke="midnightblue" points="494.59,-278.235 493.55,-288.778 500.938,-281.185 494.59,-278.235"/>
</g>
<!-- Node11 -->
<g id="node11" class="node"><title>Node11</title>
<g id="a_node11"><a xlink:href="class_lang_1_1_diff_1_1___elem_mismatch.html" target="_top" xlink:title="{Lang.Diff._ElemMismatch\n||}">
<polygon fill="none" stroke="black" points="624.5,-133.5 624.5,-190.5 747.5,-190.5 747.5,-133.5 624.5,-133.5"/>
<text text-anchor="middle" x="686" y="-178.5" font-family="Helvetica,sans-Serif" font-size="10.00">Lang.Diff._ElemMismatch</text>
<polyline fill="none" stroke="black" points="624.5,-171.5 747.5,-171.5 "/>
<text text-anchor="middle" x="686" y="-159.5" font-family="Helvetica,sans-Serif" font-size="10.00"> </text>
<polyline fill="none" stroke="black" points="624.5,-152.5 747.5,-152.5 "/>
<text text-anchor="middle" x="686" y="-140.5" font-family="Helvetica,sans-Serif" font-size="10.00"> </text>
</a>
</g>
</g>
<!-- Node4&#45;&gt;Node11 -->
<g id="edge10" class="edge"><title>Node4&#45;&gt;Node11</title>
<path fill="none" stroke="midnightblue" d="M500.794,-280.229C509.485,-267.172 519.993,-254.058 532,-244 562.823,-218.179 579.467,-226.82 615,-208 624.93,-202.741 635.31,-196.574 644.971,-190.522"/>
<polygon fill="none" stroke="midnightblue" points="497.774,-278.455 495.348,-288.768 503.676,-282.219 497.774,-278.455"/>
</g>
<!-- Node6 -->
<g id="node6" class="node"><title>Node6</title>
<g id="a_node6"><a xlink:href="class_lang_1_1_diff_1_1___block_match.html" target="_top" xlink:title="{Lang.Diff._BlockMatch\n||+ __init__()\l+ __getattr__()\l+ __getitem__()\l}">
<polygon fill="none" stroke="black" points="0,-0.5 0,-79.5 110,-79.5 110,-0.5 0,-0.5"/>
<text text-anchor="middle" x="55" y="-67.5" font-family="Helvetica,sans-Serif" font-size="10.00">Lang.Diff._BlockMatch</text>
<polyline fill="none" stroke="black" points="0,-60.5 110,-60.5 "/>
<text text-anchor="middle" x="55" y="-48.5" font-family="Helvetica,sans-Serif" font-size="10.00"> </text>
<polyline fill="none" stroke="black" points="0,-41.5 110,-41.5 "/>
<text text-anchor="start" x="8" y="-29.5" font-family="Helvetica,sans-Serif" font-size="10.00">+ __init__()</text>
<text text-anchor="start" x="8" y="-18.5" font-family="Helvetica,sans-Serif" font-size="10.00">+ __getattr__()</text>
<text text-anchor="start" x="8" y="-7.5" font-family="Helvetica,sans-Serif" font-size="10.00">+ __getitem__()</text>
</a>
</g>
</g>
<!-- Node5&#45;&gt;Node6 -->
<g id="edge5" class="edge"><title>Node5&#45;&gt;Node6</title>
<path fill="none" stroke="midnightblue" d="M102.322,-124.509C94.3024,-110.357 85.1082,-94.1322 76.9698,-79.7703"/>
<polygon fill="none" stroke="midnightblue" points="99.4242,-126.495 107.399,-133.47 105.514,-123.044 99.4242,-126.495"/>
</g>
<!-- Node7 -->
<g id="node7" class="node"><title>Node7</title>
<g id="a_node7"><a xlink:href="class_lang_1_1_diff_1_1___block_mismatch.html" target="_top" xlink:title="{Lang.Diff._BlockMismatch\n||+ __init__()\l}">
<polygon fill="none" stroke="black" points="128.5,-11.5 128.5,-68.5 253.5,-68.5 253.5,-11.5 128.5,-11.5"/>
<text text-anchor="middle" x="191" y="-56.5" font-family="Helvetica,sans-Serif" font-size="10.00">Lang.Diff._BlockMismatch</text>
<polyline fill="none" stroke="black" points="128.5,-49.5 253.5,-49.5 "/>
<text text-anchor="middle" x="191" y="-37.5" font-family="Helvetica,sans-Serif" font-size="10.00"> </text>
<polyline fill="none" stroke="black" points="128.5,-30.5 253.5,-30.5 "/>
<text text-anchor="start" x="136.5" y="-18.5" font-family="Helvetica,sans-Serif" font-size="10.00">+ __init__()</text>
</a>
</g>
</g>
<!-- Node5&#45;&gt;Node7 -->
<g id="edge6" class="edge"><title>Node5&#45;&gt;Node7</title>
<path fill="none" stroke="midnightblue" d="M143.708,-124.457C153.847,-106.565 165.857,-85.3708 175.237,-68.8179"/>
<polygon fill="none" stroke="midnightblue" points="140.486,-123.044 138.601,-133.47 146.576,-126.495 140.486,-123.044"/>
</g>
<!-- Node14 -->
<g id="node14" class="node"><title>Node14</title>
<g id="a_node14"><a xlink:href="class_lang_1_1_events_1_1_proxy_1_1_event_proxy.html" target="_top" xlink:title="Any method called on this class (besides reserved functions declared in this class) will be proxied o...">
<polygon fill="none" stroke="black" points="765.5,-117 765.5,-207 914.5,-207 914.5,-117 765.5,-117"/>
<text text-anchor="middle" x="840" y="-195" font-family="Helvetica,sans-Serif" font-size="10.00">Lang.Events.Proxy.EventProxy</text>
<polyline fill="none" stroke="black" points="765.5,-188 914.5,-188 "/>
<text text-anchor="start" x="773.5" y="-176" font-family="Helvetica,sans-Serif" font-size="10.00">+ errorOnMethodNotFound</text>
<polyline fill="none" stroke="black" points="765.5,-169 914.5,-169 "/>
<text text-anchor="start" x="773.5" y="-157" font-family="Helvetica,sans-Serif" font-size="10.00">+ __init__()</text>
<text text-anchor="start" x="773.5" y="-146" font-family="Helvetica,sans-Serif" font-size="10.00">+ __getattr__()</text>
<text text-anchor="start" x="773.5" y="-135" font-family="Helvetica,sans-Serif" font-size="10.00">+ addReceiver()</text>
<text text-anchor="start" x="773.5" y="-124" font-family="Helvetica,sans-Serif" font-size="10.00">+ getReceivers()</text>
</a>
</g>
</g>
<!-- Node13&#45;&gt;Node14 -->
<g id="edge13" class="edge"><title>Node13&#45;&gt;Node14</title>
<path fill="none" stroke="midnightblue" d="M788.447,-295.789C798.565,-269.727 812.13,-234.787 822.805,-207.289"/>
<polygon fill="none" stroke="midnightblue" points="785.107,-294.719 784.751,-305.308 791.633,-297.253 785.107,-294.719"/>
</g>
</g>
</svg>
