<?xml version="1.0" encoding="UTF-8" standalone="no"?>
<!DOCTYPE svg PUBLIC "-//W3C//DTD SVG 1.1//EN"
 "http://www.w3.org/Graphics/SVG/1.1/DTD/svg11.dtd">
<!-- Generated by graphviz version 2.36.0 (20140111.2315)
 -->
<!-- Title: Lang.ClassTools.Patterns._multiton._Multiton_OneEquivalentInstance_OnDupRaiseException Pages: 1 -->
<svg width="219pt" height="320pt"
 viewBox="0.00 0.00 219.00 320.00" xmlns="http://www.w3.org/2000/svg" xmlns:xlink="http://www.w3.org/1999/xlink">
<g id="graph0" class="graph" transform="scale(1 1) rotate(0) translate(4 316)">
<title>Lang.ClassTools.Patterns._multiton._Multiton_OneEquivalentInstance_OnDupRaiseException</title>
<!-- Node1 -->
<g id="node1" class="node"><title>Node1</title>
<polygon fill="#bfbfbf" stroke="black" points="38,-0.5 38,-79.5 210,-79.5 210,-0.5 38,-0.5"/>
<text text-anchor="start" x="46" y="-67.5" font-family="Helvetica,sans-Serif" font-size="10.00">Lang.ClassTools.Patterns.</text>
<text text-anchor="start" x="46" y="-56.5" font-family="Helvetica,sans-Serif" font-size="10.00">_multiton._Multiton_OneEquivalent</text>
<text text-anchor="middle" x="124" y="-45.5" font-family="Helvetica,sans-Serif" font-size="10.00">Instance_OnDupRaiseException</text>
<polyline fill="none" stroke="black" points="38,-38.5 210,-38.5 "/>
<text text-anchor="middle" x="124" y="-26.5" font-family="Helvetica,sans-Serif" font-size="10.00"> </text>
<polyline fill="none" stroke="black" points="38,-19.5 210,-19.5 "/>
<text text-anchor="middle" x="124" y="-7.5" font-family="Helvetica,sans-Serif" font-size="10.00"> </text>
</g>
<!-- Node2 -->
<g id="node2" class="node"><title>Node2</title>
<g id="a_node2"><a xlink:href="class_lang_1_1_class_tools_1_1_patterns_1_1__multiton_1_1___multiton___one_equivalent_instance.html" target="_top" xlink:title="{Lang.ClassTools.Patterns.\l_multiton._Multiton_OneEquivalent\lInstance\n||+ getAllClasses()\l+ getAllInstances()\l+ __call__()\l}">
<polygon fill="none" stroke="black" points="38,-116.5 38,-217.5 210,-217.5 210,-116.5 38,-116.5"/>
<text text-anchor="start" x="46" y="-205.5" font-family="Helvetica,sans-Serif" font-size="10.00">Lang.ClassTools.Patterns.</text>
<text text-anchor="start" x="46" y="-194.5" font-family="Helvetica,sans-Serif" font-size="10.00">_multiton._Multiton_OneEquivalent</text>
<text text-anchor="middle" x="124" y="-183.5" font-family="Helvetica,sans-Serif" font-size="10.00">Instance</text>
<polyline fill="none" stroke="black" points="38,-176.5 210,-176.5 "/>
<text text-anchor="middle" x="124" y="-164.5" font-family="Helvetica,sans-Serif" font-size="10.00"> </text>
<polyline fill="none" stroke="black" points="38,-157.5 210,-157.5 "/>
<text text-anchor="start" x="46" y="-145.5" font-family="Helvetica,sans-Serif" font-size="10.00">+ getAllClasses()</text>
<text text-anchor="start" x="46" y="-134.5" font-family="Helvetica,sans-Serif" font-size="10.00">+ getAllInstances()</text>
<text text-anchor="start" x="46" y="-123.5" font-family="Helvetica,sans-Serif" font-size="10.00">+ __call__()</text>
</a>
</g>
</g>
<!-- Node2&#45;&gt;Node1 -->
<g id="edge1" class="edge"><title>Node2&#45;&gt;Node1</title>
<path fill="none" stroke="midnightblue" d="M124,-106.186C124,-97.2207 124,-88.1815 124,-79.8082"/>
<polygon fill="none" stroke="midnightblue" points="120.5,-106.237 124,-116.238 127.5,-106.238 120.5,-106.237"/>
</g>
<!-- Node3 -->
<g id="node3" class="node"><title>Node3</title>
<polygon fill="none" stroke="#bfbfbf" points="-0.5,-254.5 -0.5,-311.5 134.5,-311.5 134.5,-254.5 -0.5,-254.5"/>
<text text-anchor="middle" x="67" y="-299.5" font-family="Helvetica,sans-Serif" font-size="10.00">_SingletonMultitonAbstract</text>
<polyline fill="none" stroke="#bfbfbf" points="-0.5,-292.5 134.5,-292.5 "/>
<text text-anchor="middle" x="67" y="-280.5" font-family="Helvetica,sans-Serif" font-size="10.00"> </text>
<polyline fill="none" stroke="#bfbfbf" points="-0.5,-273.5 134.5,-273.5 "/>
<text text-anchor="middle" x="67" y="-261.5" font-family="Helvetica,sans-Serif" font-size="10.00"> </text>
</g>
<!-- Node3&#45;&gt;Node2 -->
<g id="edge2" class="edge"><title>Node3&#45;&gt;Node2</title>
<path fill="none" stroke="midnightblue" d="M85.401,-245.198C89.7979,-236.404 94.5631,-226.874 99.1959,-217.608"/>
<polygon fill="none" stroke="midnightblue" points="82.1398,-243.894 80.7981,-254.404 88.4008,-247.025 82.1398,-243.894"/>
</g>
<!-- Node4 -->
<g id="node4" class="node"><title>Node4</title>
<polygon fill="none" stroke="#bfbfbf" points="152.5,-254.5 152.5,-311.5 211.5,-311.5 211.5,-254.5 152.5,-254.5"/>
<text text-anchor="middle" x="182" y="-299.5" font-family="Helvetica,sans-Serif" font-size="10.00">ABCMeta</text>
<polyline fill="none" stroke="#bfbfbf" points="152.5,-292.5 211.5,-292.5 "/>
<text text-anchor="middle" x="182" y="-280.5" font-family="Helvetica,sans-Serif" font-size="10.00"> </text>
<polyline fill="none" stroke="#bfbfbf" points="152.5,-273.5 211.5,-273.5 "/>
<text text-anchor="middle" x="182" y="-261.5" font-family="Helvetica,sans-Serif" font-size="10.00"> </text>
</g>
<!-- Node4&#45;&gt;Node2 -->
<g id="edge3" class="edge"><title>Node4&#45;&gt;Node2</title>
<path fill="none" stroke="midnightblue" d="M163.419,-245.478C158.905,-236.607 154.003,-226.972 149.239,-217.608"/>
<polygon fill="none" stroke="midnightblue" points="160.306,-247.078 167.96,-254.404 166.545,-243.904 160.306,-247.078"/>
</g>
</g>
</svg>
