<?xml version="1.0" encoding="UTF-8" standalone="no"?>
<!DOCTYPE svg PUBLIC "-//W3C//DTD SVG 1.1//EN"
 "http://www.w3.org/Graphics/SVG/1.1/DTD/svg11.dtd">
<!-- Generated by graphviz version 2.30.1 (20130219.2202)
 -->
<!-- Title: Lang.ArgParser._HelpFormatter Pages: 1 -->
<svg width="156pt" height="172pt"
 viewBox="0.00 0.00 156.00 172.00" xmlns="http://www.w3.org/2000/svg" xmlns:xlink="http://www.w3.org/1999/xlink">
<g id="graph0" class="graph" transform="scale(1 1) rotate(0) translate(4 168)">
<title>Lang.ArgParser._HelpFormatter</title>
<!-- Node1 -->
<g id="node1" class="node"><title>Node1</title>
<polygon fill="#bfbfbf" stroke="black" points="0,-1 0,-69 148,-69 148,-1 0,-1"/>
<text text-anchor="middle" x="74" y="-57" font-family="Helvetica,sans-Serif" font-size="10.00">Lang.ArgParser._HelpFormatter</text>
<polyline fill="none" stroke="black" points="0,-50 148,-50 "/>
<text text-anchor="middle" x="74" y="-38" font-family="Helvetica,sans-Serif" font-size="10.00"> </text>
<polyline fill="none" stroke="black" points="0,-31 148,-31 "/>
<text text-anchor="start" x="8" y="-19" font-family="Helvetica,sans-Serif" font-size="10.00">+ __init__()</text>
<text text-anchor="start" x="8" y="-8" font-family="Helvetica,sans-Serif" font-size="10.00">+ add_argument()</text>
</g>
<!-- Node2 -->
<g id="node2" class="node"><title>Node2</title>
<g id="a_node2"><a xlink:href="classargparse_1_1_help_formatter.html" target="_top" xlink:title="{argparse::HelpFormatter\n||}">
<polygon fill="none" stroke="black" points="15.5,-106.5 15.5,-163.5 132.5,-163.5 132.5,-106.5 15.5,-106.5"/>
<text text-anchor="middle" x="74" y="-151.5" font-family="Helvetica,sans-Serif" font-size="10.00">argparse::HelpFormatter</text>
<polyline fill="none" stroke="black" points="15.5,-144.5 132.5,-144.5 "/>
<text text-anchor="middle" x="74" y="-132.5" font-family="Helvetica,sans-Serif" font-size="10.00"> </text>
<polyline fill="none" stroke="black" points="15.5,-125.5 132.5,-125.5 "/>
<text text-anchor="middle" x="74" y="-113.5" font-family="Helvetica,sans-Serif" font-size="10.00"> </text>
</a>
</g>
</g>
<!-- Node2&#45;&gt;Node1 -->
<g id="edge1" class="edge"><title>Node2&#45;&gt;Node1</title>
<path fill="none" stroke="midnightblue" d="M74,-96.3023C74,-87.3951 74,-77.9608 74,-69.2659"/>
<polygon fill="none" stroke="midnightblue" points="70.5001,-96.4407 74,-106.441 77.5001,-96.4408 70.5001,-96.4407"/>
</g>
</g>
</svg>
