<?xml version="1.0" encoding="UTF-8" standalone="no"?>
<!DOCTYPE svg PUBLIC "-//W3C//DTD SVG 1.1//EN"
 "http://www.w3.org/Graphics/SVG/1.1/DTD/svg11.dtd">
<!-- Generated by graphviz version 2.30.1 (20130219.2202)
 -->
<!-- Title: Lang.Diff._Block Pages: 1 -->
<svg width="261pt" height="404pt"
 viewBox="0.00 0.00 261.00 404.00" xmlns="http://www.w3.org/2000/svg" xmlns:xlink="http://www.w3.org/1999/xlink">
<g id="graph0" class="graph" transform="scale(1 1) rotate(0) translate(4 400)">
<title>Lang.Diff._Block</title>
<!-- Node1 -->
<g id="node1" class="node"><title>Node1</title>
<polygon fill="#bfbfbf" stroke="black" points="81,-116.5 81,-173.5 165,-173.5 165,-116.5 81,-116.5"/>
<text text-anchor="middle" x="123" y="-161.5" font-family="Helvetica,sans-Serif" font-size="10.00">Lang.Diff._Block</text>
<polyline fill="none" stroke="black" points="81,-154.5 165,-154.5 "/>
<text text-anchor="middle" x="123" y="-142.5" font-family="Helvetica,sans-Serif" font-size="10.00"> </text>
<polyline fill="none" stroke="black" points="81,-135.5 165,-135.5 "/>
<text text-anchor="middle" x="123" y="-123.5" font-family="Helvetica,sans-Serif" font-size="10.00"> </text>
</g>
<!-- Node4 -->
<g id="node4" class="node"><title>Node4</title>
<g id="a_node4"><a xlink:href="class_lang_1_1_diff_1_1___block_match.html" target="_top" xlink:title="{Lang.Diff._BlockMatch\n||+ __init__()\l+ __getattr__()\l+ __getitem__()\l}">
<polygon fill="none" stroke="black" points="0,-0.5 0,-79.5 110,-79.5 110,-0.5 0,-0.5"/>
<text text-anchor="middle" x="55" y="-67.5" font-family="Helvetica,sans-Serif" font-size="10.00">Lang.Diff._BlockMatch</text>
<polyline fill="none" stroke="black" points="0,-60.5 110,-60.5 "/>
<text text-anchor="middle" x="55" y="-48.5" font-family="Helvetica,sans-Serif" font-size="10.00"> </text>
<polyline fill="none" stroke="black" points="0,-41.5 110,-41.5 "/>
<text text-anchor="start" x="8" y="-29.5" font-family="Helvetica,sans-Serif" font-size="10.00">+ __init__()</text>
<text text-anchor="start" x="8" y="-18.5" font-family="Helvetica,sans-Serif" font-size="10.00">+ __getattr__()</text>
<text text-anchor="start" x="8" y="-7.5" font-family="Helvetica,sans-Serif" font-size="10.00">+ __getitem__()</text>
</a>
</g>
</g>
<!-- Node1&#45;&gt;Node4 -->
<g id="edge3" class="edge"><title>Node1&#45;&gt;Node4</title>
<path fill="none" stroke="midnightblue" d="M99.1448,-107.866C93.0894,-98.6942 86.5614,-88.8062 80.431,-79.5205"/>
<polygon fill="none" stroke="midnightblue" points="96.3468,-109.981 104.777,-116.398 102.189,-106.124 96.3468,-109.981"/>
</g>
<!-- Node5 -->
<g id="node5" class="node"><title>Node5</title>
<g id="a_node5"><a xlink:href="class_lang_1_1_diff_1_1___block_mismatch.html" target="_top" xlink:title="{Lang.Diff._BlockMismatch\n||+ __init__()\l}">
<polygon fill="none" stroke="black" points="128.5,-11.5 128.5,-68.5 253.5,-68.5 253.5,-11.5 128.5,-11.5"/>
<text text-anchor="middle" x="191" y="-56.5" font-family="Helvetica,sans-Serif" font-size="10.00">Lang.Diff._BlockMismatch</text>
<polyline fill="none" stroke="black" points="128.5,-49.5 253.5,-49.5 "/>
<text text-anchor="middle" x="191" y="-37.5" font-family="Helvetica,sans-Serif" font-size="10.00"> </text>
<polyline fill="none" stroke="black" points="128.5,-30.5 253.5,-30.5 "/>
<text text-anchor="start" x="136.5" y="-18.5" font-family="Helvetica,sans-Serif" font-size="10.00">+ __init__()</text>
</a>
</g>
</g>
<!-- Node1&#45;&gt;Node5 -->
<g id="edge4" class="edge"><title>Node1&#45;&gt;Node5</title>
<path fill="none" stroke="midnightblue" d="M146.916,-107.774C155.395,-94.931 164.794,-80.695 172.727,-68.6783"/>
<polygon fill="none" stroke="midnightblue" points="143.811,-106.124 141.223,-116.398 149.653,-109.981 143.811,-106.124"/>
</g>
<!-- Node2 -->
<g id="node2" class="node"><title>Node2</title>
<g id="a_node2"><a xlink:href="class_lang_1_1_diff_1_1___two_side.html" target="_top" xlink:title="{Lang.Diff._TwoSide\n|+ a\l+ b\l|+ __init__()\l+ __str__()\l+ __repr__()\l}">
<polygon fill="none" stroke="black" points="73.5,-211 73.5,-301 172.5,-301 172.5,-211 73.5,-211"/>
<text text-anchor="middle" x="123" y="-289" font-family="Helvetica,sans-Serif" font-size="10.00">Lang.Diff._TwoSide</text>
<polyline fill="none" stroke="black" points="73.5,-282 172.5,-282 "/>
<text text-anchor="start" x="81.5" y="-270" font-family="Helvetica,sans-Serif" font-size="10.00">+ a</text>
<text text-anchor="start" x="81.5" y="-259" font-family="Helvetica,sans-Serif" font-size="10.00">+ b</text>
<polyline fill="none" stroke="black" points="73.5,-252 172.5,-252 "/>
<text text-anchor="start" x="81.5" y="-240" font-family="Helvetica,sans-Serif" font-size="10.00">+ __init__()</text>
<text text-anchor="start" x="81.5" y="-229" font-family="Helvetica,sans-Serif" font-size="10.00">+ __str__()</text>
<text text-anchor="start" x="81.5" y="-218" font-family="Helvetica,sans-Serif" font-size="10.00">+ __repr__()</text>
</a>
</g>
</g>
<!-- Node2&#45;&gt;Node1 -->
<g id="edge1" class="edge"><title>Node2&#45;&gt;Node1</title>
<path fill="none" stroke="midnightblue" d="M123,-200.792C123,-191.35 123,-181.896 123,-173.564"/>
<polygon fill="none" stroke="midnightblue" points="119.5,-200.98 123,-210.98 126.5,-200.98 119.5,-200.98"/>
</g>
<!-- Node3 -->
<g id="node3" class="node"><title>Node3</title>
<g id="a_node3"><a xlink:href="classobject.html" target="_top" xlink:title="{object\n||}">
<polygon fill="none" stroke="black" points="102,-338.5 102,-395.5 144,-395.5 144,-338.5 102,-338.5"/>
<text text-anchor="middle" x="123" y="-383.5" font-family="Helvetica,sans-Serif" font-size="10.00">object</text>
<polyline fill="none" stroke="black" points="102,-376.5 144,-376.5 "/>
<text text-anchor="middle" x="123" y="-364.5" font-family="Helvetica,sans-Serif" font-size="10.00"> </text>
<polyline fill="none" stroke="black" points="102,-357.5 144,-357.5 "/>
<text text-anchor="middle" x="123" y="-345.5" font-family="Helvetica,sans-Serif" font-size="10.00"> </text>
</a>
</g>
</g>
<!-- Node3&#45;&gt;Node2 -->
<g id="edge2" class="edge"><title>Node3&#45;&gt;Node2</title>
<path fill="none" stroke="midnightblue" d="M123,-328.484C123,-319.643 123,-310.139 123,-301.04"/>
<polygon fill="none" stroke="midnightblue" points="119.5,-328.495 123,-338.495 126.5,-328.495 119.5,-328.495"/>
</g>
</g>
</svg>
