<?xml version="1.0" encoding="UTF-8" standalone="no"?>
<!DOCTYPE svg PUBLIC "-//W3C//DTD SVG 1.1//EN"
 "http://www.w3.org/Graphics/SVG/1.1/DTD/svg11.dtd">
<!-- Generated by graphviz version 2.30.1 (20130219.2202)
 -->
<!-- Title: Lang.ArgParser._HelpFormatter.add_argument Pages: 1 -->
<svg width="362pt" height="136pt"
 viewBox="0.00 0.00 362.00 136.00" xmlns="http://www.w3.org/2000/svg" xmlns:xlink="http://www.w3.org/1999/xlink">
<g id="graph0" class="graph" transform="scale(1 1) rotate(0) translate(4 132)">
<title>Lang.ArgParser._HelpFormatter.add_argument</title>
<!-- Node1 -->
<g id="node1" class="node"><title>Node1</title>
<polygon fill="#bfbfbf" stroke="black" points="0.5,-49 0.5,-79 167.5,-79 167.5,-49 0.5,-49"/>
<text text-anchor="start" x="8.5" y="-67" font-family="Helvetica,sans-Serif" font-size="10.00">Lang.ArgParser._HelpFormatter.add</text>
<text text-anchor="middle" x="84" y="-56" font-family="Helvetica,sans-Serif" font-size="10.00">_argument</text>
</g>
<!-- Node2 -->
<g id="node2" class="node"><title>Node2</title>
<g id="a_node2"><a xlink:href="class_lang_1_1_arg_parser_1_1___help_formatter.html#ad20b94e7fb6273a3ac0575ee62e07baf" target="_top" xlink:title="Lang.ArgParser._HelpFormatter.\l_format_action_invocation">
<polygon fill="none" stroke="black" points="204,-98 204,-128 354,-128 354,-98 204,-98"/>
<text text-anchor="start" x="212" y="-116" font-family="Helvetica,sans-Serif" font-size="10.00">Lang.ArgParser._HelpFormatter.</text>
<text text-anchor="middle" x="279" y="-105" font-family="Helvetica,sans-Serif" font-size="10.00">_format_action_invocation</text>
</a>
</g>
</g>
<!-- Node1&#45;&gt;Node2 -->
<g id="edge1" class="edge"><title>Node1&#45;&gt;Node2</title>
<path fill="none" stroke="midnightblue" d="M144.218,-79.0346C164.689,-84.2318 187.804,-90.1006 208.991,-95.4796"/>
<polygon fill="midnightblue" stroke="midnightblue" points="208.34,-98.9253 218.894,-97.9938 210.063,-92.1406 208.34,-98.9253"/>
</g>
<!-- Node3 -->
<g id="node3" class="node"><title>Node3</title>
<g id="a_node3"><a xlink:href="class_lang_1_1_arg_parser_1_1___help_formatter.html#ac916c76497dc59bdf474df5a651fe6ff" target="_top" xlink:title="Lang.ArgParser._HelpFormatter.\l_format_action">
<polygon fill="none" stroke="black" points="204,-49 204,-79 354,-79 354,-49 204,-49"/>
<text text-anchor="start" x="212" y="-67" font-family="Helvetica,sans-Serif" font-size="10.00">Lang.ArgParser._HelpFormatter.</text>
<text text-anchor="middle" x="279" y="-56" font-family="Helvetica,sans-Serif" font-size="10.00">_format_action</text>
</a>
</g>
</g>
<!-- Node1&#45;&gt;Node3 -->
<g id="edge2" class="edge"><title>Node1&#45;&gt;Node3</title>
<path fill="none" stroke="midnightblue" d="M167.689,-64C176.293,-64 185.046,-64 193.668,-64"/>
<polygon fill="midnightblue" stroke="midnightblue" points="193.712,-67.5001 203.712,-64 193.712,-60.5001 193.712,-67.5001"/>
</g>
<!-- Node4 -->
<g id="node4" class="node"><title>Node4</title>
<g id="a_node4"><a xlink:href="class_lang_1_1_arg_parser_1_1___help_formatter.html#a4b6e2138a7d4906627575b0e785db604" target="_top" xlink:title="Lang.ArgParser._HelpFormatter.\l_format_action_calcWidths">
<polygon fill="none" stroke="black" points="204,-0 204,-30 354,-30 354,-0 204,-0"/>
<text text-anchor="start" x="212" y="-18" font-family="Helvetica,sans-Serif" font-size="10.00">Lang.ArgParser._HelpFormatter.</text>
<text text-anchor="middle" x="279" y="-7" font-family="Helvetica,sans-Serif" font-size="10.00">_format_action_calcWidths</text>
</a>
</g>
</g>
<!-- Node1&#45;&gt;Node4 -->
<g id="edge3" class="edge"><title>Node1&#45;&gt;Node4</title>
<path fill="none" stroke="midnightblue" d="M144.218,-48.9654C164.689,-43.7682 187.804,-37.8994 208.991,-32.5204"/>
<polygon fill="midnightblue" stroke="midnightblue" points="210.063,-35.8594 218.894,-30.0062 208.34,-29.0747 210.063,-35.8594"/>
</g>
</g>
</svg>
