<?xml version="1.0" encoding="UTF-8" standalone="no"?>
<!DOCTYPE svg PUBLIC "-//W3C//DTD SVG 1.1//EN"
 "http://www.w3.org/Graphics/SVG/1.1/DTD/svg11.dtd">
<!-- Generated by graphviz version 2.36.0 (20140111.2315)
 -->
<!-- Title: Lang.Diff.SequenceMatcher.get_mismatching_elems Pages: 1 -->
<!--zoomable 136 -->
<svg id="main" version="1.1" xmlns="http://www.w3.org/2000/svg" xmlns:xlink="http://www.w3.org/1999/xlink" xml:space="preserve" onload="init(evt)">
<style type="text/css"><![CDATA[
.edge:hover path { stroke: red; }
.edge:hover polygon { stroke: red; fill: red; }
]]></style>
<script type="text/javascript"><![CDATA[
var edges = document.getElementsByTagName('g');
if (edges && edges.length) {
  for (var i=0;i<edges.length;i++) {
    if (edges[i].id.substr(0,4)=='edge') {
      edges[i].setAttribute('class','edge');
    }
  }
}
]]></script>
        <defs>
                <circle id="rim" cx="0" cy="0" r="7"/>
                <circle id="rim2" cx="0" cy="0" r="3.5"/>
                <g id="zoomPlus">
                        <use xlink:href="#rim" fill="#404040">
                                <set attributeName="fill" to="#808080" begin="zoomplus.mouseover" end="zoomplus.mouseout"/>
                        </use>
                        <path d="M-4,0h8M0,-4v8" fill="none" stroke="white" stroke-width="1.5" pointer-events="none"/>
                </g>
                <g id="zoomMin">
                        <use xlink:href="#rim" fill="#404040">
                                <set attributeName="fill" to="#808080" begin="zoomminus.mouseover" end="zoomminus.mouseout"/>
                        </use>
                        <path d="M-4,0h8" fill="none" stroke="white" stroke-width="1.5" pointer-events="none"/>
                </g>
                <g id="dirArrow">
                        <path fill="none" stroke="white" stroke-width="1.5" d="M0,-3.0v7 M-2.5,-0.5L0,-3.0L2.5,-0.5"/>
                </g>
               <g id="resetDef">
                       <use xlink:href="#rim2" fill="#404040">
                               <set attributeName="fill" to="#808080" begin="reset.mouseover" end="reset.mouseout"/>
                       </use>
               </g>
        </defs>

<script type="text/javascript">
var viewWidth = 748;
var viewHeight = 136;
var sectionId = 'dynsection-10';
</script>
<script xlink:href="svgpan.js"/>
<svg id="graph" class="graph">
<g id="viewport">
<title>Lang.Diff.SequenceMatcher.get_mismatching_elems</title>
<!-- Node1 -->
<g id="node1" class="node"><title>Node1</title>
<polygon fill="#bfbfbf" stroke="black" points="0.5,-73 0.5,-103 157.5,-103 157.5,-73 0.5,-73"/>
<text text-anchor="start" x="8.5" y="-91" font-family="Helvetica,sans-Serif" font-size="10.00">Lang.Diff.SequenceMatcher.get</text>
<text text-anchor="middle" x="79" y="-80" font-family="Helvetica,sans-Serif" font-size="10.00">_mismatching_elems</text>
</g>
<!-- Node2 -->
<g id="node2" class="node"><title>Node2</title>
<g id="a_node2"><a xlink:href="class_lang_1_1_diff_1_1_sequence_matcher.html#ad39d03c930490265c4cd1c85ae3e706c" target="_top" xlink:title="Generators will be returned which can only be iterated over once. ">
<polygon fill="none" stroke="black" points="194.5,-73 194.5,-103 351.5,-103 351.5,-73 194.5,-73"/>
<text text-anchor="start" x="202.5" y="-91" font-family="Helvetica,sans-Serif" font-size="10.00">Lang.Diff.SequenceMatcher.get</text>
<text text-anchor="middle" x="273" y="-80" font-family="Helvetica,sans-Serif" font-size="10.00">_mismatching_elems_useOnce</text>
</a>
</g>
</g>
<!-- Node1&#45;&gt;Node2 -->
<g id="edge1" class="edge"><title>Node1&#45;&gt;Node2</title>
<path fill="none" stroke="midnightblue" d="M157.54,-88C166.388,-88 175.452,-88 184.418,-88"/>
<polygon fill="midnightblue" stroke="midnightblue" points="184.482,-91.5001 194.482,-88 184.482,-84.5001 184.482,-91.5001"/>
</g>
<!-- Node3 -->
<g id="node3" class="node"><title>Node3</title>
<g id="a_node3"><a xlink:href="class_lang_1_1_diff_1_1_sequence_matcher.html#a2346b09e64458b8797a8285136376ff5" target="_top" xlink:title="Lang.Diff.SequenceMatcher.\l_getElems">
<polygon fill="none" stroke="black" points="395.5,-98 395.5,-128 538.5,-128 538.5,-98 395.5,-98"/>
<text text-anchor="start" x="403.5" y="-116" font-family="Helvetica,sans-Serif" font-size="10.00">Lang.Diff.SequenceMatcher.</text>
<text text-anchor="middle" x="467" y="-105" font-family="Helvetica,sans-Serif" font-size="10.00">_getElems</text>
</a>
</g>
</g>
<!-- Node2&#45;&gt;Node3 -->
<g id="edge2" class="edge"><title>Node2&#45;&gt;Node3</title>
<path fill="none" stroke="midnightblue" d="M351.54,-98.0964C362.616,-99.5386 374.033,-101.025 385.17,-102.475"/>
<polygon fill="midnightblue" stroke="midnightblue" points="384.934,-105.974 395.302,-103.795 385.838,-99.0325 384.934,-105.974"/>
</g>
<!-- Node4 -->
<g id="node4" class="node"><title>Node4</title>
<g id="a_node4"><a xlink:href="class_lang_1_1_diff_1_1_sequence_matcher.html#a2f91f89e168c2994d50ee29af7d1c988" target="_top" xlink:title="Lang.Diff.SequenceMatcher.get\l_mismatching_blocks">
<polygon fill="none" stroke="black" points="388.5,-49 388.5,-79 545.5,-79 545.5,-49 388.5,-49"/>
<text text-anchor="start" x="396.5" y="-67" font-family="Helvetica,sans-Serif" font-size="10.00">Lang.Diff.SequenceMatcher.get</text>
<text text-anchor="middle" x="467" y="-56" font-family="Helvetica,sans-Serif" font-size="10.00">_mismatching_blocks</text>
</a>
</g>
</g>
<!-- Node2&#45;&gt;Node4 -->
<g id="edge3" class="edge"><title>Node2&#45;&gt;Node4</title>
<path fill="none" stroke="midnightblue" d="M351.54,-78.3075C360.388,-77.2015 369.452,-76.0685 378.418,-74.9477"/>
<polygon fill="midnightblue" stroke="midnightblue" points="378.994,-78.4031 388.482,-73.6897 378.125,-71.4572 378.994,-78.4031"/>
</g>
<!-- Node5 -->
<g id="node5" class="node"><title>Node5</title>
<g id="a_node5"><a xlink:href="class_lang_1_1_diff_1_1_sequence_matcher.html#aae18597b82d486839e6b1b9e1d850438" target="_top" xlink:title="Lang.Diff.SequenceMatcher.get\l_matching_blocks">
<polygon fill="none" stroke="black" points="582.5,-98 582.5,-128 739.5,-128 739.5,-98 582.5,-98"/>
<text text-anchor="start" x="590.5" y="-116" font-family="Helvetica,sans-Serif" font-size="10.00">Lang.Diff.SequenceMatcher.get</text>
<text text-anchor="middle" x="661" y="-105" font-family="Helvetica,sans-Serif" font-size="10.00">_matching_blocks</text>
</a>
</g>
</g>
<!-- Node4&#45;&gt;Node5 -->
<g id="edge4" class="edge"><title>Node4&#45;&gt;Node5</title>
<path fill="none" stroke="midnightblue" d="M526.911,-79.0346C547.276,-84.2318 570.272,-90.1006 591.349,-95.4796"/>
<polygon fill="midnightblue" stroke="midnightblue" points="590.645,-98.9122 601.2,-97.9938 592.376,-92.1296 590.645,-98.9122"/>
</g>
<!-- Node6 -->
<g id="node6" class="node"><title>Node6</title>
<g id="a_node6"><a xlink:href="class_lang_1_1_diff_1_1_sequence_matcher.html#a7d87778dba05d7442659d922584994ea" target="_top" xlink:title="Lang.Diff.SequenceMatcher.\l_diffSingleSide">
<polygon fill="none" stroke="black" points="589.5,-49 589.5,-79 732.5,-79 732.5,-49 589.5,-49"/>
<text text-anchor="start" x="597.5" y="-67" font-family="Helvetica,sans-Serif" font-size="10.00">Lang.Diff.SequenceMatcher.</text>
<text text-anchor="middle" x="661" y="-56" font-family="Helvetica,sans-Serif" font-size="10.00">_diffSingleSide</text>
</a>
</g>
</g>
<!-- Node4&#45;&gt;Node6 -->
<g id="edge5" class="edge"><title>Node4&#45;&gt;Node6</title>
<path fill="none" stroke="midnightblue" d="M545.54,-64C556.616,-64 568.033,-64 579.17,-64"/>
<polygon fill="midnightblue" stroke="midnightblue" points="579.302,-67.5001 589.302,-64 579.302,-60.5001 579.302,-67.5001"/>
</g>
<!-- Node7 -->
<g id="node7" class="node"><title>Node7</title>
<g id="a_node7"><a xlink:href="class_lang_1_1_diff_1_1_sequence_matcher.html#a180307710206ac883b8f7236bc8ef93a" target="_top" xlink:title="Lang.Diff.SequenceMatcher.\l_blocksToElems">
<polygon fill="none" stroke="black" points="589.5,-0 589.5,-30 732.5,-30 732.5,-0 589.5,-0"/>
<text text-anchor="start" x="597.5" y="-18" font-family="Helvetica,sans-Serif" font-size="10.00">Lang.Diff.SequenceMatcher.</text>
<text text-anchor="middle" x="661" y="-7" font-family="Helvetica,sans-Serif" font-size="10.00">_blocksToElems</text>
</a>
</g>
</g>
<!-- Node4&#45;&gt;Node7 -->
<g id="edge6" class="edge"><title>Node4&#45;&gt;Node7</title>
<path fill="none" stroke="midnightblue" d="M526.911,-48.9654C547.276,-43.7682 570.272,-37.8994 591.349,-32.5204"/>
<polygon fill="midnightblue" stroke="midnightblue" points="592.376,-35.8704 601.2,-30.0062 590.645,-29.0878 592.376,-35.8704"/>
</g>
</g>
</svg>
        <g id="navigator" transform="translate(0 0)" fill="#404254">
                <rect fill="#f2f5e9" fill-opacity="0.5" stroke="#606060" stroke-width=".5" x="0" y="0" width="60" height="60"/>
                <use id="zoomplus" xlink:href="#zoomPlus" x="17" y="9" onmousedown="handleZoom(evt,'in')"/>
                <use id="zoomminus" xlink:href="#zoomMin" x="42" y="9" onmousedown="handleZoom(evt,'out')"/>
                <use id="reset" xlink:href="#resetDef" x="30" y="36" onmousedown="handleReset()"/>
                <g id="arrowUp" xlink:href="#dirArrow" transform="translate(30 24)" onmousedown="handlePan(0,-1)">
                  <use xlink:href="#rim" fill="#404040">
                        <set attributeName="fill" to="#808080" begin="arrowUp.mouseover" end="arrowUp.mouseout"/>
                  </use>
                  <path fill="none" stroke="white" stroke-width="1.5" d="M0,-3.0v7 M-2.5,-0.5L0,-3.0L2.5,-0.5"/>
                </g>
                <g id="arrowRight" xlink:href="#dirArrow" transform="rotate(90) translate(36 -43)" onmousedown="handlePan(1,0)">
                  <use xlink:href="#rim" fill="#404040">
                        <set attributeName="fill" to="#808080" begin="arrowRight.mouseover" end="arrowRight.mouseout"/>
                  </use>
                  <path fill="none" stroke="white" stroke-width="1.5" d="M0,-3.0v7 M-2.5,-0.5L0,-3.0L2.5,-0.5"/>
                </g>
                <g id="arrowDown" xlink:href="#dirArrow" transform="rotate(180) translate(-30 -48)" onmousedown="handlePan(0,1)">
                  <use xlink:href="#rim" fill="#404040">
                        <set attributeName="fill" to="#808080" begin="arrowDown.mouseover" end="arrowDown.mouseout"/>
                  </use>
                  <path fill="none" stroke="white" stroke-width="1.5" d="M0,-3.0v7 M-2.5,-0.5L0,-3.0L2.5,-0.5"/>
                </g>
                <g id="arrowLeft" xlink:href="#dirArrow" transform="rotate(270) translate(-36 17)" onmousedown="handlePan(-1,0)">
                  <use xlink:href="#rim" fill="#404040">
                        <set attributeName="fill" to="#808080" begin="arrowLeft.mouseover" end="arrowLeft.mouseout"/>
                  </use>
                  <path fill="none" stroke="white" stroke-width="1.5" d="M0,-3.0v7 M-2.5,-0.5L0,-3.0L2.5,-0.5"/>
                </g>
        </g>
        <svg viewBox="0 0 15 15" width="100%" height="30px" preserveAspectRatio="xMaxYMin meet">
         <g id="arrow_out" transform="scale(0.3 0.3)">
          <a xlink:href="class_lang_1_1_diff_1_1_sequence_matcher_ae5b602b7de355769e231792c131eac5b_cgraph_org.svg" target="_base">
           <rect id="button" ry="5" rx="5" y="6" x="6" height="38" width="38"
                fill="#f2f5e9" fill-opacity="0.5" stroke="#606060" stroke-width="1.0"/>
           <path id="arrow"
             d="M 11.500037,31.436501 C 11.940474,20.09759 22.043105,11.32322 32.158766,21.979434 L 37.068811,17.246167 C 37.068811,17.246167 37.088388,32 37.088388,32 L 22.160133,31.978069 C 22.160133,31.978069 26.997745,27.140456 26.997745,27.140456 C 18.528582,18.264221 13.291696,25.230495 11.500037,31.436501 z"
             style="fill:#404040;"/>
          </a>
         </g>
        </svg>
</svg>
