<?xml version="1.0" encoding="UTF-8" standalone="no"?>
<!DOCTYPE svg PUBLIC "-//W3C//DTD SVG 1.1//EN"
 "http://www.w3.org/Graphics/SVG/1.1/DTD/svg11.dtd">
<!-- Generated by graphviz version 2.30.1 (20130219.2202)
 -->
<!-- Title: Lang.Diff._BlockSide Pages: 1 -->
<svg width="110pt" height="194pt"
 viewBox="0.00 0.00 110.00 194.00" xmlns="http://www.w3.org/2000/svg" xmlns:xlink="http://www.w3.org/1999/xlink">
<g id="graph0" class="graph" transform="scale(1 1) rotate(0) translate(4 190)">
<title>Lang.Diff._BlockSide</title>
<!-- Node1 -->
<g id="node1" class="node"><title>Node1</title>
<polygon fill="#bfbfbf" stroke="black" points="-0.5,-1 -0.5,-91 102.5,-91 102.5,-1 -0.5,-1"/>
<text text-anchor="middle" x="51" y="-79" font-family="Helvetica,sans-Serif" font-size="10.00">Lang.Diff._BlockSide</text>
<polyline fill="none" stroke="black" points="-0.5,-72 102.5,-72 "/>
<text text-anchor="start" x="7.5" y="-60" font-family="Helvetica,sans-Serif" font-size="10.00">+ index</text>
<text text-anchor="start" x="7.5" y="-49" font-family="Helvetica,sans-Serif" font-size="10.00">+ size</text>
<polyline fill="none" stroke="black" points="-0.5,-42 102.5,-42 "/>
<text text-anchor="start" x="7.5" y="-30" font-family="Helvetica,sans-Serif" font-size="10.00">+ __init__()</text>
<text text-anchor="start" x="7.5" y="-19" font-family="Helvetica,sans-Serif" font-size="10.00">+ __str__()</text>
<text text-anchor="start" x="7.5" y="-8" font-family="Helvetica,sans-Serif" font-size="10.00">+ __repr__()</text>
</g>
<!-- Node2 -->
<g id="node2" class="node"><title>Node2</title>
<g id="a_node2"><a xlink:href="classobject.html" target="_top" xlink:title="{object\n||}">
<polygon fill="none" stroke="black" points="30,-128.5 30,-185.5 72,-185.5 72,-128.5 30,-128.5"/>
<text text-anchor="middle" x="51" y="-173.5" font-family="Helvetica,sans-Serif" font-size="10.00">object</text>
<polyline fill="none" stroke="black" points="30,-166.5 72,-166.5 "/>
<text text-anchor="middle" x="51" y="-154.5" font-family="Helvetica,sans-Serif" font-size="10.00"> </text>
<polyline fill="none" stroke="black" points="30,-147.5 72,-147.5 "/>
<text text-anchor="middle" x="51" y="-135.5" font-family="Helvetica,sans-Serif" font-size="10.00"> </text>
</a>
</g>
</g>
<!-- Node2&#45;&gt;Node1 -->
<g id="edge1" class="edge"><title>Node2&#45;&gt;Node1</title>
<path fill="none" stroke="midnightblue" d="M51,-118.484C51,-109.643 51,-100.139 51,-91.0399"/>
<polygon fill="none" stroke="midnightblue" points="47.5001,-118.495 51,-128.495 54.5001,-118.495 47.5001,-118.495"/>
</g>
</g>
</svg>
