<?xml version="1.0" encoding="UTF-8" standalone="no"?>
<!DOCTYPE svg PUBLIC "-//W3C//DTD SVG 1.1//EN"
 "http://www.w3.org/Graphics/SVG/1.1/DTD/svg11.dtd">
<!-- Generated by graphviz version 2.36.0 (20140111.2315)
 -->
<!-- Title: Lang.Struct._OrderedSet.OrderedSet.__getitem__ Pages: 1 -->
<svg width="324pt" height="87pt"
 viewBox="0.00 0.00 324.00 87.00" xmlns="http://www.w3.org/2000/svg" xmlns:xlink="http://www.w3.org/1999/xlink">
<g id="graph0" class="graph" transform="scale(1 1) rotate(0) translate(4 83)">
<title>Lang.Struct._OrderedSet.OrderedSet.__getitem__</title>
<!-- Node1 -->
<g id="node1" class="node"><title>Node1</title>
<polygon fill="#bfbfbf" stroke="black" points="0,-24 0,-54 130,-54 130,-24 0,-24"/>
<text text-anchor="start" x="8" y="-42" font-family="Helvetica,sans-Serif" font-size="10.00">Lang.Struct._OrderedSet.</text>
<text text-anchor="middle" x="65" y="-31" font-family="Helvetica,sans-Serif" font-size="10.00">OrderedSet.__getitem__</text>
</g>
<!-- Node2 -->
<g id="node2" class="node"><title>Node2</title>
<g id="a_node2"><a xlink:href="class_lang_1_1_struct_1_1___ordered_set_1_1_ordered_set.html#ab0705d1a0100c1d113ddb52fbddc5152" target="_top" xlink:title="Lang.Struct._OrderedSet.\lOrderedSet._iterLinks">
<polygon fill="none" stroke="black" points="176,-49 176,-79 306,-79 306,-49 176,-49"/>
<text text-anchor="start" x="184" y="-67" font-family="Helvetica,sans-Serif" font-size="10.00">Lang.Struct._OrderedSet.</text>
<text text-anchor="middle" x="241" y="-56" font-family="Helvetica,sans-Serif" font-size="10.00">OrderedSet._iterLinks</text>
</a>
</g>
</g>
<!-- Node1&#45;&gt;Node2 -->
<g id="edge1" class="edge"><title>Node1&#45;&gt;Node2</title>
<path fill="none" stroke="midnightblue" d="M130.297,-48.238C141.828,-49.8948 153.931,-51.6337 165.715,-53.3269"/>
<polygon fill="midnightblue" stroke="midnightblue" points="165.571,-56.8421 175.967,-54.7999 166.567,-49.9132 165.571,-56.8421"/>
</g>
<!-- Node3 -->
<g id="node3" class="node"><title>Node3</title>
<g id="a_node3"><a xlink:href="class_lang_1_1_struct_1_1___ordered_set_1_1_ordered_set.html#ab742d8d2e00b307db1314f9d3780f08f" target="_top" xlink:title="Lang.Struct._OrderedSet.\lOrderedSet._getLink_byIndex">
<polygon fill="none" stroke="black" points="166.5,-0 166.5,-30 315.5,-30 315.5,-0 166.5,-0"/>
<text text-anchor="start" x="174.5" y="-18" font-family="Helvetica,sans-Serif" font-size="10.00">Lang.Struct._OrderedSet.</text>
<text text-anchor="middle" x="241" y="-7" font-family="Helvetica,sans-Serif" font-size="10.00">OrderedSet._getLink_byIndex</text>
</a>
</g>
</g>
<!-- Node1&#45;&gt;Node3 -->
<g id="edge2" class="edge"><title>Node1&#45;&gt;Node3</title>
<path fill="none" stroke="midnightblue" d="M130.297,-30.1315C138.716,-28.9702 147.44,-27.7668 156.123,-26.5692"/>
<polygon fill="midnightblue" stroke="midnightblue" points="156.848,-30.0024 166.276,-25.1688 155.892,-23.0681 156.848,-30.0024"/>
</g>
</g>
</svg>
