<?xml version="1.0" encoding="UTF-8" standalone="no"?>
<!DOCTYPE svg PUBLIC "-//W3C//DTD SVG 1.1//EN"
 "http://www.w3.org/Graphics/SVG/1.1/DTD/svg11.dtd">
<!-- Generated by graphviz version 2.30.1 (20130219.2202)
 -->
<!-- Title: _SequenceMatcher Pages: 1 -->
<svg width="142pt" height="282pt"
 viewBox="0.00 0.00 142.00 282.00" xmlns="http://www.w3.org/2000/svg" xmlns:xlink="http://www.w3.org/1999/xlink">
<g id="graph0" class="graph" transform="scale(1 1) rotate(0) translate(4 278)">
<title>_SequenceMatcher</title>
<!-- Node1 -->
<g id="node1" class="node"><title>Node1</title>
<polygon fill="#bfbfbf" stroke="black" points="18,-216.5 18,-273.5 116,-273.5 116,-216.5 18,-216.5"/>
<text text-anchor="middle" x="67" y="-261.5" font-family="Helvetica,sans-Serif" font-size="10.00">_SequenceMatcher</text>
<polyline fill="none" stroke="black" points="18,-254.5 116,-254.5 "/>
<text text-anchor="middle" x="67" y="-242.5" font-family="Helvetica,sans-Serif" font-size="10.00"> </text>
<polyline fill="none" stroke="black" points="18,-235.5 116,-235.5 "/>
<text text-anchor="middle" x="67" y="-223.5" font-family="Helvetica,sans-Serif" font-size="10.00"> </text>
</g>
<!-- Node2 -->
<g id="node2" class="node"><title>Node2</title>
<g id="a_node2"><a xlink:href="class_lang_1_1_diff_1_1_sequence_matcher.html" target="_top" xlink:title="Improved difflib.SequenceMatcher.">
<polygon fill="none" stroke="black" points="0,-1 0,-179 134,-179 134,-1 0,-1"/>
<text text-anchor="middle" x="67" y="-167" font-family="Helvetica,sans-Serif" font-size="10.00">Lang.Diff.SequenceMatcher</text>
<polyline fill="none" stroke="black" points="0,-160 134,-160 "/>
<text text-anchor="middle" x="67" y="-148" font-family="Helvetica,sans-Serif" font-size="10.00"> </text>
<polyline fill="none" stroke="black" points="0,-141 134,-141 "/>
<text text-anchor="start" x="8" y="-129" font-family="Helvetica,sans-Serif" font-size="10.00">+ __init__()</text>
<text text-anchor="start" x="8" y="-118" font-family="Helvetica,sans-Serif" font-size="10.00">+ ratio()</text>
<text text-anchor="start" x="8" y="-107" font-family="Helvetica,sans-Serif" font-size="10.00">+ get_matching_blocks()</text>
<text text-anchor="start" x="8" y="-96" font-family="Helvetica,sans-Serif" font-size="10.00">+ get_mismatching_blocks()</text>
<text text-anchor="start" x="8" y="-85" font-family="Helvetica,sans-Serif" font-size="10.00">+ get_matching_elems()</text>
<text text-anchor="start" x="8" y="-74" font-family="Helvetica,sans-Serif" font-size="10.00">+ get_matching_elems</text>
<text text-anchor="start" x="8" y="-63" font-family="Helvetica,sans-Serif" font-size="10.00">_useOnce()</text>
<text text-anchor="start" x="8" y="-52" font-family="Helvetica,sans-Serif" font-size="10.00">+ get_mismatching_elems()</text>
<text text-anchor="start" x="8" y="-41" font-family="Helvetica,sans-Serif" font-size="10.00">+ get_mismatching_elems</text>
<text text-anchor="start" x="8" y="-30" font-family="Helvetica,sans-Serif" font-size="10.00">_useOnce()</text>
<text text-anchor="start" x="8" y="-19" font-family="Helvetica,sans-Serif" font-size="10.00">+ get_matching()</text>
<text text-anchor="start" x="8" y="-8" font-family="Helvetica,sans-Serif" font-size="10.00">+ get_mismatching()</text>
</a>
</g>
</g>
<!-- Node1&#45;&gt;Node2 -->
<g id="edge1" class="edge"><title>Node1&#45;&gt;Node2</title>
<path fill="none" stroke="midnightblue" d="M67,-206.166C67,-197.781 67,-188.554 67,-179.086"/>
<polygon fill="none" stroke="midnightblue" points="63.5001,-206.293 67,-216.293 70.5001,-206.293 63.5001,-206.293"/>
</g>
</g>
</svg>
