<?xml version="1.0" encoding="UTF-8" standalone="no"?>
<!DOCTYPE svg PUBLIC "-//W3C//DTD SVG 1.1//EN"
 "http://www.w3.org/Graphics/SVG/1.1/DTD/svg11.dtd">
<!-- Generated by graphviz version 2.28.0 (20121214.2254)
 -->
<!-- Title: Lang.ArgParser.ArgParser.__init__ Pages: 1 -->
<svg width="536pt" height="136pt"
 viewBox="0.00 0.00 536.00 136.00" xmlns="http://www.w3.org/2000/svg" xmlns:xlink="http://www.w3.org/1999/xlink">
<g id="graph1" class="graph" transform="scale(1 1) rotate(0) translate(4 132)">
<title>Lang.ArgParser.ArgParser.__init__</title>
<!-- Node1 -->
<g id="node1" class="node"><title>Node1</title>
<polygon fill="#bfbfbf" stroke="black" points="0.5,-24 0.5,-54 129.5,-54 129.5,-24 0.5,-24"/>
<text text-anchor="start" x="8.5" y="-42" font-family="Helvetica,sans-Serif" font-size="10.00">Lang.ArgParser.ArgParser.</text>
<text text-anchor="middle" x="65" y="-31" font-family="Helvetica,sans-Serif" font-size="10.00">__init__</text>
</g>
<!-- Node2 -->
<g id="node3" class="node"><title>Node2</title>
<a xlink:href="class_lang_1_1_arg_parser_1_1___help_formatter.html#ae8f5f0117c1ccba79907879182e264d6" target="_top" xlink:title="Lang.ArgParser._HelpFormatter.add\l_argument">
<polygon fill="none" stroke="black" points="170.5,-49 170.5,-79 337.5,-79 337.5,-49 170.5,-49"/>
<text text-anchor="start" x="178.5" y="-67" font-family="Helvetica,sans-Serif" font-size="10.00">Lang.ArgParser._HelpFormatter.add</text>
<text text-anchor="middle" x="254" y="-56" font-family="Helvetica,sans-Serif" font-size="10.00">_argument</text>
</a>
</g>
<!-- Node1&#45;&gt;Node2 -->
<g id="edge2" class="edge"><title>Node1&#45;&gt;Node2</title>
<path fill="none" stroke="midnightblue" d="M129.571,-47.4987C139.52,-48.8289 149.975,-50.2266 160.415,-51.6223"/>
<polygon fill="midnightblue" stroke="midnightblue" points="160.027,-55.1015 170.403,-52.9576 160.955,-48.1633 160.027,-55.1015"/>
</g>
<!-- Node6 -->
<g id="node11" class="node"><title>Node6</title>
<a xlink:href="class_lang_1_1_arg_parser_1_1_actions_container.html#a7fd1539b202d224a96e744bb749ae738" target="_top" xlink:title="Lang.ArgParser.ActionsContainer.add\l_argument">
<polygon fill="none" stroke="black" points="166.5,-0 166.5,-30 341.5,-30 341.5,-0 166.5,-0"/>
<text text-anchor="start" x="174.5" y="-18" font-family="Helvetica,sans-Serif" font-size="10.00">Lang.ArgParser.ActionsContainer.add</text>
<text text-anchor="middle" x="254" y="-7" font-family="Helvetica,sans-Serif" font-size="10.00">_argument</text>
</a>
</g>
<!-- Node1&#45;&gt;Node6 -->
<g id="edge10" class="edge"><title>Node1&#45;&gt;Node6</title>
<path fill="none" stroke="midnightblue" d="M129.571,-30.8412C138.187,-29.7354 147.182,-28.5809 156.218,-27.4212"/>
<polygon fill="midnightblue" stroke="midnightblue" points="156.946,-30.8565 166.42,-26.1119 156.055,-23.9135 156.946,-30.8565"/>
</g>
<!-- Node3 -->
<g id="node5" class="node"><title>Node3</title>
<a xlink:href="class_lang_1_1_arg_parser_1_1___help_formatter.html#ad20b94e7fb6273a3ac0575ee62e07baf" target="_top" xlink:title="Lang.ArgParser._HelpFormatter.\l_format_action_invocation">
<polygon fill="none" stroke="black" points="378,-98 378,-128 528,-128 528,-98 378,-98"/>
<text text-anchor="start" x="386" y="-116" font-family="Helvetica,sans-Serif" font-size="10.00">Lang.ArgParser._HelpFormatter.</text>
<text text-anchor="middle" x="453" y="-105" font-family="Helvetica,sans-Serif" font-size="10.00">_format_action_invocation</text>
</a>
</g>
<!-- Node2&#45;&gt;Node3 -->
<g id="edge4" class="edge"><title>Node2&#45;&gt;Node3</title>
<path fill="none" stroke="midnightblue" d="M315.445,-79.0346C336.435,-84.2554 360.149,-90.1537 381.854,-95.5526"/>
<polygon fill="midnightblue" stroke="midnightblue" points="381.12,-98.9765 391.669,-97.9938 382.81,-92.1835 381.12,-98.9765"/>
</g>
<!-- Node4 -->
<g id="node7" class="node"><title>Node4</title>
<a xlink:href="class_lang_1_1_arg_parser_1_1___help_formatter.html#ac916c76497dc59bdf474df5a651fe6ff" target="_top" xlink:title="Lang.ArgParser._HelpFormatter.\l_format_action">
<polygon fill="none" stroke="black" points="378,-49 378,-79 528,-79 528,-49 378,-49"/>
<text text-anchor="start" x="386" y="-67" font-family="Helvetica,sans-Serif" font-size="10.00">Lang.ArgParser._HelpFormatter.</text>
<text text-anchor="middle" x="453" y="-56" font-family="Helvetica,sans-Serif" font-size="10.00">_format_action</text>
</a>
</g>
<!-- Node2&#45;&gt;Node4 -->
<g id="edge6" class="edge"><title>Node2&#45;&gt;Node4</title>
<path fill="none" stroke="midnightblue" d="M337.689,-64C347.614,-64 357.759,-64 367.707,-64"/>
<polygon fill="midnightblue" stroke="midnightblue" points="367.984,-67.5001 377.984,-64 367.984,-60.5001 367.984,-67.5001"/>
</g>
<!-- Node5 -->
<g id="node9" class="node"><title>Node5</title>
<a xlink:href="class_lang_1_1_arg_parser_1_1___help_formatter.html#a4b6e2138a7d4906627575b0e785db604" target="_top" xlink:title="Lang.ArgParser._HelpFormatter.\l_format_action_calcWidths">
<polygon fill="none" stroke="black" points="378,-0 378,-30 528,-30 528,-0 378,-0"/>
<text text-anchor="start" x="386" y="-18" font-family="Helvetica,sans-Serif" font-size="10.00">Lang.ArgParser._HelpFormatter.</text>
<text text-anchor="middle" x="453" y="-7" font-family="Helvetica,sans-Serif" font-size="10.00">_format_action_calcWidths</text>
</a>
</g>
<!-- Node2&#45;&gt;Node5 -->
<g id="edge8" class="edge"><title>Node2&#45;&gt;Node5</title>
<path fill="none" stroke="midnightblue" d="M315.445,-48.9654C336.435,-43.7446 360.149,-37.8463 381.854,-32.4474"/>
<polygon fill="midnightblue" stroke="midnightblue" points="382.81,-35.8165 391.669,-30.0062 381.12,-29.0235 382.81,-35.8165"/>
</g>
</g>
</svg>
