<?xml version="1.0" encoding="UTF-8" standalone="no"?>
<!DOCTYPE svg PUBLIC "-//W3C//DTD SVG 1.1//EN"
 "http://www.w3.org/Graphics/SVG/1.1/DTD/svg11.dtd">
<!-- Generated by graphviz version 2.36.0 (20140111.2315)
 -->
<!-- Title: Lang.Concurrency._Threading.Lock Pages: 1 -->
<svg width="340pt" height="536pt"
 viewBox="0.00 0.00 340.00 536.00" xmlns="http://www.w3.org/2000/svg" xmlns:xlink="http://www.w3.org/1999/xlink">
<g id="graph0" class="graph" transform="scale(1 1) rotate(0) translate(4 532)">
<title>Lang.Concurrency._Threading.Lock</title>
<!-- Node1 -->
<g id="node1" class="node"><title>Node1</title>
<polygon fill="#bfbfbf" stroke="black" points="76.5,-0.5 76.5,-57.5 251.5,-57.5 251.5,-0.5 76.5,-0.5"/>
<text text-anchor="middle" x="164" y="-45.5" font-family="Helvetica,sans-Serif" font-size="10.00">Lang.Concurrency._Threading.Lock</text>
<polyline fill="none" stroke="black" points="76.5,-38.5 251.5,-38.5 "/>
<text text-anchor="middle" x="164" y="-26.5" font-family="Helvetica,sans-Serif" font-size="10.00"> </text>
<polyline fill="none" stroke="black" points="76.5,-19.5 251.5,-19.5 "/>
<text text-anchor="middle" x="164" y="-7.5" font-family="Helvetica,sans-Serif" font-size="10.00"> </text>
</g>
<!-- Node2 -->
<g id="node2" class="node"><title>Node2</title>
<g id="a_node2"><a xlink:href="class_lang_1_1_concurrency_1_1___threading_1_1___threading_adapter.html" target="_top" xlink:title="{Lang.Concurrency._Threading.\l_ThreadingAdapter\n||+ __init__()\l+ __getattr__()\l}">
<polygon fill="none" stroke="black" points="0,-100.5 0,-179.5 154,-179.5 154,-100.5 0,-100.5"/>
<text text-anchor="start" x="8" y="-167.5" font-family="Helvetica,sans-Serif" font-size="10.00">Lang.Concurrency._Threading.</text>
<text text-anchor="middle" x="77" y="-156.5" font-family="Helvetica,sans-Serif" font-size="10.00">_ThreadingAdapter</text>
<polyline fill="none" stroke="black" points="0,-149.5 154,-149.5 "/>
<text text-anchor="middle" x="77" y="-137.5" font-family="Helvetica,sans-Serif" font-size="10.00"> </text>
<polyline fill="none" stroke="black" points="0,-130.5 154,-130.5 "/>
<text text-anchor="start" x="8" y="-118.5" font-family="Helvetica,sans-Serif" font-size="10.00">+ __init__()</text>
<text text-anchor="start" x="8" y="-107.5" font-family="Helvetica,sans-Serif" font-size="10.00">+ __getattr__()</text>
</a>
</g>
</g>
<!-- Node2&#45;&gt;Node1 -->
<g id="edge1" class="edge"><title>Node2&#45;&gt;Node1</title>
<path fill="none" stroke="midnightblue" d="M114.344,-92.2132C123.748,-80.4311 133.543,-68.1581 141.925,-57.6572"/>
<polygon fill="none" stroke="midnightblue" points="111.421,-90.2647 107.918,-100.264 116.892,-94.6315 111.421,-90.2647"/>
</g>
<!-- Node3 -->
<g id="node3" class="node"><title>Node3</title>
<g id="a_node3"><a xlink:href="classobject.html" target="_top" xlink:title="{object\n||}">
<polygon fill="none" stroke="black" points="152.5,-470.5 152.5,-527.5 195.5,-527.5 195.5,-470.5 152.5,-470.5"/>
<text text-anchor="middle" x="174" y="-515.5" font-family="Helvetica,sans-Serif" font-size="10.00">object</text>
<polyline fill="none" stroke="black" points="152.5,-508.5 195.5,-508.5 "/>
<text text-anchor="middle" x="174" y="-496.5" font-family="Helvetica,sans-Serif" font-size="10.00"> </text>
<polyline fill="none" stroke="black" points="152.5,-489.5 195.5,-489.5 "/>
<text text-anchor="middle" x="174" y="-477.5" font-family="Helvetica,sans-Serif" font-size="10.00"> </text>
</a>
</g>
</g>
<!-- Node3&#45;&gt;Node2 -->
<g id="edge2" class="edge"><title>Node3&#45;&gt;Node2</title>
<path fill="none" stroke="midnightblue" d="M161.357,-460.811C158.501,-452.051 155.56,-442.723 153,-434 126.44,-343.487 99.7615,-235.853 86.1886,-179.608"/>
<polygon fill="none" stroke="midnightblue" points="158.063,-461.997 164.52,-470.397 164.711,-459.804 158.063,-461.997"/>
</g>
<!-- Node5 -->
<g id="node5" class="node"><title>Node5</title>
<g id="a_node5"><a xlink:href="class_lang_1_1_concurrency_1_1abstract_1_1_lock_semaphore.html" target="_top" xlink:title="There are multiple ways to use subclasses of this class: ">
<polygon fill="none" stroke="black" points="162.5,-222.5 162.5,-433.5 303.5,-433.5 303.5,-222.5 162.5,-222.5"/>
<text text-anchor="start" x="170.5" y="-421.5" font-family="Helvetica,sans-Serif" font-size="10.00">Lang.Concurrency.abstract.</text>
<text text-anchor="middle" x="233" y="-410.5" font-family="Helvetica,sans-Serif" font-size="10.00">LockSemaphore</text>
<polyline fill="none" stroke="black" points="162.5,-403.5 303.5,-403.5 "/>
<text text-anchor="middle" x="233" y="-391.5" font-family="Helvetica,sans-Serif" font-size="10.00"> </text>
<polyline fill="none" stroke="black" points="162.5,-384.5 303.5,-384.5 "/>
<text text-anchor="start" x="170.5" y="-372.5" font-family="Helvetica,sans-Serif" font-size="10.00">+ __init__()</text>
<text text-anchor="start" x="170.5" y="-361.5" font-family="Helvetica,sans-Serif" font-size="10.00">+ __str__()</text>
<text text-anchor="start" x="170.5" y="-350.5" font-family="Helvetica,sans-Serif" font-size="10.00">+ __getstate__()</text>
<text text-anchor="start" x="170.5" y="-339.5" font-family="Helvetica,sans-Serif" font-size="10.00">+ __eq__()</text>
<text text-anchor="start" x="170.5" y="-328.5" font-family="Helvetica,sans-Serif" font-size="10.00">+ __ne__()</text>
<text text-anchor="start" x="170.5" y="-317.5" font-family="Helvetica,sans-Serif" font-size="10.00">+ getMaxSlots()</text>
<text text-anchor="start" x="170.5" y="-306.5" font-family="Helvetica,sans-Serif" font-size="10.00">+ getSlotsTakenByAnyone()</text>
<text text-anchor="start" x="170.5" y="-295.5" font-family="Helvetica,sans-Serif" font-size="10.00">+ getSlotsTakenBySelf()</text>
<text text-anchor="start" x="170.5" y="-284.5" font-family="Helvetica,sans-Serif" font-size="10.00">+ getSlotsAvailable()</text>
<text text-anchor="start" x="170.5" y="-273.5" font-family="Helvetica,sans-Serif" font-size="10.00">+ hasAvailableSlot()</text>
<text text-anchor="start" x="170.5" y="-262.5" font-family="Helvetica,sans-Serif" font-size="10.00">+ acquire()</text>
<text text-anchor="start" x="170.5" y="-251.5" font-family="Helvetica,sans-Serif" font-size="10.00">+ release()</text>
<text text-anchor="start" x="170.5" y="-240.5" font-family="Helvetica,sans-Serif" font-size="10.00">+ __enter__()</text>
<text text-anchor="start" x="170.5" y="-229.5" font-family="Helvetica,sans-Serif" font-size="10.00">+ __exit__()</text>
</a>
</g>
</g>
<!-- Node3&#45;&gt;Node5 -->
<g id="edge5" class="edge"><title>Node3&#45;&gt;Node5</title>
<path fill="none" stroke="midnightblue" d="M186.993,-460.784C189.904,-452.444 193.132,-443.198 196.488,-433.584"/>
<polygon fill="none" stroke="midnightblue" points="183.602,-459.876 183.611,-470.471 190.211,-462.184 183.602,-459.876"/>
</g>
<!-- Node4 -->
<g id="node4" class="node"><title>Node4</title>
<g id="a_node4"><a xlink:href="class_lang_1_1_concurrency_1_1abstract_1_1_lock.html" target="_top" xlink:title="{Lang.Concurrency.abstract.Lock\n||+ __init__()\l+ getMaxSlots()\l+ isAcquiredByAnyone()\l+ isAcquiredBySelf()\l}">
<polygon fill="none" stroke="black" points="172,-95 172,-185 332,-185 332,-95 172,-95"/>
<text text-anchor="middle" x="252" y="-173" font-family="Helvetica,sans-Serif" font-size="10.00">Lang.Concurrency.abstract.Lock</text>
<polyline fill="none" stroke="black" points="172,-166 332,-166 "/>
<text text-anchor="middle" x="252" y="-154" font-family="Helvetica,sans-Serif" font-size="10.00"> </text>
<polyline fill="none" stroke="black" points="172,-147 332,-147 "/>
<text text-anchor="start" x="180" y="-135" font-family="Helvetica,sans-Serif" font-size="10.00">+ __init__()</text>
<text text-anchor="start" x="180" y="-124" font-family="Helvetica,sans-Serif" font-size="10.00">+ getMaxSlots()</text>
<text text-anchor="start" x="180" y="-113" font-family="Helvetica,sans-Serif" font-size="10.00">+ isAcquiredByAnyone()</text>
<text text-anchor="start" x="180" y="-102" font-family="Helvetica,sans-Serif" font-size="10.00">+ isAcquiredBySelf()</text>
</a>
</g>
</g>
<!-- Node4&#45;&gt;Node1 -->
<g id="edge3" class="edge"><title>Node4&#45;&gt;Node1</title>
<path fill="none" stroke="midnightblue" d="M209.938,-86.9008C201.754,-76.7639 193.481,-66.516 186.253,-57.5636"/>
<polygon fill="none" stroke="midnightblue" points="207.456,-89.3976 216.461,-94.9797 212.902,-85.0003 207.456,-89.3976"/>
</g>
<!-- Node5&#45;&gt;Node4 -->
<g id="edge4" class="edge"><title>Node5&#45;&gt;Node4</title>
<path fill="none" stroke="midnightblue" d="M244.717,-212.297C245.689,-202.782 246.628,-193.587 247.491,-185.143"/>
<polygon fill="none" stroke="midnightblue" points="241.228,-212.008 243.694,-222.312 248.192,-212.719 241.228,-212.008"/>
</g>
</g>
</svg>
