<?xml version="1.0" encoding="UTF-8" standalone="no"?>
<!DOCTYPE svg PUBLIC "-//W3C//DTD SVG 1.1//EN"
 "http://www.w3.org/Graphics/SVG/1.1/DTD/svg11.dtd">
<!-- Generated by graphviz version 2.36.0 (20140111.2315)
 -->
<!-- Title: Graphical Class Hierarchy Pages: 1 -->
<svg width="292pt" height="148pt"
 viewBox="0.00 0.00 292.00 148.00" xmlns="http://www.w3.org/2000/svg" xmlns:xlink="http://www.w3.org/1999/xlink">
<g id="graph0" class="graph" transform="scale(1 1) rotate(0) translate(4 144)">
<title>Graphical Class Hierarchy</title>
<!-- Node1 -->
<g id="node1" class="node"><title>Node1</title>
<g id="a_node1"><a xlink:href="class_exception.html" target="_top" xlink:title="Exception">
<polygon fill="none" stroke="black" points="0,-54.5 0,-73.5 60,-73.5 60,-54.5 0,-54.5"/>
<text text-anchor="middle" x="30" y="-61.5" font-family="Helvetica,sans-Serif" font-size="10.00">Exception</text>
</a>
</g>
</g>
<!-- Node2 -->
<g id="node2" class="node"><title>Node2</title>
<g id="a_node2"><a xlink:href="class_lang_1_1_class_tools_1_1_patterns_1_1__singleton__multiton__abstract_1_1_duplicate_instance_exception.html" target="_top" xlink:title="Lang.ClassTools.Patterns.\l_singleton_multiton_abstract.Duplicate\lInstanceException">
<polygon fill="none" stroke="black" points="96,-98.5 96,-139.5 284,-139.5 284,-98.5 96,-98.5"/>
<text text-anchor="start" x="104" y="-127.5" font-family="Helvetica,sans-Serif" font-size="10.00">Lang.ClassTools.Patterns.</text>
<text text-anchor="start" x="104" y="-116.5" font-family="Helvetica,sans-Serif" font-size="10.00">_singleton_multiton_abstract.Duplicate</text>
<text text-anchor="middle" x="190" y="-105.5" font-family="Helvetica,sans-Serif" font-size="10.00">InstanceException</text>
</a>
</g>
</g>
<!-- Node1&#45;&gt;Node2 -->
<g id="edge1" class="edge"><title>Node1&#45;&gt;Node2</title>
<path fill="none" stroke="midnightblue" d="M65.6713,-77.0347C75.4557,-80.6497 86.1256,-84.5323 96,-88 105.795,-91.4399 116.203,-95.0006 126.375,-98.4292"/>
<polygon fill="midnightblue" stroke="midnightblue" points="66.8373,-73.7342 56.2443,-73.5342 64.4005,-80.2964 66.8373,-73.7342"/>
</g>
<!-- Node3 -->
<g id="node3" class="node"><title>Node3</title>
<g id="a_node3"><a xlink:href="class_lang_1_1_concurrency_1_1_resource_already_released_exception.html" target="_top" xlink:title="Lang.Concurrency.Resource\lAlreadyReleasedException">
<polygon fill="none" stroke="black" points="118,-49 118,-79 262,-79 262,-49 118,-49"/>
<text text-anchor="start" x="126" y="-67" font-family="Helvetica,sans-Serif" font-size="10.00">Lang.Concurrency.Resource</text>
<text text-anchor="middle" x="190" y="-56" font-family="Helvetica,sans-Serif" font-size="10.00">AlreadyReleasedException</text>
</a>
</g>
</g>
<!-- Node1&#45;&gt;Node3 -->
<g id="edge2" class="edge"><title>Node1&#45;&gt;Node3</title>
<path fill="none" stroke="midnightblue" d="M70.3639,-64C84.7482,-64 101.499,-64 117.802,-64"/>
<polygon fill="midnightblue" stroke="midnightblue" points="70.3483,-60.5001 60.3483,-64 70.3483,-67.5001 70.3483,-60.5001"/>
</g>
<!-- Node4 -->
<g id="node4" class="node"><title>Node4</title>
<g id="a_node4"><a xlink:href="class_lang_1_1_concurrency_1_1_resource_is_full_exception.html" target="_top" xlink:title="Lang.Concurrency.Resource\lIsFullException">
<polygon fill="none" stroke="black" points="118,-0 118,-30 262,-30 262,-0 118,-0"/>
<text text-anchor="start" x="126" y="-18" font-family="Helvetica,sans-Serif" font-size="10.00">Lang.Concurrency.Resource</text>
<text text-anchor="middle" x="190" y="-7" font-family="Helvetica,sans-Serif" font-size="10.00">IsFullException</text>
</a>
</g>
</g>
<!-- Node1&#45;&gt;Node4 -->
<g id="edge3" class="edge"><title>Node1&#45;&gt;Node4</title>
<path fill="none" stroke="midnightblue" d="M64.7857,-50.862C74.772,-47.1592 85.7695,-43.2563 96,-40 106.833,-36.5518 118.473,-33.1715 129.727,-30.0664"/>
<polygon fill="midnightblue" stroke="midnightblue" points="63.3298,-47.6701 55.2024,-54.4668 65.7944,-54.222 63.3298,-47.6701"/>
</g>
</g>
</svg>
