<?xml version="1.0" encoding="UTF-8" standalone="no"?>
<!DOCTYPE svg PUBLIC "-//W3C//DTD SVG 1.1//EN"
 "http://www.w3.org/Graphics/SVG/1.1/DTD/svg11.dtd">
<!-- Generated by graphviz version 2.30.1 (20130219.2202)
 -->
<!-- Title: Graphical Class Hierarchy Pages: 1 -->
<svg width="458pt" height="66pt"
 viewBox="0.00 0.00 458.00 66.00" xmlns="http://www.w3.org/2000/svg" xmlns:xlink="http://www.w3.org/1999/xlink">
<g id="graph0" class="graph" transform="scale(1 1) rotate(0) translate(4 62)">
<title>Graphical Class Hierarchy</title>
<!-- Node1 -->
<g id="node1" class="node"><title>Node1</title>
<g id="a_node1"><a xlink:href="classargparse_1_1___actions_container.html" target="_top" xlink:title="_ActionsContainer">
<polygon fill="none" stroke="black" points="0.5,-38.5 0.5,-57.5 93.5,-57.5 93.5,-38.5 0.5,-38.5"/>
<text text-anchor="middle" x="47" y="-45.5" font-family="Helvetica,sans-Serif" font-size="10.00">_ActionsContainer</text>
</a>
</g>
</g>
<!-- Node2 -->
<g id="node2" class="node"><title>Node2</title>
<g id="a_node2"><a xlink:href="class_lang_1_1_arg_parser_1_1_actions_container.html" target="_top" xlink:title="Lang.ArgParser.ActionsContainer">
<polygon fill="none" stroke="black" points="130,-38.5 130,-57.5 286,-57.5 286,-38.5 130,-38.5"/>
<text text-anchor="middle" x="208" y="-45.5" font-family="Helvetica,sans-Serif" font-size="10.00">Lang.ArgParser.ActionsContainer</text>
</a>
</g>
</g>
<!-- Node1&#45;&gt;Node2 -->
<g id="edge1" class="edge"><title>Node1&#45;&gt;Node2</title>
<path fill="none" stroke="midnightblue" d="M103.687,-48C112.174,-48 121.06,-48 129.905,-48"/>
<polygon fill="midnightblue" stroke="midnightblue" points="103.563,-44.5001 93.563,-48 103.563,-51.5001 103.563,-44.5001"/>
</g>
<!-- Node3 -->
<g id="node3" class="node"><title>Node3</title>
<g id="a_node3"><a xlink:href="class_lang_1_1_arg_parser_1_1_arg_parser.html" target="_top" xlink:title="Supports positional arguments, named required arguments, and named optional arguments, with help in man&#45;page&#45;like format.">
<polygon fill="none" stroke="black" points="322.5,-19.5 322.5,-38.5 449.5,-38.5 449.5,-19.5 322.5,-19.5"/>
<text text-anchor="middle" x="386" y="-26.5" font-family="Helvetica,sans-Serif" font-size="10.00">Lang.ArgParser.ArgParser</text>
</a>
</g>
</g>
<!-- Node2&#45;&gt;Node3 -->
<g id="edge2" class="edge"><title>Node2&#45;&gt;Node3</title>
<path fill="none" stroke="midnightblue" d="M296.164,-38.5902C305.014,-37.6348 313.876,-36.6782 322.39,-35.759"/>
<polygon fill="midnightblue" stroke="midnightblue" points="295.763,-35.1131 286.196,-39.6663 296.514,-42.0727 295.763,-35.1131"/>
</g>
<!-- Node4 -->
<g id="node4" class="node"><title>Node4</title>
<g id="a_node4"><a xlink:href="classargparse_1_1_argument_parser.html" target="_top" xlink:title="ArgumentParser">
<polygon fill="none" stroke="black" points="166,-0.5 166,-19.5 250,-19.5 250,-0.5 166,-0.5"/>
<text text-anchor="middle" x="208" y="-7.5" font-family="Helvetica,sans-Serif" font-size="10.00">ArgumentParser</text>
</a>
</g>
</g>
<!-- Node4&#45;&gt;Node3 -->
<g id="edge3" class="edge"><title>Node4&#45;&gt;Node3</title>
<path fill="none" stroke="midnightblue" d="M260.397,-15.5485C279.759,-17.6388 301.998,-20.0396 322.28,-22.2291"/>
<polygon fill="midnightblue" stroke="midnightblue" points="260.582,-12.0483 250.264,-14.4547 259.831,-19.0078 260.582,-12.0483"/>
</g>
</g>
</svg>
