<?xml version="1.0" encoding="UTF-8" standalone="no"?>
<!DOCTYPE svg PUBLIC "-//W3C//DTD SVG 1.1//EN"
 "http://www.w3.org/Graphics/SVG/1.1/DTD/svg11.dtd">
<!-- Generated by graphviz version 2.28.0 (20121214.2254)
 -->
<!-- Title: Graphical Class Hierarchy Pages: 1 -->
<svg width="394pt" height="28pt"
 viewBox="0.00 0.00 394.00 28.00" xmlns="http://www.w3.org/2000/svg" xmlns:xlink="http://www.w3.org/1999/xlink">
<g id="graph1" class="graph" transform="scale(1 1) rotate(0) translate(4 24)">
<title>Graphical Class Hierarchy</title>
<!-- Node1 -->
<g id="node1" class="node"><title>Node1</title>
<a xlink:href="classobject.html" target="_top" xlink:title="object">
<polygon fill="none" stroke="black" points="0,-0.5 0,-19.5 42,-19.5 42,-0.5 0,-0.5"/>
<text text-anchor="middle" x="21" y="-7.5" font-family="Helvetica,sans-Serif" font-size="10.00">object</text>
</a>
</g>
<!-- Node2 -->
<g id="node3" class="node"><title>Node2</title>
<a xlink:href="class_lang_1_1_logging_1_1_logger_abstract.html" target="_top" xlink:title="Lang.Logging.LoggerAbstract">
<polygon fill="none" stroke="black" points="78,-0.5 78,-19.5 218,-19.5 218,-0.5 78,-0.5"/>
<text text-anchor="middle" x="148" y="-7.5" font-family="Helvetica,sans-Serif" font-size="10.00">Lang.Logging.LoggerAbstract</text>
</a>
</g>
<!-- Node1&#45;&gt;Node2 -->
<g id="edge2" class="edge"><title>Node1&#45;&gt;Node2</title>
<path fill="none" stroke="midnightblue" d="M52.1976,-10C60.0992,-10 68.9508,-10 77.986,-10"/>
<polygon fill="midnightblue" stroke="midnightblue" points="52.0834,-6.5001 42.0834,-10 52.0834,-13.5001 52.0834,-6.5001"/>
</g>
<!-- Node3 -->
<g id="node5" class="node"><title>Node3</title>
<a xlink:href="class_lang_1_1_logging_1_1_stdout_logger.html" target="_top" xlink:title="Logs messages to sys.stdout.">
<polygon fill="none" stroke="black" points="254.5,-0.5 254.5,-19.5 385.5,-19.5 385.5,-0.5 254.5,-0.5"/>
<text text-anchor="middle" x="320" y="-7.5" font-family="Helvetica,sans-Serif" font-size="10.00">Lang.Logging.StdoutLogger</text>
</a>
</g>
<!-- Node2&#45;&gt;Node3 -->
<g id="edge4" class="edge"><title>Node2&#45;&gt;Node3</title>
<path fill="none" stroke="midnightblue" d="M228.309,-10C237.017,-10 245.806,-10 254.306,-10"/>
<polygon fill="midnightblue" stroke="midnightblue" points="228.146,-6.5001 218.146,-10 228.145,-13.5001 228.146,-6.5001"/>
</g>
</g>
</svg>
