<?xml version="1.0" encoding="UTF-8" standalone="no"?>
<!DOCTYPE svg PUBLIC "-//W3C//DTD SVG 1.1//EN"
 "http://www.w3.org/Graphics/SVG/1.1/DTD/svg11.dtd">
<!-- Generated by graphviz version 2.36.0 (20140111.2315)
 -->
<!-- Title: Graphical Class Hierarchy Pages: 1 -->
<svg width="568pt" height="230pt"
 viewBox="0.00 0.00 568.00 230.00" xmlns="http://www.w3.org/2000/svg" xmlns:xlink="http://www.w3.org/1999/xlink">
<g id="graph0" class="graph" transform="scale(1 1) rotate(0) translate(4 226)">
<title>Graphical Class Hierarchy</title>
<!-- Node1 -->
<g id="node1" class="node"><title>Node1</title>
<polygon fill="none" stroke="#bfbfbf" points="0.5,-82.5 0.5,-101.5 135.5,-101.5 135.5,-82.5 0.5,-82.5"/>
<text text-anchor="middle" x="68" y="-89.5" font-family="Helvetica,sans-Serif" font-size="10.00">_SingletonMultitonAbstract</text>
</g>
<!-- Node2 -->
<g id="node2" class="node"><title>Node2</title>
<g id="a_node2"><a xlink:href="class_lang_1_1_class_tools_1_1_patterns_1_1__multiton_1_1___multiton___one_equivalent_instance.html" target="_top" xlink:title="Lang.ClassTools.Patterns.\l_multiton._Multiton_OneEquivalent\lInstance">
<polygon fill="none" stroke="black" points="172,-120.5 172,-161.5 344,-161.5 344,-120.5 172,-120.5"/>
<text text-anchor="start" x="180" y="-149.5" font-family="Helvetica,sans-Serif" font-size="10.00">Lang.ClassTools.Patterns.</text>
<text text-anchor="start" x="180" y="-138.5" font-family="Helvetica,sans-Serif" font-size="10.00">_multiton._Multiton_OneEquivalent</text>
<text text-anchor="middle" x="258" y="-127.5" font-family="Helvetica,sans-Serif" font-size="10.00">Instance</text>
</a>
</g>
</g>
<!-- Node1&#45;&gt;Node2 -->
<g id="edge1" class="edge"><title>Node1&#45;&gt;Node2</title>
<path fill="none" stroke="midnightblue" d="M115.508,-104.122C134.381,-109.041 156.718,-114.863 178.002,-120.41"/>
<polygon fill="midnightblue" stroke="midnightblue" points="116.254,-100.699 105.695,-101.564 114.489,-107.473 116.254,-100.699"/>
</g>
<!-- Node5 -->
<g id="node5" class="node"><title>Node5</title>
<g id="a_node5"><a xlink:href="class_lang_1_1_class_tools_1_1_patterns_1_1__singleton_1_1___singleton___abstract.html" target="_top" xlink:title="Lang.ClassTools.Patterns.\l_singleton._Singleton_Abstract">
<polygon fill="none" stroke="black" points="181,-66 181,-96 335,-96 335,-66 181,-66"/>
<text text-anchor="start" x="189" y="-84" font-family="Helvetica,sans-Serif" font-size="10.00">Lang.ClassTools.Patterns.</text>
<text text-anchor="middle" x="258" y="-73" font-family="Helvetica,sans-Serif" font-size="10.00">_singleton._Singleton_Abstract</text>
</a>
</g>
</g>
<!-- Node1&#45;&gt;Node5 -->
<g id="edge4" class="edge"><title>Node1&#45;&gt;Node5</title>
<path fill="none" stroke="midnightblue" d="M145.658,-87.5147C157.293,-86.8339 169.295,-86.1317 180.918,-85.4516"/>
<polygon fill="midnightblue" stroke="midnightblue" points="145.325,-84.0281 135.546,-88.1063 145.734,-91.0162 145.325,-84.0281"/>
</g>
<!-- Node3 -->
<g id="node3" class="node"><title>Node3</title>
<g id="a_node3"><a xlink:href="class_lang_1_1_class_tools_1_1_patterns_1_1__multiton_1_1___multiton___one_equivalent_instance___on_dup_raise_exception.html" target="_top" xlink:title="Lang.ClassTools.Patterns.\l_multiton._Multiton_OneEquivalent\lInstance_OnDupRaiseException">
<polygon fill="none" stroke="black" points="384,-180.5 384,-221.5 556,-221.5 556,-180.5 384,-180.5"/>
<text text-anchor="start" x="392" y="-209.5" font-family="Helvetica,sans-Serif" font-size="10.00">Lang.ClassTools.Patterns.</text>
<text text-anchor="start" x="392" y="-198.5" font-family="Helvetica,sans-Serif" font-size="10.00">_multiton._Multiton_OneEquivalent</text>
<text text-anchor="middle" x="470" y="-187.5" font-family="Helvetica,sans-Serif" font-size="10.00">Instance_OnDupRaiseException</text>
</a>
</g>
</g>
<!-- Node2&#45;&gt;Node3 -->
<g id="edge2" class="edge"><title>Node2&#45;&gt;Node3</title>
<path fill="none" stroke="midnightblue" d="M340.614,-164.318C359.251,-169.643 378.923,-175.264 397.118,-180.462"/>
<polygon fill="midnightblue" stroke="midnightblue" points="341.553,-160.947 330.976,-161.565 339.63,-167.677 341.553,-160.947"/>
</g>
<!-- Node4 -->
<g id="node4" class="node"><title>Node4</title>
<g id="a_node4"><a xlink:href="class_lang_1_1_class_tools_1_1_patterns_1_1__multiton_1_1___multiton___one_equivalent_instance___on_dup_return_existing.html" target="_top" xlink:title="Lang.ClassTools.Patterns.\l_multiton._Multiton_OneEquivalent\lInstance_OnDupReturnExisting">
<polygon fill="none" stroke="black" points="384,-120.5 384,-161.5 556,-161.5 556,-120.5 384,-120.5"/>
<text text-anchor="start" x="392" y="-149.5" font-family="Helvetica,sans-Serif" font-size="10.00">Lang.ClassTools.Patterns.</text>
<text text-anchor="start" x="392" y="-138.5" font-family="Helvetica,sans-Serif" font-size="10.00">_multiton._Multiton_OneEquivalent</text>
<text text-anchor="middle" x="470" y="-127.5" font-family="Helvetica,sans-Serif" font-size="10.00">Instance_OnDupReturnExisting</text>
</a>
</g>
</g>
<!-- Node2&#45;&gt;Node4 -->
<g id="edge3" class="edge"><title>Node2&#45;&gt;Node4</title>
<path fill="none" stroke="midnightblue" d="M354.295,-141C364.121,-141 374.061,-141 383.767,-141"/>
<polygon fill="midnightblue" stroke="midnightblue" points="354.112,-137.5 344.112,-141 354.112,-144.5 354.112,-137.5"/>
</g>
<!-- Node6 -->
<g id="node6" class="node"><title>Node6</title>
<g id="a_node6"><a xlink:href="class_lang_1_1_class_tools_1_1_patterns_1_1__singleton_1_1___singleton___on_dup_raise_exception.html" target="_top" xlink:title="Lang.ClassTools.Patterns.\l_singleton._Singleton_OnDupRaise\lException">
<polygon fill="none" stroke="black" points="382.5,-60.5 382.5,-101.5 557.5,-101.5 557.5,-60.5 382.5,-60.5"/>
<text text-anchor="start" x="390.5" y="-89.5" font-family="Helvetica,sans-Serif" font-size="10.00">Lang.ClassTools.Patterns.</text>
<text text-anchor="start" x="390.5" y="-78.5" font-family="Helvetica,sans-Serif" font-size="10.00">_singleton._Singleton_OnDupRaise</text>
<text text-anchor="middle" x="470" y="-67.5" font-family="Helvetica,sans-Serif" font-size="10.00">Exception</text>
</a>
</g>
</g>
<!-- Node5&#45;&gt;Node6 -->
<g id="edge5" class="edge"><title>Node5&#45;&gt;Node6</title>
<path fill="none" stroke="midnightblue" d="M345.316,-81C357.581,-81 370.197,-81 382.466,-81"/>
<polygon fill="midnightblue" stroke="midnightblue" points="345.112,-77.5001 335.112,-81 345.112,-84.5001 345.112,-77.5001"/>
</g>
<!-- Node7 -->
<g id="node7" class="node"><title>Node7</title>
<g id="a_node7"><a xlink:href="class_lang_1_1_class_tools_1_1_patterns_1_1__singleton_1_1___singleton___on_dup_return_existing.html" target="_top" xlink:title="Lang.ClassTools.Patterns.\l_singleton._Singleton_OnDupReturn\lExisting">
<polygon fill="none" stroke="black" points="380.5,-0.5 380.5,-41.5 559.5,-41.5 559.5,-0.5 380.5,-0.5"/>
<text text-anchor="start" x="388.5" y="-29.5" font-family="Helvetica,sans-Serif" font-size="10.00">Lang.ClassTools.Patterns.</text>
<text text-anchor="start" x="388.5" y="-18.5" font-family="Helvetica,sans-Serif" font-size="10.00">_singleton._Singleton_OnDupReturn</text>
<text text-anchor="middle" x="470" y="-7.5" font-family="Helvetica,sans-Serif" font-size="10.00">Existing</text>
</a>
</g>
</g>
<!-- Node5&#45;&gt;Node7 -->
<g id="edge6" class="edge"><title>Node5&#45;&gt;Node7</title>
<path fill="none" stroke="midnightblue" d="M321.356,-63.184C345.193,-56.3734 372.562,-48.5536 397.21,-41.5114"/>
<polygon fill="midnightblue" stroke="midnightblue" points="320.375,-59.8243 311.721,-65.9369 322.298,-66.555 320.375,-59.8243"/>
</g>
<!-- Node8 -->
<g id="node8" class="node"><title>Node8</title>
<polygon fill="none" stroke="#bfbfbf" points="38.5,-131.5 38.5,-150.5 97.5,-150.5 97.5,-131.5 38.5,-131.5"/>
<text text-anchor="middle" x="68" y="-138.5" font-family="Helvetica,sans-Serif" font-size="10.00">ABCMeta</text>
</g>
<!-- Node8&#45;&gt;Node2 -->
<g id="edge7" class="edge"><title>Node8&#45;&gt;Node2</title>
<path fill="none" stroke="midnightblue" d="M107.691,-141C126.334,-141 149.482,-141 171.942,-141"/>
<polygon fill="midnightblue" stroke="midnightblue" points="107.553,-137.5 97.5532,-141 107.553,-144.5 107.553,-137.5"/>
</g>
</g>
</svg>
