<?xml version="1.0" encoding="UTF-8" standalone="no"?>
<!DOCTYPE svg PUBLIC "-//W3C//DTD SVG 1.1//EN"
 "http://www.w3.org/Graphics/SVG/1.1/DTD/svg11.dtd">
<!-- Generated by graphviz version 2.30.1 (20130219.2202)
 -->
<!-- Title: Graphical Class Hierarchy Pages: 1 -->
<svg width="652pt" height="256pt"
 viewBox="0.00 0.00 652.00 256.00" xmlns="http://www.w3.org/2000/svg" xmlns:xlink="http://www.w3.org/1999/xlink">
<g id="graph0" class="graph" transform="scale(1 1) rotate(0) translate(4 252)">
<title>Graphical Class Hierarchy</title>
<!-- Node1 -->
<g id="node1" class="node"><title>Node1</title>
<g id="a_node1"><a xlink:href="class___sequence_matcher.html" target="_top" xlink:title="_SequenceMatcher">
<polygon fill="none" stroke="black" points="0,-228.5 0,-247.5 98,-247.5 98,-228.5 0,-228.5"/>
<text text-anchor="middle" x="49" y="-235.5" font-family="Helvetica,sans-Serif" font-size="10.00">_SequenceMatcher</text>
</a>
</g>
</g>
<!-- Node2 -->
<g id="node2" class="node"><title>Node2</title>
<g id="a_node2"><a xlink:href="class_lang_1_1_diff_1_1_sequence_matcher.html" target="_top" xlink:title="Improved difflib.SequenceMatcher.">
<polygon fill="none" stroke="black" points="148.5,-228.5 148.5,-247.5 281.5,-247.5 281.5,-228.5 148.5,-228.5"/>
<text text-anchor="middle" x="215" y="-235.5" font-family="Helvetica,sans-Serif" font-size="10.00">Lang.Diff.SequenceMatcher</text>
</a>
</g>
</g>
<!-- Node1&#45;&gt;Node2 -->
<g id="edge1" class="edge"><title>Node1&#45;&gt;Node2</title>
<path fill="none" stroke="midnightblue" d="M108.482,-238C121.417,-238 135.205,-238 148.402,-238"/>
<polygon fill="midnightblue" stroke="midnightblue" points="108.318,-234.5 98.3184,-238 108.318,-241.5 108.318,-234.5"/>
</g>
<!-- Node3 -->
<g id="node3" class="node"><title>Node3</title>
<g id="a_node3"><a xlink:href="classobject.html" target="_top" xlink:title="object">
<polygon fill="none" stroke="black" points="28,-114.5 28,-133.5 70,-133.5 70,-114.5 28,-114.5"/>
<text text-anchor="middle" x="49" y="-121.5" font-family="Helvetica,sans-Serif" font-size="10.00">object</text>
</a>
</g>
</g>
<!-- Node4 -->
<g id="node4" class="node"><title>Node4</title>
<g id="a_node4"><a xlink:href="class_lang_1_1_diff_1_1___block_side.html" target="_top" xlink:title="Lang.Diff._BlockSide">
<polygon fill="none" stroke="black" points="163.5,-190.5 163.5,-209.5 266.5,-209.5 266.5,-190.5 163.5,-190.5"/>
<text text-anchor="middle" x="215" y="-197.5" font-family="Helvetica,sans-Serif" font-size="10.00">Lang.Diff._BlockSide</text>
</a>
</g>
</g>
<!-- Node3&#45;&gt;Node4 -->
<g id="edge2" class="edge"><title>Node3&#45;&gt;Node4</title>
<path fill="none" stroke="midnightblue" d="M69.3251,-140.134C85.6178,-152.964 110.047,-170.455 134,-181 143.146,-185.026 153.271,-188.271 163.157,-190.861"/>
<polygon fill="midnightblue" stroke="midnightblue" points="71.1481,-137.108 61.1653,-133.559 66.7561,-142.559 71.1481,-137.108"/>
</g>
<!-- Node5 -->
<g id="node5" class="node"><title>Node5</title>
<g id="a_node5"><a xlink:href="class_lang_1_1_diff_1_1___elems_block_side.html" target="_top" xlink:title="elems attribute is guaranteed to be an iterable, not indexable">
<polygon fill="none" stroke="black" points="150.5,-152.5 150.5,-171.5 279.5,-171.5 279.5,-152.5 150.5,-152.5"/>
<text text-anchor="middle" x="215" y="-159.5" font-family="Helvetica,sans-Serif" font-size="10.00">Lang.Diff._ElemsBlockSide</text>
</a>
</g>
</g>
<!-- Node3&#45;&gt;Node5 -->
<g id="edge3" class="edge"><title>Node3&#45;&gt;Node5</title>
<path fill="none" stroke="midnightblue" d="M80.1535,-130.987C106.218,-137.026 144.133,-145.811 172.96,-152.491"/>
<polygon fill="midnightblue" stroke="midnightblue" points="80.6416,-127.507 70.1096,-128.66 79.0615,-134.327 80.6416,-127.507"/>
</g>
<!-- Node6 -->
<g id="node6" class="node"><title>Node6</title>
<g id="a_node6"><a xlink:href="class_lang_1_1_diff_1_1___two_side.html" target="_top" xlink:title="Lang.Diff._TwoSide">
<polygon fill="none" stroke="black" points="165.5,-114.5 165.5,-133.5 264.5,-133.5 264.5,-114.5 165.5,-114.5"/>
<text text-anchor="middle" x="215" y="-121.5" font-family="Helvetica,sans-Serif" font-size="10.00">Lang.Diff._TwoSide</text>
</a>
</g>
</g>
<!-- Node3&#45;&gt;Node6 -->
<g id="edge4" class="edge"><title>Node3&#45;&gt;Node6</title>
<path fill="none" stroke="midnightblue" d="M80.2842,-124C104.053,-124 137.616,-124 165.169,-124"/>
<polygon fill="midnightblue" stroke="midnightblue" points="80.1097,-120.5 70.1096,-124 80.1096,-127.5 80.1097,-120.5"/>
</g>
<!-- Node3&#45;&gt;Node2 -->
<g id="edge12" class="edge"><title>Node3&#45;&gt;Node2</title>
<path fill="none" stroke="midnightblue" d="M61.0184,-142.165C75.1605,-163.871 101.76,-199.675 134,-219 140.489,-222.89 147.721,-225.983 155.109,-228.444"/>
<polygon fill="midnightblue" stroke="midnightblue" points="63.8793,-140.14 55.5805,-133.553 57.9606,-143.878 63.8793,-140.14"/>
</g>
<!-- Node14 -->
<g id="node14" class="node"><title>Node14</title>
<g id="a_node14"><a xlink:href="class_lang_1_1_events_1_1_proxy_1_1_event_receiver.html" target="_top" xlink:title="Feel free to use this class as a mixin for receiving specific events.">
<polygon fill="none" stroke="black" points="134.5,-76.5 134.5,-95.5 295.5,-95.5 295.5,-76.5 134.5,-76.5"/>
<text text-anchor="middle" x="215" y="-83.5" font-family="Helvetica,sans-Serif" font-size="10.00">Lang.Events.Proxy.EventReceiver</text>
</a>
</g>
</g>
<!-- Node3&#45;&gt;Node14 -->
<g id="edge13" class="edge"><title>Node3&#45;&gt;Node14</title>
<path fill="none" stroke="midnightblue" d="M80.1535,-117.013C106.218,-110.974 144.133,-102.189 172.96,-95.5093"/>
<polygon fill="midnightblue" stroke="midnightblue" points="79.0615,-113.673 70.1096,-119.34 80.6416,-120.493 79.0615,-113.673"/>
</g>
<!-- Node16 -->
<g id="node16" class="node"><title>Node16</title>
<g id="a_node16"><a xlink:href="class_lang_1_1_iter_1_1_peekable_iterable.html" target="_top" xlink:title="Lang.Iter.PeekableIterable">
<polygon fill="none" stroke="black" points="152,-38.5 152,-57.5 278,-57.5 278,-38.5 152,-38.5"/>
<text text-anchor="middle" x="215" y="-45.5" font-family="Helvetica,sans-Serif" font-size="10.00">Lang.Iter.PeekableIterable</text>
</a>
</g>
</g>
<!-- Node3&#45;&gt;Node16 -->
<g id="edge15" class="edge"><title>Node3&#45;&gt;Node16</title>
<path fill="none" stroke="midnightblue" d="M69.3251,-107.866C85.6178,-95.0358 110.047,-77.5446 134,-67 142.623,-63.204 152.117,-60.1024 161.46,-57.5895"/>
<polygon fill="midnightblue" stroke="midnightblue" points="66.7561,-105.441 61.1653,-114.441 71.1481,-110.892 66.7561,-105.441"/>
</g>
<!-- Node17 -->
<g id="node17" class="node"><title>Node17</title>
<g id="a_node17"><a xlink:href="class_lang_1_1_struct_1_1___ordered_set_1_1_link.html" target="_top" xlink:title="Lang.Struct._OrderedSet.Link">
<polygon fill="none" stroke="black" points="146,-0.5 146,-19.5 284,-19.5 284,-0.5 146,-0.5"/>
<text text-anchor="middle" x="215" y="-7.5" font-family="Helvetica,sans-Serif" font-size="10.00">Lang.Struct._OrderedSet.Link</text>
</a>
</g>
</g>
<!-- Node3&#45;&gt;Node17 -->
<g id="edge16" class="edge"><title>Node3&#45;&gt;Node17</title>
<path fill="none" stroke="midnightblue" d="M61.0184,-105.835C75.1605,-84.1287 101.76,-48.3248 134,-29 140.489,-25.1103 147.721,-22.0167 155.109,-19.5565"/>
<polygon fill="midnightblue" stroke="midnightblue" points="57.9606,-104.122 55.5805,-114.447 63.8793,-107.86 57.9606,-104.122"/>
</g>
<!-- Node7 -->
<g id="node7" class="node"><title>Node7</title>
<g id="a_node7"><a xlink:href="class_lang_1_1_diff_1_1___block.html" target="_top" xlink:title="Lang.Diff._Block">
<polygon fill="none" stroke="black" points="365,-209.5 365,-228.5 449,-228.5 449,-209.5 365,-209.5"/>
<text text-anchor="middle" x="407" y="-216.5" font-family="Helvetica,sans-Serif" font-size="10.00">Lang.Diff._Block</text>
</a>
</g>
</g>
<!-- Node6&#45;&gt;Node7 -->
<g id="edge5" class="edge"><title>Node6&#45;&gt;Node7</title>
<path fill="none" stroke="midnightblue" d="M274.467,-132.226C282.129,-134.887 289.548,-138.391 296,-143 320.38,-160.418 307.779,-182.362 332,-200 341.543,-206.949 353.394,-211.363 364.796,-214.164"/>
<polygon fill="midnightblue" stroke="midnightblue" points="275.271,-128.813 264.687,-129.287 273.256,-135.517 275.271,-128.813"/>
</g>
<!-- Node10 -->
<g id="node10" class="node"><title>Node10</title>
<g id="a_node10"><a xlink:href="class_lang_1_1_diff_1_1___elem_block_match.html" target="_top" xlink:title="Lang.Diff._ElemBlockMatch">
<polygon fill="none" stroke="black" points="341.5,-171.5 341.5,-190.5 472.5,-190.5 472.5,-171.5 341.5,-171.5"/>
<text text-anchor="middle" x="407" y="-178.5" font-family="Helvetica,sans-Serif" font-size="10.00">Lang.Diff._ElemBlockMatch</text>
</a>
</g>
</g>
<!-- Node6&#45;&gt;Node10 -->
<g id="edge8" class="edge"><title>Node6&#45;&gt;Node10</title>
<path fill="none" stroke="midnightblue" d="M274.683,-136.127C281.946,-138.156 289.201,-140.446 296,-143 312.936,-149.363 315.123,-155.484 332,-162 341.404,-165.631 351.746,-168.781 361.641,-171.415"/>
<polygon fill="midnightblue" stroke="midnightblue" points="275.379,-132.691 264.817,-133.521 273.591,-139.459 275.379,-132.691"/>
</g>
<!-- Node11 -->
<g id="node11" class="node"><title>Node11</title>
<g id="a_node11"><a xlink:href="class_lang_1_1_diff_1_1___elem_block_mismatch.html" target="_top" xlink:title="Lang.Diff._ElemBlockMismatch">
<polygon fill="none" stroke="black" points="334,-133.5 334,-152.5 480,-152.5 480,-133.5 334,-133.5"/>
<text text-anchor="middle" x="407" y="-140.5" font-family="Helvetica,sans-Serif" font-size="10.00">Lang.Diff._ElemBlockMismatch</text>
</a>
</g>
</g>
<!-- Node6&#45;&gt;Node11 -->
<g id="edge9" class="edge"><title>Node6&#45;&gt;Node11</title>
<path fill="none" stroke="midnightblue" d="M275.042,-129.904C293.685,-131.769 314.496,-133.85 333.943,-135.794"/>
<polygon fill="midnightblue" stroke="midnightblue" points="275.228,-126.405 264.93,-128.893 274.532,-133.371 275.228,-126.405"/>
</g>
<!-- Node12 -->
<g id="node12" class="node"><title>Node12</title>
<g id="a_node12"><a xlink:href="class_lang_1_1_diff_1_1___elem_match.html" target="_top" xlink:title="Lang.Diff._ElemMatch">
<polygon fill="none" stroke="black" points="352.5,-95.5 352.5,-114.5 461.5,-114.5 461.5,-95.5 352.5,-95.5"/>
<text text-anchor="middle" x="407" y="-102.5" font-family="Helvetica,sans-Serif" font-size="10.00">Lang.Diff._ElemMatch</text>
</a>
</g>
</g>
<!-- Node6&#45;&gt;Node12 -->
<g id="edge10" class="edge"><title>Node6&#45;&gt;Node12</title>
<path fill="none" stroke="midnightblue" d="M274.897,-118.11C299.589,-115.641 328.105,-112.79 352.222,-110.378"/>
<polygon fill="midnightblue" stroke="midnightblue" points="274.532,-114.629 264.93,-119.107 275.228,-121.595 274.532,-114.629"/>
</g>
<!-- Node13 -->
<g id="node13" class="node"><title>Node13</title>
<g id="a_node13"><a xlink:href="class_lang_1_1_diff_1_1___elem_mismatch.html" target="_top" xlink:title="Lang.Diff._ElemMismatch">
<polygon fill="none" stroke="black" points="345.5,-57.5 345.5,-76.5 468.5,-76.5 468.5,-57.5 345.5,-57.5"/>
<text text-anchor="middle" x="407" y="-64.5" font-family="Helvetica,sans-Serif" font-size="10.00">Lang.Diff._ElemMismatch</text>
</a>
</g>
</g>
<!-- Node6&#45;&gt;Node13 -->
<g id="edge11" class="edge"><title>Node6&#45;&gt;Node13</title>
<path fill="none" stroke="midnightblue" d="M274.683,-111.873C281.946,-109.844 289.201,-107.554 296,-105 312.936,-98.6369 315.123,-92.5165 332,-86 341.404,-82.369 351.746,-79.2194 361.641,-76.5853"/>
<polygon fill="midnightblue" stroke="midnightblue" points="273.591,-108.541 264.817,-114.479 275.379,-115.309 273.591,-108.541"/>
</g>
<!-- Node8 -->
<g id="node8" class="node"><title>Node8</title>
<g id="a_node8"><a xlink:href="class_lang_1_1_diff_1_1___block_match.html" target="_top" xlink:title="Lang.Diff._BlockMatch">
<polygon fill="none" stroke="black" points="526,-228.5 526,-247.5 636,-247.5 636,-228.5 526,-228.5"/>
<text text-anchor="middle" x="581" y="-235.5" font-family="Helvetica,sans-Serif" font-size="10.00">Lang.Diff._BlockMatch</text>
</a>
</g>
</g>
<!-- Node7&#45;&gt;Node8 -->
<g id="edge6" class="edge"><title>Node7&#45;&gt;Node8</title>
<path fill="none" stroke="midnightblue" d="M459.206,-224.657C480.194,-226.975 504.507,-229.661 525.795,-232.012"/>
<polygon fill="midnightblue" stroke="midnightblue" points="459.522,-221.17 449.198,-223.551 458.754,-228.128 459.522,-221.17"/>
</g>
<!-- Node9 -->
<g id="node9" class="node"><title>Node9</title>
<g id="a_node9"><a xlink:href="class_lang_1_1_diff_1_1___block_mismatch.html" target="_top" xlink:title="Lang.Diff._BlockMismatch">
<polygon fill="none" stroke="black" points="518.5,-190.5 518.5,-209.5 643.5,-209.5 643.5,-190.5 518.5,-190.5"/>
<text text-anchor="middle" x="581" y="-197.5" font-family="Helvetica,sans-Serif" font-size="10.00">Lang.Diff._BlockMismatch</text>
</a>
</g>
</g>
<!-- Node7&#45;&gt;Node9 -->
<g id="edge7" class="edge"><title>Node7&#45;&gt;Node9</title>
<path fill="none" stroke="midnightblue" d="M459.211,-213.343C477.766,-211.293 498.92,-208.957 518.284,-206.818"/>
<polygon fill="midnightblue" stroke="midnightblue" points="458.754,-209.872 449.198,-214.449 459.522,-216.83 458.754,-209.872"/>
</g>
<!-- Node15 -->
<g id="node15" class="node"><title>Node15</title>
<g id="a_node15"><a xlink:href="class_lang_1_1_events_1_1_proxy_1_1_event_proxy.html" target="_top" xlink:title="Any method called on this class (besides reserved functions declared in this class) will be proxied o...">
<polygon fill="none" stroke="black" points="332.5,-19.5 332.5,-38.5 481.5,-38.5 481.5,-19.5 332.5,-19.5"/>
<text text-anchor="middle" x="407" y="-26.5" font-family="Helvetica,sans-Serif" font-size="10.00">Lang.Events.Proxy.EventProxy</text>
</a>
</g>
</g>
<!-- Node14&#45;&gt;Node15 -->
<g id="edge14" class="edge"><title>Node14&#45;&gt;Node15</title>
<path fill="none" stroke="midnightblue" d="M274.683,-73.8728C281.946,-71.8438 289.201,-69.5543 296,-67 312.936,-60.6369 315.123,-54.5165 332,-48 341.404,-44.369 351.746,-41.2194 361.641,-38.5853"/>
<polygon fill="midnightblue" stroke="midnightblue" points="273.591,-70.5409 264.817,-76.4786 275.379,-77.3089 273.591,-70.5409"/>
</g>
</g>
</svg>
