<?xml version="1.0" encoding="UTF-8" standalone="no"?>
<!DOCTYPE svg PUBLIC "-//W3C//DTD SVG 1.1//EN"
 "http://www.w3.org/Graphics/SVG/1.1/DTD/svg11.dtd">
<!-- Generated by graphviz version 2.36.0 (20140111.2315)
 -->
<!-- Title: Graphical Class Hierarchy Pages: 1 -->
<svg width="730pt" height="801pt"
 viewBox="0.00 0.00 730.00 801.00" xmlns="http://www.w3.org/2000/svg" xmlns:xlink="http://www.w3.org/1999/xlink">
<g id="graph0" class="graph" transform="scale(1 1) rotate(0) translate(4 797)">
<title>Graphical Class Hierarchy</title>
<!-- Node1 -->
<g id="node1" class="node"><title>Node1</title>
<polygon fill="none" stroke="#bfbfbf" points="350,-466 350,-496 510,-496 510,-466 350,-466"/>
<text text-anchor="start" x="358" y="-484" font-family="Helvetica,sans-Serif" font-size="10.00">Multiton_OneEquivalentInstance</text>
<text text-anchor="middle" x="430" y="-473" font-family="Helvetica,sans-Serif" font-size="10.00">_OnDupReturnExisting</text>
</g>
<!-- Node2 -->
<g id="node2" class="node"><title>Node2</title>
<g id="a_node2"><a xlink:href="class_lang_1_1_concurrency_1_1_file_system_1_1___lock_1_1_file_lock___by_f_c_n_t_l.html" target="_top" xlink:title="Pros of this solution: ">
<polygon fill="none" stroke="black" points="557.5,-472 557.5,-502 710.5,-502 710.5,-472 557.5,-472"/>
<text text-anchor="start" x="565.5" y="-490" font-family="Helvetica,sans-Serif" font-size="10.00">Lang.Concurrency.FileSystem.</text>
<text text-anchor="middle" x="634" y="-479" font-family="Helvetica,sans-Serif" font-size="10.00">_Lock.FileLock_ByFCNTL</text>
</a>
</g>
</g>
<!-- Node1&#45;&gt;Node2 -->
<g id="edge1" class="edge"><title>Node1&#45;&gt;Node2</title>
<path fill="none" stroke="midnightblue" d="M520.497,-483.658C532.773,-484.023 545.278,-484.394 557.275,-484.751"/>
<polygon fill="midnightblue" stroke="midnightblue" points="520.356,-480.153 510.256,-483.354 520.148,-487.15 520.356,-480.153"/>
</g>
<!-- Node3 -->
<g id="node3" class="node"><title>Node3</title>
<g id="a_node3"><a xlink:href="class___sequence_matcher.html" target="_top" xlink:title="_SequenceMatcher">
<polygon fill="none" stroke="black" points="0.5,-773.5 0.5,-792.5 103.5,-792.5 103.5,-773.5 0.5,-773.5"/>
<text text-anchor="middle" x="52" y="-780.5" font-family="Helvetica,sans-Serif" font-size="10.00">_SequenceMatcher</text>
</a>
</g>
</g>
<!-- Node4 -->
<g id="node4" class="node"><title>Node4</title>
<g id="a_node4"><a xlink:href="class_lang_1_1_diff_1_1_sequence_matcher.html" target="_top" xlink:title="Improved difflib.SequenceMatcher. ">
<polygon fill="none" stroke="black" points="157,-773.5 157,-792.5 297,-792.5 297,-773.5 157,-773.5"/>
<text text-anchor="middle" x="227" y="-780.5" font-family="Helvetica,sans-Serif" font-size="10.00">Lang.Diff.SequenceMatcher</text>
</a>
</g>
</g>
<!-- Node3&#45;&gt;Node4 -->
<g id="edge2" class="edge"><title>Node3&#45;&gt;Node4</title>
<path fill="none" stroke="midnightblue" d="M113.895,-783C127.764,-783 142.598,-783 156.786,-783"/>
<polygon fill="midnightblue" stroke="midnightblue" points="113.504,-779.5 103.504,-783 113.504,-786.5 113.504,-779.5"/>
</g>
<!-- Node5 -->
<g id="node5" class="node"><title>Node5</title>
<g id="a_node5"><a xlink:href="classobject.html" target="_top" xlink:title="object">
<polygon fill="none" stroke="black" points="30.5,-390.5 30.5,-409.5 73.5,-409.5 73.5,-390.5 30.5,-390.5"/>
<text text-anchor="middle" x="52" y="-397.5" font-family="Helvetica,sans-Serif" font-size="10.00">object</text>
</a>
</g>
</g>
<!-- Node5&#45;&gt;Node4 -->
<g id="edge28" class="edge"><title>Node5&#45;&gt;Node4</title>
<path fill="none" stroke="midnightblue" d="M54.9944,-419.824C62.3035,-488.496 89.846,-714.7 140,-764 144.798,-768.716 150.487,-772.373 156.62,-775.194"/>
<polygon fill="midnightblue" stroke="midnightblue" points="58.4421,-419.138 53.9286,-409.553 51.4795,-419.86 58.4421,-419.138"/>
</g>
<!-- Node6 -->
<g id="node6" class="node"><title>Node6</title>
<g id="a_node6"><a xlink:href="class_lang_1_1_class_tools_1_1_patterns_1_1__multiton_1_1_multiton___one_equivalent_instance___on_dup_raise_exception.html" target="_top" xlink:title="Only one instance of this class is allowed per equivalent instance. ">
<polygon fill="none" stroke="black" points="144,-499.5 144,-540.5 310,-540.5 310,-499.5 144,-499.5"/>
<text text-anchor="start" x="152" y="-528.5" font-family="Helvetica,sans-Serif" font-size="10.00">Lang.ClassTools.Patterns.</text>
<text text-anchor="start" x="152" y="-517.5" font-family="Helvetica,sans-Serif" font-size="10.00">_multiton.Multiton_OneEquivalent</text>
<text text-anchor="middle" x="227" y="-506.5" font-family="Helvetica,sans-Serif" font-size="10.00">Instance_OnDupRaiseException</text>
</a>
</g>
</g>
<!-- Node5&#45;&gt;Node6 -->
<g id="edge3" class="edge"><title>Node5&#45;&gt;Node6</title>
<path fill="none" stroke="midnightblue" d="M65.8364,-417.576C81.3464,-437.67 109.22,-470.315 140,-490 145.462,-493.493 151.38,-496.637 157.468,-499.453"/>
<polygon fill="midnightblue" stroke="midnightblue" points="68.6092,-415.44 59.7937,-409.563 63.0202,-419.655 68.6092,-415.44"/>
</g>
<!-- Node7 -->
<g id="node7" class="node"><title>Node7</title>
<g id="a_node7"><a xlink:href="class_lang_1_1_class_tools_1_1_patterns_1_1__multiton_1_1_multiton___one_equivalent_instance___on_dup_return_existing.html" target="_top" xlink:title="Only one instance of this class is allowed per equivalent instance. ">
<polygon fill="none" stroke="black" points="144,-439.5 144,-480.5 310,-480.5 310,-439.5 144,-439.5"/>
<text text-anchor="start" x="152" y="-468.5" font-family="Helvetica,sans-Serif" font-size="10.00">Lang.ClassTools.Patterns.</text>
<text text-anchor="start" x="152" y="-457.5" font-family="Helvetica,sans-Serif" font-size="10.00">_multiton.Multiton_OneEquivalent</text>
<text text-anchor="middle" x="227" y="-446.5" font-family="Helvetica,sans-Serif" font-size="10.00">Instance_OnDupReturnExisting</text>
</a>
</g>
</g>
<!-- Node5&#45;&gt;Node7 -->
<g id="edge4" class="edge"><title>Node5&#45;&gt;Node7</title>
<path fill="none" stroke="midnightblue" d="M83.0588,-410.425C106.029,-418.392 138.424,-429.627 166.567,-439.387"/>
<polygon fill="midnightblue" stroke="midnightblue" points="84.1195,-407.088 73.5247,-407.118 81.8258,-413.702 84.1195,-407.088"/>
</g>
<!-- Node8 -->
<g id="node8" class="node"><title>Node8</title>
<g id="a_node8"><a xlink:href="class_lang_1_1_class_tools_1_1_patterns_1_1__registered__instances_1_1_registered_instances.html" target="_top" xlink:title="Maintains a record of every created instance of a class. ">
<polygon fill="none" stroke="black" points="144.5,-379.5 144.5,-420.5 309.5,-420.5 309.5,-379.5 144.5,-379.5"/>
<text text-anchor="start" x="152.5" y="-408.5" font-family="Helvetica,sans-Serif" font-size="10.00">Lang.ClassTools.Patterns.</text>
<text text-anchor="start" x="152.5" y="-397.5" font-family="Helvetica,sans-Serif" font-size="10.00">_registered_instances.Registered</text>
<text text-anchor="middle" x="227" y="-386.5" font-family="Helvetica,sans-Serif" font-size="10.00">Instances</text>
</a>
</g>
</g>
<!-- Node5&#45;&gt;Node8 -->
<g id="edge5" class="edge"><title>Node5&#45;&gt;Node8</title>
<path fill="none" stroke="midnightblue" d="M83.9027,-400C100.865,-400 122.777,-400 144.293,-400"/>
<polygon fill="midnightblue" stroke="midnightblue" points="83.5248,-396.5 73.5247,-400 83.5247,-403.5 83.5248,-396.5"/>
</g>
<!-- Node9 -->
<g id="node9" class="node"><title>Node9</title>
<g id="a_node9"><a xlink:href="class_lang_1_1_class_tools_1_1_patterns_1_1__singleton_1_1_singleton___on_dup_raise_exception.html" target="_top" xlink:title="A singleton allows only one instance per class. ">
<polygon fill="none" stroke="black" points="142.5,-319.5 142.5,-360.5 311.5,-360.5 311.5,-319.5 142.5,-319.5"/>
<text text-anchor="start" x="150.5" y="-348.5" font-family="Helvetica,sans-Serif" font-size="10.00">Lang.ClassTools.Patterns.</text>
<text text-anchor="start" x="150.5" y="-337.5" font-family="Helvetica,sans-Serif" font-size="10.00">_singleton.Singleton_OnDupRaise</text>
<text text-anchor="middle" x="227" y="-326.5" font-family="Helvetica,sans-Serif" font-size="10.00">Exception</text>
</a>
</g>
</g>
<!-- Node5&#45;&gt;Node9 -->
<g id="edge6" class="edge"><title>Node5&#45;&gt;Node9</title>
<path fill="none" stroke="midnightblue" d="M83.0588,-389.575C106.029,-381.608 138.424,-370.373 166.567,-360.613"/>
<polygon fill="midnightblue" stroke="midnightblue" points="81.8258,-386.298 73.5247,-392.882 84.1195,-392.912 81.8258,-386.298"/>
</g>
<!-- Node10 -->
<g id="node10" class="node"><title>Node10</title>
<g id="a_node10"><a xlink:href="class_lang_1_1_class_tools_1_1_patterns_1_1__singleton_1_1_singleton___on_dup_return_existing.html" target="_top" xlink:title="A singleton allows only one instance per class. ">
<polygon fill="none" stroke="black" points="140,-259.5 140,-300.5 314,-300.5 314,-259.5 140,-259.5"/>
<text text-anchor="start" x="148" y="-288.5" font-family="Helvetica,sans-Serif" font-size="10.00">Lang.ClassTools.Patterns.</text>
<text text-anchor="start" x="148" y="-277.5" font-family="Helvetica,sans-Serif" font-size="10.00">_singleton.Singleton_OnDupReturn</text>
<text text-anchor="middle" x="227" y="-266.5" font-family="Helvetica,sans-Serif" font-size="10.00">Existing</text>
</a>
</g>
</g>
<!-- Node5&#45;&gt;Node10 -->
<g id="edge7" class="edge"><title>Node5&#45;&gt;Node10</title>
<path fill="none" stroke="midnightblue" d="M65.8364,-382.424C81.3464,-362.33 109.22,-329.685 140,-310 145.462,-306.507 151.38,-303.363 157.468,-300.547"/>
<polygon fill="midnightblue" stroke="midnightblue" points="63.0202,-380.345 59.7937,-390.437 68.6092,-384.56 63.0202,-380.345"/>
</g>
<!-- Node11 -->
<g id="node11" class="node"><title>Node11</title>
<g id="a_node11"><a xlink:href="class_lang_1_1_class_tools_1_1_patterns_1_1__start_end_with_1_1_start_end_with.html" target="_top" xlink:title="Automatic with statement support, once _start and _end are overridden/implemented. ">
<polygon fill="none" stroke="black" points="156.5,-210 156.5,-240 297.5,-240 297.5,-210 156.5,-210"/>
<text text-anchor="start" x="164.5" y="-228" font-family="Helvetica,sans-Serif" font-size="10.00">Lang.ClassTools.Patterns.</text>
<text text-anchor="middle" x="227" y="-217" font-family="Helvetica,sans-Serif" font-size="10.00">_startEndWith.StartEndWith</text>
</a>
</g>
</g>
<!-- Node5&#45;&gt;Node11 -->
<g id="edge8" class="edge"><title>Node5&#45;&gt;Node11</title>
<path fill="none" stroke="midnightblue" d="M58.9135,-380.681C69.7146,-348.656 95.6965,-284.673 140,-250 144.898,-246.167 150.365,-242.921 156.103,-240.173"/>
<polygon fill="midnightblue" stroke="midnightblue" points="55.573,-379.636 55.828,-390.228 62.2337,-381.789 55.573,-379.636"/>
</g>
<!-- Node12 -->
<g id="node12" class="node"><title>Node12</title>
<g id="a_node12"><a xlink:href="class_lang_1_1_concurrency_1_1___threading_1_1___threading_adapter.html" target="_top" xlink:title="Lang.Concurrency._Threading.\l_ThreadingAdapter">
<polygon fill="none" stroke="black" points="353,-554 353,-584 507,-584 507,-554 353,-554"/>
<text text-anchor="start" x="361" y="-572" font-family="Helvetica,sans-Serif" font-size="10.00">Lang.Concurrency._Threading.</text>
<text text-anchor="middle" x="430" y="-561" font-family="Helvetica,sans-Serif" font-size="10.00">_ThreadingAdapter</text>
</a>
</g>
</g>
<!-- Node5&#45;&gt;Node12 -->
<g id="edge9" class="edge"><title>Node5&#45;&gt;Node12</title>
<path fill="none" stroke="midnightblue" d="M57.8733,-419.454C67.359,-452.771 91.739,-520.049 140,-550 203.551,-589.44 290.822,-589.461 352.792,-582.557"/>
<polygon fill="midnightblue" stroke="midnightblue" points="61.1899,-418.309 55.2144,-409.56 54.4298,-420.126 61.1899,-418.309"/>
</g>
<!-- Node15 -->
<g id="node15" class="node"><title>Node15</title>
<g id="a_node15"><a xlink:href="class_lang_1_1_concurrency_1_1abstract_1_1_lock_semaphore.html" target="_top" xlink:title="There are multiple ways to use subclasses of this class: ">
<polygon fill="none" stroke="black" points="157.5,-598 157.5,-628 296.5,-628 296.5,-598 157.5,-598"/>
<text text-anchor="start" x="165.5" y="-616" font-family="Helvetica,sans-Serif" font-size="10.00">Lang.Concurrency.abstract.</text>
<text text-anchor="middle" x="227" y="-605" font-family="Helvetica,sans-Serif" font-size="10.00">LockSemaphore</text>
</a>
</g>
</g>
<!-- Node5&#45;&gt;Node15 -->
<g id="edge12" class="edge"><title>Node5&#45;&gt;Node15</title>
<path fill="none" stroke="midnightblue" d="M57.0281,-419.537C65.672,-456.644 89.4588,-537.649 140,-583 146.826,-589.125 154.974,-594.015 163.493,-597.914"/>
<polygon fill="midnightblue" stroke="midnightblue" points="60.3902,-418.531 54.8188,-409.519 53.5545,-420.038 60.3902,-418.531"/>
</g>
<!-- Node18 -->
<g id="node18" class="node"><title>Node18</title>
<g id="a_node18"><a xlink:href="class_lang_1_1_diff_1_1___block_side.html" target="_top" xlink:title="Lang.Diff._BlockSide">
<polygon fill="none" stroke="black" points="172.5,-171.5 172.5,-190.5 281.5,-190.5 281.5,-171.5 172.5,-171.5"/>
<text text-anchor="middle" x="227" y="-178.5" font-family="Helvetica,sans-Serif" font-size="10.00">Lang.Diff._BlockSide</text>
</a>
</g>
</g>
<!-- Node5&#45;&gt;Node18 -->
<g id="edge18" class="edge"><title>Node5&#45;&gt;Node18</title>
<path fill="none" stroke="midnightblue" d="M55.6046,-380.29C62.0391,-339.845 82.5595,-247.308 140,-200 149.206,-192.418 160.786,-187.692 172.439,-184.786"/>
<polygon fill="midnightblue" stroke="midnightblue" points="52.1342,-379.833 54.1442,-390.236 59.06,-380.85 52.1342,-379.833"/>
</g>
<!-- Node19 -->
<g id="node19" class="node"><title>Node19</title>
<g id="a_node19"><a xlink:href="class_lang_1_1_diff_1_1___elems_block_side.html" target="_top" xlink:title="elems attribute is guaranteed to be an iterable, not indexable ">
<polygon fill="none" stroke="black" points="158.5,-133.5 158.5,-152.5 295.5,-152.5 295.5,-133.5 158.5,-133.5"/>
<text text-anchor="middle" x="227" y="-140.5" font-family="Helvetica,sans-Serif" font-size="10.00">Lang.Diff._ElemsBlockSide</text>
</a>
</g>
</g>
<!-- Node5&#45;&gt;Node19 -->
<g id="edge19" class="edge"><title>Node5&#45;&gt;Node19</title>
<path fill="none" stroke="midnightblue" d="M54.059,-380.436C57.6357,-334.749 73.1604,-220.492 140,-162 145.408,-157.267 151.729,-153.632 158.446,-150.851"/>
<polygon fill="midnightblue" stroke="midnightblue" points="50.5612,-380.286 53.3831,-390.498 57.5455,-380.755 50.5612,-380.286"/>
</g>
<!-- Node20 -->
<g id="node20" class="node"><title>Node20</title>
<g id="a_node20"><a xlink:href="class_lang_1_1_diff_1_1___two_side.html" target="_top" xlink:title="Lang.Diff._TwoSide">
<polygon fill="none" stroke="black" points="175,-95.5 175,-114.5 279,-114.5 279,-95.5 175,-95.5"/>
<text text-anchor="middle" x="227" y="-102.5" font-family="Helvetica,sans-Serif" font-size="10.00">Lang.Diff._TwoSide</text>
</a>
</g>
</g>
<!-- Node5&#45;&gt;Node20 -->
<g id="edge20" class="edge"><title>Node5&#45;&gt;Node20</title>
<path fill="none" stroke="midnightblue" d="M52.9319,-380.152C53.8986,-329.35 63.8595,-193.724 140,-124 149.585,-115.222 162.286,-110.179 174.977,-107.358"/>
<polygon fill="midnightblue" stroke="midnightblue" points="49.4299,-380.378 52.8427,-390.408 56.4296,-380.439 49.4299,-380.378"/>
</g>
<!-- Node28 -->
<g id="node28" class="node"><title>Node28</title>
<g id="a_node28"><a xlink:href="class_lang_1_1_events_1_1_proxy_1_1_event_receiver.html" target="_top" xlink:title="Feel free to use this class as a mixin for receiving specific events. ">
<polygon fill="none" stroke="black" points="143,-57.5 143,-76.5 311,-76.5 311,-57.5 143,-57.5"/>
<text text-anchor="middle" x="227" y="-64.5" font-family="Helvetica,sans-Serif" font-size="10.00">Lang.Events.Proxy.EventReceiver</text>
</a>
</g>
</g>
<!-- Node5&#45;&gt;Node28 -->
<g id="edge29" class="edge"><title>Node5&#45;&gt;Node28</title>
<path fill="none" stroke="midnightblue" d="M55.8098,-380.109C65.0212,-317.71 96.243,-127.503 140,-86 143.994,-82.2119 148.565,-79.1134 153.472,-76.5856"/>
<polygon fill="midnightblue" stroke="midnightblue" points="52.3167,-379.81 54.3479,-390.208 59.2445,-380.813 52.3167,-379.81"/>
</g>
<!-- Node30 -->
<g id="node30" class="node"><title>Node30</title>
<g id="a_node30"><a xlink:href="class_lang_1_1_iter_1_1_peekable_iterable.html" target="_top" xlink:title="Lang.Iter.PeekableIterable">
<polygon fill="none" stroke="black" points="160,-19.5 160,-38.5 294,-38.5 294,-19.5 160,-19.5"/>
<text text-anchor="middle" x="227" y="-26.5" font-family="Helvetica,sans-Serif" font-size="10.00">Lang.Iter.PeekableIterable</text>
</a>
</g>
</g>
<!-- Node5&#45;&gt;Node30 -->
<g id="edge31" class="edge"><title>Node5&#45;&gt;Node30</title>
<path fill="none" stroke="midnightblue" d="M55.1434,-380.385C62.8539,-313.437 91.3318,-95.4728 140,-48 145.582,-42.5548 152.354,-38.5251 159.619,-35.5631"/>
<polygon fill="midnightblue" stroke="midnightblue" points="51.6538,-380.097 54.0138,-390.426 58.6099,-380.88 51.6538,-380.097"/>
</g>
<!-- Node31 -->
<g id="node31" class="node"><title>Node31</title>
<g id="a_node31"><a xlink:href="class_lang_1_1_struct_1_1___ordered_set_1_1_link.html" target="_top" xlink:title="Lang.Struct._OrderedSet.Link">
<polygon fill="none" stroke="black" points="152.5,-735.5 152.5,-754.5 301.5,-754.5 301.5,-735.5 152.5,-735.5"/>
<text text-anchor="middle" x="227" y="-742.5" font-family="Helvetica,sans-Serif" font-size="10.00">Lang.Struct._OrderedSet.Link</text>
</a>
</g>
</g>
<!-- Node5&#45;&gt;Node31 -->
<g id="edge32" class="edge"><title>Node5&#45;&gt;Node31</title>
<path fill="none" stroke="midnightblue" d="M55.6121,-419.737C64.4256,-483.37 95.0521,-681.514 140,-725 144.407,-729.263 149.536,-732.683 155.054,-735.418"/>
<polygon fill="midnightblue" stroke="midnightblue" points="59.0756,-419.231 54.2621,-409.792 52.1392,-420.172 59.0756,-419.231"/>
</g>
<!-- Node32 -->
<g id="node32" class="node"><title>Node32</title>
<g id="a_node32"><a xlink:href="class_lang_1_1_struct_1_1_queue_stacks_1_1_l_i_f_ostack.html" target="_top" xlink:title="Standard LIFO stack based on a list. ">
<polygon fill="none" stroke="black" points="160.5,-686 160.5,-716 293.5,-716 293.5,-686 160.5,-686"/>
<text text-anchor="start" x="168.5" y="-704" font-family="Helvetica,sans-Serif" font-size="10.00">Lang.Struct.QueueStacks.</text>
<text text-anchor="middle" x="227" y="-693" font-family="Helvetica,sans-Serif" font-size="10.00">LIFOstack</text>
</a>
</g>
</g>
<!-- Node5&#45;&gt;Node32 -->
<g id="edge33" class="edge"><title>Node5&#45;&gt;Node32</title>
<path fill="none" stroke="midnightblue" d="M53.2142,-419.902C54.8667,-470.287 66.3487,-603.984 140,-676 145.781,-681.653 152.762,-686.04 160.216,-689.444"/>
<polygon fill="midnightblue" stroke="midnightblue" points="56.709,-419.631 52.9822,-409.713 49.7108,-419.791 56.709,-419.631"/>
</g>
<!-- Node33 -->
<g id="node33" class="node"><title>Node33</title>
<g id="a_node33"><a xlink:href="class_lang_1_1_terminal_1_1__table_1_1_table.html" target="_top" xlink:title="Prints data in a table format to the terminal. ">
<polygon fill="none" stroke="black" points="158,-647.5 158,-666.5 296,-666.5 296,-647.5 158,-647.5"/>
<text text-anchor="middle" x="227" y="-654.5" font-family="Helvetica,sans-Serif" font-size="10.00">Lang.Terminal._table.Table</text>
</a>
</g>
</g>
<!-- Node5&#45;&gt;Node33 -->
<g id="edge34" class="edge"><title>Node5&#45;&gt;Node33</title>
<path fill="none" stroke="midnightblue" d="M54.182,-420.061C58.0058,-465.864 73.9943,-578.671 140,-637 145.284,-641.669 151.445,-645.306 157.999,-648.131"/>
<polygon fill="midnightblue" stroke="midnightblue" points="57.6618,-419.654 53.4489,-409.933 50.6801,-420.16 57.6618,-419.654"/>
</g>
<!-- Node13 -->
<g id="node13" class="node"><title>Node13</title>
<g id="a_node13"><a xlink:href="class_lang_1_1_concurrency_1_1___threading_1_1_lock.html" target="_top" xlink:title="Lang.Concurrency._Threading.Lock">
<polygon fill="none" stroke="black" points="546.5,-532.5 546.5,-551.5 721.5,-551.5 721.5,-532.5 546.5,-532.5"/>
<text text-anchor="middle" x="634" y="-539.5" font-family="Helvetica,sans-Serif" font-size="10.00">Lang.Concurrency._Threading.Lock</text>
</a>
</g>
</g>
<!-- Node12&#45;&gt;Node13 -->
<g id="edge10" class="edge"><title>Node12&#45;&gt;Node13</title>
<path fill="none" stroke="midnightblue" d="M517.246,-557.472C532.055,-555.493 547.295,-553.456 561.658,-551.536"/>
<polygon fill="midnightblue" stroke="midnightblue" points="516.528,-554.037 507.08,-558.831 517.455,-560.975 516.528,-554.037"/>
</g>
<!-- Node14 -->
<g id="node14" class="node"><title>Node14</title>
<g id="a_node14"><a xlink:href="class_lang_1_1_concurrency_1_1___threading_1_1_semaphore.html" target="_top" xlink:title="Lang.Concurrency._Threading.\lSemaphore">
<polygon fill="none" stroke="black" points="557,-576 557,-606 711,-606 711,-576 557,-576"/>
<text text-anchor="start" x="565" y="-594" font-family="Helvetica,sans-Serif" font-size="10.00">Lang.Concurrency._Threading.</text>
<text text-anchor="middle" x="634" y="-583" font-family="Helvetica,sans-Serif" font-size="10.00">Semaphore</text>
</a>
</g>
</g>
<!-- Node12&#45;&gt;Node14 -->
<g id="edge11" class="edge"><title>Node12&#45;&gt;Node14</title>
<path fill="none" stroke="midnightblue" d="M517.129,-578.38C530.38,-579.824 543.979,-581.305 556.989,-582.722"/>
<polygon fill="midnightblue" stroke="midnightblue" points="517.4,-574.889 507.08,-577.286 516.642,-581.848 517.4,-574.889"/>
</g>
<!-- Node16 -->
<g id="node16" class="node"><title>Node16</title>
<g id="a_node16"><a xlink:href="class_lang_1_1_concurrency_1_1abstract_1_1_lock.html" target="_top" xlink:title="Lang.Concurrency.abstract.Lock">
<polygon fill="none" stroke="black" points="350,-515.5 350,-534.5 510,-534.5 510,-515.5 350,-515.5"/>
<text text-anchor="middle" x="430" y="-522.5" font-family="Helvetica,sans-Serif" font-size="10.00">Lang.Concurrency.abstract.Lock</text>
</a>
</g>
</g>
<!-- Node15&#45;&gt;Node16 -->
<g id="edge13" class="edge"><title>Node15&#45;&gt;Node16</title>
<path fill="none" stroke="midnightblue" d="M259.611,-592.359C283.599,-577.456 317.829,-557.783 350,-545 360.387,-540.873 371.886,-537.388 382.823,-534.543"/>
<polygon fill="midnightblue" stroke="midnightblue" points="257.544,-589.525 250.944,-597.813 261.272,-595.449 257.544,-589.525"/>
</g>
<!-- Node17 -->
<g id="node17" class="node"><title>Node17</title>
<g id="a_node17"><a xlink:href="class_lang_1_1_concurrency_1_1abstract_1_1_semaphore.html" target="_top" xlink:title="Lang.Concurrency.abstract.\lSemaphore">
<polygon fill="none" stroke="black" points="360.5,-603 360.5,-633 499.5,-633 499.5,-603 360.5,-603"/>
<text text-anchor="start" x="368.5" y="-621" font-family="Helvetica,sans-Serif" font-size="10.00">Lang.Concurrency.abstract.</text>
<text text-anchor="middle" x="430" y="-610" font-family="Helvetica,sans-Serif" font-size="10.00">Semaphore</text>
</a>
</g>
</g>
<!-- Node15&#45;&gt;Node17 -->
<g id="edge16" class="edge"><title>Node15&#45;&gt;Node17</title>
<path fill="none" stroke="midnightblue" d="M306.885,-614.962C324.549,-615.402 343.148,-615.864 360.358,-616.292"/>
<polygon fill="midnightblue" stroke="midnightblue" points="306.695,-611.457 296.611,-614.707 306.52,-618.454 306.695,-611.457"/>
</g>
<!-- Node16&#45;&gt;Node2 -->
<g id="edge15" class="edge"><title>Node16&#45;&gt;Node2</title>
<path fill="none" stroke="midnightblue" d="M491.632,-513.594C512.319,-509.702 535.711,-505.302 557.426,-501.217"/>
<polygon fill="midnightblue" stroke="midnightblue" points="490.893,-510.172 481.712,-515.46 492.187,-517.051 490.893,-510.172"/>
</g>
<!-- Node16&#45;&gt;Node13 -->
<g id="edge14" class="edge"><title>Node16&#45;&gt;Node13</title>
<path fill="none" stroke="midnightblue" d="M520.319,-532.517C528.949,-533.243 537.694,-533.979 546.298,-534.703"/>
<polygon fill="midnightblue" stroke="midnightblue" points="520.514,-529.021 510.256,-531.67 519.927,-535.996 520.514,-529.021"/>
</g>
<!-- Node17&#45;&gt;Node14 -->
<g id="edge17" class="edge"><title>Node17&#45;&gt;Node14</title>
<path fill="none" stroke="midnightblue" d="M509.735,-607.476C525.238,-605.404 541.478,-603.233 556.893,-601.173"/>
<polygon fill="midnightblue" stroke="midnightblue" points="509.118,-604.027 499.67,-608.821 510.045,-610.966 509.118,-604.027"/>
</g>
<!-- Node21 -->
<g id="node21" class="node"><title>Node21</title>
<g id="a_node21"><a xlink:href="class_lang_1_1_diff_1_1___block.html" target="_top" xlink:title="Lang.Diff._Block">
<polygon fill="none" stroke="black" points="385.5,-190.5 385.5,-209.5 474.5,-209.5 474.5,-190.5 385.5,-190.5"/>
<text text-anchor="middle" x="430" y="-197.5" font-family="Helvetica,sans-Serif" font-size="10.00">Lang.Diff._Block</text>
</a>
</g>
</g>
<!-- Node20&#45;&gt;Node21 -->
<g id="edge21" class="edge"><title>Node20&#45;&gt;Node21</title>
<path fill="none" stroke="midnightblue" d="M289.071,-112.156C297.931,-114.946 306.558,-118.771 314,-124 338.517,-141.225 325.644,-163.548 350,-181 360.32,-188.395 373.148,-192.938 385.445,-195.722"/>
<polygon fill="midnightblue" stroke="midnightblue" points="289.981,-108.776 279.412,-109.516 288.135,-115.528 289.981,-108.776"/>
</g>
<!-- Node24 -->
<g id="node24" class="node"><title>Node24</title>
<g id="a_node24"><a xlink:href="class_lang_1_1_diff_1_1___elem_block_match.html" target="_top" xlink:title="Lang.Diff._ElemBlockMatch">
<polygon fill="none" stroke="black" points="360.5,-152.5 360.5,-171.5 499.5,-171.5 499.5,-152.5 360.5,-152.5"/>
<text text-anchor="middle" x="430" y="-159.5" font-family="Helvetica,sans-Serif" font-size="10.00">Lang.Diff._ElemBlockMatch</text>
</a>
</g>
</g>
<!-- Node20&#45;&gt;Node24 -->
<g id="edge24" class="edge"><title>Node20&#45;&gt;Node24</title>
<path fill="none" stroke="midnightblue" d="M289.037,-116.349C297.526,-118.544 306.055,-121.086 314,-124 330.985,-130.23 333.073,-136.613 350,-143 359.767,-146.685 370.488,-149.828 380.796,-152.433"/>
<polygon fill="midnightblue" stroke="midnightblue" points="289.671,-112.902 279.127,-113.931 288.012,-119.702 289.671,-112.902"/>
</g>
<!-- Node25 -->
<g id="node25" class="node"><title>Node25</title>
<g id="a_node25"><a xlink:href="class_lang_1_1_diff_1_1___elem_block_mismatch.html" target="_top" xlink:title="Lang.Diff._ElemBlockMismatch">
<polygon fill="none" stroke="black" points="352.5,-114.5 352.5,-133.5 507.5,-133.5 507.5,-114.5 352.5,-114.5"/>
<text text-anchor="middle" x="430" y="-121.5" font-family="Helvetica,sans-Serif" font-size="10.00">Lang.Diff._ElemBlockMismatch</text>
</a>
</g>
</g>
<!-- Node20&#45;&gt;Node25 -->
<g id="edge25" class="edge"><title>Node20&#45;&gt;Node25</title>
<path fill="none" stroke="midnightblue" d="M289.395,-110.804C309.274,-112.683 331.571,-114.79 352.411,-116.76"/>
<polygon fill="midnightblue" stroke="midnightblue" points="289.526,-107.3 279.241,-109.844 288.867,-114.269 289.526,-107.3"/>
</g>
<!-- Node26 -->
<g id="node26" class="node"><title>Node26</title>
<g id="a_node26"><a xlink:href="class_lang_1_1_diff_1_1___elem_match.html" target="_top" xlink:title="Lang.Diff._ElemMatch">
<polygon fill="none" stroke="black" points="372.5,-76.5 372.5,-95.5 487.5,-95.5 487.5,-76.5 372.5,-76.5"/>
<text text-anchor="middle" x="430" y="-83.5" font-family="Helvetica,sans-Serif" font-size="10.00">Lang.Diff._ElemMatch</text>
</a>
</g>
</g>
<!-- Node20&#45;&gt;Node26 -->
<g id="edge26" class="edge"><title>Node20&#45;&gt;Node26</title>
<path fill="none" stroke="midnightblue" d="M289.484,-99.1881C315.82,-96.6986 346.388,-93.8091 372.186,-91.3704"/>
<polygon fill="midnightblue" stroke="midnightblue" points="288.867,-95.7307 279.241,-100.156 289.526,-102.7 288.867,-95.7307"/>
</g>
<!-- Node27 -->
<g id="node27" class="node"><title>Node27</title>
<g id="a_node27"><a xlink:href="class_lang_1_1_diff_1_1___elem_mismatch.html" target="_top" xlink:title="Lang.Diff._ElemMismatch">
<polygon fill="none" stroke="black" points="365,-38.5 365,-57.5 495,-57.5 495,-38.5 365,-38.5"/>
<text text-anchor="middle" x="430" y="-45.5" font-family="Helvetica,sans-Serif" font-size="10.00">Lang.Diff._ElemMismatch</text>
</a>
</g>
</g>
<!-- Node20&#45;&gt;Node27 -->
<g id="edge27" class="edge"><title>Node20&#45;&gt;Node27</title>
<path fill="none" stroke="midnightblue" d="M289.037,-93.6506C297.526,-91.4559 306.055,-88.9139 314,-86 330.985,-79.7704 333.073,-73.3872 350,-67 359.767,-63.3147 370.488,-60.1723 380.796,-57.567"/>
<polygon fill="midnightblue" stroke="midnightblue" points="288.012,-90.298 279.127,-96.069 289.671,-97.0984 288.012,-90.298"/>
</g>
<!-- Node22 -->
<g id="node22" class="node"><title>Node22</title>
<g id="a_node22"><a xlink:href="class_lang_1_1_diff_1_1___block_match.html" target="_top" xlink:title="Lang.Diff._BlockMatch">
<polygon fill="none" stroke="black" points="575.5,-171.5 575.5,-190.5 692.5,-190.5 692.5,-171.5 575.5,-171.5"/>
<text text-anchor="middle" x="634" y="-178.5" font-family="Helvetica,sans-Serif" font-size="10.00">Lang.Diff._BlockMatch</text>
</a>
</g>
</g>
<!-- Node21&#45;&gt;Node22 -->
<g id="edge22" class="edge"><title>Node21&#45;&gt;Node22</title>
<path fill="none" stroke="midnightblue" d="M484.827,-194.937C512.784,-192.307 546.959,-189.093 575.44,-186.414"/>
<polygon fill="midnightblue" stroke="midnightblue" points="484.459,-191.456 474.831,-195.877 485.115,-198.425 484.459,-191.456"/>
</g>
<!-- Node23 -->
<g id="node23" class="node"><title>Node23</title>
<g id="a_node23"><a xlink:href="class_lang_1_1_diff_1_1___block_mismatch.html" target="_top" xlink:title="Lang.Diff._BlockMismatch">
<polygon fill="none" stroke="black" points="568,-209.5 568,-228.5 700,-228.5 700,-209.5 568,-209.5"/>
<text text-anchor="middle" x="634" y="-216.5" font-family="Helvetica,sans-Serif" font-size="10.00">Lang.Diff._BlockMismatch</text>
</a>
</g>
</g>
<!-- Node21&#45;&gt;Node23 -->
<g id="edge23" class="edge"><title>Node21&#45;&gt;Node23</title>
<path fill="none" stroke="midnightblue" d="M485.033,-205.082C510.477,-207.476 541.036,-210.35 567.761,-212.864"/>
<polygon fill="midnightblue" stroke="midnightblue" points="485.115,-201.575 474.831,-204.123 484.459,-208.544 485.115,-201.575"/>
</g>
<!-- Node29 -->
<g id="node29" class="node"><title>Node29</title>
<g id="a_node29"><a xlink:href="class_lang_1_1_events_1_1_proxy_1_1_event_proxy.html" target="_top" xlink:title="Any method called on this class (besides reserved functions declared in this class) will be proxied o...">
<polygon fill="none" stroke="black" points="353,-0.5 353,-19.5 507,-19.5 507,-0.5 353,-0.5"/>
<text text-anchor="middle" x="430" y="-7.5" font-family="Helvetica,sans-Serif" font-size="10.00">Lang.Events.Proxy.EventProxy</text>
</a>
</g>
</g>
<!-- Node28&#45;&gt;Node29 -->
<g id="edge30" class="edge"><title>Node28&#45;&gt;Node29</title>
<path fill="none" stroke="midnightblue" d="M291.788,-54.9274C299.361,-52.9025 306.913,-50.5992 314,-48 330.985,-41.7704 333.073,-35.3872 350,-29 359.767,-25.3147 370.488,-22.1723 380.796,-19.567"/>
<polygon fill="midnightblue" stroke="midnightblue" points="290.697,-51.5927 281.856,-57.4304 292.408,-58.3805 290.697,-51.5927"/>
</g>
</g>
</svg>
