<?xml version="1.0" encoding="UTF-8" standalone="no"?>
<!DOCTYPE svg PUBLIC "-//W3C//DTD SVG 1.1//EN"
 "http://www.w3.org/Graphics/SVG/1.1/DTD/svg11.dtd">
<!-- Generated by graphviz version 2.30.1 (20130219.2202)
 -->
<!-- Title: Graphical Class Hierarchy Pages: 1 -->
<svg width="432pt" height="38pt"
 viewBox="0.00 0.00 432.00 38.00" xmlns="http://www.w3.org/2000/svg" xmlns:xlink="http://www.w3.org/1999/xlink">
<g id="graph0" class="graph" transform="scale(1 1) rotate(0) translate(4 34)">
<title>Graphical Class Hierarchy</title>
<!-- Node1 -->
<g id="node1" class="node"><title>Node1</title>
<polygon fill="none" stroke="#bfbfbf" points="0,-5.5 0,-24.5 78,-24.5 78,-5.5 0,-5.5"/>
<text text-anchor="middle" x="39" y="-12.5" font-family="Helvetica,sans-Serif" font-size="10.00">EventReceiver</text>
</g>
<!-- Node2 -->
<g id="node2" class="node"><title>Node2</title>
<g id="a_node2"><a xlink:href="class_lang_1_1_events_1_1_logging_1_1_logger_abstract.html" target="_top" xlink:title="Lang.Events.Logging.Logger\lAbstract">
<polygon fill="none" stroke="black" points="114.5,-0 114.5,-30 251.5,-30 251.5,-0 114.5,-0"/>
<text text-anchor="start" x="122.5" y="-18" font-family="Helvetica,sans-Serif" font-size="10.00">Lang.Events.Logging.Logger</text>
<text text-anchor="middle" x="183" y="-7" font-family="Helvetica,sans-Serif" font-size="10.00">Abstract</text>
</a>
</g>
</g>
<!-- Node1&#45;&gt;Node2 -->
<g id="edge1" class="edge"><title>Node1&#45;&gt;Node2</title>
<path fill="none" stroke="midnightblue" d="M88.0559,-15C96.4829,-15 105.393,-15 114.236,-15"/>
<polygon fill="midnightblue" stroke="midnightblue" points="88.0534,-11.5001 78.0534,-15 88.0534,-18.5001 88.0534,-11.5001"/>
</g>
<!-- Node3 -->
<g id="node3" class="node"><title>Node3</title>
<g id="a_node3"><a xlink:href="class_lang_1_1_events_1_1_logging_1_1_stdout_logger.html" target="_top" xlink:title="Logs messages to sys.stdout.">
<polygon fill="none" stroke="black" points="288.5,-0 288.5,-30 423.5,-30 423.5,-0 288.5,-0"/>
<text text-anchor="start" x="296.5" y="-18" font-family="Helvetica,sans-Serif" font-size="10.00">Lang.Events.Logging.Stdout</text>
<text text-anchor="middle" x="356" y="-7" font-family="Helvetica,sans-Serif" font-size="10.00">Logger</text>
</a>
</g>
</g>
<!-- Node2&#45;&gt;Node3 -->
<g id="edge2" class="edge"><title>Node2&#45;&gt;Node3</title>
<path fill="none" stroke="midnightblue" d="M261.631,-15C270.593,-15 279.67,-15 288.466,-15"/>
<polygon fill="midnightblue" stroke="midnightblue" points="261.584,-11.5001 251.584,-15 261.584,-18.5001 261.584,-11.5001"/>
</g>
</g>
</svg>
