<?xml version="1.0" encoding="UTF-8" standalone="no"?>
<!DOCTYPE svg PUBLIC "-//W3C//DTD SVG 1.1//EN"
 "http://www.w3.org/Graphics/SVG/1.1/DTD/svg11.dtd">
<!-- Generated by graphviz version 2.36.0 (20140111.2315)
 -->
<!-- Title: Graphical Class Hierarchy Pages: 1 -->
<svg width="448pt" height="38pt"
 viewBox="0.00 0.00 448.00 38.00" xmlns="http://www.w3.org/2000/svg" xmlns:xlink="http://www.w3.org/1999/xlink">
<g id="graph0" class="graph" transform="scale(1 1) rotate(0) translate(4 34)">
<title>Graphical Class Hierarchy</title>
<!-- Node1 -->
<g id="node1" class="node"><title>Node1</title>
<polygon fill="none" stroke="#bfbfbf" points="0,-5.5 0,-24.5 82,-24.5 82,-5.5 0,-5.5"/>
<text text-anchor="middle" x="41" y="-12.5" font-family="Helvetica,sans-Serif" font-size="10.00">EventReceiver</text>
</g>
<!-- Node2 -->
<g id="node2" class="node"><title>Node2</title>
<g id="a_node2"><a xlink:href="class_lang_1_1_events_1_1_logging_1_1_logger_abstract.html" target="_top" xlink:title="Lang.Events.Logging.Logger\lAbstract">
<polygon fill="none" stroke="black" points="118,-0 118,-30 262,-30 262,-0 118,-0"/>
<text text-anchor="start" x="126" y="-18" font-family="Helvetica,sans-Serif" font-size="10.00">Lang.Events.Logging.Logger</text>
<text text-anchor="middle" x="190" y="-7" font-family="Helvetica,sans-Serif" font-size="10.00">Abstract</text>
</a>
</g>
</g>
<!-- Node1&#45;&gt;Node2 -->
<g id="edge1" class="edge"><title>Node1&#45;&gt;Node2</title>
<path fill="none" stroke="midnightblue" d="M92.3123,-15C100.531,-15 109.18,-15 117.788,-15"/>
<polygon fill="midnightblue" stroke="midnightblue" points="92.1684,-11.5001 82.1684,-15 92.1684,-18.5001 92.1684,-11.5001"/>
</g>
<!-- Node3 -->
<g id="node3" class="node"><title>Node3</title>
<g id="a_node3"><a xlink:href="class_lang_1_1_events_1_1_logging_1_1_stdout_logger.html" target="_top" xlink:title="Logs messages to sys.stdout. ">
<polygon fill="none" stroke="black" points="298,-0 298,-30 440,-30 440,-0 298,-0"/>
<text text-anchor="start" x="306" y="-18" font-family="Helvetica,sans-Serif" font-size="10.00">Lang.Events.Logging.Stdout</text>
<text text-anchor="middle" x="369" y="-7" font-family="Helvetica,sans-Serif" font-size="10.00">Logger</text>
</a>
</g>
</g>
<!-- Node2&#45;&gt;Node3 -->
<g id="edge2" class="edge"><title>Node2&#45;&gt;Node3</title>
<path fill="none" stroke="midnightblue" d="M272.475,-15C280.928,-15 289.468,-15 297.782,-15"/>
<polygon fill="midnightblue" stroke="midnightblue" points="272.228,-11.5001 262.228,-15 272.228,-18.5001 272.228,-11.5001"/>
</g>
</g>
</svg>
