<?xml version="1.0" encoding="UTF-8" standalone="no"?>
<!DOCTYPE svg PUBLIC "-//W3C//DTD SVG 1.1//EN"
 "http://www.w3.org/Graphics/SVG/1.1/DTD/svg11.dtd">
<!-- Generated by graphviz version 2.36.0 (20140111.2315)
 -->
<!-- Title: Graphical Class Hierarchy Pages: 1 -->
<svg width="442pt" height="77pt"
 viewBox="0.00 0.00 442.00 77.00" xmlns="http://www.w3.org/2000/svg" xmlns:xlink="http://www.w3.org/1999/xlink">
<g id="graph0" class="graph" transform="scale(1 1) rotate(0) translate(4 73)">
<title>Graphical Class Hierarchy</title>
<!-- Node1 -->
<g id="node1" class="node"><title>Node1</title>
<polygon fill="none" stroke="#bfbfbf" points="0,-44.5 0,-63.5 98,-63.5 98,-44.5 0,-44.5"/>
<text text-anchor="middle" x="49" y="-51.5" font-family="Helvetica,sans-Serif" font-size="10.00">_ActionsContainer</text>
</g>
<!-- Node2 -->
<g id="node2" class="node"><title>Node2</title>
<g id="a_node2"><a xlink:href="class_lang_1_1_terminal_1_1_arg_parser_1_1_actions_container.html" target="_top" xlink:title="Lang.Terminal.ArgParser.\lActionsContainer">
<polygon fill="none" stroke="black" points="134.5,-39 134.5,-69 265.5,-69 265.5,-39 134.5,-39"/>
<text text-anchor="start" x="142.5" y="-57" font-family="Helvetica,sans-Serif" font-size="10.00">Lang.Terminal.ArgParser.</text>
<text text-anchor="middle" x="200" y="-46" font-family="Helvetica,sans-Serif" font-size="10.00">ActionsContainer</text>
</a>
</g>
</g>
<!-- Node1&#45;&gt;Node2 -->
<g id="edge1" class="edge"><title>Node1&#45;&gt;Node2</title>
<path fill="none" stroke="midnightblue" d="M108.53,-54C116.997,-54 125.754,-54 134.333,-54"/>
<polygon fill="midnightblue" stroke="midnightblue" points="108.376,-50.5001 98.376,-54 108.376,-57.5001 108.376,-50.5001"/>
</g>
<!-- Node3 -->
<g id="node3" class="node"><title>Node3</title>
<g id="a_node3"><a xlink:href="class_lang_1_1_terminal_1_1_arg_parser_1_1_arg_parser.html" target="_top" xlink:title="Supports positional arguments, named required arguments, and named optional arguments, with help in man&#45;page&#45;like format. ">
<polygon fill="none" stroke="black" points="302.5,-17 302.5,-47 433.5,-47 433.5,-17 302.5,-17"/>
<text text-anchor="start" x="310.5" y="-35" font-family="Helvetica,sans-Serif" font-size="10.00">Lang.Terminal.ArgParser.</text>
<text text-anchor="middle" x="368" y="-24" font-family="Helvetica,sans-Serif" font-size="10.00">ArgParser</text>
</a>
</g>
</g>
<!-- Node2&#45;&gt;Node3 -->
<g id="edge2" class="edge"><title>Node2&#45;&gt;Node3</title>
<path fill="none" stroke="midnightblue" d="M275.612,-44.1117C284.499,-42.9339 293.515,-41.739 302.248,-40.5816"/>
<polygon fill="midnightblue" stroke="midnightblue" points="275.109,-40.6477 265.655,-45.4312 276.028,-47.587 275.109,-40.6477"/>
</g>
<!-- Node4 -->
<g id="node4" class="node"><title>Node4</title>
<polygon fill="none" stroke="#bfbfbf" points="155.5,-0.5 155.5,-19.5 244.5,-19.5 244.5,-0.5 155.5,-0.5"/>
<text text-anchor="middle" x="200" y="-7.5" font-family="Helvetica,sans-Serif" font-size="10.00">ArgumentParser</text>
</g>
<!-- Node4&#45;&gt;Node3 -->
<g id="edge3" class="edge"><title>Node4&#45;&gt;Node3</title>
<path fill="none" stroke="midnightblue" d="M254.854,-17.1373C270.032,-19.1488 286.698,-21.3576 302.434,-23.443"/>
<polygon fill="midnightblue" stroke="midnightblue" points="254.988,-13.6245 244.615,-15.7802 254.068,-20.5638 254.988,-13.6245"/>
</g>
</g>
</svg>
