<?xml version="1.0" encoding="UTF-8" standalone="no"?>
<!DOCTYPE svg PUBLIC "-//W3C//DTD SVG 1.1//EN"
 "http://www.w3.org/Graphics/SVG/1.1/DTD/svg11.dtd">
<!-- Generated by graphviz version 2.30.1 (20130219.2202)
 -->
<!-- Title: Graphical Class Hierarchy Pages: 1 -->
<svg width="626pt" height="256pt"
 viewBox="0.00 0.00 626.00 256.00" xmlns="http://www.w3.org/2000/svg" xmlns:xlink="http://www.w3.org/1999/xlink">
<g id="graph0" class="graph" transform="scale(1 1) rotate(0) translate(4 252)">
<title>Graphical Class Hierarchy</title>
<!-- Node1 -->
<g id="node1" class="node"><title>Node1</title>
<g id="a_node1"><a xlink:href="class___sequence_matcher.html" target="_top" xlink:title="_SequenceMatcher">
<polygon fill="none" stroke="black" points="0,-228.5 0,-247.5 98,-247.5 98,-228.5 0,-228.5"/>
<text text-anchor="middle" x="49" y="-235.5" font-family="Helvetica,sans-Serif" font-size="10.00">_SequenceMatcher</text>
</a>
</g>
</g>
<!-- Node2 -->
<g id="node2" class="node"><title>Node2</title>
<g id="a_node2"><a xlink:href="class_lang_1_1_diff_1_1_sequence_matcher.html" target="_top" xlink:title="Improved difflib.SequenceMatcher.">
<polygon fill="none" stroke="black" points="137.5,-228.5 137.5,-247.5 270.5,-247.5 270.5,-228.5 137.5,-228.5"/>
<text text-anchor="middle" x="204" y="-235.5" font-family="Helvetica,sans-Serif" font-size="10.00">Lang.Diff.SequenceMatcher</text>
</a>
</g>
</g>
<!-- Node1&#45;&gt;Node2 -->
<g id="edge1" class="edge"><title>Node1&#45;&gt;Node2</title>
<path fill="none" stroke="midnightblue" d="M108.458,-238C117.884,-238 127.698,-238 137.282,-238"/>
<polygon fill="midnightblue" stroke="midnightblue" points="108.41,-234.5 98.4102,-238 108.41,-241.5 108.41,-234.5"/>
</g>
<!-- Node3 -->
<g id="node3" class="node"><title>Node3</title>
<g id="a_node3"><a xlink:href="classobject.html" target="_top" xlink:title="object">
<polygon fill="none" stroke="black" points="28,-114.5 28,-133.5 70,-133.5 70,-114.5 28,-114.5"/>
<text text-anchor="middle" x="49" y="-121.5" font-family="Helvetica,sans-Serif" font-size="10.00">object</text>
</a>
</g>
</g>
<!-- Node4 -->
<g id="node4" class="node"><title>Node4</title>
<g id="a_node4"><a xlink:href="class_lang_1_1_diff_1_1___block_side.html" target="_top" xlink:title="Lang.Diff._BlockSide">
<polygon fill="none" stroke="black" points="152.5,-190.5 152.5,-209.5 255.5,-209.5 255.5,-190.5 152.5,-190.5"/>
<text text-anchor="middle" x="204" y="-197.5" font-family="Helvetica,sans-Serif" font-size="10.00">Lang.Diff._BlockSide</text>
</a>
</g>
</g>
<!-- Node3&#45;&gt;Node4 -->
<g id="edge2" class="edge"><title>Node3&#45;&gt;Node4</title>
<path fill="none" stroke="midnightblue" d="M69.7057,-140.126C86.0562,-152.806 110.373,-170.094 134,-181 142.122,-184.749 151.134,-187.892 159.892,-190.474"/>
<polygon fill="midnightblue" stroke="midnightblue" points="71.5092,-137.09 61.4966,-133.626 67.1636,-142.578 71.5092,-137.09"/>
</g>
<!-- Node5 -->
<g id="node5" class="node"><title>Node5</title>
<g id="a_node5"><a xlink:href="class_lang_1_1_diff_1_1___elems_block_side.html" target="_top" xlink:title="elems attribute is guaranteed to be an iterable, not indexable">
<polygon fill="none" stroke="black" points="139.5,-152.5 139.5,-171.5 268.5,-171.5 268.5,-152.5 139.5,-152.5"/>
<text text-anchor="middle" x="204" y="-159.5" font-family="Helvetica,sans-Serif" font-size="10.00">Lang.Diff._ElemsBlockSide</text>
</a>
</g>
</g>
<!-- Node3&#45;&gt;Node5 -->
<g id="edge3" class="edge"><title>Node3&#45;&gt;Node5</title>
<path fill="none" stroke="midnightblue" d="M80.0132,-131.454C104.168,-137.453 138.282,-145.926 164.456,-152.427"/>
<polygon fill="midnightblue" stroke="midnightblue" points="80.5509,-127.982 70.0021,-128.968 78.8636,-134.775 80.5509,-127.982"/>
</g>
<!-- Node6 -->
<g id="node6" class="node"><title>Node6</title>
<g id="a_node6"><a xlink:href="class_lang_1_1_diff_1_1___two_side.html" target="_top" xlink:title="Lang.Diff._TwoSide">
<polygon fill="none" stroke="black" points="154.5,-114.5 154.5,-133.5 253.5,-133.5 253.5,-114.5 154.5,-114.5"/>
<text text-anchor="middle" x="204" y="-121.5" font-family="Helvetica,sans-Serif" font-size="10.00">Lang.Diff._TwoSide</text>
</a>
</g>
</g>
<!-- Node3&#45;&gt;Node6 -->
<g id="edge4" class="edge"><title>Node3&#45;&gt;Node6</title>
<path fill="none" stroke="midnightblue" d="M80.0087,-124C101.156,-124 129.939,-124 154.343,-124"/>
<polygon fill="midnightblue" stroke="midnightblue" points="80.0021,-120.5 70.0021,-124 80.002,-127.5 80.0021,-120.5"/>
</g>
<!-- Node3&#45;&gt;Node2 -->
<g id="edge12" class="edge"><title>Node3&#45;&gt;Node2</title>
<path fill="none" stroke="midnightblue" d="M61.3535,-142.306C75.6652,-163.855 102.271,-199.207 134,-219 140.22,-222.88 147.238,-225.981 154.355,-228.455"/>
<polygon fill="midnightblue" stroke="midnightblue" points="64.1916,-140.248 55.8308,-133.741 58.3086,-144.042 64.1916,-140.248"/>
</g>
<!-- Node14 -->
<g id="node14" class="node"><title>Node14</title>
<g id="a_node14"><a xlink:href="class_lang_1_1_iter_1_1_peekable_iterable.html" target="_top" xlink:title="Lang.Iter.PeekableIterable">
<polygon fill="none" stroke="black" points="141,-76.5 141,-95.5 267,-95.5 267,-76.5 141,-76.5"/>
<text text-anchor="middle" x="204" y="-83.5" font-family="Helvetica,sans-Serif" font-size="10.00">Lang.Iter.PeekableIterable</text>
</a>
</g>
</g>
<!-- Node3&#45;&gt;Node14 -->
<g id="edge13" class="edge"><title>Node3&#45;&gt;Node14</title>
<path fill="none" stroke="midnightblue" d="M80.0132,-116.546C104.168,-110.547 138.282,-102.074 164.456,-95.5729"/>
<polygon fill="midnightblue" stroke="midnightblue" points="78.8636,-113.225 70.0021,-119.032 80.5509,-120.018 78.8636,-113.225"/>
</g>
<!-- Node15 -->
<g id="node15" class="node"><title>Node15</title>
<g id="a_node15"><a xlink:href="class_lang_1_1_logging_1_1_logger_abstract.html" target="_top" xlink:title="Lang.Logging.LoggerAbstract">
<polygon fill="none" stroke="black" points="134,-38.5 134,-57.5 274,-57.5 274,-38.5 134,-38.5"/>
<text text-anchor="middle" x="204" y="-45.5" font-family="Helvetica,sans-Serif" font-size="10.00">Lang.Logging.LoggerAbstract</text>
</a>
</g>
</g>
<!-- Node3&#45;&gt;Node15 -->
<g id="edge14" class="edge"><title>Node3&#45;&gt;Node15</title>
<path fill="none" stroke="midnightblue" d="M69.7057,-107.874C86.0562,-95.1939 110.373,-77.9061 134,-67 142.122,-63.2507 151.134,-60.1075 159.892,-57.526"/>
<polygon fill="midnightblue" stroke="midnightblue" points="67.1636,-105.422 61.4966,-114.374 71.5092,-110.91 67.1636,-105.422"/>
</g>
<!-- Node17 -->
<g id="node17" class="node"><title>Node17</title>
<g id="a_node17"><a xlink:href="class_lang_1_1_struct_1_1___ordered_set_1_1_link.html" target="_top" xlink:title="Lang.Struct._OrderedSet.Link">
<polygon fill="none" stroke="black" points="135,-0.5 135,-19.5 273,-19.5 273,-0.5 135,-0.5"/>
<text text-anchor="middle" x="204" y="-7.5" font-family="Helvetica,sans-Serif" font-size="10.00">Lang.Struct._OrderedSet.Link</text>
</a>
</g>
</g>
<!-- Node3&#45;&gt;Node17 -->
<g id="edge16" class="edge"><title>Node3&#45;&gt;Node17</title>
<path fill="none" stroke="midnightblue" d="M61.3535,-105.694C75.6652,-84.1452 102.271,-48.7929 134,-29 140.22,-25.1201 147.238,-22.0193 154.355,-19.5447"/>
<polygon fill="midnightblue" stroke="midnightblue" points="58.3086,-103.958 55.8308,-114.259 64.1916,-107.752 58.3086,-103.958"/>
</g>
<!-- Node7 -->
<g id="node7" class="node"><title>Node7</title>
<g id="a_node7"><a xlink:href="class_lang_1_1_diff_1_1___block.html" target="_top" xlink:title="Lang.Diff._Block">
<polygon fill="none" stroke="black" points="341,-209.5 341,-228.5 425,-228.5 425,-209.5 341,-209.5"/>
<text text-anchor="middle" x="383" y="-216.5" font-family="Helvetica,sans-Serif" font-size="10.00">Lang.Diff._Block</text>
</a>
</g>
</g>
<!-- Node6&#45;&gt;Node7 -->
<g id="edge5" class="edge"><title>Node6&#45;&gt;Node7</title>
<path fill="none" stroke="midnightblue" d="M262.91,-136.354C266.829,-138.26 270.576,-140.46 274,-143 298.067,-160.848 285.838,-182.281 310,-200 318.966,-206.575 330.033,-210.876 340.778,-213.69"/>
<polygon fill="midnightblue" stroke="midnightblue" points="264.093,-133.055 253.517,-132.419 261.388,-139.512 264.093,-133.055"/>
</g>
<!-- Node10 -->
<g id="node10" class="node"><title>Node10</title>
<g id="a_node10"><a xlink:href="class_lang_1_1_diff_1_1___elem_block_match.html" target="_top" xlink:title="Lang.Diff._ElemBlockMatch">
<polygon fill="none" stroke="black" points="317.5,-171.5 317.5,-190.5 448.5,-190.5 448.5,-171.5 317.5,-171.5"/>
<text text-anchor="middle" x="383" y="-178.5" font-family="Helvetica,sans-Serif" font-size="10.00">Lang.Diff._ElemBlockMatch</text>
</a>
</g>
</g>
<!-- Node6&#45;&gt;Node10 -->
<g id="edge8" class="edge"><title>Node6&#45;&gt;Node10</title>
<path fill="none" stroke="midnightblue" d="M255.23,-136.452C261.618,-138.437 268.011,-140.628 274,-143 290.82,-149.663 293.145,-155.427 310,-162 319.274,-165.617 329.483,-168.776 339.226,-171.427"/>
<polygon fill="midnightblue" stroke="midnightblue" points="255.837,-132.981 245.255,-133.504 253.854,-139.694 255.837,-132.981"/>
</g>
<!-- Node11 -->
<g id="node11" class="node"><title>Node11</title>
<g id="a_node11"><a xlink:href="class_lang_1_1_diff_1_1___elem_block_mismatch.html" target="_top" xlink:title="Lang.Diff._ElemBlockMismatch">
<polygon fill="none" stroke="black" points="310,-133.5 310,-152.5 456,-152.5 456,-133.5 310,-133.5"/>
<text text-anchor="middle" x="383" y="-140.5" font-family="Helvetica,sans-Serif" font-size="10.00">Lang.Diff._ElemBlockMismatch</text>
</a>
</g>
</g>
<!-- Node6&#45;&gt;Node11 -->
<g id="edge9" class="edge"><title>Node6&#45;&gt;Node11</title>
<path fill="none" stroke="midnightblue" d="M263.807,-130.313C278.532,-131.893 294.498,-133.607 309.791,-135.249"/>
<polygon fill="midnightblue" stroke="midnightblue" points="264.151,-126.83 253.835,-129.242 263.404,-133.79 264.151,-126.83"/>
</g>
<!-- Node12 -->
<g id="node12" class="node"><title>Node12</title>
<g id="a_node12"><a xlink:href="class_lang_1_1_diff_1_1___elem_match.html" target="_top" xlink:title="Lang.Diff._ElemMatch">
<polygon fill="none" stroke="black" points="328.5,-95.5 328.5,-114.5 437.5,-114.5 437.5,-95.5 328.5,-95.5"/>
<text text-anchor="middle" x="383" y="-102.5" font-family="Helvetica,sans-Serif" font-size="10.00">Lang.Diff._ElemMatch</text>
</a>
</g>
</g>
<!-- Node6&#45;&gt;Node12 -->
<g id="edge10" class="edge"><title>Node6&#45;&gt;Node12</title>
<path fill="none" stroke="midnightblue" d="M263.837,-117.684C284.667,-115.448 307.976,-112.946 328.352,-110.759"/>
<polygon fill="midnightblue" stroke="midnightblue" points="263.404,-114.21 253.835,-118.758 264.151,-121.17 263.404,-114.21"/>
</g>
<!-- Node13 -->
<g id="node13" class="node"><title>Node13</title>
<g id="a_node13"><a xlink:href="class_lang_1_1_diff_1_1___elem_mismatch.html" target="_top" xlink:title="Lang.Diff._ElemMismatch">
<polygon fill="none" stroke="black" points="321.5,-57.5 321.5,-76.5 444.5,-76.5 444.5,-57.5 321.5,-57.5"/>
<text text-anchor="middle" x="383" y="-64.5" font-family="Helvetica,sans-Serif" font-size="10.00">Lang.Diff._ElemMismatch</text>
</a>
</g>
</g>
<!-- Node6&#45;&gt;Node13 -->
<g id="edge11" class="edge"><title>Node6&#45;&gt;Node13</title>
<path fill="none" stroke="midnightblue" d="M255.23,-111.548C261.618,-109.563 268.011,-107.372 274,-105 290.82,-98.3371 293.145,-92.5728 310,-86 319.274,-82.3835 329.483,-79.2236 339.226,-76.5728"/>
<polygon fill="midnightblue" stroke="midnightblue" points="253.854,-108.306 245.255,-114.496 255.837,-115.019 253.854,-108.306"/>
</g>
<!-- Node8 -->
<g id="node8" class="node"><title>Node8</title>
<g id="a_node8"><a xlink:href="class_lang_1_1_diff_1_1___block_match.html" target="_top" xlink:title="Lang.Diff._BlockMatch">
<polygon fill="none" stroke="black" points="500,-228.5 500,-247.5 610,-247.5 610,-228.5 500,-228.5"/>
<text text-anchor="middle" x="555" y="-235.5" font-family="Helvetica,sans-Serif" font-size="10.00">Lang.Diff._BlockMatch</text>
</a>
</g>
</g>
<!-- Node7&#45;&gt;Node8 -->
<g id="edge6" class="edge"><title>Node7&#45;&gt;Node8</title>
<path fill="none" stroke="midnightblue" d="M435.189,-224.721C455.571,-226.999 479.052,-229.623 499.729,-231.934"/>
<polygon fill="midnightblue" stroke="midnightblue" points="435.479,-221.232 425.152,-223.599 434.702,-228.189 435.479,-221.232"/>
</g>
<!-- Node9 -->
<g id="node9" class="node"><title>Node9</title>
<g id="a_node9"><a xlink:href="class_lang_1_1_diff_1_1___block_mismatch.html" target="_top" xlink:title="Lang.Diff._BlockMismatch">
<polygon fill="none" stroke="black" points="492.5,-190.5 492.5,-209.5 617.5,-209.5 617.5,-190.5 492.5,-190.5"/>
<text text-anchor="middle" x="555" y="-197.5" font-family="Helvetica,sans-Serif" font-size="10.00">Lang.Diff._BlockMismatch</text>
</a>
</g>
</g>
<!-- Node7&#45;&gt;Node9 -->
<g id="edge7" class="edge"><title>Node7&#45;&gt;Node9</title>
<path fill="none" stroke="midnightblue" d="M435.151,-213.283C453.139,-211.273 473.544,-208.992 492.307,-206.895"/>
<polygon fill="midnightblue" stroke="midnightblue" points="434.702,-209.811 425.152,-214.401 435.479,-216.768 434.702,-209.811"/>
</g>
<!-- Node16 -->
<g id="node16" class="node"><title>Node16</title>
<g id="a_node16"><a xlink:href="class_lang_1_1_logging_1_1_stdout_logger.html" target="_top" xlink:title="Logs messages to sys.stdout.">
<polygon fill="none" stroke="black" points="317.5,-19.5 317.5,-38.5 448.5,-38.5 448.5,-19.5 317.5,-19.5"/>
<text text-anchor="middle" x="383" y="-26.5" font-family="Helvetica,sans-Serif" font-size="10.00">Lang.Logging.StdoutLogger</text>
</a>
</g>
</g>
<!-- Node15&#45;&gt;Node16 -->
<g id="edge15" class="edge"><title>Node15&#45;&gt;Node16</title>
<path fill="none" stroke="midnightblue" d="M284.31,-39.4865C295.409,-38.2951 306.702,-37.0829 317.481,-35.9257"/>
<polygon fill="midnightblue" stroke="midnightblue" points="283.763,-36.0251 274.193,-40.5725 284.51,-42.9851 283.763,-36.0251"/>
</g>
</g>
</svg>
